<?xml version="1.0" encoding="UTF-8"?>
<!DOCTYPE svg PUBLIC "-//W3C//DTD SVG 1.1//EN" "http://www.w3.org/Graphics/SVG/1.1/DTD/svg11.dtd">
<svg version="1.2" width="170mm" height="230mm" viewBox="0 0 17000 23000" preserveAspectRatio="xMidYMid" fill-rule="evenodd" clip-path="url(#presentation_clip_path)" stroke-width="28.222" stroke-linejoin="round" xmlns="http://www.w3.org/2000/svg" xmlns:ooo="http://xml.openoffice.org/svg/export" xmlns:xlink="http://www.w3.org/1999/xlink" xml:space="preserve">
 <defs class="ClipPathGroup">
  <clipPath id="presentation_clip_path" clipPathUnits="userSpaceOnUse">
   <rect x="0" y="0" width="17000" height="23000"/>
  </clipPath>
 </defs>
 <defs class="TextShapeIndex">
  <g ooo:slide="id1" ooo:id-list="id3 id4 id5 id6 id7 id8 id9 id10 id11 id12 id13 id14 id15 id16 id17 id18 id19 id20 id21 id22 id23 id24 id25 id26 id27 id28 id29 id30 id31 id32 id33 id34"/>
 </defs>
 <defs class="EmbeddedBulletChars">
  <g id="bullet-char-template(57356)" transform="scale(0.00048828125,-0.00048828125)">
   <path d="M 580,1141 L 1163,571 580,0 -4,571 580,1141 Z"/>
  </g>
  <g id="bullet-char-template(57354)" transform="scale(0.00048828125,-0.00048828125)">
   <path d="M 8,1128 L 1137,1128 1137,0 8,0 8,1128 Z"/>
  </g>
  <g id="bullet-char-template(10146)" transform="scale(0.00048828125,-0.00048828125)">
   <path d="M 174,0 L 602,739 174,1481 1456,739 174,0 Z M 1358,739 L 309,1346 659,739 1358,739 Z"/>
  </g>
  <g id="bullet-char-template(10132)" transform="scale(0.00048828125,-0.00048828125)">
   <path d="M 2015,739 L 1276,0 717,0 1260,543 174,543 174,936 1260,936 717,1481 1274,1481 2015,739 Z"/>
  </g>
  <g id="bullet-char-template(10007)" transform="scale(0.00048828125,-0.00048828125)">
   <path d="M 0,-2 C -7,14 -16,27 -25,37 L 356,567 C 262,823 215,952 215,954 215,979 228,992 255,992 264,992 276,990 289,987 310,991 331,999 354,1012 L 381,999 492,748 772,1049 836,1024 860,1049 C 881,1039 901,1025 922,1006 886,937 835,863 770,784 769,783 710,716 594,584 L 774,223 C 774,196 753,168 711,139 L 727,119 C 717,90 699,76 672,76 641,76 570,178 457,381 L 164,-76 C 142,-110 111,-127 72,-127 30,-127 9,-110 8,-76 1,-67 -2,-52 -2,-32 -2,-23 -1,-13 0,-2 Z"/>
  </g>
  <g id="bullet-char-template(10004)" transform="scale(0.00048828125,-0.00048828125)">
   <path d="M 285,-33 C 182,-33 111,30 74,156 52,228 41,333 41,471 41,549 55,616 82,672 116,743 169,778 240,778 293,778 328,747 346,684 L 369,508 C 377,444 397,411 428,410 L 1163,1116 C 1174,1127 1196,1133 1229,1133 1271,1133 1292,1118 1292,1087 L 1292,965 C 1292,929 1282,901 1262,881 L 442,47 C 390,-6 338,-33 285,-33 Z"/>
  </g>
  <g id="bullet-char-template(9679)" transform="scale(0.00048828125,-0.00048828125)">
   <path d="M 813,0 C 632,0 489,54 383,161 276,268 223,411 223,592 223,773 276,916 383,1023 489,1130 632,1184 813,1184 992,1184 1136,1130 1245,1023 1353,916 1407,772 1407,592 1407,412 1353,268 1245,161 1136,54 992,0 813,0 Z"/>
  </g>
  <g id="bullet-char-template(8226)" transform="scale(0.00048828125,-0.00048828125)">
   <path d="M 346,457 C 273,457 209,483 155,535 101,586 74,649 74,723 74,796 101,859 155,911 209,963 273,989 346,989 419,989 480,963 531,910 582,859 608,796 608,723 608,648 583,586 532,535 482,483 420,457 346,457 Z"/>
  </g>
  <g id="bullet-char-template(8211)" transform="scale(0.00048828125,-0.00048828125)">
   <path d="M -4,459 L 1135,459 1135,606 -4,606 -4,459 Z"/>
  </g>
 </defs>
 <defs class="TextEmbeddedBitmaps"/>
 <g>
  <g id="id2" class="Master_Slide">
   <g id="bg-id2" class="Background"/>
   <g id="bo-id2" class="BackgroundObjects"/>
  </g>
 </g>
 <g class="SlideGroup">
  <g>
   <g id="id1" class="Slide" clip-path="url(#presentation_clip_path)">
    <g class="Page">
     <g class="com.sun.star.drawing.CustomShape">
      <g id="id3">
       <path fill="rgb(204,255,204)" stroke="none" d="M 2126,1889 C 1626,1889 1126,1698 1126,1507 1126,1316 1626,1126 2126,1126 L 6351,1126 C 6851,1126 7352,1316 7352,1507 7352,1698 6851,1889 6351,1889 L 2126,1889 Z M 1126,1126 L 1126,1126 Z M 7352,1889 L 7352,1889 Z"/>
       <path fill="none" stroke="rgb(52,101,175)" d="M 2126,1889 C 1626,1889 1126,1698 1126,1507 1126,1316 1626,1126 2126,1126 L 6351,1126 C 6851,1126 7352,1316 7352,1507 7352,1698 6851,1889 6351,1889 L 2126,1889 Z"/>
       <path fill="none" stroke="rgb(52,101,175)" d="M 1126,1126 L 1126,1126 Z"/>
       <path fill="none" stroke="rgb(52,101,175)" d="M 7352,1889 L 7352,1889 Z"/>
       <text class="TextShape"><tspan class="TextParagraph" font-family="Arial, sans-serif" font-size="353px" font-weight="400"><tspan class="TextPosition" x="1771" y="1630"><tspan fill="rgb(0,0,0)" stroke="none">jettyBeforeIntegrationTest starts</tspan></tspan></tspan></text>
      </g>
     </g>
     <g class="com.sun.star.drawing.CustomShape">
      <g id="id4">
       <path fill="rgb(204,255,204)" stroke="none" d="M 2320,3538 L 4240,2776 6160,3538 4240,4300 2320,3538 2320,3538 Z M 2320,2776 L 2320,2776 Z M 6160,4300 L 6160,4300 Z"/>
       <path fill="none" stroke="rgb(52,101,175)" d="M 2320,3538 L 4240,2776 6160,3538 4240,4300 2320,3538 2320,3538 Z"/>
       <path fill="none" stroke="rgb(52,101,175)" d="M 2320,2776 L 2320,2776 Z"/>
       <path fill="none" stroke="rgb(52,101,175)" d="M 6160,4300 L 6160,4300 Z"/>
       <text class="TextShape"><tspan class="TextParagraph" font-family="Arial, sans-serif" font-size="353px" font-weight="400"><tspan class="TextPosition" x="3622" y="3462"><tspan fill="rgb(0,0,0)" stroke="none">sources</tspan></tspan><tspan class="TextPosition" x="3342" y="3860"><tspan fill="rgb(0,0,0)" stroke="none">up-to-date?</tspan></tspan></tspan></text>
      </g>
     </g>
     <g class="com.sun.star.drawing.ConnectorShape">
      <g id="id5">
       <path fill="none" stroke="rgb(0,0,0)" d="M 4240,1888 L 4241,2347"/>
       <path fill="rgb(0,0,0)" stroke="none" d="M 4241,2777 L 4390,2327 4090,2327 4241,2777 Z"/>
      </g>
     </g>
     <g class="com.sun.star.drawing.CustomShape">
      <g id="id6">
       <path fill="rgb(204,255,204)" stroke="none" d="M 6376,4370 L 9638,4370 9638,5190 6376,5190 6376,4370 6376,4370 Z M 6376,4370 L 6376,4370 Z M 9638,5191 L 9638,5191 Z"/>
       <path fill="none" stroke="rgb(52,101,175)" d="M 6376,4370 L 9638,4370 9638,5190 6376,5190 6376,4370 6376,4370 Z"/>
       <path fill="none" stroke="rgb(52,101,175)" d="M 6376,4370 L 6376,4370 Z"/>
       <path fill="none" stroke="rgb(52,101,175)" d="M 9638,5191 L 9638,5191 Z"/>
       <text class="TextShape"><tspan class="TextParagraph" font-family="Arial, sans-serif" font-size="353px" font-weight="400"><tspan class="TextPosition" x="7403" y="4903"><tspan fill="rgb(0,0,0)" stroke="none">compile</tspan></tspan></tspan></text>
      </g>
     </g>
     <g class="com.sun.star.drawing.ConnectorShape">
      <g id="id7">
       <path fill="none" stroke="rgb(0,0,0)" d="M 6160,3539 L 8008,3539 8008,3940"/>
       <path fill="rgb(0,0,0)" stroke="none" d="M 8008,4370 L 8158,3920 7858,3920 8008,4370 Z"/>
       <text class="TextShape"><tspan class="TextParagraph" font-family="Arial, sans-serif" font-size="353px" font-weight="400"><tspan class="TextPosition" x="6890" y="3879"><tspan fill="rgb(0,0,0)" stroke="none">no</tspan></tspan></tspan></text>
      </g>
     </g>
     <g class="com.sun.star.drawing.ConnectorShape">
      <g id="id8">
       <path fill="none" stroke="rgb(0,0,0)" d="M 4241,4300 L 4211,6029"/>
       <path fill="rgb(0,0,0)" stroke="none" d="M 4203,6459 L 4361,6012 4061,6006 4203,6459 Z"/>
       <text class="TextShape"><tspan class="TextParagraph" font-family="Arial, sans-serif" font-size="353px" font-weight="400"><tspan class="TextPosition" x="3557" y="4906"><tspan fill="rgb(0,0,0)" stroke="none">yes        </tspan></tspan></tspan></text>
      </g>
     </g>
     <g class="com.sun.star.drawing.ConnectorShape">
      <g id="id9">
       <path fill="none" stroke="rgb(0,0,0)" d="M 8008,5190 L 8008,5825 4203,5825 4203,6029"/>
       <path fill="rgb(0,0,0)" stroke="none" d="M 4203,6459 L 4353,6009 4053,6009 4203,6459 Z"/>
      </g>
     </g>
     <g class="com.sun.star.drawing.CustomShape">
      <g id="id10">
       <path fill="rgb(204,255,204)" stroke="none" d="M 1814,6459 L 6590,6459 6590,7514 1814,7514 1814,6459 1814,6459 Z M 1814,6459 L 1814,6459 Z M 6590,7514 L 6590,7514 Z"/>
       <path fill="none" stroke="rgb(52,101,175)" d="M 1814,6459 L 6590,6459 6590,7514 1814,7514 1814,6459 1814,6459 Z"/>
       <path fill="none" stroke="rgb(52,101,175)" d="M 1814,6459 L 1814,6459 Z"/>
       <path fill="none" stroke="rgb(52,101,175)" d="M 6590,7514 L 6590,7514 Z"/>
       <text class="TextShape"><tspan class="TextParagraph" font-family="Arial, sans-serif" font-size="353px" font-weight="400"><tspan class="TextPosition" x="2722" y="6910"><tspan fill="rgb(0,0,0)" stroke="none">start Jetty process </tspan></tspan><tspan class="TextPosition" x="2250" y="7308"><tspan fill="rgb(0,0,0)" stroke="none">against compiled classes</tspan></tspan></tspan></text>
      </g>
     </g>
     <g class="com.sun.star.drawing.ConnectorShape">
      <g id="id11">
       <path fill="none" stroke="rgb(0,0,0)" d="M 4203,7513 C 4203,7529 4206,7545 4213,7561"/>
       <path fill="none" stroke="rgb(0,0,0)" d="M 4230,7591 C 4241,7606 4255,7620 4272,7635"/>
       <path fill="none" stroke="rgb(0,0,0)" d="M 4294,7651 C 4306,7660 4319,7668 4334,7677"/>
       <path fill="none" stroke="rgb(0,0,0)" d="M 4363,7693 C 4379,7701 4397,7709 4415,7717"/>
       <path fill="none" stroke="rgb(0,0,0)" d="M 4452,7732 C 4468,7738 4484,7744 4501,7750"/>
       <path fill="none" stroke="rgb(0,0,0)" d="M 4529,7760 C 4544,7765 4560,7770 4576,7775"/>
       <path fill="none" stroke="rgb(0,0,0)" d="M 4608,7784 C 4624,7789 4641,7793 4659,7798"/>
       <path fill="none" stroke="rgb(0,0,0)" d="M 4694,7807 C 4712,7812 4731,7816 4751,7821"/>
       <path fill="none" stroke="rgb(0,0,0)" d="M 4789,7829 C 4806,7833 4823,7837 4840,7840"/>
       <path fill="none" stroke="rgb(0,0,0)" d="M 4870,7847 C 4886,7850 4902,7853 4918,7856"/>
       <path fill="none" stroke="rgb(0,0,0)" d="M 4949,7862 C 4966,7865 4983,7868 5000,7871"/>
       <path fill="none" stroke="rgb(0,0,0)" d="M 5033,7877 C 5051,7880 5068,7883 5086,7886"/>
       <path fill="none" stroke="rgb(0,0,0)" d="M 5122,7891 C 5140,7894 5159,7897 5178,7900"/>
       <path fill="none" stroke="rgb(0,0,0)" d="M 5214,7906 C 5234,7908 5253,7911 5273,7914"/>
       <path fill="none" stroke="rgb(0,0,0)" d="M 5306,7919 C 5322,7921 5338,7923 5354,7925"/>
       <path fill="none" stroke="rgb(0,0,0)" d="M 5385,7929 C 5402,7931 5418,7933 5435,7935"/>
       <path fill="none" stroke="rgb(0,0,0)" d="M 5467,7939 C 5484,7941 5501,7943 5519,7945"/>
       <path fill="none" stroke="rgb(0,0,0)" d="M 5552,7949 C 5570,7951 5587,7953 5605,7955"/>
       <path fill="none" stroke="rgb(0,0,0)" d="M 5640,7959 C 5658,7961 5676,7963 5694,7965"/>
       <path fill="none" stroke="rgb(0,0,0)" d="M 5730,7968 C 5748,7970 5767,7972 5786,7974"/>
       <path fill="none" stroke="rgb(0,0,0)" d="M 5823,7977 C 5842,7979 5861,7981 5880,7983"/>
       <path fill="none" stroke="rgb(0,0,0)" d="M 5914,7986 C 5930,7988 5947,7989 5963,7990"/>
       <path fill="none" stroke="rgb(0,0,0)" d="M 5995,7993 C 6011,7995 6028,7996 6045,7998"/>
       <path fill="none" stroke="rgb(0,0,0)" d="M 6077,8000 C 6094,8002 6111,8003 6128,8004"/>
       <path fill="none" stroke="rgb(0,0,0)" d="M 6161,8007 C 6179,8008 6196,8010 6213,8011"/>
       <path fill="none" stroke="rgb(0,0,0)" d="M 6247,8014 C 6265,8015 6283,8016 6301,8018"/>
       <path fill="none" stroke="rgb(0,0,0)" d="M 6335,8020 C 6353,8022 6371,8023 6390,8024"/>
       <path fill="none" stroke="rgb(0,0,0)" d="M 6425,8027 C 6443,8028 6462,8029 6481,8030"/>
       <path fill="none" stroke="rgb(0,0,0)" d="M 6517,8033 C 6535,8034 6554,8035 6573,8036"/>
       <path fill="none" stroke="rgb(0,0,0)" d="M 6610,8039 C 6628,8040 6646,8041 6664,8042"/>
       <path fill="none" stroke="rgb(0,0,0)" d="M 6696,8044 C 6712,8045 6729,8046 6745,8047"/>
       <path fill="none" stroke="rgb(0,0,0)" d="M 6778,8049 C 6794,8050 6811,8051 6828,8052"/>
       <path fill="none" stroke="rgb(0,0,0)" d="M 6861,8054 C 6878,8055 6895,8055 6912,8056"/>
       <path fill="none" stroke="rgb(0,0,0)" d="M 6946,8058 C 6963,8059 6980,8060 6998,8061"/>
       <path fill="none" stroke="rgb(0,0,0)" d="M 7032,8063 C 7049,8064 7067,8064 7085,8065"/>
       <path fill="none" stroke="rgb(0,0,0)" d="M 7119,8067 C 7137,8068 7155,8069 7173,8070"/>
       <path fill="none" stroke="rgb(0,0,0)" d="M 7208,8071 C 7226,8072 7244,8073 7262,8074"/>
       <path fill="none" stroke="rgb(0,0,0)" d="M 7298,8075 C 7316,8076 7335,8077 7353,8078"/>
       <path fill="none" stroke="rgb(0,0,0)" d="M 7389,8079 C 7408,8080 7427,8081 7445,8082"/>
       <path fill="none" stroke="rgb(0,0,0)" d="M 7482,8083 C 7500,8084 7518,8085 7537,8085"/>
       <path fill="none" stroke="rgb(0,0,0)" d="M 7569,8087 C 7585,8087 7602,8088 7619,8089"/>
       <path fill="none" stroke="rgb(0,0,0)" d="M 7651,8090 C 7668,8091 7685,8091 7702,8092"/>
       <path fill="none" stroke="rgb(0,0,0)" d="M 7735,8093 C 7752,8094 7769,8094 7786,8095"/>
       <path fill="none" stroke="rgb(0,0,0)" d="M 7819,8096 C 7837,8097 7854,8097 7871,8098"/>
       <path fill="none" stroke="rgb(0,0,0)" d="M 7905,8099 C 7922,8100 7940,8100 7957,8101"/>
       <path fill="none" stroke="rgb(0,0,0)" d="M 7991,8102 C 8009,8102 8027,8103 8044,8104"/>
       <path fill="none" stroke="rgb(0,0,0)" d="M 8079,8105 C 8097,8105 8115,8106 8133,8106"/>
       <path fill="none" stroke="rgb(0,0,0)" d="M 8167,8107 C 8185,8108 8204,8108 8222,8109"/>
       <path fill="none" stroke="rgb(0,0,0)" d="M 8257,8110 C 8275,8110 8293,8111 8312,8111"/>
       <path fill="none" stroke="rgb(0,0,0)" d="M 8347,8112 C 8366,8113 8384,8113 8403,8114"/>
       <path fill="none" stroke="rgb(0,0,0)" d="M 8439,8115 C 8458,8115 8476,8116 8495,8116"/>
       <path fill="none" stroke="rgb(0,0,0)" d="M 8531,8117 C 8548,8118 8565,8118 8582,8118"/>
       <path fill="none" stroke="rgb(0,0,0)" d="M 8615,8119 C 8632,8119 8648,8120 8665,8120"/>
       <path fill="none" stroke="rgb(0,0,0)" d="M 8698,8121 C 8715,8121 8732,8122 8749,8122"/>
       <path fill="none" stroke="rgb(0,0,0)" d="M 8782,8123 C 8799,8123 8816,8124 8834,8124"/>
       <path fill="none" stroke="rgb(0,0,0)" d="M 8867,8125 C 8884,8125 8902,8125 8919,8126"/>
       <path fill="none" stroke="rgb(0,0,0)" d="M 8953,8126 C 8970,8127 8988,8127 9005,8127"/>
       <path fill="none" stroke="rgb(0,0,0)" d="M 9039,8128 C 9057,8128 9074,8129 9092,8129"/>
       <path fill="none" stroke="rgb(0,0,0)" d="M 9126,8130 C 9144,8130 9162,8130 9180,8131"/>
       <path fill="none" stroke="rgb(0,0,0)" d="M 9214,8131 C 9232,8131 9250,8132 9268,8132"/>
       <path fill="none" stroke="rgb(0,0,0)" d="M 9303,8133 C 9321,8133 9339,8133 9357,8133"/>
       <path fill="none" stroke="rgb(0,0,0)" d="M 9392,8134 C 9411,8134 9429,8134 9447,8135"/>
       <path fill="none" stroke="rgb(0,0,0)" d="M 9483,8135 C 9501,8136 9519,8136 9538,8136"/>
       <path fill="none" stroke="rgb(0,0,0)" d="M 9574,8137 C 9592,8137 9611,8137 9629,8137"/>
       <path fill="none" stroke="rgb(0,0,0)" d="M 9666,8138 C 9683,8138 9701,8138 9718,8138"/>
       <path fill="none" stroke="rgb(0,0,0)" d="M 9751,8139 C 9768,8139 9785,8139 9802,8139"/>
       <path fill="none" stroke="rgb(0,0,0)" d="M 9835,8140 C 9851,8140 9869,8140 9886,8140"/>
       <path fill="none" stroke="rgb(0,0,0)" d="M 9919,8141 C 9936,8141 9953,8141 9970,8141"/>
       <path fill="none" stroke="rgb(0,0,0)" d="M 10003,8141 C 10021,8142 10038,8142 10055,8142"/>
       <path fill="none" stroke="rgb(0,0,0)" d="M 10089,8142 C 10106,8142 10123,8143 10141,8143"/>
       <path fill="none" stroke="rgb(0,0,0)" d="M 10175,8143 C 10192,8143 10210,8143 10227,8143"/>
       <path fill="none" stroke="rgb(0,0,0)" d="M 10261,8144 C 10279,8144 10297,8144 10314,8144"/>
       <path fill="none" stroke="rgb(0,0,0)" d="M 10349,8144 C 10366,8144 10384,8145 10402,8145"/>
       <path fill="none" stroke="rgb(0,0,0)" d="M 10436,8145 C 10454,8145 10472,8145 10490,8145"/>
       <path fill="none" stroke="rgb(0,0,0)" d="M 10525,8145 C 10543,8146 10561,8146 10579,8146"/>
       <path fill="none" stroke="rgb(0,0,0)" d="M 10614,8146 C 10632,8146 10650,8146 10668,8146"/>
       <path fill="none" stroke="rgb(0,0,0)" d="M 10704,8146 C 10722,8146 10740,8147 10758,8147"/>
       <path fill="none" stroke="rgb(0,0,0)" d="M 10794,8147 C 10812,8147 10831,8147 10849,8147"/>
       <path fill="none" stroke="rgb(0,0,0)" d="M 10885,8147 C 10903,8147 10922,8147 10941,8147"/>
       <path fill="none" stroke="rgb(0,0,0)" d="M 10977,8147 C 10977,8147 10978,8147 10978,8147"/>
       <path fill="rgb(0,0,0)" stroke="none" d="M 11417,8148 L 10967,7997 10967,8297 11417,8148 Z"/>
       <text class="TextShape"><tspan class="TextParagraph" font-family="Arial, sans-serif" font-size="353px" font-weight="400"><tspan class="TextPosition" x="8857" y="7954"><tspan fill="rgb(0,0,0)" stroke="none">start process   </tspan></tspan></tspan></text>
      </g>
     </g>
     <g class="com.sun.star.drawing.CustomShape">
      <g id="id12">
       <path fill="rgb(255,255,204)" stroke="none" d="M 11416,11928 L 15482,11928 15482,13100 11416,13100 11416,11928 11416,11928 Z M 11416,11928 L 11416,11928 Z M 15482,13100 L 15482,13100 Z"/>
       <path fill="none" stroke="rgb(52,101,175)" d="M 11416,11928 L 15482,11928 15482,13100 11416,13100 11416,11928 11416,11928 Z"/>
       <path fill="none" stroke="rgb(52,101,175)" d="M 11416,11928 L 11416,11928 Z"/>
       <path fill="none" stroke="rgb(52,101,175)" d="M 15482,13100 L 15482,13100 Z"/>
       <text class="TextShape"><tspan class="TextParagraph" font-family="Arial, sans-serif" font-size="353px" font-weight="400"><tspan class="TextPosition" x="11808" y="12438"><tspan fill="rgb(0,0,0)" stroke="none">send “started” signal </tspan></tspan></tspan><tspan class="TextParagraph" font-family="Arial, sans-serif" font-size="353px" font-weight="400"><tspan class="TextPosition" x="12384" y="12836"><tspan fill="rgb(0,0,0)" stroke="none">to </tspan><tspan font-weight="700" fill="rgb(0,0,0)" stroke="none">statusPort</tspan></tspan></tspan></text>
      </g>
     </g>
     <g class="com.sun.star.drawing.ConnectorShape">
      <g id="id13">
       <path fill="none" stroke="rgb(0,0,0)" d="M 4203,7513 L 4229,8691"/>
       <path fill="rgb(0,0,0)" stroke="none" d="M 4239,9121 L 4379,8668 4079,8674 4239,9121 Z"/>
      </g>
     </g>
     <g class="com.sun.star.drawing.CustomShape">
      <g id="id14">
       <path fill="rgb(204,255,204)" stroke="none" d="M 2270,9120 L 6209,9120 6209,10292 2270,10292 2270,9120 2270,9120 Z M 2270,9120 L 2270,9120 Z M 6209,10292 L 6209,10292 Z"/>
       <path fill="none" stroke="rgb(52,101,175)" d="M 2270,9120 L 6209,9120 6209,10292 2270,10292 2270,9120 2270,9120 Z"/>
       <path fill="none" stroke="rgb(52,101,175)" d="M 2270,9120 L 2270,9120 Z"/>
       <path fill="none" stroke="rgb(52,101,175)" d="M 6209,10292 L 6209,10292 Z"/>
       <text class="TextShape"><tspan class="TextParagraph" font-family="Arial, sans-serif" font-size="353px" font-weight="400"><tspan class="TextPosition" x="2414" y="9630"><tspan fill="rgb(0,0,0)" stroke="none">wait for “started” signal </tspan></tspan><tspan class="TextPosition" x="3125" y="10028"><tspan fill="rgb(0,0,0)" stroke="none">on </tspan><tspan font-weight="700" fill="rgb(0,0,0)" stroke="none">statusPort</tspan></tspan></tspan></text>
      </g>
     </g>
     <g class="com.sun.star.drawing.CustomShape">
      <g id="id15">
       <path fill="rgb(255,255,204)" stroke="none" d="M 12069,8530 C 11742,8530 11416,8339 11416,8148 11416,7957 11742,7767 12069,7767 L 14828,7767 C 15155,7767 15482,7957 15482,8148 15482,8339 15155,8530 14828,8530 L 12069,8530 Z M 11416,7767 L 11416,7767 Z M 15482,8530 L 15482,8530 Z"/>
       <path fill="none" stroke="rgb(52,101,175)" d="M 12069,8530 C 11742,8530 11416,8339 11416,8148 11416,7957 11742,7767 12069,7767 L 14828,7767 C 15155,7767 15482,7957 15482,8148 15482,8339 15155,8530 14828,8530 L 12069,8530 Z"/>
       <path fill="none" stroke="rgb(52,101,175)" d="M 11416,7767 L 11416,7767 Z"/>
       <path fill="none" stroke="rgb(52,101,175)" d="M 15482,8530 L 15482,8530 Z"/>
       <text class="TextShape"><tspan class="TextParagraph" font-family="Arial, sans-serif" font-size="353px" font-weight="400"><tspan class="TextPosition" x="11929" y="8271"><tspan fill="rgb(0,0,0)" stroke="none">Jetty process starts</tspan></tspan></tspan></text>
      </g>
     </g>
     <g class="com.sun.star.drawing.ConnectorShape">
      <g id="id16">
       <path fill="none" stroke="rgb(0,0,0)" d="M 13450,8529 L 13453,9368"/>
       <path fill="rgb(0,0,0)" stroke="none" d="M 13454,9798 L 13603,9348 13303,9348 13454,9798 Z"/>
      </g>
     </g>
     <g class="com.sun.star.drawing.CustomShape">
      <g id="id17">
       <path fill="rgb(255,255,204)" stroke="none" d="M 11036,14368 L 15865,14368 15865,15766 11036,15766 11036,14368 11036,14368 Z M 11036,14368 L 11036,14368 Z M 15865,15766 L 15865,15766 Z"/>
       <path fill="none" stroke="rgb(52,101,175)" d="M 11036,14368 L 15865,14368 15865,15766 11036,15766 11036,14368 11036,14368 Z"/>
       <path fill="none" stroke="rgb(52,101,175)" d="M 11036,14368 L 11036,14368 Z"/>
       <path fill="none" stroke="rgb(52,101,175)" d="M 15865,15766 L 15865,15766 Z"/>
       <text class="TextShape"><tspan class="TextParagraph" font-family="Arial, sans-serif" font-size="353px" font-weight="400"><tspan class="TextPosition" x="12517" y="14792"><tspan fill="rgb(0,0,0)" stroke="none">In wait loop.</tspan></tspan><tspan class="TextPosition" x="11734" y="15190"><tspan fill="rgb(0,0,0)" stroke="none">listen for “stop” signal </tspan></tspan><tspan class="TextPosition" x="12252" y="15588"><tspan fill="rgb(0,0,0)" stroke="none">on </tspan><tspan font-weight="700" fill="rgb(0,0,0)" stroke="none">servicePort</tspan></tspan></tspan></text>
      </g>
     </g>
     <g class="com.sun.star.drawing.ConnectorShape">
      <g id="id18">
       <path fill="none" stroke="rgb(0,0,0)" d="M 13449,13100 L 13450,13939"/>
       <path fill="rgb(0,0,0)" stroke="none" d="M 13450,14369 L 13600,13919 13300,13919 13450,14369 Z"/>
      </g>
     </g>
     <g class="com.sun.star.drawing.CustomShape">
      <g id="id19">
       <path fill="rgb(204,255,204)" stroke="none" d="M 2179,12430 C 1689,12430 1200,12203 1200,11976 1200,11749 1689,11523 2179,11523 L 6319,11523 C 6809,11523 7299,11749 7299,11976 7299,12203 6809,12430 6319,12430 L 2179,12430 Z M 1200,11523 L 1200,11523 Z M 7299,12430 L 7299,12430 Z"/>
       <path fill="none" stroke="rgb(52,101,175)" d="M 2179,12430 C 1689,12430 1200,12203 1200,11976 1200,11749 1689,11523 2179,11523 L 6319,11523 C 6809,11523 7299,11749 7299,11976 7299,12203 6809,12430 6319,12430 L 2179,12430 Z"/>
       <path fill="none" stroke="rgb(52,101,175)" d="M 1200,11523 L 1200,11523 Z"/>
       <path fill="none" stroke="rgb(52,101,175)" d="M 7299,12430 L 7299,12430 Z"/>
       <text class="TextShape"><tspan class="TextParagraph" font-family="Arial, sans-serif" font-size="353px" font-weight="400"><tspan class="TextPosition" x="1609" y="12099"><tspan fill="rgb(0,0,0)" stroke="none">jettyBeforeIntegrationTest finished</tspan></tspan></tspan></text>
      </g>
     </g>
     <g class="com.sun.star.drawing.ConnectorShape">
      <g id="id20">
       <path fill="none" stroke="rgb(0,0,0)" d="M 11417,12514 L 11370,12489"/>
       <path fill="none" stroke="rgb(0,0,0)" d="M 11340,12473 L 11293,12447"/>
       <path fill="none" stroke="rgb(0,0,0)" d="M 11263,12431 L 11217,12406"/>
       <path fill="none" stroke="rgb(0,0,0)" d="M 11186,12390 L 11140,12365"/>
       <path fill="none" stroke="rgb(0,0,0)" d="M 11110,12348 L 11063,12323"/>
       <path fill="none" stroke="rgb(0,0,0)" d="M 11033,12307 L 10986,12282"/>
       <path fill="none" stroke="rgb(0,0,0)" d="M 10956,12265 L 10909,12240"/>
       <path fill="none" stroke="rgb(0,0,0)" d="M 10879,12224 L 10832,12199"/>
       <path fill="none" stroke="rgb(0,0,0)" d="M 10802,12183 L 10755,12157"/>
       <path fill="none" stroke="rgb(0,0,0)" d="M 10725,12141 L 10678,12116"/>
       <path fill="none" stroke="rgb(0,0,0)" d="M 10648,12100 L 10602,12075"/>
       <path fill="none" stroke="rgb(0,0,0)" d="M 10571,12058 L 10525,12033"/>
       <path fill="none" stroke="rgb(0,0,0)" d="M 10495,12017 L 10448,11992"/>
       <path fill="none" stroke="rgb(0,0,0)" d="M 10418,11976 L 10371,11950"/>
       <path fill="none" stroke="rgb(0,0,0)" d="M 10341,11934 L 10294,11909"/>
       <path fill="none" stroke="rgb(0,0,0)" d="M 10264,11893 L 10217,11867"/>
       <path fill="none" stroke="rgb(0,0,0)" d="M 10187,11851 L 10140,11826"/>
       <path fill="none" stroke="rgb(0,0,0)" d="M 10110,11810 L 10064,11785"/>
       <path fill="none" stroke="rgb(0,0,0)" d="M 10033,11768 L 9987,11743"/>
       <path fill="none" stroke="rgb(0,0,0)" d="M 9957,11727 L 9910,11702"/>
       <path fill="none" stroke="rgb(0,0,0)" d="M 9880,11686 L 9833,11660"/>
       <path fill="none" stroke="rgb(0,0,0)" d="M 9803,11644 L 9756,11619"/>
       <path fill="none" stroke="rgb(0,0,0)" d="M 9726,11603 L 9679,11578"/>
       <path fill="none" stroke="rgb(0,0,0)" d="M 9649,11561 L 9602,11536"/>
       <path fill="none" stroke="rgb(0,0,0)" d="M 9572,11520 L 9525,11495"/>
       <path fill="none" stroke="rgb(0,0,0)" d="M 9495,11478 L 9449,11453"/>
       <path fill="none" stroke="rgb(0,0,0)" d="M 9418,11437 L 9372,11412"/>
       <path fill="none" stroke="rgb(0,0,0)" d="M 9342,11396 L 9295,11370"/>
       <path fill="none" stroke="rgb(0,0,0)" d="M 9265,11354 L 9218,11329"/>
       <path fill="none" stroke="rgb(0,0,0)" d="M 9188,11313 L 9141,11288"/>
       <path fill="none" stroke="rgb(0,0,0)" d="M 9111,11271 L 9064,11246"/>
       <path fill="none" stroke="rgb(0,0,0)" d="M 9034,11230 L 8987,11205"/>
       <path fill="none" stroke="rgb(0,0,0)" d="M 8957,11188 L 8910,11163"/>
       <path fill="none" stroke="rgb(0,0,0)" d="M 8880,11147 L 8834,11122"/>
       <path fill="none" stroke="rgb(0,0,0)" d="M 8803,11106 L 8757,11080"/>
       <path fill="none" stroke="rgb(0,0,0)" d="M 8727,11064 L 8680,11039"/>
       <path fill="none" stroke="rgb(0,0,0)" d="M 8650,11023 L 8603,10998"/>
       <path fill="none" stroke="rgb(0,0,0)" d="M 8573,10981 L 8526,10956"/>
       <path fill="none" stroke="rgb(0,0,0)" d="M 8496,10940 L 8449,10915"/>
       <path fill="none" stroke="rgb(0,0,0)" d="M 8419,10899 L 8372,10873"/>
       <path fill="none" stroke="rgb(0,0,0)" d="M 8342,10857 L 8296,10832"/>
       <path fill="none" stroke="rgb(0,0,0)" d="M 8265,10816 L 8219,10791"/>
       <path fill="none" stroke="rgb(0,0,0)" d="M 8189,10774 L 8142,10749"/>
       <path fill="none" stroke="rgb(0,0,0)" d="M 8112,10733 L 8065,10708"/>
       <path fill="none" stroke="rgb(0,0,0)" d="M 8035,10691 L 7988,10666"/>
       <path fill="none" stroke="rgb(0,0,0)" d="M 7958,10650 L 7911,10625"/>
       <path fill="none" stroke="rgb(0,0,0)" d="M 7881,10609 L 7834,10583"/>
       <path fill="none" stroke="rgb(0,0,0)" d="M 7804,10567 L 7757,10542"/>
       <path fill="none" stroke="rgb(0,0,0)" d="M 7727,10526 L 7681,10501"/>
       <path fill="none" stroke="rgb(0,0,0)" d="M 7650,10484 L 7604,10459"/>
       <path fill="none" stroke="rgb(0,0,0)" d="M 7574,10443 L 7527,10418"/>
       <path fill="none" stroke="rgb(0,0,0)" d="M 7497,10401 L 7450,10376"/>
       <path fill="none" stroke="rgb(0,0,0)" d="M 7420,10360 L 7373,10335"/>
       <path fill="none" stroke="rgb(0,0,0)" d="M 7343,10319 L 7296,10293"/>
       <path fill="none" stroke="rgb(0,0,0)" d="M 7266,10277 L 7219,10252"/>
       <path fill="none" stroke="rgb(0,0,0)" d="M 7189,10236 L 7143,10211"/>
       <path fill="none" stroke="rgb(0,0,0)" d="M 7112,10194 L 7066,10169"/>
       <path fill="none" stroke="rgb(0,0,0)" d="M 7036,10153 L 6989,10128"/>
       <path fill="none" stroke="rgb(0,0,0)" d="M 6959,10112 L 6912,10086"/>
       <path fill="none" stroke="rgb(0,0,0)" d="M 6882,10070 L 6835,10045"/>
       <path fill="none" stroke="rgb(0,0,0)" d="M 6805,10029 L 6758,10003"/>
       <path fill="none" stroke="rgb(0,0,0)" d="M 6728,9987 L 6681,9962"/>
       <path fill="none" stroke="rgb(0,0,0)" d="M 6651,9946 L 6604,9921"/>
       <path fill="rgb(0,0,0)" stroke="none" d="M 6208,9707 L 6533,10053 6675,9788 6208,9707 Z"/>
       <text class="TextShape"><tspan class="TextParagraph" font-family="Arial, sans-serif" font-size="353px" font-weight="400"><tspan class="TextPosition" x="8578" y="11433"><tspan fill="rgb(0,0,0)" stroke="none">tcp</tspan></tspan></tspan></text>
      </g>
     </g>
     <g class="com.sun.star.drawing.CustomShape">
      <g id="id21">
       <path fill="rgb(255,255,204)" stroke="none" d="M 12155,17925 C 11849,17925 11543,17734 11543,17543 11543,17352 11849,17162 12155,17162 L 14742,17162 C 15048,17162 15355,17352 15355,17543 15355,17734 15048,17925 14742,17925 L 12155,17925 Z M 11543,17162 L 11543,17162 Z M 15355,17925 L 15355,17925 Z"/>
       <path fill="none" stroke="rgb(52,101,175)" d="M 12155,17925 C 11849,17925 11543,17734 11543,17543 11543,17352 11849,17162 12155,17162 L 14742,17162 C 15048,17162 15355,17352 15355,17543 15355,17734 15048,17925 14742,17925 L 12155,17925 Z"/>
       <path fill="none" stroke="rgb(52,101,175)" d="M 11543,17162 L 11543,17162 Z"/>
       <path fill="none" stroke="rgb(52,101,175)" d="M 15355,17925 L 15355,17925 Z"/>
       <text class="TextShape"><tspan class="TextParagraph" font-family="Arial, sans-serif" font-size="353px" font-weight="400"><tspan class="TextPosition" x="11757" y="17666"><tspan fill="rgb(0,0,0)" stroke="none">Jetty process finished</tspan></tspan></tspan></text>
      </g>
     </g>
     <g class="com.sun.star.drawing.ConnectorShape">
      <g id="id22">
       <path fill="none" stroke="rgb(0,0,0)" d="M 13450,15766 L 13449,16732"/>
       <path fill="rgb(0,0,0)" stroke="none" d="M 13449,17162 L 13599,16712 13299,16712 13449,17162 Z"/>
      </g>
     </g>
     <g class="com.sun.star.drawing.CustomShape">
      <g id="id23">
       <path fill="rgb(255,255,204)" stroke="none" d="M 11289,9797 L 15617,9797 15617,10686 11289,10686 11289,9797 11289,9797 Z M 11289,9797 L 11289,9797 Z M 15617,10687 L 15617,10687 Z"/>
       <path fill="none" stroke="rgb(52,101,175)" d="M 11289,9797 L 15617,9797 15617,10686 11289,10686 11289,9797 11289,9797 Z"/>
       <path fill="none" stroke="rgb(52,101,175)" d="M 11289,9797 L 11289,9797 Z"/>
       <path fill="none" stroke="rgb(52,101,175)" d="M 15617,10687 L 15617,10687 Z"/>
       <text class="TextShape"><tspan class="TextParagraph" font-family="Arial, sans-serif" font-size="353px" font-weight="400"><tspan class="TextPosition" x="11513" y="10166"><tspan fill="rgb(0,0,0)" stroke="none">listen for HTTP requests </tspan></tspan><tspan class="TextPosition" x="12866" y="10564"><tspan fill="rgb(0,0,0)" stroke="none">on </tspan><tspan font-weight="700" fill="rgb(0,0,0)" stroke="none">port</tspan></tspan></tspan></text>
      </g>
     </g>
     <g class="com.sun.star.drawing.ConnectorShape">
      <g id="id24">
       <path fill="none" stroke="rgb(0,0,0)" d="M 13453,10687 L 13450,11499"/>
       <path fill="rgb(0,0,0)" stroke="none" d="M 13449,11929 L 13600,11479 13300,11479 13449,11929 Z"/>
      </g>
     </g>
     <g class="com.sun.star.drawing.ConnectorShape">
      <g id="id25">
       <path fill="none" stroke="rgb(0,0,0)" d="M 4239,10292 L 4246,11093"/>
       <path fill="rgb(0,0,0)" stroke="none" d="M 4249,11523 L 4395,11072 4095,11074 4249,11523 Z"/>
       <text class="TextShape"><tspan class="TextParagraph" font-family="Arial, sans-serif" font-size="353px" font-weight="400"><tspan class="TextPosition" x="2929" y="11031"><tspan fill="rgb(0,0,0)" stroke="none">                           </tspan></tspan></tspan></text>
      </g>
     </g>
     <g class="com.sun.star.drawing.ConnectorShape">
      <g id="id26">
       <path fill="none" stroke="rgb(0,0,0)" d="M 6335,18206 C 6356,18206 6376,18206 6397,18206"/>
       <path fill="none" stroke="rgb(0,0,0)" d="M 6436,18205 C 6456,18205 6476,18204 6496,18204"/>
       <path fill="none" stroke="rgb(0,0,0)" d="M 6534,18203 C 6553,18202 6572,18201 6591,18201"/>
       <path fill="none" stroke="rgb(0,0,0)" d="M 6628,18199 C 6647,18198 6666,18197 6684,18196"/>
       <path fill="none" stroke="rgb(0,0,0)" d="M 6720,18193 C 6738,18192 6756,18191 6774,18189"/>
       <path fill="none" stroke="rgb(0,0,0)" d="M 6808,18187 C 6826,18185 6844,18183 6861,18182"/>
       <path fill="none" stroke="rgb(0,0,0)" d="M 6894,18178 C 6911,18176 6928,18174 6945,18172"/>
       <path fill="none" stroke="rgb(0,0,0)" d="M 6977,18168 C 6994,18166 7010,18164 7026,18162"/>
       <path fill="none" stroke="rgb(0,0,0)" d="M 7057,18157 C 7073,18155 7089,18152 7105,18150"/>
       <path fill="none" stroke="rgb(0,0,0)" d="M 7135,18145 C 7150,18142 7165,18139 7180,18136"/>
       <path fill="none" stroke="rgb(0,0,0)" d="M 7209,18131 C 7227,18127 7244,18124 7261,18120"/>
       <path fill="none" stroke="rgb(0,0,0)" d="M 7299,18111 C 7318,18107 7337,18102 7356,18098"/>
       <path fill="none" stroke="rgb(0,0,0)" d="M 7393,18088 C 7411,18083 7429,18078 7447,18073"/>
       <path fill="none" stroke="rgb(0,0,0)" d="M 7482,18063 C 7499,18057 7517,18052 7534,18046"/>
       <path fill="none" stroke="rgb(0,0,0)" d="M 7566,18035 C 7583,18029 7599,18023 7616,18017"/>
       <path fill="none" stroke="rgb(0,0,0)" d="M 7647,18005 C 7662,17998 7678,17992 7693,17985"/>
       <path fill="none" stroke="rgb(0,0,0)" d="M 7723,17973 C 7738,17966 7753,17959 7767,17952"/>
       <path fill="none" stroke="rgb(0,0,0)" d="M 7795,17939 C 7809,17931 7823,17924 7837,17917"/>
       <path fill="none" stroke="rgb(0,0,0)" d="M 7865,17901 C 7882,17892 7899,17882 7915,17872"/>
       <path fill="none" stroke="rgb(0,0,0)" d="M 7946,17853 C 7962,17843 7977,17833 7993,17823"/>
       <path fill="none" stroke="rgb(0,0,0)" d="M 8021,17802 C 8036,17792 8050,17781 8064,17770"/>
       <path fill="none" stroke="rgb(0,0,0)" d="M 8091,17749 C 8105,17738 8118,17727 8131,17715"/>
       <path fill="none" stroke="rgb(0,0,0)" d="M 8156,17693 C 8169,17681 8181,17670 8193,17658"/>
       <path fill="none" stroke="rgb(0,0,0)" d="M 8216,17635 C 8228,17623 8240,17610 8251,17598"/>
       <path fill="none" stroke="rgb(0,0,0)" d="M 8273,17573 C 8285,17560 8297,17546 8308,17532"/>
       <path fill="none" stroke="rgb(0,0,0)" d="M 8330,17505 C 8341,17491 8351,17476 8362,17462"/>
       <path fill="none" stroke="rgb(0,0,0)" d="M 8382,17434 C 8392,17419 8402,17404 8411,17390"/>
       <path fill="none" stroke="rgb(0,0,0)" d="M 8430,17361 C 8439,17346 8448,17331 8457,17316"/>
       <path fill="none" stroke="rgb(0,0,0)" d="M 8474,17286 C 8482,17271 8491,17255 8499,17240"/>
       <path fill="none" stroke="rgb(0,0,0)" d="M 8515,17210 C 8523,17194 8531,17178 8538,17162"/>
       <path fill="none" stroke="rgb(0,0,0)" d="M 8553,17131 C 8560,17115 8568,17099 8575,17083"/>
       <path fill="none" stroke="rgb(0,0,0)" d="M 8588,17052 C 8595,17035 8602,17019 8609,17003"/>
       <path fill="none" stroke="rgb(0,0,0)" d="M 8622,16971 C 8628,16955 8635,16938 8641,16922"/>
       <path fill="none" stroke="rgb(0,0,0)" d="M 8653,16890 C 8660,16873 8666,16856 8672,16840"/>
       <path fill="none" stroke="rgb(0,0,0)" d="M 8684,16807 C 8690,16791 8696,16774 8702,16757"/>
       <path fill="none" stroke="rgb(0,0,0)" d="M 8713,16725 C 8719,16708 8725,16691 8731,16675"/>
       <path fill="none" stroke="rgb(0,0,0)" d="M 8742,16642 C 8748,16626 8753,16609 8759,16592"/>
       <path fill="none" stroke="rgb(0,0,0)" d="M 8770,16560 C 8776,16543 8782,16526 8788,16509"/>
       <path fill="none" stroke="rgb(0,0,0)" d="M 8799,16477 C 8805,16460 8811,16444 8817,16427"/>
       <path fill="none" stroke="rgb(0,0,0)" d="M 8828,16395 C 8835,16378 8841,16362 8847,16345"/>
       <path fill="none" stroke="rgb(0,0,0)" d="M 8859,16313 C 8865,16297 8872,16280 8878,16264"/>
       <path fill="none" stroke="rgb(0,0,0)" d="M 8891,16232 C 8898,16215 8905,16199 8912,16183"/>
       <path fill="none" stroke="rgb(0,0,0)" d="M 8925,16151 C 8932,16135 8940,16119 8947,16103"/>
       <path fill="none" stroke="rgb(0,0,0)" d="M 8962,16072 C 8969,16056 8977,16040 8985,16024"/>
       <path fill="none" stroke="rgb(0,0,0)" d="M 9001,15994 C 9009,15978 9018,15963 9026,15947"/>
       <path fill="none" stroke="rgb(0,0,0)" d="M 9043,15918 C 9052,15902 9061,15887 9071,15872"/>
       <path fill="none" stroke="rgb(0,0,0)" d="M 9089,15844 C 9098,15829 9108,15815 9118,15801"/>
       <path fill="none" stroke="rgb(0,0,0)" d="M 9137,15773 C 9148,15759 9158,15745 9169,15731"/>
       <path fill="none" stroke="rgb(0,0,0)" d="M 9190,15705 C 9201,15691 9213,15678 9224,15664"/>
       <path fill="none" stroke="rgb(0,0,0)" d="M 9247,15639 C 9259,15626 9272,15613 9285,15600"/>
       <path fill="none" stroke="rgb(0,0,0)" d="M 9310,15575 C 9323,15563 9336,15550 9350,15538"/>
       <path fill="none" stroke="rgb(0,0,0)" d="M 9377,15515 C 9390,15504 9402,15494 9415,15484"/>
       <path fill="none" stroke="rgb(0,0,0)" d="M 9440,15465 C 9453,15455 9467,15445 9481,15435"/>
       <path fill="none" stroke="rgb(0,0,0)" d="M 9508,15417 C 9522,15408 9536,15398 9551,15389"/>
       <path fill="none" stroke="rgb(0,0,0)" d="M 9580,15372 C 9595,15363 9610,15354 9626,15346"/>
       <path fill="none" stroke="rgb(0,0,0)" d="M 9657,15329 C 9673,15321 9689,15313 9706,15305"/>
       <path fill="none" stroke="rgb(0,0,0)" d="M 9739,15290 C 9756,15282 9774,15274 9791,15267"/>
       <path fill="none" stroke="rgb(0,0,0)" d="M 9826,15253 C 9843,15246 9861,15240 9878,15233"/>
       <path fill="none" stroke="rgb(0,0,0)" d="M 9906,15224 C 9921,15219 9936,15214 9951,15209"/>
       <path fill="none" stroke="rgb(0,0,0)" d="M 9980,15200 C 9995,15195 10011,15190 10027,15186"/>
       <path fill="none" stroke="rgb(0,0,0)" d="M 10057,15178 C 10073,15173 10090,15169 10106,15165"/>
       <path fill="none" stroke="rgb(0,0,0)" d="M 10138,15157 C 10155,15153 10172,15150 10189,15146"/>
       <path fill="none" stroke="rgb(0,0,0)" d="M 10223,15139 C 10240,15135 10258,15132 10276,15129"/>
       <path fill="none" stroke="rgb(0,0,0)" d="M 10311,15123 C 10330,15120 10348,15117 10367,15114"/>
       <path fill="none" stroke="rgb(0,0,0)" d="M 10404,15108 C 10423,15106 10442,15103 10462,15101"/>
       <path fill="none" stroke="rgb(0,0,0)" d="M 10500,15096 C 10520,15094 10540,15092 10561,15090"/>
       <path fill="rgb(0,0,0)" stroke="none" d="M 11036,15068 L 10580,14938 10593,15238 11036,15068 Z"/>
       <text class="TextShape"><tspan class="TextParagraph" font-family="Arial, sans-serif" font-size="353px" font-weight="400"><tspan class="TextPosition" x="8451" y="16760"><tspan fill="rgb(0,0,0)" stroke="none">tcp</tspan></tspan></tspan></text>
      </g>
     </g>
     <g class="com.sun.star.drawing.CustomShape">
      <g id="id27">
       <path fill="rgb(255,204,255)" stroke="none" d="M 2270,13697 L 6209,13697 6209,14869 2270,14869 2270,13697 2270,13697 Z M 2270,13697 L 2270,13697 Z M 6209,14869 L 6209,14869 Z"/>
       <path fill="none" stroke="rgb(52,101,175)" d="M 2270,13697 L 6209,13697 6209,14869 2270,14869 2270,13697 2270,13697 Z"/>
       <path fill="none" stroke="rgb(52,101,175)" d="M 2270,13697 L 2270,13697 Z"/>
       <path fill="none" stroke="rgb(52,101,175)" d="M 6209,14869 L 6209,14869 Z"/>
       <text class="TextShape"><tspan class="TextParagraph" font-family="Arial, sans-serif" font-size="353px" font-weight="400"><tspan class="TextPosition" x="2728" y="14406"><tspan fill="rgb(0,0,0)" stroke="none">integrationTest task</tspan></tspan></tspan></text>
      </g>
     </g>
     <g class="com.sun.star.drawing.ConnectorShape">
      <g id="id28">
       <path fill="none" stroke="rgb(0,0,0)" d="M 4249,12429 L 4242,13268"/>
       <path fill="rgb(0,0,0)" stroke="none" d="M 4239,13698 L 4393,13249 4093,13247 4239,13698 Z"/>
      </g>
     </g>
     <g class="com.sun.star.drawing.CustomShape">
      <g id="id29">
       <path fill="rgb(204,255,255)" stroke="none" d="M 2126,16620 C 1626,16620 1126,16429 1126,16238 1126,16047 1626,15857 2126,15857 L 6351,15857 C 6851,15857 7352,16047 7352,16238 7352,16429 6851,16620 6351,16620 L 2126,16620 Z M 1126,15857 L 1126,15857 Z M 7352,16620 L 7352,16620 Z"/>
       <path fill="none" stroke="rgb(52,101,175)" d="M 2126,16620 C 1626,16620 1126,16429 1126,16238 1126,16047 1626,15857 2126,15857 L 6351,15857 C 6851,15857 7352,16047 7352,16238 7352,16429 6851,16620 6351,16620 L 2126,16620 Z"/>
       <path fill="none" stroke="rgb(52,101,175)" d="M 1126,15857 L 1126,15857 Z"/>
       <path fill="none" stroke="rgb(52,101,175)" d="M 7352,16620 L 7352,16620 Z"/>
       <text class="TextShape"><tspan class="TextParagraph" font-family="Arial, sans-serif" font-size="353px" font-weight="400"><tspan class="TextPosition" x="1917" y="16361"><tspan fill="rgb(0,0,0)" stroke="none">jettyAfterIntegrationTest starts</tspan></tspan></tspan></text>
      </g>
     </g>
     <g class="com.sun.star.drawing.ConnectorShape">
      <g id="id30">
       <path fill="none" stroke="rgb(0,0,0)" d="M 4239,14869 L 4240,15427"/>
       <path fill="rgb(0,0,0)" stroke="none" d="M 4240,15857 L 4390,15407 4090,15407 4240,15857 Z"/>
      </g>
     </g>
     <g class="com.sun.star.drawing.CustomShape">
      <g id="id31">
       <path fill="rgb(204,255,255)" stroke="none" d="M 2143,17633 L 6336,17633 6336,18777 2143,18777 2143,17633 2143,17633 Z M 2143,17633 L 2143,17633 Z M 6336,18777 L 6336,18777 Z"/>
       <path fill="none" stroke="rgb(52,101,175)" d="M 2143,17633 L 6336,17633 6336,18777 2143,18777 2143,17633 2143,17633 Z"/>
       <path fill="none" stroke="rgb(52,101,175)" d="M 2143,17633 L 2143,17633 Z"/>
       <path fill="none" stroke="rgb(52,101,175)" d="M 6336,18777 L 6336,18777 Z"/>
       <text class="TextShape"><tspan class="TextParagraph" font-family="Arial, sans-serif" font-size="353px" font-weight="400"><tspan class="TextPosition" x="2853" y="18129"><tspan fill="rgb(0,0,0)" stroke="none">send “stop” signal</tspan></tspan><tspan class="TextPosition" x="3090" y="18527"><tspan fill="rgb(0,0,0)" stroke="none">to </tspan><tspan font-weight="700" fill="rgb(0,0,0)" stroke="none">servicePort</tspan></tspan></tspan></text>
      </g>
     </g>
     <g class="com.sun.star.drawing.ConnectorShape">
      <g id="id32">
       <path fill="none" stroke="rgb(0,0,0)" d="M 4239,16619 L 4239,17204"/>
       <path fill="rgb(0,0,0)" stroke="none" d="M 4239,17634 L 4389,17184 4089,17184 4239,17634 Z"/>
      </g>
     </g>
     <g class="com.sun.star.drawing.CustomShape">
      <g id="id33">
       <path fill="rgb(204,255,255)" stroke="none" d="M 2126,20427 C 1626,20427 1126,20236 1126,20045 1126,19854 1626,19664 2126,19664 L 6351,19664 C 6851,19664 7352,19854 7352,20045 7352,20236 6851,20427 6351,20427 L 2126,20427 Z M 1126,19664 L 1126,19664 Z M 7352,20427 L 7352,20427 Z"/>
       <path fill="none" stroke="rgb(52,101,175)" d="M 2126,20427 C 1626,20427 1126,20236 1126,20045 1126,19854 1626,19664 2126,19664 L 6351,19664 C 6851,19664 7352,19854 7352,20045 7352,20236 6851,20427 6351,20427 L 2126,20427 Z"/>
       <path fill="none" stroke="rgb(52,101,175)" d="M 1126,19664 L 1126,19664 Z"/>
       <path fill="none" stroke="rgb(52,101,175)" d="M 7352,20427 L 7352,20427 Z"/>
       <text class="TextShape"><tspan class="TextParagraph" font-family="Arial, sans-serif" font-size="353px" font-weight="400"><tspan class="TextPosition" x="1745" y="20168"><tspan fill="rgb(0,0,0)" stroke="none">jettyAfterIntegrationTest finished</tspan></tspan></tspan></text>
      </g>
     </g>
     <g class="com.sun.star.drawing.ConnectorShape">
      <g id="id34">
       <path fill="none" stroke="rgb(0,0,0)" d="M 4239,18777 L 4240,19234"/>
       <path fill="rgb(0,0,0)" stroke="none" d="M 4240,19664 L 4389,19214 4089,19214 4240,19664 Z"/>
      </g>
     </g>
    </g>
   </g>
  </g>
 </g>
</svg>