<?xml version="1.0" encoding="UTF-8"?>
<!DOCTYPE svg PUBLIC "-//W3C//DTD SVG 1.1//EN" "http://www.w3.org/Graphics/SVG/1.1/DTD/svg11.dtd">
<svg version="1.2" width="210mm" height="297mm" viewBox="0 0 21000 29700" preserveAspectRatio="xMidYMid" fill-rule="evenodd" clip-path="url(#presentation_clip_path)" stroke-width="28.222" stroke-linejoin="round" xmlns="http://www.w3.org/2000/svg" xmlns:ooo="http://xml.openoffice.org/svg/export" xmlns:xlink="http://www.w3.org/1999/xlink" xml:space="preserve">
 <defs class="ClipPathGroup">
  <clipPath id="presentation_clip_path" clipPathUnits="userSpaceOnUse">
   <rect x="0" y="0" width="21000" height="29700"/>
  </clipPath>
 </defs>
 <defs class="TextShapeIndex">
  <g ooo:slide="id1" ooo:id-list="id3 id4 id5 id6 id7 id8 id9 id10 id11 id12 id13 id14 id15 id16 id17 id18 id19 id20 id21 id22 id23 id24 id25 id26 id27 id28 id29 id30 id31 id32 id33 id34"/>
 </defs>
 <defs class="EmbeddedBulletChars">
  <g id="bullet-char-template(57356)" transform="scale(0.00048828125,-0.00048828125)">
   <path d="M 580,1141 L 1163,571 580,0 -4,571 580,1141 Z"/>
  </g>
  <g id="bullet-char-template(57354)" transform="scale(0.00048828125,-0.00048828125)">
   <path d="M 8,1128 L 1137,1128 1137,0 8,0 8,1128 Z"/>
  </g>
  <g id="bullet-char-template(10146)" transform="scale(0.00048828125,-0.00048828125)">
   <path d="M 174,0 L 602,739 174,1481 1456,739 174,0 Z M 1358,739 L 309,1346 659,739 1358,739 Z"/>
  </g>
  <g id="bullet-char-template(10132)" transform="scale(0.00048828125,-0.00048828125)">
   <path d="M 2015,739 L 1276,0 717,0 1260,543 174,543 174,936 1260,936 717,1481 1274,1481 2015,739 Z"/>
  </g>
  <g id="bullet-char-template(10007)" transform="scale(0.00048828125,-0.00048828125)">
   <path d="M 0,-2 C -7,14 -16,27 -25,37 L 356,567 C 262,823 215,952 215,954 215,979 228,992 255,992 264,992 276,990 289,987 310,991 331,999 354,1012 L 381,999 492,748 772,1049 836,1024 860,1049 C 881,1039 901,1025 922,1006 886,937 835,863 770,784 769,783 710,716 594,584 L 774,223 C 774,196 753,168 711,139 L 727,119 C 717,90 699,76 672,76 641,76 570,178 457,381 L 164,-76 C 142,-110 111,-127 72,-127 30,-127 9,-110 8,-76 1,-67 -2,-52 -2,-32 -2,-23 -1,-13 0,-2 Z"/>
  </g>
  <g id="bullet-char-template(10004)" transform="scale(0.00048828125,-0.00048828125)">
   <path d="M 285,-33 C 182,-33 111,30 74,156 52,228 41,333 41,471 41,549 55,616 82,672 116,743 169,778 240,778 293,778 328,747 346,684 L 369,508 C 377,444 397,411 428,410 L 1163,1116 C 1174,1127 1196,1133 1229,1133 1271,1133 1292,1118 1292,1087 L 1292,965 C 1292,929 1282,901 1262,881 L 442,47 C 390,-6 338,-33 285,-33 Z"/>
  </g>
  <g id="bullet-char-template(9679)" transform="scale(0.00048828125,-0.00048828125)">
   <path d="M 813,0 C 632,0 489,54 383,161 276,268 223,411 223,592 223,773 276,916 383,1023 489,1130 632,1184 813,1184 992,1184 1136,1130 1245,1023 1353,916 1407,772 1407,592 1407,412 1353,268 1245,161 1136,54 992,0 813,0 Z"/>
  </g>
  <g id="bullet-char-template(8226)" transform="scale(0.00048828125,-0.00048828125)">
   <path d="M 346,457 C 273,457 209,483 155,535 101,586 74,649 74,723 74,796 101,859 155,911 209,963 273,989 346,989 419,989 480,963 531,910 582,859 608,796 608,723 608,648 583,586 532,535 482,483 420,457 346,457 Z"/>
  </g>
  <g id="bullet-char-template(8211)" transform="scale(0.00048828125,-0.00048828125)">
   <path d="M -4,459 L 1135,459 1135,606 -4,606 -4,459 Z"/>
  </g>
 </defs>
 <defs class="TextEmbeddedBitmaps"/>
 <g>
  <g id="id2" class="Master_Slide">
   <g id="bg-id2" class="Background"/>
   <g id="bo-id2" class="BackgroundObjects"/>
  </g>
 </g>
 <g class="SlideGroup">
  <g>
   <g id="id1" class="Slide" clip-path="url(#presentation_clip_path)">
    <g class="Page">
     <g class="com.sun.star.drawing.CustomShape">
      <g id="id3">
       <path fill="rgb(204,255,204)" stroke="none" d="M 4284,1763 C 3784,1763 3285,1572 3285,1381 3285,1190 3784,1000 4284,1000 L 8509,1000 C 9009,1000 9509,1190 9509,1381 9509,1572 9009,1763 8509,1763 L 4284,1763 Z M 3285,1000 L 3285,1000 Z M 9509,1763 L 9509,1763 Z"/>
       <path fill="none" stroke="rgb(52,101,175)" d="M 4284,1763 C 3784,1763 3285,1572 3285,1381 3285,1190 3784,1000 4284,1000 L 8509,1000 C 9009,1000 9509,1190 9509,1381 9509,1572 9009,1763 8509,1763 L 4284,1763 Z"/>
       <path fill="none" stroke="rgb(52,101,175)" d="M 3285,1000 L 3285,1000 Z"/>
       <path fill="none" stroke="rgb(52,101,175)" d="M 9509,1763 L 9509,1763 Z"/>
       <text class="TextShape"><tspan class="TextParagraph" font-family="Arial, sans-serif" font-size="353px" font-weight="400"><tspan class="TextPosition" x="3929" y="1504"><tspan fill="rgb(0,0,0)" stroke="none">jettyBeforeIntegrationTest starts</tspan></tspan></tspan></text>
      </g>
     </g>
     <g class="com.sun.star.drawing.CustomShape">
      <g id="id4">
       <path fill="rgb(204,255,204)" stroke="none" d="M 4480,3412 L 6399,2650 8319,3412 6399,4174 4480,3412 4480,3412 Z M 4480,2650 L 4480,2650 Z M 8319,4174 L 8319,4174 Z"/>
       <path fill="none" stroke="rgb(52,101,175)" d="M 4480,3412 L 6399,2650 8319,3412 6399,4174 4480,3412 4480,3412 Z"/>
       <path fill="none" stroke="rgb(52,101,175)" d="M 4480,2650 L 4480,2650 Z"/>
       <path fill="none" stroke="rgb(52,101,175)" d="M 8319,4174 L 8319,4174 Z"/>
       <text class="TextShape"><tspan class="TextParagraph" font-family="Arial, sans-serif" font-size="353px" font-weight="400"><tspan class="TextPosition" x="5781" y="3336"><tspan fill="rgb(0,0,0)" stroke="none">sources</tspan></tspan><tspan class="TextPosition" x="5501" y="3734"><tspan fill="rgb(0,0,0)" stroke="none">up-to-date?</tspan></tspan></tspan></text>
      </g>
     </g>
     <g class="com.sun.star.drawing.ConnectorShape">
      <g id="id5">
       <path fill="none" stroke="rgb(0,0,0)" d="M 6398,1762 L 6399,2221"/>
       <path fill="rgb(0,0,0)" stroke="none" d="M 6399,2651 L 6548,2201 6248,2201 6399,2651 Z"/>
      </g>
     </g>
     <g class="com.sun.star.drawing.CustomShape">
      <g id="id6">
       <path fill="rgb(204,255,204)" stroke="none" d="M 8535,4244 L 11796,4244 11796,5064 8535,5064 8535,4244 8535,4244 Z M 8535,4244 L 8535,4244 Z M 11796,5065 L 11796,5065 Z"/>
       <path fill="none" stroke="rgb(52,101,175)" d="M 8535,4244 L 11796,4244 11796,5064 8535,5064 8535,4244 8535,4244 Z"/>
       <path fill="none" stroke="rgb(52,101,175)" d="M 8535,4244 L 8535,4244 Z"/>
       <path fill="none" stroke="rgb(52,101,175)" d="M 11796,5065 L 11796,5065 Z"/>
       <text class="TextShape"><tspan class="TextParagraph" font-family="Arial, sans-serif" font-size="353px" font-weight="400"><tspan class="TextPosition" x="9562" y="4777"><tspan fill="rgb(0,0,0)" stroke="none">compile</tspan></tspan></tspan></text>
      </g>
     </g>
     <g class="com.sun.star.drawing.ConnectorShape">
      <g id="id7">
       <path fill="none" stroke="rgb(0,0,0)" d="M 8318,3413 L 10165,3413 10165,3814"/>
       <path fill="rgb(0,0,0)" stroke="none" d="M 10165,4244 L 10315,3794 10015,3794 10165,4244 Z"/>
       <text class="TextShape"><tspan class="TextParagraph" font-family="Arial, sans-serif" font-size="353px" font-weight="400"><tspan class="TextPosition" x="9047" y="3753"><tspan fill="rgb(0,0,0)" stroke="none">no</tspan></tspan></tspan></text>
      </g>
     </g>
     <g class="com.sun.star.drawing.ConnectorShape">
      <g id="id8">
       <path fill="none" stroke="rgb(0,0,0)" d="M 6399,4174 L 6369,5904"/>
       <path fill="rgb(0,0,0)" stroke="none" d="M 6361,6334 L 6519,5887 6219,5881 6361,6334 Z"/>
       <text class="TextShape"><tspan class="TextParagraph" font-family="Arial, sans-serif" font-size="353px" font-weight="400"><tspan class="TextPosition" x="5715" y="4780"><tspan fill="rgb(0,0,0)" stroke="none">yes        </tspan></tspan></tspan></text>
      </g>
     </g>
     <g class="com.sun.star.drawing.ConnectorShape">
      <g id="id9">
       <path fill="none" stroke="rgb(0,0,0)" d="M 10165,5064 L 10165,5700 6361,5700 6361,5904"/>
       <path fill="rgb(0,0,0)" stroke="none" d="M 6361,6334 L 6511,5884 6211,5884 6361,6334 Z"/>
      </g>
     </g>
     <g class="com.sun.star.drawing.CustomShape">
      <g id="id10">
       <path fill="rgb(204,255,204)" stroke="none" d="M 3973,6334 L 8747,6334 8747,7389 3973,7389 3973,6334 3973,6334 Z M 3973,6334 L 3973,6334 Z M 8747,7389 L 8747,7389 Z"/>
       <path fill="none" stroke="rgb(52,101,175)" d="M 3973,6334 L 8747,6334 8747,7389 3973,7389 3973,6334 3973,6334 Z"/>
       <path fill="none" stroke="rgb(52,101,175)" d="M 3973,6334 L 3973,6334 Z"/>
       <path fill="none" stroke="rgb(52,101,175)" d="M 8747,7389 L 8747,7389 Z"/>
       <text class="TextShape"><tspan class="TextParagraph" font-family="Arial, sans-serif" font-size="353px" font-weight="400"><tspan class="TextPosition" x="4880" y="6785"><tspan fill="rgb(0,0,0)" stroke="none">start Jetty process </tspan></tspan><tspan class="TextPosition" x="4408" y="7183"><tspan fill="rgb(0,0,0)" stroke="none">against compiled classes</tspan></tspan></tspan></text>
      </g>
     </g>
     <g class="com.sun.star.drawing.ConnectorShape">
      <g id="id11">
       <path fill="none" stroke="rgb(0,0,0)" d="M 6361,7388 C 6361,7404 6364,7420 6371,7436"/>
       <path fill="none" stroke="rgb(0,0,0)" d="M 6388,7466 C 6399,7481 6413,7495 6430,7510"/>
       <path fill="none" stroke="rgb(0,0,0)" d="M 6452,7526 C 6464,7535 6477,7543 6492,7552"/>
       <path fill="none" stroke="rgb(0,0,0)" d="M 6521,7568 C 6537,7576 6555,7584 6573,7592"/>
       <path fill="none" stroke="rgb(0,0,0)" d="M 6610,7607 C 6626,7613 6642,7619 6659,7625"/>
       <path fill="none" stroke="rgb(0,0,0)" d="M 6687,7635 C 6702,7640 6718,7645 6734,7650"/>
       <path fill="none" stroke="rgb(0,0,0)" d="M 6766,7659 C 6782,7664 6799,7668 6817,7673"/>
       <path fill="none" stroke="rgb(0,0,0)" d="M 6852,7682 C 6870,7687 6889,7691 6909,7696"/>
       <path fill="none" stroke="rgb(0,0,0)" d="M 6947,7704 C 6964,7708 6981,7712 6998,7715"/>
       <path fill="none" stroke="rgb(0,0,0)" d="M 7028,7722 C 7044,7725 7060,7728 7076,7731"/>
       <path fill="none" stroke="rgb(0,0,0)" d="M 7107,7737 C 7124,7740 7141,7743 7158,7746"/>
       <path fill="none" stroke="rgb(0,0,0)" d="M 7191,7752 C 7209,7755 7226,7758 7244,7761"/>
       <path fill="none" stroke="rgb(0,0,0)" d="M 7280,7766 C 7298,7769 7317,7772 7336,7775"/>
       <path fill="none" stroke="rgb(0,0,0)" d="M 7372,7781 C 7392,7783 7411,7786 7431,7789"/>
       <path fill="none" stroke="rgb(0,0,0)" d="M 7464,7794 C 7480,7796 7496,7798 7512,7800"/>
       <path fill="none" stroke="rgb(0,0,0)" d="M 7543,7804 C 7560,7806 7576,7808 7593,7810"/>
       <path fill="none" stroke="rgb(0,0,0)" d="M 7625,7814 C 7642,7816 7659,7818 7677,7820"/>
       <path fill="none" stroke="rgb(0,0,0)" d="M 7710,7824 C 7728,7826 7745,7828 7763,7830"/>
       <path fill="none" stroke="rgb(0,0,0)" d="M 7798,7834 C 7816,7836 7834,7838 7852,7840"/>
       <path fill="none" stroke="rgb(0,0,0)" d="M 7888,7843 C 7906,7845 7925,7847 7944,7849"/>
       <path fill="none" stroke="rgb(0,0,0)" d="M 7981,7853 C 8000,7854 8019,7856 8038,7858"/>
       <path fill="none" stroke="rgb(0,0,0)" d="M 8072,7861 C 8088,7863 8105,7864 8121,7865"/>
       <path fill="none" stroke="rgb(0,0,0)" d="M 8153,7868 C 8169,7870 8186,7871 8203,7873"/>
       <path fill="none" stroke="rgb(0,0,0)" d="M 8235,7875 C 8252,7877 8269,7878 8286,7879"/>
       <path fill="none" stroke="rgb(0,0,0)" d="M 8319,7882 C 8337,7883 8354,7885 8371,7886"/>
       <path fill="none" stroke="rgb(0,0,0)" d="M 8405,7889 C 8423,7890 8441,7891 8459,7893"/>
       <path fill="none" stroke="rgb(0,0,0)" d="M 8493,7895 C 8511,7897 8529,7898 8548,7899"/>
       <path fill="none" stroke="rgb(0,0,0)" d="M 8583,7902 C 8601,7903 8620,7904 8639,7905"/>
       <path fill="none" stroke="rgb(0,0,0)" d="M 8675,7908 C 8693,7909 8712,7910 8731,7911"/>
       <path fill="none" stroke="rgb(0,0,0)" d="M 8768,7914 C 8786,7915 8804,7916 8822,7917"/>
       <path fill="none" stroke="rgb(0,0,0)" d="M 8854,7919 C 8870,7920 8887,7921 8903,7922"/>
       <path fill="none" stroke="rgb(0,0,0)" d="M 8936,7924 C 8952,7925 8969,7926 8986,7927"/>
       <path fill="none" stroke="rgb(0,0,0)" d="M 9019,7929 C 9036,7930 9053,7930 9070,7931"/>
       <path fill="none" stroke="rgb(0,0,0)" d="M 9104,7933 C 9121,7934 9138,7935 9156,7936"/>
       <path fill="none" stroke="rgb(0,0,0)" d="M 9190,7938 C 9207,7939 9225,7939 9243,7940"/>
       <path fill="none" stroke="rgb(0,0,0)" d="M 9277,7942 C 9295,7943 9313,7944 9331,7945"/>
       <path fill="none" stroke="rgb(0,0,0)" d="M 9366,7946 C 9384,7947 9402,7948 9420,7949"/>
       <path fill="none" stroke="rgb(0,0,0)" d="M 9456,7950 C 9474,7951 9493,7952 9511,7953"/>
       <path fill="none" stroke="rgb(0,0,0)" d="M 9547,7954 C 9566,7955 9585,7956 9603,7957"/>
       <path fill="none" stroke="rgb(0,0,0)" d="M 9640,7958 C 9658,7959 9676,7960 9695,7961"/>
       <path fill="none" stroke="rgb(0,0,0)" d="M 9727,7962 C 9743,7962 9760,7963 9777,7964"/>
       <path fill="none" stroke="rgb(0,0,0)" d="M 9809,7965 C 9826,7966 9843,7966 9860,7967"/>
       <path fill="none" stroke="rgb(0,0,0)" d="M 9893,7968 C 9910,7969 9927,7969 9944,7970"/>
       <path fill="none" stroke="rgb(0,0,0)" d="M 9977,7971 C 9995,7972 10012,7972 10029,7973"/>
       <path fill="none" stroke="rgb(0,0,0)" d="M 10063,7974 C 10080,7975 10098,7975 10115,7976"/>
       <path fill="none" stroke="rgb(0,0,0)" d="M 10149,7977 C 10167,7977 10185,7978 10202,7979"/>
       <path fill="none" stroke="rgb(0,0,0)" d="M 10237,7980 C 10255,7980 10273,7981 10291,7981"/>
       <path fill="none" stroke="rgb(0,0,0)" d="M 10325,7982 C 10343,7983 10362,7983 10380,7984"/>
       <path fill="none" stroke="rgb(0,0,0)" d="M 10415,7985 C 10433,7985 10452,7986 10470,7986"/>
       <path fill="none" stroke="rgb(0,0,0)" d="M 10505,7987 C 10524,7988 10542,7988 10561,7989"/>
       <path fill="none" stroke="rgb(0,0,0)" d="M 10597,7990 C 10616,7990 10634,7991 10653,7991"/>
       <path fill="none" stroke="rgb(0,0,0)" d="M 10690,7992 C 10706,7993 10723,7993 10740,7993"/>
       <path fill="none" stroke="rgb(0,0,0)" d="M 10773,7994 C 10790,7995 10806,7995 10823,7995"/>
       <path fill="none" stroke="rgb(0,0,0)" d="M 10856,7996 C 10873,7996 10890,7997 10907,7997"/>
       <path fill="none" stroke="rgb(0,0,0)" d="M 10940,7998 C 10957,7998 10974,7999 10992,7999"/>
       <path fill="none" stroke="rgb(0,0,0)" d="M 11025,8000 C 11042,8000 11060,8000 11077,8001"/>
       <path fill="none" stroke="rgb(0,0,0)" d="M 11111,8001 C 11128,8002 11146,8002 11163,8002"/>
       <path fill="none" stroke="rgb(0,0,0)" d="M 11197,8003 C 11215,8003 11232,8004 11250,8004"/>
       <path fill="none" stroke="rgb(0,0,0)" d="M 11284,8005 C 11302,8005 11320,8005 11338,8006"/>
       <path fill="none" stroke="rgb(0,0,0)" d="M 11372,8006 C 11390,8006 11408,8007 11426,8007"/>
       <path fill="none" stroke="rgb(0,0,0)" d="M 11461,8008 C 11479,8008 11497,8008 11515,8008"/>
       <path fill="none" stroke="rgb(0,0,0)" d="M 11550,8009 C 11569,8009 11587,8009 11605,8010"/>
       <path fill="none" stroke="rgb(0,0,0)" d="M 11641,8010 C 11659,8011 11677,8011 11696,8011"/>
       <path fill="none" stroke="rgb(0,0,0)" d="M 11732,8012 C 11750,8012 11769,8012 11787,8012"/>
       <path fill="none" stroke="rgb(0,0,0)" d="M 11824,8013 C 11841,8013 11859,8013 11876,8013"/>
       <path fill="none" stroke="rgb(0,0,0)" d="M 11909,8014 C 11926,8014 11943,8014 11960,8014"/>
       <path fill="none" stroke="rgb(0,0,0)" d="M 11992,8015 C 12009,8015 12026,8015 12044,8015"/>
       <path fill="none" stroke="rgb(0,0,0)" d="M 12077,8016 C 12094,8016 12111,8016 12128,8016"/>
       <path fill="none" stroke="rgb(0,0,0)" d="M 12161,8016 C 12179,8017 12196,8017 12213,8017"/>
       <path fill="none" stroke="rgb(0,0,0)" d="M 12247,8017 C 12264,8017 12281,8018 12299,8018"/>
       <path fill="none" stroke="rgb(0,0,0)" d="M 12333,8018 C 12350,8018 12368,8018 12385,8018"/>
       <path fill="none" stroke="rgb(0,0,0)" d="M 12419,8019 C 12437,8019 12455,8019 12472,8019"/>
       <path fill="none" stroke="rgb(0,0,0)" d="M 12507,8019 C 12524,8019 12542,8020 12560,8020"/>
       <path fill="none" stroke="rgb(0,0,0)" d="M 12594,8020 C 12612,8020 12630,8020 12648,8020"/>
       <path fill="none" stroke="rgb(0,0,0)" d="M 12683,8020 C 12701,8021 12719,8021 12737,8021"/>
       <path fill="none" stroke="rgb(0,0,0)" d="M 12772,8021 C 12790,8021 12808,8021 12826,8021"/>
       <path fill="none" stroke="rgb(0,0,0)" d="M 12862,8021 C 12880,8021 12898,8022 12917,8022"/>
       <path fill="none" stroke="rgb(0,0,0)" d="M 12952,8022 C 12970,8022 12989,8022 13007,8022"/>
       <path fill="none" stroke="rgb(0,0,0)" d="M 13043,8022 C 13062,8022 13080,8022 13099,8022"/>
       <path fill="rgb(0,0,0)" stroke="none" d="M 13573,8023 L 13123,7872 13123,8172 13573,8023 Z"/>
       <text class="TextShape"><tspan class="TextParagraph" font-family="Arial, sans-serif" font-size="353px" font-weight="400"><tspan class="TextPosition" x="11013" y="7829"><tspan fill="rgb(0,0,0)" stroke="none">start process   </tspan></tspan></tspan></text>
      </g>
     </g>
     <g class="com.sun.star.drawing.CustomShape">
      <g id="id12">
       <path fill="rgb(255,255,204)" stroke="none" d="M 13573,11804 L 17638,11804 17638,12976 13573,12976 13573,11804 13573,11804 Z M 13573,11804 L 13573,11804 Z M 17638,12976 L 17638,12976 Z"/>
       <path fill="none" stroke="rgb(52,101,175)" d="M 13573,11804 L 17638,11804 17638,12976 13573,12976 13573,11804 13573,11804 Z"/>
       <path fill="none" stroke="rgb(52,101,175)" d="M 13573,11804 L 13573,11804 Z"/>
       <path fill="none" stroke="rgb(52,101,175)" d="M 17638,12976 L 17638,12976 Z"/>
       <text class="TextShape"><tspan class="TextParagraph" font-family="Arial, sans-serif" font-size="353px" font-weight="400"><tspan class="TextPosition" x="13965" y="12314"><tspan fill="rgb(0,0,0)" stroke="none">send “started” signal </tspan></tspan></tspan><tspan class="TextParagraph" font-family="Arial, sans-serif" font-size="353px" font-weight="400"><tspan class="TextPosition" x="14541" y="12712"><tspan fill="rgb(0,0,0)" stroke="none">to </tspan><tspan font-weight="700" fill="rgb(0,0,0)" stroke="none">statusPort</tspan></tspan></tspan></text>
      </g>
     </g>
     <g class="com.sun.star.drawing.ConnectorShape">
      <g id="id13">
       <path fill="none" stroke="rgb(0,0,0)" d="M 6361,7388 L 6388,8567"/>
       <path fill="rgb(0,0,0)" stroke="none" d="M 6398,8997 L 6538,8544 6238,8551 6398,8997 Z"/>
      </g>
     </g>
     <g class="com.sun.star.drawing.CustomShape">
      <g id="id14">
       <path fill="rgb(204,255,204)" stroke="none" d="M 4428,8996 L 8366,8996 8366,10168 4428,10168 4428,8996 4428,8996 Z M 4428,8996 L 4428,8996 Z M 8366,10168 L 8366,10168 Z"/>
       <path fill="none" stroke="rgb(52,101,175)" d="M 4428,8996 L 8366,8996 8366,10168 4428,10168 4428,8996 4428,8996 Z"/>
       <path fill="none" stroke="rgb(52,101,175)" d="M 4428,8996 L 4428,8996 Z"/>
       <path fill="none" stroke="rgb(52,101,175)" d="M 8366,10168 L 8366,10168 Z"/>
       <text class="TextShape"><tspan class="TextParagraph" font-family="Arial, sans-serif" font-size="353px" font-weight="400"><tspan class="TextPosition" x="4572" y="9506"><tspan fill="rgb(0,0,0)" stroke="none">wait for “started” signal </tspan></tspan><tspan class="TextPosition" x="5283" y="9904"><tspan fill="rgb(0,0,0)" stroke="none">on </tspan><tspan font-weight="700" fill="rgb(0,0,0)" stroke="none">statusPort</tspan></tspan></tspan></text>
      </g>
     </g>
     <g class="com.sun.star.drawing.CustomShape">
      <g id="id15">
       <path fill="rgb(255,255,204)" stroke="none" d="M 14226,8405 C 13899,8405 13573,8214 13573,8023 13573,7832 13899,7642 14226,7642 L 16984,7642 C 17311,7642 17638,7832 17638,8023 17638,8214 17311,8405 16984,8405 L 14226,8405 Z M 13573,7642 L 13573,7642 Z M 17638,8405 L 17638,8405 Z"/>
       <path fill="none" stroke="rgb(52,101,175)" d="M 14226,8405 C 13899,8405 13573,8214 13573,8023 13573,7832 13899,7642 14226,7642 L 16984,7642 C 17311,7642 17638,7832 17638,8023 17638,8214 17311,8405 16984,8405 L 14226,8405 Z"/>
       <path fill="none" stroke="rgb(52,101,175)" d="M 13573,7642 L 13573,7642 Z"/>
       <path fill="none" stroke="rgb(52,101,175)" d="M 17638,8405 L 17638,8405 Z"/>
       <text class="TextShape"><tspan class="TextParagraph" font-family="Arial, sans-serif" font-size="353px" font-weight="400"><tspan class="TextPosition" x="14085" y="8146"><tspan fill="rgb(0,0,0)" stroke="none">Jetty process starts</tspan></tspan></tspan></text>
      </g>
     </g>
     <g class="com.sun.star.drawing.ConnectorShape">
      <g id="id16">
       <path fill="none" stroke="rgb(0,0,0)" d="M 15605,8404 L 15608,9244"/>
       <path fill="rgb(0,0,0)" stroke="none" d="M 15609,9674 L 15758,9224 15458,9224 15609,9674 Z"/>
      </g>
     </g>
     <g class="com.sun.star.drawing.CustomShape">
      <g id="id17">
       <path fill="rgb(255,255,204)" stroke="none" d="M 13192,14245 L 18019,14245 18019,15643 13192,15643 13192,14245 13192,14245 Z M 13192,14245 L 13192,14245 Z M 18019,15643 L 18019,15643 Z"/>
       <path fill="none" stroke="rgb(52,101,175)" d="M 13192,14245 L 18019,14245 18019,15643 13192,15643 13192,14245 13192,14245 Z"/>
       <path fill="none" stroke="rgb(52,101,175)" d="M 13192,14245 L 13192,14245 Z"/>
       <path fill="none" stroke="rgb(52,101,175)" d="M 18019,15643 L 18019,15643 Z"/>
       <text class="TextShape"><tspan class="TextParagraph" font-family="Arial, sans-serif" font-size="353px" font-weight="400"><tspan class="TextPosition" x="14672" y="14669"><tspan fill="rgb(0,0,0)" stroke="none">In wait loop.</tspan></tspan><tspan class="TextPosition" x="13889" y="15067"><tspan fill="rgb(0,0,0)" stroke="none">listen for “stop” signal </tspan></tspan><tspan class="TextPosition" x="14407" y="15465"><tspan fill="rgb(0,0,0)" stroke="none">on </tspan><tspan font-weight="700" fill="rgb(0,0,0)" stroke="none">servicePort</tspan></tspan></tspan></text>
      </g>
     </g>
     <g class="com.sun.star.drawing.ConnectorShape">
      <g id="id18">
       <path fill="none" stroke="rgb(0,0,0)" d="M 15605,12976 L 15605,13816"/>
       <path fill="rgb(0,0,0)" stroke="none" d="M 15605,14246 L 15755,13796 15455,13796 15605,14246 Z"/>
      </g>
     </g>
     <g class="com.sun.star.drawing.CustomShape">
      <g id="id19">
       <path fill="rgb(204,255,204)" stroke="none" d="M 4338,12306 C 3848,12306 3359,12079 3359,11852 3359,11625 3848,11399 4338,11399 L 8476,11399 C 8966,11399 9456,11625 9456,11852 9456,12079 8966,12306 8476,12306 L 4338,12306 Z M 3359,11399 L 3359,11399 Z M 9456,12306 L 9456,12306 Z"/>
       <path fill="none" stroke="rgb(52,101,175)" d="M 4338,12306 C 3848,12306 3359,12079 3359,11852 3359,11625 3848,11399 4338,11399 L 8476,11399 C 8966,11399 9456,11625 9456,11852 9456,12079 8966,12306 8476,12306 L 4338,12306 Z"/>
       <path fill="none" stroke="rgb(52,101,175)" d="M 3359,11399 L 3359,11399 Z"/>
       <path fill="none" stroke="rgb(52,101,175)" d="M 9456,12306 L 9456,12306 Z"/>
       <text class="TextShape"><tspan class="TextParagraph" font-family="Arial, sans-serif" font-size="353px" font-weight="400"><tspan class="TextPosition" x="3767" y="11975"><tspan fill="rgb(0,0,0)" stroke="none">jettyBeforeIntegrationTest finished</tspan></tspan></tspan></text>
      </g>
     </g>
     <g class="com.sun.star.drawing.ConnectorShape">
      <g id="id20">
       <path fill="none" stroke="rgb(0,0,0)" d="M 13573,12390 L 13526,12365"/>
       <path fill="none" stroke="rgb(0,0,0)" d="M 13496,12349 L 13449,12323"/>
       <path fill="none" stroke="rgb(0,0,0)" d="M 13419,12307 L 13373,12282"/>
       <path fill="none" stroke="rgb(0,0,0)" d="M 13342,12266 L 13296,12241"/>
       <path fill="none" stroke="rgb(0,0,0)" d="M 13266,12224 L 13219,12199"/>
       <path fill="none" stroke="rgb(0,0,0)" d="M 13189,12183 L 13142,12158"/>
       <path fill="none" stroke="rgb(0,0,0)" d="M 13112,12141 L 13065,12116"/>
       <path fill="none" stroke="rgb(0,0,0)" d="M 13035,12100 L 12988,12075"/>
       <path fill="none" stroke="rgb(0,0,0)" d="M 12958,12059 L 12911,12033"/>
       <path fill="none" stroke="rgb(0,0,0)" d="M 12881,12017 L 12835,11992"/>
       <path fill="none" stroke="rgb(0,0,0)" d="M 12804,11976 L 12758,11950"/>
       <path fill="none" stroke="rgb(0,0,0)" d="M 12728,11934 L 12681,11909"/>
       <path fill="none" stroke="rgb(0,0,0)" d="M 12651,11893 L 12604,11868"/>
       <path fill="none" stroke="rgb(0,0,0)" d="M 12574,11851 L 12527,11826"/>
       <path fill="none" stroke="rgb(0,0,0)" d="M 12497,11810 L 12450,11785"/>
       <path fill="none" stroke="rgb(0,0,0)" d="M 12420,11768 L 12373,11743"/>
       <path fill="none" stroke="rgb(0,0,0)" d="M 12343,11727 L 12296,11702"/>
       <path fill="none" stroke="rgb(0,0,0)" d="M 12266,11686 L 12220,11660"/>
       <path fill="none" stroke="rgb(0,0,0)" d="M 12190,11644 L 12143,11619"/>
       <path fill="none" stroke="rgb(0,0,0)" d="M 12113,11603 L 12066,11578"/>
       <path fill="none" stroke="rgb(0,0,0)" d="M 12036,11561 L 11989,11536"/>
       <path fill="none" stroke="rgb(0,0,0)" d="M 11959,11520 L 11912,11495"/>
       <path fill="none" stroke="rgb(0,0,0)" d="M 11882,11478 L 11835,11453"/>
       <path fill="none" stroke="rgb(0,0,0)" d="M 11805,11437 L 11758,11412"/>
       <path fill="none" stroke="rgb(0,0,0)" d="M 11728,11396 L 11682,11370"/>
       <path fill="none" stroke="rgb(0,0,0)" d="M 11651,11354 L 11605,11329"/>
       <path fill="none" stroke="rgb(0,0,0)" d="M 11575,11313 L 11528,11288"/>
       <path fill="none" stroke="rgb(0,0,0)" d="M 11498,11271 L 11451,11246"/>
       <path fill="none" stroke="rgb(0,0,0)" d="M 11421,11230 L 11374,11205"/>
       <path fill="none" stroke="rgb(0,0,0)" d="M 11344,11188 L 11297,11163"/>
       <path fill="none" stroke="rgb(0,0,0)" d="M 11267,11147 L 11220,11122"/>
       <path fill="none" stroke="rgb(0,0,0)" d="M 11190,11106 L 11144,11080"/>
       <path fill="none" stroke="rgb(0,0,0)" d="M 11113,11064 L 11067,11039"/>
       <path fill="none" stroke="rgb(0,0,0)" d="M 11037,11023 L 10990,10997"/>
       <path fill="none" stroke="rgb(0,0,0)" d="M 10960,10981 L 10913,10956"/>
       <path fill="none" stroke="rgb(0,0,0)" d="M 10883,10940 L 10836,10915"/>
       <path fill="none" stroke="rgb(0,0,0)" d="M 10806,10898 L 10759,10873"/>
       <path fill="none" stroke="rgb(0,0,0)" d="M 10729,10857 L 10682,10832"/>
       <path fill="none" stroke="rgb(0,0,0)" d="M 10652,10815 L 10606,10790"/>
       <path fill="none" stroke="rgb(0,0,0)" d="M 10575,10774 L 10529,10749"/>
       <path fill="none" stroke="rgb(0,0,0)" d="M 10499,10733 L 10452,10707"/>
       <path fill="none" stroke="rgb(0,0,0)" d="M 10422,10691 L 10375,10666"/>
       <path fill="none" stroke="rgb(0,0,0)" d="M 10345,10650 L 10298,10625"/>
       <path fill="none" stroke="rgb(0,0,0)" d="M 10268,10608 L 10221,10583"/>
       <path fill="none" stroke="rgb(0,0,0)" d="M 10191,10567 L 10144,10542"/>
       <path fill="none" stroke="rgb(0,0,0)" d="M 10114,10525 L 10068,10500"/>
       <path fill="none" stroke="rgb(0,0,0)" d="M 10037,10484 L 9991,10459"/>
       <path fill="none" stroke="rgb(0,0,0)" d="M 9961,10443 L 9914,10417"/>
       <path fill="none" stroke="rgb(0,0,0)" d="M 9884,10401 L 9837,10376"/>
       <path fill="none" stroke="rgb(0,0,0)" d="M 9807,10360 L 9760,10335"/>
       <path fill="none" stroke="rgb(0,0,0)" d="M 9730,10318 L 9683,10293"/>
       <path fill="none" stroke="rgb(0,0,0)" d="M 9653,10277 L 9606,10252"/>
       <path fill="none" stroke="rgb(0,0,0)" d="M 9576,10235 L 9529,10210"/>
       <path fill="none" stroke="rgb(0,0,0)" d="M 9499,10194 L 9453,10169"/>
       <path fill="none" stroke="rgb(0,0,0)" d="M 9423,10153 L 9376,10127"/>
       <path fill="none" stroke="rgb(0,0,0)" d="M 9346,10111 L 9299,10086"/>
       <path fill="none" stroke="rgb(0,0,0)" d="M 9269,10070 L 9222,10044"/>
       <path fill="none" stroke="rgb(0,0,0)" d="M 9192,10028 L 9145,10003"/>
       <path fill="none" stroke="rgb(0,0,0)" d="M 9115,9987 L 9068,9962"/>
       <path fill="none" stroke="rgb(0,0,0)" d="M 9038,9945 L 8991,9920"/>
       <path fill="none" stroke="rgb(0,0,0)" d="M 8961,9904 L 8915,9879"/>
       <path fill="none" stroke="rgb(0,0,0)" d="M 8884,9863 L 8838,9837"/>
       <path fill="none" stroke="rgb(0,0,0)" d="M 8808,9821 L 8761,9796"/>
       <path fill="rgb(0,0,0)" stroke="none" d="M 8366,9583 L 8691,9929 8833,9664 8366,9583 Z"/>
       <text class="TextShape"><tspan class="TextParagraph" font-family="Arial, sans-serif" font-size="353px" font-weight="400"><tspan class="TextPosition" x="10735" y="11309"><tspan fill="rgb(0,0,0)" stroke="none">tcp</tspan></tspan></tspan></text>
      </g>
     </g>
     <g class="com.sun.star.drawing.CustomShape">
      <g id="id21">
       <path fill="rgb(255,255,204)" stroke="none" d="M 14312,17803 C 14006,17803 13700,17612 13700,17421 13700,17230 14006,17040 14312,17040 L 16898,17040 C 17204,17040 17511,17230 17511,17421 17511,17612 17204,17803 16898,17803 L 14312,17803 Z M 13700,17040 L 13700,17040 Z M 17511,17803 L 17511,17803 Z"/>
       <path fill="none" stroke="rgb(52,101,175)" d="M 14312,17803 C 14006,17803 13700,17612 13700,17421 13700,17230 14006,17040 14312,17040 L 16898,17040 C 17204,17040 17511,17230 17511,17421 17511,17612 17204,17803 16898,17803 L 14312,17803 Z"/>
       <path fill="none" stroke="rgb(52,101,175)" d="M 13700,17040 L 13700,17040 Z"/>
       <path fill="none" stroke="rgb(52,101,175)" d="M 17511,17803 L 17511,17803 Z"/>
       <text class="TextShape"><tspan class="TextParagraph" font-family="Arial, sans-serif" font-size="353px" font-weight="400"><tspan class="TextPosition" x="13914" y="17544"><tspan fill="rgb(0,0,0)" stroke="none">Jetty process finished</tspan></tspan></tspan></text>
      </g>
     </g>
     <g class="com.sun.star.drawing.ConnectorShape">
      <g id="id22">
       <path fill="none" stroke="rgb(0,0,0)" d="M 15605,15643 L 15605,16610"/>
       <path fill="rgb(0,0,0)" stroke="none" d="M 15605,17040 L 15755,16590 15455,16590 15605,17040 Z"/>
      </g>
     </g>
     <g class="com.sun.star.drawing.CustomShape">
      <g id="id23">
       <path fill="rgb(255,255,204)" stroke="none" d="M 13446,9673 L 17773,9673 17773,10562 13446,10562 13446,9673 13446,9673 Z M 13446,9673 L 13446,9673 Z M 17773,10563 L 17773,10563 Z"/>
       <path fill="none" stroke="rgb(52,101,175)" d="M 13446,9673 L 17773,9673 17773,10562 13446,10562 13446,9673 13446,9673 Z"/>
       <path fill="none" stroke="rgb(52,101,175)" d="M 13446,9673 L 13446,9673 Z"/>
       <path fill="none" stroke="rgb(52,101,175)" d="M 17773,10563 L 17773,10563 Z"/>
       <text class="TextShape"><tspan class="TextParagraph" font-family="Arial, sans-serif" font-size="353px" font-weight="400"><tspan class="TextPosition" x="13670" y="10042"><tspan fill="rgb(0,0,0)" stroke="none">listen for HTTP requests </tspan></tspan><tspan class="TextPosition" x="15023" y="10440"><tspan fill="rgb(0,0,0)" stroke="none">on </tspan><tspan font-weight="700" fill="rgb(0,0,0)" stroke="none">port</tspan></tspan></tspan></text>
      </g>
     </g>
     <g class="com.sun.star.drawing.ConnectorShape">
      <g id="id24">
       <path fill="none" stroke="rgb(0,0,0)" d="M 15609,10563 L 15606,11375"/>
       <path fill="rgb(0,0,0)" stroke="none" d="M 15605,11805 L 15756,11355 15456,11355 15605,11805 Z"/>
      </g>
     </g>
     <g class="com.sun.star.drawing.ConnectorShape">
      <g id="id25">
       <path fill="none" stroke="rgb(0,0,0)" d="M 6397,10168 L 6404,10969"/>
       <path fill="rgb(0,0,0)" stroke="none" d="M 6407,11399 L 6553,10948 6253,10950 6407,11399 Z"/>
       <text class="TextShape"><tspan class="TextParagraph" font-family="Arial, sans-serif" font-size="353px" font-weight="400"><tspan class="TextPosition" x="5087" y="10907"><tspan fill="rgb(0,0,0)" stroke="none">                           </tspan></tspan></tspan></text>
      </g>
     </g>
     <g class="com.sun.star.drawing.ConnectorShape">
      <g id="id26">
       <path fill="none" stroke="rgb(0,0,0)" d="M 8493,18084 C 8514,18084 8534,18084 8555,18084"/>
       <path fill="none" stroke="rgb(0,0,0)" d="M 8594,18083 C 8614,18083 8634,18082 8654,18082"/>
       <path fill="none" stroke="rgb(0,0,0)" d="M 8692,18081 C 8711,18080 8730,18079 8749,18079"/>
       <path fill="none" stroke="rgb(0,0,0)" d="M 8786,18077 C 8805,18076 8824,18075 8842,18074"/>
       <path fill="none" stroke="rgb(0,0,0)" d="M 8878,18071 C 8896,18070 8914,18069 8932,18067"/>
       <path fill="none" stroke="rgb(0,0,0)" d="M 8966,18065 C 8984,18063 9002,18061 9019,18060"/>
       <path fill="none" stroke="rgb(0,0,0)" d="M 9052,18056 C 9069,18054 9086,18052 9103,18050"/>
       <path fill="none" stroke="rgb(0,0,0)" d="M 9135,18046 C 9152,18044 9168,18042 9184,18040"/>
       <path fill="none" stroke="rgb(0,0,0)" d="M 9215,18035 C 9231,18033 9247,18030 9263,18028"/>
       <path fill="none" stroke="rgb(0,0,0)" d="M 9293,18023 C 9308,18020 9323,18017 9338,18014"/>
       <path fill="none" stroke="rgb(0,0,0)" d="M 9367,18009 C 9385,18005 9402,18002 9419,17998"/>
       <path fill="none" stroke="rgb(0,0,0)" d="M 9457,17989 C 9476,17985 9495,17980 9514,17975"/>
       <path fill="none" stroke="rgb(0,0,0)" d="M 9551,17966 C 9569,17961 9587,17956 9605,17951"/>
       <path fill="none" stroke="rgb(0,0,0)" d="M 9640,17940 C 9657,17935 9674,17929 9692,17924"/>
       <path fill="none" stroke="rgb(0,0,0)" d="M 9724,17913 C 9741,17907 9757,17901 9774,17895"/>
       <path fill="none" stroke="rgb(0,0,0)" d="M 9805,17882 C 9820,17876 9836,17870 9851,17863"/>
       <path fill="none" stroke="rgb(0,0,0)" d="M 9881,17850 C 9896,17844 9911,17837 9925,17830"/>
       <path fill="none" stroke="rgb(0,0,0)" d="M 9953,17816 C 9967,17809 9981,17802 9995,17795"/>
       <path fill="none" stroke="rgb(0,0,0)" d="M 10023,17779 C 10040,17770 10057,17760 10073,17750"/>
       <path fill="none" stroke="rgb(0,0,0)" d="M 10104,17731 C 10120,17721 10135,17711 10150,17700"/>
       <path fill="none" stroke="rgb(0,0,0)" d="M 10179,17680 C 10194,17670 10208,17659 10222,17648"/>
       <path fill="none" stroke="rgb(0,0,0)" d="M 10249,17627 C 10263,17615 10276,17604 10289,17593"/>
       <path fill="none" stroke="rgb(0,0,0)" d="M 10314,17571 C 10327,17559 10339,17547 10351,17535"/>
       <path fill="none" stroke="rgb(0,0,0)" d="M 10374,17512 C 10386,17500 10397,17488 10409,17476"/>
       <path fill="none" stroke="rgb(0,0,0)" d="M 10431,17451 C 10443,17437 10454,17423 10466,17409"/>
       <path fill="none" stroke="rgb(0,0,0)" d="M 10487,17382 C 10498,17368 10509,17354 10519,17339"/>
       <path fill="none" stroke="rgb(0,0,0)" d="M 10539,17311 C 10549,17297 10559,17282 10569,17267"/>
       <path fill="none" stroke="rgb(0,0,0)" d="M 10587,17238 C 10597,17223 10606,17208 10615,17193"/>
       <path fill="none" stroke="rgb(0,0,0)" d="M 10631,17163 C 10640,17148 10648,17133 10657,17117"/>
       <path fill="none" stroke="rgb(0,0,0)" d="M 10672,17087 C 10680,17071 10688,17056 10696,17040"/>
       <path fill="none" stroke="rgb(0,0,0)" d="M 10710,17009 C 10718,16993 10725,16977 10732,16960"/>
       <path fill="none" stroke="rgb(0,0,0)" d="M 10746,16929 C 10753,16913 10760,16897 10766,16880"/>
       <path fill="none" stroke="rgb(0,0,0)" d="M 10779,16848 C 10786,16832 10792,16816 10799,16799"/>
       <path fill="none" stroke="rgb(0,0,0)" d="M 10811,16767 C 10817,16750 10823,16734 10830,16717"/>
       <path fill="none" stroke="rgb(0,0,0)" d="M 10841,16685 C 10847,16668 10853,16651 10859,16635"/>
       <path fill="none" stroke="rgb(0,0,0)" d="M 10871,16602 C 10876,16586 10882,16569 10888,16552"/>
       <path fill="none" stroke="rgb(0,0,0)" d="M 10899,16520 C 10905,16503 10911,16486 10917,16469"/>
       <path fill="none" stroke="rgb(0,0,0)" d="M 10928,16437 C 10934,16420 10939,16403 10945,16387"/>
       <path fill="none" stroke="rgb(0,0,0)" d="M 10956,16354 C 10962,16338 10968,16321 10974,16304"/>
       <path fill="none" stroke="rgb(0,0,0)" d="M 10986,16272 C 10992,16256 10998,16239 11004,16223"/>
       <path fill="none" stroke="rgb(0,0,0)" d="M 11016,16191 C 11023,16174 11029,16158 11036,16141"/>
       <path fill="none" stroke="rgb(0,0,0)" d="M 11048,16109 C 11055,16093 11062,16076 11069,16060"/>
       <path fill="none" stroke="rgb(0,0,0)" d="M 11083,16029 C 11090,16012 11097,15996 11104,15980"/>
       <path fill="none" stroke="rgb(0,0,0)" d="M 11119,15949 C 11127,15933 11135,15917 11143,15902"/>
       <path fill="none" stroke="rgb(0,0,0)" d="M 11158,15871 C 11166,15856 11175,15840 11184,15825"/>
       <path fill="none" stroke="rgb(0,0,0)" d="M 11201,15795 C 11209,15780 11219,15764 11228,15749"/>
       <path fill="none" stroke="rgb(0,0,0)" d="M 11246,15721 C 11255,15707 11265,15692 11275,15678"/>
       <path fill="none" stroke="rgb(0,0,0)" d="M 11294,15651 C 11305,15636 11315,15622 11326,15609"/>
       <path fill="none" stroke="rgb(0,0,0)" d="M 11347,15582 C 11358,15568 11370,15555 11381,15542"/>
       <path fill="none" stroke="rgb(0,0,0)" d="M 11404,15516 C 11417,15503 11429,15490 11442,15477"/>
       <path fill="none" stroke="rgb(0,0,0)" d="M 11467,15453 C 11480,15440 11493,15427 11507,15415"/>
       <path fill="none" stroke="rgb(0,0,0)" d="M 11534,15392 C 11547,15381 11559,15371 11572,15361"/>
       <path fill="none" stroke="rgb(0,0,0)" d="M 11597,15342 C 11610,15332 11624,15322 11638,15312"/>
       <path fill="none" stroke="rgb(0,0,0)" d="M 11665,15294 C 11679,15285 11693,15275 11708,15266"/>
       <path fill="none" stroke="rgb(0,0,0)" d="M 11737,15249 C 11752,15240 11767,15231 11783,15223"/>
       <path fill="none" stroke="rgb(0,0,0)" d="M 11814,15206 C 11830,15198 11846,15190 11863,15182"/>
       <path fill="none" stroke="rgb(0,0,0)" d="M 11896,15167 C 11913,15159 11930,15151 11948,15144"/>
       <path fill="none" stroke="rgb(0,0,0)" d="M 11983,15130 C 12000,15123 12017,15117 12035,15110"/>
       <path fill="none" stroke="rgb(0,0,0)" d="M 12063,15101 C 12078,15096 12092,15091 12107,15086"/>
       <path fill="none" stroke="rgb(0,0,0)" d="M 12137,15077 C 12152,15072 12168,15067 12183,15063"/>
       <path fill="none" stroke="rgb(0,0,0)" d="M 12214,15054 C 12230,15050 12247,15046 12263,15042"/>
       <path fill="none" stroke="rgb(0,0,0)" d="M 12295,15034 C 12312,15030 12329,15027 12346,15023"/>
       <path fill="none" stroke="rgb(0,0,0)" d="M 12380,15016 C 12397,15012 12415,15009 12433,15006"/>
       <path fill="none" stroke="rgb(0,0,0)" d="M 12468,15000 C 12487,14996 12505,14993 12524,14991"/>
       <path fill="none" stroke="rgb(0,0,0)" d="M 12561,14985 C 12580,14983 12599,14980 12619,14978"/>
       <path fill="none" stroke="rgb(0,0,0)" d="M 12657,14973 C 12677,14971 12697,14969 12718,14967"/>
       <path fill="rgb(0,0,0)" stroke="none" d="M 13192,14945 L 12736,14815 12749,15115 13192,14945 Z"/>
       <text class="TextShape"><tspan class="TextParagraph" font-family="Arial, sans-serif" font-size="353px" font-weight="400"><tspan class="TextPosition" x="10608" y="16638"><tspan fill="rgb(0,0,0)" stroke="none">tcp</tspan></tspan></tspan></text>
      </g>
     </g>
     <g class="com.sun.star.drawing.CustomShape">
      <g id="id27">
       <path fill="rgb(255,204,255)" stroke="none" d="M 4428,13574 L 8366,13574 8366,14746 4428,14746 4428,13574 4428,13574 Z M 4428,13574 L 4428,13574 Z M 8366,14746 L 8366,14746 Z"/>
       <path fill="none" stroke="rgb(52,101,175)" d="M 4428,13574 L 8366,13574 8366,14746 4428,14746 4428,13574 4428,13574 Z"/>
       <path fill="none" stroke="rgb(52,101,175)" d="M 4428,13574 L 4428,13574 Z"/>
       <path fill="none" stroke="rgb(52,101,175)" d="M 8366,14746 L 8366,14746 Z"/>
       <text class="TextShape"><tspan class="TextParagraph" font-family="Arial, sans-serif" font-size="353px" font-weight="400"><tspan class="TextPosition" x="4885" y="14283"><tspan fill="rgb(0,0,0)" stroke="none">integrationTest task</tspan></tspan></tspan></text>
      </g>
     </g>
     <g class="com.sun.star.drawing.ConnectorShape">
      <g id="id28">
       <path fill="none" stroke="rgb(0,0,0)" d="M 6407,12305 L 6401,13145"/>
       <path fill="rgb(0,0,0)" stroke="none" d="M 6398,13575 L 6551,13126 6251,13124 6398,13575 Z"/>
      </g>
     </g>
     <g class="com.sun.star.drawing.CustomShape">
      <g id="id29">
       <path fill="rgb(204,255,255)" stroke="none" d="M 4284,16497 C 3784,16497 3285,16306 3285,16115 3285,15924 3784,15734 4284,15734 L 8509,15734 C 9009,15734 9509,15924 9509,16115 9509,16306 9009,16497 8509,16497 L 4284,16497 Z M 3285,15734 L 3285,15734 Z M 9509,16497 L 9509,16497 Z"/>
       <path fill="none" stroke="rgb(52,101,175)" d="M 4284,16497 C 3784,16497 3285,16306 3285,16115 3285,15924 3784,15734 4284,15734 L 8509,15734 C 9009,15734 9509,15924 9509,16115 9509,16306 9009,16497 8509,16497 L 4284,16497 Z"/>
       <path fill="none" stroke="rgb(52,101,175)" d="M 3285,15734 L 3285,15734 Z"/>
       <path fill="none" stroke="rgb(52,101,175)" d="M 9509,16497 L 9509,16497 Z"/>
       <text class="TextShape"><tspan class="TextParagraph" font-family="Arial, sans-serif" font-size="353px" font-weight="400"><tspan class="TextPosition" x="4075" y="16238"><tspan fill="rgb(0,0,0)" stroke="none">jettyAfterIntegrationTest starts</tspan></tspan></tspan></text>
      </g>
     </g>
     <g class="com.sun.star.drawing.ConnectorShape">
      <g id="id30">
       <path fill="none" stroke="rgb(0,0,0)" d="M 6397,14746 L 6398,15304"/>
       <path fill="rgb(0,0,0)" stroke="none" d="M 6398,15734 L 6548,15284 6248,15284 6398,15734 Z"/>
      </g>
     </g>
     <g class="com.sun.star.drawing.CustomShape">
      <g id="id31">
       <path fill="rgb(204,255,255)" stroke="none" d="M 4301,17511 L 8493,17511 8493,18655 4301,18655 4301,17511 4301,17511 Z M 4301,17511 L 4301,17511 Z M 8493,18655 L 8493,18655 Z"/>
       <path fill="none" stroke="rgb(52,101,175)" d="M 4301,17511 L 8493,17511 8493,18655 4301,18655 4301,17511 4301,17511 Z"/>
       <path fill="none" stroke="rgb(52,101,175)" d="M 4301,17511 L 4301,17511 Z"/>
       <path fill="none" stroke="rgb(52,101,175)" d="M 8493,18655 L 8493,18655 Z"/>
       <text class="TextShape"><tspan class="TextParagraph" font-family="Arial, sans-serif" font-size="353px" font-weight="400"><tspan class="TextPosition" x="5010" y="18007"><tspan fill="rgb(0,0,0)" stroke="none">send “stop” signal</tspan></tspan><tspan class="TextPosition" x="5248" y="18405"><tspan fill="rgb(0,0,0)" stroke="none">to </tspan><tspan font-weight="700" fill="rgb(0,0,0)" stroke="none">servicePort</tspan></tspan></tspan></text>
      </g>
     </g>
     <g class="com.sun.star.drawing.ConnectorShape">
      <g id="id32">
       <path fill="none" stroke="rgb(0,0,0)" d="M 6397,16496 L 6397,17082"/>
       <path fill="rgb(0,0,0)" stroke="none" d="M 6397,17512 L 6547,17062 6247,17062 6397,17512 Z"/>
      </g>
     </g>
     <g class="com.sun.star.drawing.CustomShape">
      <g id="id33">
       <path fill="rgb(204,255,255)" stroke="none" d="M 4284,20305 C 3784,20305 3285,20114 3285,19923 3285,19732 3784,19542 4284,19542 L 8509,19542 C 9009,19542 9509,19732 9509,19923 9509,20114 9009,20305 8509,20305 L 4284,20305 Z M 3285,19542 L 3285,19542 Z M 9509,20305 L 9509,20305 Z"/>
       <path fill="none" stroke="rgb(52,101,175)" d="M 4284,20305 C 3784,20305 3285,20114 3285,19923 3285,19732 3784,19542 4284,19542 L 8509,19542 C 9009,19542 9509,19732 9509,19923 9509,20114 9009,20305 8509,20305 L 4284,20305 Z"/>
       <path fill="none" stroke="rgb(52,101,175)" d="M 3285,19542 L 3285,19542 Z"/>
       <path fill="none" stroke="rgb(52,101,175)" d="M 9509,20305 L 9509,20305 Z"/>
       <text class="TextShape"><tspan class="TextParagraph" font-family="Arial, sans-serif" font-size="353px" font-weight="400"><tspan class="TextPosition" x="3903" y="20046"><tspan fill="rgb(0,0,0)" stroke="none">jettyAfterIntegrationTest finished</tspan></tspan></tspan></text>
      </g>
     </g>
     <g class="com.sun.star.drawing.ConnectorShape">
      <g id="id34">
       <path fill="none" stroke="rgb(0,0,0)" d="M 6397,18655 L 6398,19112"/>
       <path fill="rgb(0,0,0)" stroke="none" d="M 6398,19542 L 6547,19092 6247,19092 6398,19542 Z"/>
      </g>
     </g>
    </g>
   </g>
  </g>
 </g>
</svg>