<?xml version="1.0" encoding="UTF-8"?>
<!DOCTYPE svg PUBLIC "-//W3C//DTD SVG 1.1//EN" "http://www.w3.org/Graphics/SVG/1.1/DTD/svg11.dtd">
<svg version="1.2" width="170mm" height="260mm" viewBox="0 0 17000 26000" preserveAspectRatio="xMidYMid" fill-rule="evenodd" clip-path="url(#presentation_clip_path)" stroke-width="28.222" stroke-linejoin="round" xmlns="http://www.w3.org/2000/svg" xmlns:ooo="http://xml.openoffice.org/svg/export" xmlns:xlink="http://www.w3.org/1999/xlink" xml:space="preserve">
 <defs class="ClipPathGroup">
  <clipPath id="presentation_clip_path" clipPathUnits="userSpaceOnUse">
   <rect x="0" y="0" width="17000" height="26000"/>
  </clipPath>
 </defs>
 <defs class="TextShapeIndex">
  <g ooo:slide="id1" ooo:id-list="id3 id4 id5 id6 id7 id8 id9 id10 id11 id12 id13 id14 id15 id16 id17 id18 id19 id20 id21 id22 id23 id24 id25 id26 id27 id28 id29 id30 id31 id32 id33 id34 id35 id36 id37"/>
 </defs>
 <defs class="EmbeddedBulletChars">
  <g id="bullet-char-template(57356)" transform="scale(0.00048828125,-0.00048828125)">
   <path d="M 580,1141 L 1163,571 580,0 -4,571 580,1141 Z"/>
  </g>
  <g id="bullet-char-template(57354)" transform="scale(0.00048828125,-0.00048828125)">
   <path d="M 8,1128 L 1137,1128 1137,0 8,0 8,1128 Z"/>
  </g>
  <g id="bullet-char-template(10146)" transform="scale(0.00048828125,-0.00048828125)">
   <path d="M 174,0 L 602,739 174,1481 1456,739 174,0 Z M 1358,739 L 309,1346 659,739 1358,739 Z"/>
  </g>
  <g id="bullet-char-template(10132)" transform="scale(0.00048828125,-0.00048828125)">
   <path d="M 2015,739 L 1276,0 717,0 1260,543 174,543 174,936 1260,936 717,1481 1274,1481 2015,739 Z"/>
  </g>
  <g id="bullet-char-template(10007)" transform="scale(0.00048828125,-0.00048828125)">
   <path d="M 0,-2 C -7,14 -16,27 -25,37 L 356,567 C 262,823 215,952 215,954 215,979 228,992 255,992 264,992 276,990 289,987 310,991 331,999 354,1012 L 381,999 492,748 772,1049 836,1024 860,1049 C 881,1039 901,1025 922,1006 886,937 835,863 770,784 769,783 710,716 594,584 L 774,223 C 774,196 753,168 711,139 L 727,119 C 717,90 699,76 672,76 641,76 570,178 457,381 L 164,-76 C 142,-110 111,-127 72,-127 30,-127 9,-110 8,-76 1,-67 -2,-52 -2,-32 -2,-23 -1,-13 0,-2 Z"/>
  </g>
  <g id="bullet-char-template(10004)" transform="scale(0.00048828125,-0.00048828125)">
   <path d="M 285,-33 C 182,-33 111,30 74,156 52,228 41,333 41,471 41,549 55,616 82,672 116,743 169,778 240,778 293,778 328,747 346,684 L 369,508 C 377,444 397,411 428,410 L 1163,1116 C 1174,1127 1196,1133 1229,1133 1271,1133 1292,1118 1292,1087 L 1292,965 C 1292,929 1282,901 1262,881 L 442,47 C 390,-6 338,-33 285,-33 Z"/>
  </g>
  <g id="bullet-char-template(9679)" transform="scale(0.00048828125,-0.00048828125)">
   <path d="M 813,0 C 632,0 489,54 383,161 276,268 223,411 223,592 223,773 276,916 383,1023 489,1130 632,1184 813,1184 992,1184 1136,1130 1245,1023 1353,916 1407,772 1407,592 1407,412 1353,268 1245,161 1136,54 992,0 813,0 Z"/>
  </g>
  <g id="bullet-char-template(8226)" transform="scale(0.00048828125,-0.00048828125)">
   <path d="M 346,457 C 273,457 209,483 155,535 101,586 74,649 74,723 74,796 101,859 155,911 209,963 273,989 346,989 419,989 480,963 531,910 582,859 608,796 608,723 608,648 583,586 532,535 482,483 420,457 346,457 Z"/>
  </g>
  <g id="bullet-char-template(8211)" transform="scale(0.00048828125,-0.00048828125)">
   <path d="M -4,459 L 1135,459 1135,606 -4,606 -4,459 Z"/>
  </g>
 </defs>
 <defs class="TextEmbeddedBitmaps"/>
 <g>
  <g id="id2" class="Master_Slide">
   <g id="bg-id2" class="Background"/>
   <g id="bo-id2" class="BackgroundObjects"/>
  </g>
 </g>
 <g class="SlideGroup">
  <g>
   <g id="id1" class="Slide" clip-path="url(#presentation_clip_path)">
    <g class="Page">
     <g class="com.sun.star.drawing.CustomShape">
      <g id="id3">
       <path fill="rgb(204,255,204)" stroke="none" d="M 2252,1890 C 1915,1890 1579,1699 1579,1508 1579,1317 1915,1127 2252,1127 L 5097,1127 C 5434,1127 5771,1317 5771,1508 5771,1699 5434,1890 5097,1890 L 2252,1890 Z M 1579,1127 L 1579,1127 Z M 5771,1890 L 5771,1890 Z"/>
       <path fill="none" stroke="rgb(52,101,175)" d="M 2252,1890 C 1915,1890 1579,1699 1579,1508 1579,1317 1915,1127 2252,1127 L 5097,1127 C 5434,1127 5771,1317 5771,1508 5771,1699 5434,1890 5097,1890 L 2252,1890 Z"/>
       <path fill="none" stroke="rgb(52,101,175)" d="M 1579,1127 L 1579,1127 Z"/>
       <path fill="none" stroke="rgb(52,101,175)" d="M 5771,1890 L 5771,1890 Z"/>
       <text class="TextShape"><tspan class="TextParagraph" font-family="Arial, sans-serif" font-size="353px" font-weight="400"><tspan class="TextPosition" x="1721" y="1631"><tspan fill="rgb(0,0,0)" stroke="none">jettyRunWarDebug starts</tspan></tspan></tspan></text>
      </g>
     </g>
     <g class="com.sun.star.drawing.CustomShape">
      <g id="id4">
       <path fill="rgb(204,255,204)" stroke="none" d="M 1758,3539 L 3677,2777 5597,3539 3677,4301 1758,3539 1758,3539 Z M 1758,2777 L 1758,2777 Z M 5597,4301 L 5597,4301 Z"/>
       <path fill="none" stroke="rgb(52,101,175)" d="M 1758,3539 L 3677,2777 5597,3539 3677,4301 1758,3539 1758,3539 Z"/>
       <path fill="none" stroke="rgb(52,101,175)" d="M 1758,2777 L 1758,2777 Z"/>
       <path fill="none" stroke="rgb(52,101,175)" d="M 5597,4301 L 5597,4301 Z"/>
       <text class="TextShape"><tspan class="TextParagraph" font-family="Arial, sans-serif" font-size="353px" font-weight="400"><tspan class="TextPosition" x="3059" y="3463"><tspan fill="rgb(0,0,0)" stroke="none">sources</tspan></tspan><tspan class="TextPosition" x="2779" y="3861"><tspan fill="rgb(0,0,0)" stroke="none">up-to-date?</tspan></tspan></tspan></text>
      </g>
     </g>
     <g class="com.sun.star.drawing.ConnectorShape">
      <g id="id5">
       <path fill="none" stroke="rgb(0,0,0)" d="M 3676,1889 L 3677,2348"/>
       <path fill="rgb(0,0,0)" stroke="none" d="M 3677,2778 L 3826,2328 3526,2328 3677,2778 Z"/>
      </g>
     </g>
     <g class="com.sun.star.drawing.CustomShape">
      <g id="id6">
       <path fill="rgb(204,255,204)" stroke="none" d="M 5813,4371 L 9074,4371 9074,5191 5813,5191 5813,4371 5813,4371 Z M 5813,4371 L 5813,4371 Z M 9074,5192 L 9074,5192 Z"/>
       <path fill="none" stroke="rgb(52,101,175)" d="M 5813,4371 L 9074,4371 9074,5191 5813,5191 5813,4371 5813,4371 Z"/>
       <path fill="none" stroke="rgb(52,101,175)" d="M 5813,4371 L 5813,4371 Z"/>
       <path fill="none" stroke="rgb(52,101,175)" d="M 9074,5192 L 9074,5192 Z"/>
       <text class="TextShape"><tspan class="TextParagraph" font-family="Arial, sans-serif" font-size="353px" font-weight="400"><tspan class="TextPosition" x="6840" y="4904"><tspan fill="rgb(0,0,0)" stroke="none">compile</tspan></tspan></tspan></text>
      </g>
     </g>
     <g class="com.sun.star.drawing.ConnectorShape">
      <g id="id7">
       <path fill="none" stroke="rgb(0,0,0)" d="M 5596,3540 L 7443,3540 7443,3941"/>
       <path fill="rgb(0,0,0)" stroke="none" d="M 7443,4371 L 7593,3921 7293,3921 7443,4371 Z"/>
       <text class="TextShape"><tspan class="TextParagraph" font-family="Arial, sans-serif" font-size="353px" font-weight="400"><tspan class="TextPosition" x="6325" y="3880"><tspan fill="rgb(0,0,0)" stroke="none">no</tspan></tspan></tspan></text>
      </g>
     </g>
     <g class="com.sun.star.drawing.ConnectorShape">
      <g id="id8">
       <path fill="none" stroke="rgb(0,0,0)" d="M 3677,4301 L 3659,6334"/>
       <path fill="rgb(0,0,0)" stroke="none" d="M 3655,6764 L 3809,6315 3509,6313 3655,6764 Z"/>
       <text class="TextShape"><tspan class="TextParagraph" font-family="Arial, sans-serif" font-size="353px" font-weight="400"><tspan class="TextPosition" x="3001" y="5059"><tspan fill="rgb(0,0,0)" stroke="none">yes        </tspan></tspan></tspan></text>
      </g>
     </g>
     <g class="com.sun.star.drawing.ConnectorShape">
      <g id="id9">
       <path fill="none" stroke="rgb(0,0,0)" d="M 7443,5191 L 7443,5978 3655,5978 3655,6334"/>
       <path fill="rgb(0,0,0)" stroke="none" d="M 3655,6764 L 3805,6314 3505,6314 3655,6764 Z"/>
      </g>
     </g>
     <g class="com.sun.star.drawing.CustomShape">
      <g id="id10">
       <path fill="rgb(204,255,204)" stroke="none" d="M 1251,8836 L 6025,8836 6025,9891 1251,9891 1251,8836 1251,8836 Z M 1251,8836 L 1251,8836 Z M 6025,9891 L 6025,9891 Z"/>
       <path fill="none" stroke="rgb(52,101,175)" d="M 1251,8836 L 6025,8836 6025,9891 1251,9891 1251,8836 1251,8836 Z"/>
       <path fill="none" stroke="rgb(52,101,175)" d="M 1251,8836 L 1251,8836 Z"/>
       <path fill="none" stroke="rgb(52,101,175)" d="M 6025,9891 L 6025,9891 Z"/>
       <text class="TextShape"><tspan class="TextParagraph" font-family="Arial, sans-serif" font-size="353px" font-weight="400"><tspan class="TextPosition" x="2158" y="9287"><tspan fill="rgb(0,0,0)" stroke="none">start Jetty process </tspan></tspan><tspan class="TextPosition" x="2459" y="9685"><tspan fill="rgb(0,0,0)" stroke="none">against war-file</tspan></tspan></tspan></text>
      </g>
     </g>
     <g class="com.sun.star.drawing.ConnectorShape">
      <g id="id11">
       <path fill="none" stroke="rgb(0,0,0)" d="M 3639,9890 C 3639,9906 3642,9922 3649,9938"/>
       <path fill="none" stroke="rgb(0,0,0)" d="M 3666,9968 C 3677,9983 3691,9997 3708,10012"/>
       <path fill="none" stroke="rgb(0,0,0)" d="M 3730,10028 C 3742,10037 3755,10045 3770,10054"/>
       <path fill="none" stroke="rgb(0,0,0)" d="M 3799,10070 C 3815,10078 3833,10086 3851,10094"/>
       <path fill="none" stroke="rgb(0,0,0)" d="M 3888,10109 C 3904,10115 3920,10121 3937,10127"/>
       <path fill="none" stroke="rgb(0,0,0)" d="M 3965,10137 C 3980,10142 3996,10147 4012,10152"/>
       <path fill="none" stroke="rgb(0,0,0)" d="M 4044,10161 C 4060,10166 4077,10170 4095,10175"/>
       <path fill="none" stroke="rgb(0,0,0)" d="M 4130,10184 C 4148,10189 4167,10193 4187,10198"/>
       <path fill="none" stroke="rgb(0,0,0)" d="M 4225,10206 C 4242,10210 4259,10214 4276,10217"/>
       <path fill="none" stroke="rgb(0,0,0)" d="M 4306,10224 C 4322,10227 4338,10230 4354,10233"/>
       <path fill="none" stroke="rgb(0,0,0)" d="M 4385,10239 C 4402,10242 4419,10245 4436,10248"/>
       <path fill="none" stroke="rgb(0,0,0)" d="M 4469,10254 C 4487,10257 4504,10260 4522,10263"/>
       <path fill="none" stroke="rgb(0,0,0)" d="M 4558,10268 C 4576,10271 4595,10274 4614,10277"/>
       <path fill="none" stroke="rgb(0,0,0)" d="M 4650,10283 C 4670,10285 4689,10288 4709,10291"/>
       <path fill="none" stroke="rgb(0,0,0)" d="M 4742,10296 C 4758,10298 4774,10300 4790,10302"/>
       <path fill="none" stroke="rgb(0,0,0)" d="M 4821,10306 C 4838,10308 4854,10310 4871,10312"/>
       <path fill="none" stroke="rgb(0,0,0)" d="M 4903,10316 C 4920,10318 4937,10320 4955,10322"/>
       <path fill="none" stroke="rgb(0,0,0)" d="M 4988,10326 C 5006,10328 5023,10330 5041,10332"/>
       <path fill="none" stroke="rgb(0,0,0)" d="M 5076,10336 C 5094,10338 5112,10340 5130,10342"/>
       <path fill="none" stroke="rgb(0,0,0)" d="M 5166,10345 C 5184,10347 5203,10349 5222,10351"/>
       <path fill="none" stroke="rgb(0,0,0)" d="M 5259,10355 C 5278,10356 5297,10358 5316,10360"/>
       <path fill="none" stroke="rgb(0,0,0)" d="M 5350,10363 C 5366,10365 5383,10366 5399,10367"/>
       <path fill="none" stroke="rgb(0,0,0)" d="M 5431,10370 C 5447,10372 5464,10373 5481,10375"/>
       <path fill="none" stroke="rgb(0,0,0)" d="M 5513,10377 C 5530,10379 5547,10380 5564,10381"/>
       <path fill="none" stroke="rgb(0,0,0)" d="M 5597,10384 C 5615,10385 5632,10387 5649,10388"/>
       <path fill="none" stroke="rgb(0,0,0)" d="M 5683,10391 C 5701,10392 5719,10393 5737,10395"/>
       <path fill="none" stroke="rgb(0,0,0)" d="M 5771,10397 C 5789,10399 5807,10400 5826,10401"/>
       <path fill="none" stroke="rgb(0,0,0)" d="M 5861,10404 C 5879,10405 5898,10406 5917,10407"/>
       <path fill="none" stroke="rgb(0,0,0)" d="M 5953,10410 C 5971,10411 5990,10412 6009,10413"/>
       <path fill="none" stroke="rgb(0,0,0)" d="M 6046,10416 C 6064,10417 6082,10418 6100,10419"/>
       <path fill="none" stroke="rgb(0,0,0)" d="M 6132,10421 C 6148,10422 6165,10423 6181,10424"/>
       <path fill="none" stroke="rgb(0,0,0)" d="M 6214,10426 C 6230,10427 6247,10428 6264,10429"/>
       <path fill="none" stroke="rgb(0,0,0)" d="M 6297,10431 C 6314,10432 6331,10432 6348,10433"/>
       <path fill="none" stroke="rgb(0,0,0)" d="M 6382,10435 C 6399,10436 6416,10437 6434,10438"/>
       <path fill="none" stroke="rgb(0,0,0)" d="M 6468,10440 C 6485,10441 6503,10441 6521,10442"/>
       <path fill="none" stroke="rgb(0,0,0)" d="M 6555,10444 C 6573,10445 6591,10446 6609,10447"/>
       <path fill="none" stroke="rgb(0,0,0)" d="M 6644,10448 C 6662,10449 6680,10450 6698,10451"/>
       <path fill="none" stroke="rgb(0,0,0)" d="M 6734,10452 C 6752,10453 6771,10454 6789,10455"/>
       <path fill="none" stroke="rgb(0,0,0)" d="M 6825,10456 C 6844,10457 6863,10458 6881,10459"/>
       <path fill="none" stroke="rgb(0,0,0)" d="M 6918,10460 C 6936,10461 6954,10462 6973,10463"/>
       <path fill="none" stroke="rgb(0,0,0)" d="M 7005,10464 C 7021,10464 7038,10465 7055,10466"/>
       <path fill="none" stroke="rgb(0,0,0)" d="M 7087,10467 C 7104,10468 7121,10468 7138,10469"/>
       <path fill="none" stroke="rgb(0,0,0)" d="M 7171,10470 C 7188,10471 7205,10471 7222,10472"/>
       <path fill="none" stroke="rgb(0,0,0)" d="M 7255,10473 C 7273,10474 7290,10474 7307,10475"/>
       <path fill="none" stroke="rgb(0,0,0)" d="M 7341,10476 C 7358,10477 7376,10477 7393,10478"/>
       <path fill="none" stroke="rgb(0,0,0)" d="M 7427,10479 C 7445,10479 7463,10480 7480,10481"/>
       <path fill="none" stroke="rgb(0,0,0)" d="M 7515,10482 C 7533,10482 7551,10483 7569,10483"/>
       <path fill="none" stroke="rgb(0,0,0)" d="M 7603,10484 C 7621,10485 7640,10485 7658,10486"/>
       <path fill="none" stroke="rgb(0,0,0)" d="M 7693,10487 C 7711,10487 7730,10488 7748,10488"/>
       <path fill="none" stroke="rgb(0,0,0)" d="M 7783,10489 C 7802,10490 7820,10490 7839,10491"/>
       <path fill="none" stroke="rgb(0,0,0)" d="M 7875,10492 C 7894,10492 7912,10493 7931,10493"/>
       <path fill="none" stroke="rgb(0,0,0)" d="M 7968,10494 C 7984,10495 8001,10495 8018,10495"/>
       <path fill="none" stroke="rgb(0,0,0)" d="M 8051,10496 C 8068,10497 8084,10497 8101,10497"/>
       <path fill="none" stroke="rgb(0,0,0)" d="M 8134,10498 C 8151,10498 8168,10499 8185,10499"/>
       <path fill="none" stroke="rgb(0,0,0)" d="M 8218,10500 C 8235,10500 8252,10501 8270,10501"/>
       <path fill="none" stroke="rgb(0,0,0)" d="M 8303,10502 C 8320,10502 8338,10502 8355,10503"/>
       <path fill="none" stroke="rgb(0,0,0)" d="M 8389,10503 C 8406,10504 8424,10504 8441,10504"/>
       <path fill="none" stroke="rgb(0,0,0)" d="M 8475,10505 C 8493,10505 8510,10506 8528,10506"/>
       <path fill="none" stroke="rgb(0,0,0)" d="M 8562,10507 C 8580,10507 8598,10507 8616,10508"/>
       <path fill="none" stroke="rgb(0,0,0)" d="M 8650,10508 C 8668,10508 8686,10509 8704,10509"/>
       <path fill="none" stroke="rgb(0,0,0)" d="M 8739,10510 C 8757,10510 8775,10510 8793,10510"/>
       <path fill="none" stroke="rgb(0,0,0)" d="M 8828,10511 C 8847,10511 8865,10511 8883,10512"/>
       <path fill="none" stroke="rgb(0,0,0)" d="M 8919,10512 C 8937,10513 8955,10513 8974,10513"/>
       <path fill="none" stroke="rgb(0,0,0)" d="M 9010,10514 C 9028,10514 9047,10514 9065,10514"/>
       <path fill="none" stroke="rgb(0,0,0)" d="M 9102,10515 C 9119,10515 9137,10515 9154,10515"/>
       <path fill="none" stroke="rgb(0,0,0)" d="M 9187,10516 C 9204,10516 9221,10516 9238,10516"/>
       <path fill="none" stroke="rgb(0,0,0)" d="M 9270,10517 C 9287,10517 9304,10517 9322,10517"/>
       <path fill="none" stroke="rgb(0,0,0)" d="M 9355,10518 C 9372,10518 9389,10518 9406,10518"/>
       <path fill="none" stroke="rgb(0,0,0)" d="M 9439,10518 C 9457,10519 9474,10519 9491,10519"/>
       <path fill="none" stroke="rgb(0,0,0)" d="M 9525,10519 C 9542,10519 9559,10520 9577,10520"/>
       <path fill="none" stroke="rgb(0,0,0)" d="M 9611,10520 C 9628,10520 9646,10520 9663,10520"/>
       <path fill="none" stroke="rgb(0,0,0)" d="M 9697,10521 C 9715,10521 9733,10521 9750,10521"/>
       <path fill="none" stroke="rgb(0,0,0)" d="M 9785,10521 C 9802,10521 9820,10522 9838,10522"/>
       <path fill="none" stroke="rgb(0,0,0)" d="M 9872,10522 C 9890,10522 9908,10522 9926,10522"/>
       <path fill="none" stroke="rgb(0,0,0)" d="M 9961,10522 C 9979,10523 9997,10523 10015,10523"/>
       <path fill="none" stroke="rgb(0,0,0)" d="M 10050,10523 C 10068,10523 10086,10523 10104,10523"/>
       <path fill="none" stroke="rgb(0,0,0)" d="M 10140,10523 C 10158,10523 10176,10524 10195,10524"/>
       <path fill="none" stroke="rgb(0,0,0)" d="M 10230,10524 C 10248,10524 10267,10524 10285,10524"/>
       <path fill="none" stroke="rgb(0,0,0)" d="M 10321,10524 C 10340,10524 10358,10524 10377,10524"/>
       <path fill="rgb(0,0,0)" stroke="none" d="M 10851,10525 L 10401,10374 10401,10674 10851,10525 Z"/>
       <text class="TextShape"><tspan class="TextParagraph" font-family="Arial, sans-serif" font-size="353px" font-weight="400"><tspan class="TextPosition" x="8291" y="10331"><tspan fill="rgb(0,0,0)" stroke="none">start process   </tspan></tspan></tspan></text>
      </g>
     </g>
     <g class="com.sun.star.drawing.CustomShape">
      <g id="id12">
       <path fill="rgb(255,255,204)" stroke="none" d="M 10851,16338 L 14916,16338 14916,17510 10851,17510 10851,16338 10851,16338 Z M 10851,16338 L 10851,16338 Z M 14916,17510 L 14916,17510 Z"/>
       <path fill="none" stroke="rgb(52,101,175)" d="M 10851,16338 L 14916,16338 14916,17510 10851,17510 10851,16338 10851,16338 Z"/>
       <path fill="none" stroke="rgb(52,101,175)" d="M 10851,16338 L 10851,16338 Z"/>
       <path fill="none" stroke="rgb(52,101,175)" d="M 14916,17510 L 14916,17510 Z"/>
       <text class="TextShape"><tspan class="TextParagraph" font-family="Arial, sans-serif" font-size="353px" font-weight="400"><tspan class="TextPosition" x="11243" y="16848"><tspan fill="rgb(0,0,0)" stroke="none">send “started” signal </tspan></tspan></tspan><tspan class="TextParagraph" font-family="Arial, sans-serif" font-size="353px" font-weight="400"><tspan class="TextPosition" x="11819" y="17246"><tspan fill="rgb(0,0,0)" stroke="none">to </tspan><tspan font-weight="700" fill="rgb(0,0,0)" stroke="none">statusPort</tspan></tspan></tspan></text>
      </g>
     </g>
     <g class="com.sun.star.drawing.ConnectorShape">
      <g id="id13">
       <path fill="none" stroke="rgb(0,0,0)" d="M 3639,9890 L 3666,11069"/>
       <path fill="rgb(0,0,0)" stroke="none" d="M 3676,11499 L 3816,11046 3516,11053 3676,11499 Z"/>
      </g>
     </g>
     <g class="com.sun.star.drawing.CustomShape">
      <g id="id14">
       <path fill="rgb(204,255,204)" stroke="none" d="M 1697,14193 L 5772,14193 5772,15082 1697,15082 1697,14193 1697,14193 Z M 1697,14193 L 1697,14193 Z M 5772,15083 L 5772,15083 Z"/>
       <path fill="none" stroke="rgb(52,101,175)" d="M 1697,14193 L 5772,14193 5772,15082 1697,15082 1697,14193 1697,14193 Z"/>
       <path fill="none" stroke="rgb(52,101,175)" d="M 1697,14193 L 1697,14193 Z"/>
       <path fill="none" stroke="rgb(52,101,175)" d="M 5772,15083 L 5772,15083 Z"/>
       <text class="TextShape"><tspan class="TextParagraph" font-family="Arial, sans-serif" font-size="353px" font-weight="400"><tspan class="TextPosition" x="2022" y="14761"><tspan fill="rgb(0,0,0)" stroke="none">wait for user keypress</tspan></tspan></tspan></text>
      </g>
     </g>
     <g class="com.sun.star.drawing.CustomShape">
      <g id="id15">
       <path fill="rgb(204,255,204)" stroke="none" d="M 1706,11498 L 5644,11498 5644,12670 1706,12670 1706,11498 1706,11498 Z M 1706,11498 L 1706,11498 Z M 5644,12670 L 5644,12670 Z"/>
       <path fill="none" stroke="rgb(52,101,175)" d="M 1706,11498 L 5644,11498 5644,12670 1706,12670 1706,11498 1706,11498 Z"/>
       <path fill="none" stroke="rgb(52,101,175)" d="M 1706,11498 L 1706,11498 Z"/>
       <path fill="none" stroke="rgb(52,101,175)" d="M 5644,12670 L 5644,12670 Z"/>
       <text class="TextShape"><tspan class="TextParagraph" font-family="Arial, sans-serif" font-size="353px" font-weight="400"><tspan class="TextPosition" x="1850" y="12008"><tspan fill="rgb(0,0,0)" stroke="none">wait for “started” signal </tspan></tspan><tspan class="TextPosition" x="2561" y="12406"><tspan fill="rgb(0,0,0)" stroke="none">on </tspan><tspan font-weight="700" fill="rgb(0,0,0)" stroke="none">statusPort</tspan></tspan></tspan></text>
      </g>
     </g>
     <g class="com.sun.star.drawing.CustomShape">
      <g id="id16">
       <path fill="rgb(204,255,204)" stroke="none" d="M 1707,16705 L 5772,16705 5772,17877 1707,17877 1707,16705 1707,16705 Z M 1707,16705 L 1707,16705 Z M 5772,17877 L 5772,17877 Z"/>
       <path fill="none" stroke="rgb(52,101,175)" d="M 1707,16705 L 5772,16705 5772,17877 1707,17877 1707,16705 1707,16705 Z"/>
       <path fill="none" stroke="rgb(52,101,175)" d="M 1707,16705 L 1707,16705 Z"/>
       <path fill="none" stroke="rgb(52,101,175)" d="M 5772,17877 L 5772,17877 Z"/>
       <text class="TextShape"><tspan class="TextParagraph" font-family="Arial, sans-serif" font-size="353px" font-weight="400"><tspan class="TextPosition" x="2304" y="17215"><tspan fill="rgb(0,0,0)" stroke="none">send “stop” signal </tspan></tspan></tspan><tspan class="TextParagraph" font-family="Arial, sans-serif" font-size="353px" font-weight="400"><tspan class="TextPosition" x="2590" y="17613"><tspan fill="rgb(0,0,0)" stroke="none">to </tspan><tspan font-weight="700" fill="rgb(0,0,0)" stroke="none">servicePort</tspan></tspan></tspan></text>
      </g>
     </g>
     <g class="com.sun.star.drawing.ConnectorShape">
      <g id="id17">
       <path fill="none" stroke="rgb(0,0,0)" d="M 3734,15083 L 3738,16276"/>
       <path fill="rgb(0,0,0)" stroke="none" d="M 3739,16706 L 3888,16256 3588,16256 3739,16706 Z"/>
      </g>
     </g>
     <g class="com.sun.star.drawing.CustomShape">
      <g id="id18">
       <path fill="rgb(255,255,204)" stroke="none" d="M 11504,10907 C 11177,10907 10851,10716 10851,10525 10851,10334 11177,10144 11504,10144 L 14262,10144 C 14589,10144 14916,10334 14916,10525 14916,10716 14589,10907 14262,10907 L 11504,10907 Z M 10851,10144 L 10851,10144 Z M 14916,10907 L 14916,10907 Z"/>
       <path fill="none" stroke="rgb(52,101,175)" d="M 11504,10907 C 11177,10907 10851,10716 10851,10525 10851,10334 11177,10144 11504,10144 L 14262,10144 C 14589,10144 14916,10334 14916,10525 14916,10716 14589,10907 14262,10907 L 11504,10907 Z"/>
       <path fill="none" stroke="rgb(52,101,175)" d="M 10851,10144 L 10851,10144 Z"/>
       <path fill="none" stroke="rgb(52,101,175)" d="M 14916,10907 L 14916,10907 Z"/>
       <text class="TextShape"><tspan class="TextParagraph" font-family="Arial, sans-serif" font-size="353px" font-weight="400"><tspan class="TextPosition" x="11363" y="10648"><tspan fill="rgb(0,0,0)" stroke="none">Jetty process starts</tspan></tspan></tspan></text>
      </g>
     </g>
     <g class="com.sun.star.drawing.ConnectorShape">
      <g id="id19">
       <path fill="none" stroke="rgb(0,0,0)" d="M 12883,10906 L 12898,11530"/>
       <path fill="rgb(0,0,0)" stroke="none" d="M 12908,11960 L 13047,11507 12747,11514 12908,11960 Z"/>
      </g>
     </g>
     <g class="com.sun.star.drawing.CustomShape">
      <g id="id20">
       <path fill="rgb(255,255,204)" stroke="none" d="M 10470,18779 L 15297,18779 15297,20177 10470,20177 10470,18779 10470,18779 Z M 10470,18779 L 10470,18779 Z M 15297,20177 L 15297,20177 Z"/>
       <path fill="none" stroke="rgb(52,101,175)" d="M 10470,18779 L 15297,18779 15297,20177 10470,20177 10470,18779 10470,18779 Z"/>
       <path fill="none" stroke="rgb(52,101,175)" d="M 10470,18779 L 10470,18779 Z"/>
       <path fill="none" stroke="rgb(52,101,175)" d="M 15297,20177 L 15297,20177 Z"/>
       <text class="TextShape"><tspan class="TextParagraph" font-family="Arial, sans-serif" font-size="353px" font-weight="400"><tspan class="TextPosition" x="11950" y="19203"><tspan fill="rgb(0,0,0)" stroke="none">In wait loop.</tspan></tspan><tspan class="TextPosition" x="11167" y="19601"><tspan fill="rgb(0,0,0)" stroke="none">listen for “stop” signal </tspan></tspan><tspan class="TextPosition" x="11685" y="19999"><tspan fill="rgb(0,0,0)" stroke="none">on </tspan><tspan font-weight="700" fill="rgb(0,0,0)" stroke="none">servicePort</tspan></tspan></tspan></text>
      </g>
     </g>
     <g class="com.sun.star.drawing.ConnectorShape">
      <g id="id21">
       <path fill="none" stroke="rgb(0,0,0)" d="M 12883,17510 L 12883,18350"/>
       <path fill="rgb(0,0,0)" stroke="none" d="M 12883,18780 L 13033,18330 12733,18330 12883,18780 Z"/>
      </g>
     </g>
     <g class="com.sun.star.drawing.CustomShape">
      <g id="id22">
       <path fill="rgb(204,255,204)" stroke="none" d="M 2034,24369 C 1616,24369 1198,24047 1198,23726 1198,23405 1616,23084 2034,23084 L 5569,23084 C 5987,23084 6406,23405 6406,23726 6406,24047 5987,24369 5569,24369 L 2034,24369 Z M 1198,23084 L 1198,23084 Z M 6406,24369 L 6406,24369 Z"/>
       <path fill="none" stroke="rgb(52,101,175)" d="M 2034,24369 C 1616,24369 1198,24047 1198,23726 1198,23405 1616,23084 2034,23084 L 5569,23084 C 5987,23084 6406,23405 6406,23726 6406,24047 5987,24369 5569,24369 L 2034,24369 Z"/>
       <path fill="none" stroke="rgb(52,101,175)" d="M 1198,23084 L 1198,23084 Z"/>
       <path fill="none" stroke="rgb(52,101,175)" d="M 6406,24369 L 6406,24369 Z"/>
       <text class="TextShape"><tspan class="TextParagraph" font-family="Arial, sans-serif" font-size="353px" font-weight="400"><tspan class="TextPosition" x="1627" y="23451"><tspan fill="rgb(0,0,0)" stroke="none">jettyRunWarDebug finished.</tspan></tspan><tspan class="TextPosition" x="2453" y="23849"><tspan fill="rgb(0,0,0)" stroke="none">Gradle proceeds </tspan></tspan><tspan class="TextPosition" x="2580" y="24247"><tspan fill="rgb(0,0,0)" stroke="none">with other tasks</tspan></tspan></tspan></text>
      </g>
     </g>
     <g class="com.sun.star.drawing.ConnectorShape">
      <g id="id23">
       <path fill="none" stroke="rgb(0,0,0)" d="M 10851,16924 L 10812,16888"/>
       <path fill="none" stroke="rgb(0,0,0)" d="M 10787,16865 L 10748,16828"/>
       <path fill="none" stroke="rgb(0,0,0)" d="M 10723,16805 L 10684,16769"/>
       <path fill="none" stroke="rgb(0,0,0)" d="M 10659,16746 L 10620,16710"/>
       <path fill="none" stroke="rgb(0,0,0)" d="M 10595,16686 L 10556,16650"/>
       <path fill="none" stroke="rgb(0,0,0)" d="M 10531,16627 L 10492,16591"/>
       <path fill="none" stroke="rgb(0,0,0)" d="M 10467,16567 L 10428,16531"/>
       <path fill="none" stroke="rgb(0,0,0)" d="M 10403,16508 L 10364,16472"/>
       <path fill="none" stroke="rgb(0,0,0)" d="M 10339,16448 L 10300,16412"/>
       <path fill="none" stroke="rgb(0,0,0)" d="M 10275,16389 L 10236,16353"/>
       <path fill="none" stroke="rgb(0,0,0)" d="M 10211,16330 L 10172,16293"/>
       <path fill="none" stroke="rgb(0,0,0)" d="M 10147,16270 L 10109,16234"/>
       <path fill="none" stroke="rgb(0,0,0)" d="M 10083,16211 L 10045,16175"/>
       <path fill="none" stroke="rgb(0,0,0)" d="M 10019,16151 L 9981,16115"/>
       <path fill="none" stroke="rgb(0,0,0)" d="M 9956,16092 L 9917,16056"/>
       <path fill="none" stroke="rgb(0,0,0)" d="M 9892,16032 L 9853,15996"/>
       <path fill="none" stroke="rgb(0,0,0)" d="M 9828,15973 L 9789,15937"/>
       <path fill="none" stroke="rgb(0,0,0)" d="M 9764,15913 L 9725,15877"/>
       <path fill="none" stroke="rgb(0,0,0)" d="M 9700,15854 L 9661,15818"/>
       <path fill="none" stroke="rgb(0,0,0)" d="M 9636,15795 L 9597,15758"/>
       <path fill="none" stroke="rgb(0,0,0)" d="M 9572,15735 L 9533,15699"/>
       <path fill="none" stroke="rgb(0,0,0)" d="M 9508,15676 L 9469,15640"/>
       <path fill="none" stroke="rgb(0,0,0)" d="M 9444,15616 L 9405,15580"/>
       <path fill="none" stroke="rgb(0,0,0)" d="M 9380,15557 L 9341,15521"/>
       <path fill="none" stroke="rgb(0,0,0)" d="M 9316,15497 L 9277,15461"/>
       <path fill="none" stroke="rgb(0,0,0)" d="M 9252,15438 L 9213,15402"/>
       <path fill="none" stroke="rgb(0,0,0)" d="M 9188,15379 L 9149,15342"/>
       <path fill="none" stroke="rgb(0,0,0)" d="M 9124,15319 L 9085,15283"/>
       <path fill="none" stroke="rgb(0,0,0)" d="M 9060,15260 L 9021,15223"/>
       <path fill="none" stroke="rgb(0,0,0)" d="M 8996,15200 L 8957,15164"/>
       <path fill="none" stroke="rgb(0,0,0)" d="M 8932,15141 L 8893,15105"/>
       <path fill="none" stroke="rgb(0,0,0)" d="M 8868,15081 L 8829,15045"/>
       <path fill="none" stroke="rgb(0,0,0)" d="M 8804,15022 L 8765,14986"/>
       <path fill="none" stroke="rgb(0,0,0)" d="M 8740,14962 L 8701,14926"/>
       <path fill="none" stroke="rgb(0,0,0)" d="M 8676,14903 L 8637,14867"/>
       <path fill="none" stroke="rgb(0,0,0)" d="M 8612,14844 L 8573,14807"/>
       <path fill="none" stroke="rgb(0,0,0)" d="M 8548,14784 L 8509,14748"/>
       <path fill="none" stroke="rgb(0,0,0)" d="M 8484,14725 L 8446,14689"/>
       <path fill="none" stroke="rgb(0,0,0)" d="M 8420,14665 L 8382,14629"/>
       <path fill="none" stroke="rgb(0,0,0)" d="M 8356,14606 L 8318,14570"/>
       <path fill="none" stroke="rgb(0,0,0)" d="M 8293,14546 L 8254,14510"/>
       <path fill="none" stroke="rgb(0,0,0)" d="M 8229,14487 L 8190,14451"/>
       <path fill="none" stroke="rgb(0,0,0)" d="M 8165,14427 L 8126,14391"/>
       <path fill="none" stroke="rgb(0,0,0)" d="M 8101,14368 L 8062,14332"/>
       <path fill="none" stroke="rgb(0,0,0)" d="M 8037,14309 L 7998,14272"/>
       <path fill="none" stroke="rgb(0,0,0)" d="M 7973,14249 L 7934,14213"/>
       <path fill="none" stroke="rgb(0,0,0)" d="M 7909,14190 L 7870,14154"/>
       <path fill="none" stroke="rgb(0,0,0)" d="M 7845,14130 L 7806,14094"/>
       <path fill="none" stroke="rgb(0,0,0)" d="M 7781,14071 L 7742,14035"/>
       <path fill="none" stroke="rgb(0,0,0)" d="M 7717,14011 L 7678,13975"/>
       <path fill="none" stroke="rgb(0,0,0)" d="M 7653,13952 L 7614,13916"/>
       <path fill="none" stroke="rgb(0,0,0)" d="M 7589,13892 L 7550,13856"/>
       <path fill="none" stroke="rgb(0,0,0)" d="M 7525,13833 L 7486,13797"/>
       <path fill="none" stroke="rgb(0,0,0)" d="M 7461,13774 L 7422,13737"/>
       <path fill="none" stroke="rgb(0,0,0)" d="M 7397,13714 L 7358,13678"/>
       <path fill="none" stroke="rgb(0,0,0)" d="M 7333,13655 L 7294,13619"/>
       <path fill="none" stroke="rgb(0,0,0)" d="M 7269,13595 L 7230,13559"/>
       <path fill="none" stroke="rgb(0,0,0)" d="M 7205,13536 L 7166,13500"/>
       <path fill="none" stroke="rgb(0,0,0)" d="M 7141,13476 L 7102,13440"/>
       <path fill="none" stroke="rgb(0,0,0)" d="M 7077,13417 L 7038,13381"/>
       <path fill="none" stroke="rgb(0,0,0)" d="M 7013,13358 L 6974,13321"/>
       <path fill="none" stroke="rgb(0,0,0)" d="M 6949,13298 L 6910,13262"/>
       <path fill="none" stroke="rgb(0,0,0)" d="M 6885,13239 L 6846,13202"/>
       <path fill="none" stroke="rgb(0,0,0)" d="M 6821,13179 L 6783,13143"/>
       <path fill="none" stroke="rgb(0,0,0)" d="M 6757,13120 L 6719,13084"/>
       <path fill="none" stroke="rgb(0,0,0)" d="M 6693,13060 L 6655,13024"/>
       <path fill="none" stroke="rgb(0,0,0)" d="M 6630,13001 L 6591,12965"/>
       <path fill="none" stroke="rgb(0,0,0)" d="M 6566,12941 L 6527,12905"/>
       <path fill="none" stroke="rgb(0,0,0)" d="M 6502,12882 L 6463,12846"/>
       <path fill="none" stroke="rgb(0,0,0)" d="M 6438,12823 L 6399,12786"/>
       <path fill="none" stroke="rgb(0,0,0)" d="M 6374,12763 L 6335,12727"/>
       <path fill="none" stroke="rgb(0,0,0)" d="M 6310,12704 L 6271,12668"/>
       <path fill="none" stroke="rgb(0,0,0)" d="M 6246,12644 L 6207,12608"/>
       <path fill="none" stroke="rgb(0,0,0)" d="M 6182,12585 L 6143,12549"/>
       <path fill="none" stroke="rgb(0,0,0)" d="M 6118,12525 L 6079,12489"/>
       <path fill="none" stroke="rgb(0,0,0)" d="M 6054,12466 L 6015,12430"/>
       <path fill="none" stroke="rgb(0,0,0)" d="M 5990,12406 L 5959,12378"/>
       <path fill="rgb(0,0,0)" stroke="none" d="M 5644,12085 L 5872,12501 6076,12281 5644,12085 Z"/>
       <text class="TextShape"><tspan class="TextParagraph" font-family="Arial, sans-serif" font-size="353px" font-weight="400"><tspan class="TextPosition" x="8013" y="14827"><tspan fill="rgb(0,0,0)" stroke="none">tcp</tspan></tspan></tspan></text>
      </g>
     </g>
     <g class="com.sun.star.drawing.CustomShape">
      <g id="id24">
       <path fill="rgb(255,255,204)" stroke="none" d="M 11590,22337 C 11284,22337 10978,22146 10978,21955 10978,21764 11284,21574 11590,21574 L 14176,21574 C 14482,21574 14789,21764 14789,21955 14789,22146 14482,22337 14176,22337 L 11590,22337 Z M 10978,21574 L 10978,21574 Z M 14789,22337 L 14789,22337 Z"/>
       <path fill="none" stroke="rgb(52,101,175)" d="M 11590,22337 C 11284,22337 10978,22146 10978,21955 10978,21764 11284,21574 11590,21574 L 14176,21574 C 14482,21574 14789,21764 14789,21955 14789,22146 14482,22337 14176,22337 L 11590,22337 Z"/>
       <path fill="none" stroke="rgb(52,101,175)" d="M 10978,21574 L 10978,21574 Z"/>
       <path fill="none" stroke="rgb(52,101,175)" d="M 14789,22337 L 14789,22337 Z"/>
       <text class="TextShape"><tspan class="TextParagraph" font-family="Arial, sans-serif" font-size="353px" font-weight="400"><tspan class="TextPosition" x="11192" y="22078"><tspan fill="rgb(0,0,0)" stroke="none">Jetty process finished</tspan></tspan></tspan></text>
      </g>
     </g>
     <g class="com.sun.star.drawing.ConnectorShape">
      <g id="id25">
       <path fill="none" stroke="rgb(0,0,0)" d="M 12883,20177 L 12883,21144"/>
       <path fill="rgb(0,0,0)" stroke="none" d="M 12883,21574 L 13033,21124 12733,21124 12883,21574 Z"/>
      </g>
     </g>
     <g class="com.sun.star.drawing.ConnectorShape">
      <g id="id26">
       <path fill="none" stroke="rgb(0,0,0)" d="M 5771,17291 L 5819,17313"/>
       <path fill="none" stroke="rgb(0,0,0)" d="M 5850,17328 L 5898,17350"/>
       <path fill="none" stroke="rgb(0,0,0)" d="M 5929,17365 L 5977,17387"/>
       <path fill="none" stroke="rgb(0,0,0)" d="M 6008,17402 L 6057,17424"/>
       <path fill="none" stroke="rgb(0,0,0)" d="M 6088,17438 L 6136,17461"/>
       <path fill="none" stroke="rgb(0,0,0)" d="M 6167,17475 L 6215,17498"/>
       <path fill="none" stroke="rgb(0,0,0)" d="M 6246,17512 L 6294,17534"/>
       <path fill="none" stroke="rgb(0,0,0)" d="M 6325,17549 L 6373,17571"/>
       <path fill="none" stroke="rgb(0,0,0)" d="M 6404,17586 L 6452,17608"/>
       <path fill="none" stroke="rgb(0,0,0)" d="M 6483,17623 L 6532,17645"/>
       <path fill="none" stroke="rgb(0,0,0)" d="M 6563,17659 L 6611,17682"/>
       <path fill="none" stroke="rgb(0,0,0)" d="M 6642,17696 L 6690,17719"/>
       <path fill="none" stroke="rgb(0,0,0)" d="M 6721,17733 L 6769,17756"/>
       <path fill="none" stroke="rgb(0,0,0)" d="M 6800,17770 L 6848,17792"/>
       <path fill="none" stroke="rgb(0,0,0)" d="M 6879,17807 L 6927,17829"/>
       <path fill="none" stroke="rgb(0,0,0)" d="M 6958,17844 L 7007,17866"/>
       <path fill="none" stroke="rgb(0,0,0)" d="M 7038,17881 L 7086,17903"/>
       <path fill="none" stroke="rgb(0,0,0)" d="M 7117,17917 L 7165,17940"/>
       <path fill="none" stroke="rgb(0,0,0)" d="M 7196,17954 L 7244,17977"/>
       <path fill="none" stroke="rgb(0,0,0)" d="M 7275,17991 L 7323,18013"/>
       <path fill="none" stroke="rgb(0,0,0)" d="M 7354,18028 L 7402,18050"/>
       <path fill="none" stroke="rgb(0,0,0)" d="M 7433,18065 L 7482,18087"/>
       <path fill="none" stroke="rgb(0,0,0)" d="M 7513,18102 L 7561,18124"/>
       <path fill="none" stroke="rgb(0,0,0)" d="M 7592,18138 L 7640,18161"/>
       <path fill="none" stroke="rgb(0,0,0)" d="M 7671,18175 L 7719,18198"/>
       <path fill="none" stroke="rgb(0,0,0)" d="M 7750,18212 L 7798,18235"/>
       <path fill="none" stroke="rgb(0,0,0)" d="M 7829,18249 L 7877,18271"/>
       <path fill="none" stroke="rgb(0,0,0)" d="M 7908,18286 L 7957,18308"/>
       <path fill="none" stroke="rgb(0,0,0)" d="M 7988,18323 L 8036,18345"/>
       <path fill="none" stroke="rgb(0,0,0)" d="M 8067,18359 L 8115,18382"/>
       <path fill="none" stroke="rgb(0,0,0)" d="M 8146,18396 L 8194,18419"/>
       <path fill="none" stroke="rgb(0,0,0)" d="M 8225,18433 L 8273,18456"/>
       <path fill="none" stroke="rgb(0,0,0)" d="M 8304,18470 L 8352,18492"/>
       <path fill="none" stroke="rgb(0,0,0)" d="M 8383,18507 L 8432,18529"/>
       <path fill="none" stroke="rgb(0,0,0)" d="M 8463,18544 L 8511,18566"/>
       <path fill="none" stroke="rgb(0,0,0)" d="M 8542,18581 L 8590,18603"/>
       <path fill="none" stroke="rgb(0,0,0)" d="M 8621,18617 L 8669,18640"/>
       <path fill="none" stroke="rgb(0,0,0)" d="M 8700,18654 L 8748,18677"/>
       <path fill="none" stroke="rgb(0,0,0)" d="M 8779,18691 L 8827,18713"/>
       <path fill="none" stroke="rgb(0,0,0)" d="M 8858,18728 L 8907,18750"/>
       <path fill="none" stroke="rgb(0,0,0)" d="M 8938,18765 L 8986,18787"/>
       <path fill="none" stroke="rgb(0,0,0)" d="M 9017,18802 L 9065,18824"/>
       <path fill="none" stroke="rgb(0,0,0)" d="M 9096,18838 L 9144,18861"/>
       <path fill="none" stroke="rgb(0,0,0)" d="M 9175,18875 L 9223,18898"/>
       <path fill="none" stroke="rgb(0,0,0)" d="M 9254,18912 L 9302,18935"/>
       <path fill="none" stroke="rgb(0,0,0)" d="M 9333,18949 L 9382,18971"/>
       <path fill="none" stroke="rgb(0,0,0)" d="M 9413,18986 L 9461,19008"/>
       <path fill="none" stroke="rgb(0,0,0)" d="M 9492,19023 L 9540,19045"/>
       <path fill="none" stroke="rgb(0,0,0)" d="M 9571,19060 L 9619,19082"/>
       <path fill="none" stroke="rgb(0,0,0)" d="M 9650,19096 L 9698,19119"/>
       <path fill="none" stroke="rgb(0,0,0)" d="M 9729,19133 L 9777,19156"/>
       <path fill="none" stroke="rgb(0,0,0)" d="M 9808,19170 L 9856,19192"/>
       <path fill="none" stroke="rgb(0,0,0)" d="M 9888,19207 L 9936,19229"/>
       <path fill="none" stroke="rgb(0,0,0)" d="M 9967,19244 L 10015,19266"/>
       <path fill="none" stroke="rgb(0,0,0)" d="M 10046,19281 L 10080,19297"/>
       <path fill="rgb(0,0,0)" stroke="none" d="M 10470,19478 L 10125,19152 9999,19424 10470,19478 Z"/>
       <text class="TextShape"><tspan class="TextParagraph" font-family="Arial, sans-serif" font-size="353px" font-weight="400"><tspan class="TextPosition" x="7107" y="18906"><tspan fill="rgb(0,0,0)" stroke="none">          </tspan><tspan fill="rgb(0,0,0)" stroke="none">tcp      </tspan></tspan></tspan></text>
      </g>
     </g>
     <g class="com.sun.star.drawing.CustomShape">
      <g id="id27">
       <path fill="rgb(204,255,204)" stroke="none" d="M 1834,19908 L 5645,19908 5645,21080 1834,21080 1834,19908 1834,19908 Z M 1834,19908 L 1834,19908 Z M 5645,21080 L 5645,21080 Z"/>
       <path fill="none" stroke="rgb(52,101,175)" d="M 1834,19908 L 5645,19908 5645,21080 1834,21080 1834,19908 1834,19908 Z"/>
       <path fill="none" stroke="rgb(52,101,175)" d="M 1834,19908 L 1834,19908 Z"/>
       <path fill="none" stroke="rgb(52,101,175)" d="M 5645,21080 L 5645,21080 Z"/>
       <text class="TextShape"><tspan class="TextParagraph" font-family="Arial, sans-serif" font-size="353px" font-weight="400"><tspan class="TextPosition" x="2086" y="20418"><tspan fill="rgb(0,0,0)" stroke="none">wait for Jetty process</tspan></tspan></tspan><tspan class="TextParagraph" font-family="Arial, sans-serif" font-size="353px" font-weight="400"><tspan class="TextPosition" x="3136" y="20816"><tspan fill="rgb(0,0,0)" stroke="none">to finish</tspan></tspan></tspan></text>
      </g>
     </g>
     <g class="com.sun.star.drawing.ConnectorShape">
      <g id="id28">
       <path fill="none" stroke="rgb(0,0,0)" d="M 3739,17877 L 3739,19479"/>
       <path fill="rgb(0,0,0)" stroke="none" d="M 3739,19909 L 3889,19459 3589,19459 3739,19909 Z"/>
      </g>
     </g>
     <g class="com.sun.star.drawing.ConnectorShape">
      <g id="id29">
       <path fill="none" stroke="rgb(0,0,0)" d="M 10978,21955 L 10927,21941"/>
       <path fill="none" stroke="rgb(0,0,0)" d="M 10894,21932 L 10843,21918"/>
       <path fill="none" stroke="rgb(0,0,0)" d="M 10810,21909 L 10758,21895"/>
       <path fill="none" stroke="rgb(0,0,0)" d="M 10725,21886 L 10674,21872"/>
       <path fill="none" stroke="rgb(0,0,0)" d="M 10641,21863 L 10590,21849"/>
       <path fill="none" stroke="rgb(0,0,0)" d="M 10557,21840 L 10506,21826"/>
       <path fill="none" stroke="rgb(0,0,0)" d="M 10473,21817 L 10421,21803"/>
       <path fill="none" stroke="rgb(0,0,0)" d="M 10388,21794 L 10337,21780"/>
       <path fill="none" stroke="rgb(0,0,0)" d="M 10304,21770 L 10253,21756"/>
       <path fill="none" stroke="rgb(0,0,0)" d="M 10220,21747 L 10169,21733"/>
       <path fill="none" stroke="rgb(0,0,0)" d="M 10136,21724 L 10085,21710"/>
       <path fill="none" stroke="rgb(0,0,0)" d="M 10052,21701 L 10000,21687"/>
       <path fill="none" stroke="rgb(0,0,0)" d="M 9967,21678 L 9916,21664"/>
       <path fill="none" stroke="rgb(0,0,0)" d="M 9883,21655 L 9832,21641"/>
       <path fill="none" stroke="rgb(0,0,0)" d="M 9799,21632 L 9748,21618"/>
       <path fill="none" stroke="rgb(0,0,0)" d="M 9715,21609 L 9664,21595"/>
       <path fill="none" stroke="rgb(0,0,0)" d="M 9631,21586 L 9579,21572"/>
       <path fill="none" stroke="rgb(0,0,0)" d="M 9546,21563 L 9495,21549"/>
       <path fill="none" stroke="rgb(0,0,0)" d="M 9462,21540 L 9411,21526"/>
       <path fill="none" stroke="rgb(0,0,0)" d="M 9378,21517 L 9327,21503"/>
       <path fill="none" stroke="rgb(0,0,0)" d="M 9294,21494 L 9242,21480"/>
       <path fill="none" stroke="rgb(0,0,0)" d="M 9209,21471 L 9158,21457"/>
       <path fill="none" stroke="rgb(0,0,0)" d="M 9125,21448 L 9074,21433"/>
       <path fill="none" stroke="rgb(0,0,0)" d="M 9041,21424 L 8990,21410"/>
       <path fill="none" stroke="rgb(0,0,0)" d="M 8957,21401 L 8906,21387"/>
       <path fill="none" stroke="rgb(0,0,0)" d="M 8873,21378 L 8821,21364"/>
       <path fill="none" stroke="rgb(0,0,0)" d="M 8788,21355 L 8737,21341"/>
       <path fill="none" stroke="rgb(0,0,0)" d="M 8704,21332 L 8653,21318"/>
       <path fill="none" stroke="rgb(0,0,0)" d="M 8620,21309 L 8569,21295"/>
       <path fill="none" stroke="rgb(0,0,0)" d="M 8536,21286 L 8485,21272"/>
       <path fill="none" stroke="rgb(0,0,0)" d="M 8452,21263 L 8400,21249"/>
       <path fill="none" stroke="rgb(0,0,0)" d="M 8367,21240 L 8316,21226"/>
       <path fill="none" stroke="rgb(0,0,0)" d="M 8283,21217 L 8232,21203"/>
       <path fill="none" stroke="rgb(0,0,0)" d="M 8199,21194 L 8148,21180"/>
       <path fill="none" stroke="rgb(0,0,0)" d="M 8115,21171 L 8063,21157"/>
       <path fill="none" stroke="rgb(0,0,0)" d="M 8030,21148 L 7979,21134"/>
       <path fill="none" stroke="rgb(0,0,0)" d="M 7946,21125 L 7895,21111"/>
       <path fill="none" stroke="rgb(0,0,0)" d="M 7862,21102 L 7811,21087"/>
       <path fill="none" stroke="rgb(0,0,0)" d="M 7778,21078 L 7727,21064"/>
       <path fill="none" stroke="rgb(0,0,0)" d="M 7694,21055 L 7642,21041"/>
       <path fill="none" stroke="rgb(0,0,0)" d="M 7609,21032 L 7558,21018"/>
       <path fill="none" stroke="rgb(0,0,0)" d="M 7525,21009 L 7474,20995"/>
       <path fill="none" stroke="rgb(0,0,0)" d="M 7441,20986 L 7390,20972"/>
       <path fill="none" stroke="rgb(0,0,0)" d="M 7357,20963 L 7306,20949"/>
       <path fill="none" stroke="rgb(0,0,0)" d="M 7272,20940 L 7221,20926"/>
       <path fill="none" stroke="rgb(0,0,0)" d="M 7188,20917 L 7137,20903"/>
       <path fill="none" stroke="rgb(0,0,0)" d="M 7104,20894 L 7053,20880"/>
       <path fill="none" stroke="rgb(0,0,0)" d="M 7020,20871 L 6969,20857"/>
       <path fill="none" stroke="rgb(0,0,0)" d="M 6936,20848 L 6884,20834"/>
       <path fill="none" stroke="rgb(0,0,0)" d="M 6851,20825 L 6800,20811"/>
       <path fill="none" stroke="rgb(0,0,0)" d="M 6767,20802 L 6716,20788"/>
       <path fill="none" stroke="rgb(0,0,0)" d="M 6683,20779 L 6632,20765"/>
       <path fill="none" stroke="rgb(0,0,0)" d="M 6599,20756 L 6548,20741"/>
       <path fill="none" stroke="rgb(0,0,0)" d="M 6515,20732 L 6463,20718"/>
       <path fill="none" stroke="rgb(0,0,0)" d="M 6430,20709 L 6379,20695"/>
       <path fill="none" stroke="rgb(0,0,0)" d="M 6346,20686 L 6295,20672"/>
       <path fill="none" stroke="rgb(0,0,0)" d="M 6262,20663 L 6211,20649"/>
       <path fill="none" stroke="rgb(0,0,0)" d="M 6178,20640 L 6126,20626"/>
       <path fill="none" stroke="rgb(0,0,0)" d="M 6093,20617 L 6059,20608"/>
       <path fill="rgb(0,0,0)" stroke="none" d="M 5644,20494 L 6038,20758 6118,20468 5644,20494 Z"/>
       <text class="TextShape"><tspan class="TextParagraph" font-family="Arial, sans-serif" font-size="353px" font-weight="400"><tspan class="TextPosition" x="7401" y="21746"><tspan fill="rgb(0,0,0)" stroke="none">thread sync</tspan></tspan></tspan></text>
      </g>
     </g>
     <g class="com.sun.star.drawing.ConnectorShape">
      <g id="id30">
       <path fill="none" stroke="rgb(0,0,0)" d="M 3739,21080 L 3789,22654"/>
       <path fill="rgb(0,0,0)" stroke="none" d="M 3803,23084 L 3939,22629 3639,22639 3803,23084 Z"/>
      </g>
     </g>
     <g class="com.sun.star.drawing.CustomShape">
      <g id="id31">
       <path fill="rgb(255,255,204)" stroke="none" d="M 10724,14207 L 15051,14207 15051,15096 10724,15096 10724,14207 10724,14207 Z M 10724,14207 L 10724,14207 Z M 15051,15097 L 15051,15097 Z"/>
       <path fill="none" stroke="rgb(52,101,175)" d="M 10724,14207 L 15051,14207 15051,15096 10724,15096 10724,14207 10724,14207 Z"/>
       <path fill="none" stroke="rgb(52,101,175)" d="M 10724,14207 L 10724,14207 Z"/>
       <path fill="none" stroke="rgb(52,101,175)" d="M 15051,15097 L 15051,15097 Z"/>
       <text class="TextShape"><tspan class="TextParagraph" font-family="Arial, sans-serif" font-size="353px" font-weight="400"><tspan class="TextPosition" x="10948" y="14576"><tspan fill="rgb(0,0,0)" stroke="none">listen for HTTP requests </tspan></tspan><tspan class="TextPosition" x="12301" y="14974"><tspan fill="rgb(0,0,0)" stroke="none">on </tspan><tspan font-weight="700" fill="rgb(0,0,0)" stroke="none">port</tspan></tspan></tspan></text>
      </g>
     </g>
     <g class="com.sun.star.drawing.ConnectorShape">
      <g id="id32">
       <path fill="none" stroke="rgb(0,0,0)" d="M 12887,15097 L 12884,15909"/>
       <path fill="rgb(0,0,0)" stroke="none" d="M 12883,16339 L 13034,15889 12734,15889 12883,16339 Z"/>
      </g>
     </g>
     <g class="com.sun.star.drawing.ConnectorShape">
      <g id="id33">
       <path fill="none" stroke="rgb(0,0,0)" d="M 3675,12670 L 3717,13764"/>
       <path fill="rgb(0,0,0)" stroke="none" d="M 3734,14194 L 3866,13739 3567,13750 3734,14194 Z"/>
       <text class="TextShape"><tspan class="TextParagraph" font-family="Arial, sans-serif" font-size="353px" font-weight="400"><tspan class="TextPosition" x="2390" y="13555"><tspan fill="rgb(0,0,0)" stroke="none">                           </tspan></tspan></tspan></text>
      </g>
     </g>
     <g class="com.sun.star.drawing.CustomShape">
      <g id="id34">
       <path fill="rgb(204,255,204)" stroke="none" d="M 1618,6764 L 5693,6764 5693,7584 1618,7584 1618,6764 1618,6764 Z M 1618,6764 L 1618,6764 Z M 5693,7585 L 5693,7585 Z"/>
       <path fill="none" stroke="rgb(52,101,175)" d="M 1618,6764 L 5693,6764 5693,7584 1618,7584 1618,6764 1618,6764 Z"/>
       <path fill="none" stroke="rgb(52,101,175)" d="M 1618,6764 L 1618,6764 Z"/>
       <path fill="none" stroke="rgb(52,101,175)" d="M 5693,7585 L 5693,7585 Z"/>
       <text class="TextShape"><tspan class="TextParagraph" font-family="Arial, sans-serif" font-size="353px" font-weight="400"><tspan class="TextPosition" x="2673" y="7297"><tspan fill="rgb(0,0,0)" stroke="none">build war-file</tspan></tspan></tspan></text>
      </g>
     </g>
     <g class="com.sun.star.drawing.ConnectorShape">
      <g id="id35">
       <path fill="none" stroke="rgb(0,0,0)" d="M 3655,7584 L 3644,8406"/>
       <path fill="rgb(0,0,0)" stroke="none" d="M 3639,8836 L 3795,8388 3495,8384 3639,8836 Z"/>
      </g>
     </g>
     <g class="com.sun.star.drawing.CustomShape">
      <g id="id36">
       <path fill="rgb(255,255,204)" stroke="none" d="M 11066,11960 L 14749,11960 14749,13015 11066,13015 11066,11960 11066,11960 Z M 11066,11960 L 11066,11960 Z M 14750,13015 L 14750,13015 Z"/>
       <path fill="none" stroke="rgb(52,101,175)" d="M 11066,11960 L 14749,11960 14749,13015 11066,13015 11066,11960 11066,11960 Z"/>
       <path fill="none" stroke="rgb(52,101,175)" d="M 11066,11960 L 11066,11960 Z"/>
       <path fill="none" stroke="rgb(52,101,175)" d="M 14750,13015 L 14750,13015 Z"/>
       <text class="TextShape"><tspan class="TextParagraph" font-family="Arial, sans-serif" font-size="353px" font-weight="400"><tspan class="TextPosition" x="11513" y="12411"><tspan fill="rgb(0,0,0)" stroke="none">suspended mode,</tspan></tspan></tspan><tspan class="TextParagraph" font-family="Arial, sans-serif" font-size="353px" font-weight="400"><tspan class="TextPosition" x="11515" y="12809"><tspan fill="rgb(0,0,0)" stroke="none">listen to port 5005</tspan></tspan></tspan></text>
      </g>
     </g>
     <g class="com.sun.star.drawing.ConnectorShape">
      <g id="id37">
       <path fill="none" stroke="rgb(0,0,0)" d="M 12908,13014 L 12895,13778"/>
       <path fill="rgb(0,0,0)" stroke="none" d="M 12887,14208 L 13045,13761 12745,13755 12887,14208 Z"/>
       <text class="TextShape"><tspan class="TextParagraph" font-family="Arial, sans-serif" font-size="353px" font-weight="400"><tspan class="TextPosition" x="11532" y="13734"><tspan fill="rgb(0,0,0)" stroke="none">resume                </tspan></tspan></tspan></text>
      </g>
     </g>
    </g>
   </g>
  </g>
 </g>
</svg>