<?xml version="1.0" encoding="UTF-8"?>
<!DOCTYPE svg PUBLIC "-//W3C//DTD SVG 1.1//EN" "http://www.w3.org/Graphics/SVG/1.1/DTD/svg11.dtd">
<svg version="1.2" width="170mm" height="230mm" viewBox="0 0 17000 23000" preserveAspectRatio="xMidYMid" fill-rule="evenodd" clip-path="url(#presentation_clip_path)" stroke-width="28.222" stroke-linejoin="round" xmlns="http://www.w3.org/2000/svg" xmlns:ooo="http://xml.openoffice.org/svg/export" xmlns:xlink="http://www.w3.org/1999/xlink" xml:space="preserve">
 <defs class="ClipPathGroup">
  <clipPath id="presentation_clip_path" clipPathUnits="userSpaceOnUse">
   <rect x="0" y="0" width="17000" height="23000"/>
  </clipPath>
 </defs>
 <defs class="TextShapeIndex">
  <g ooo:slide="id1" ooo:id-list="id3 id4 id5 id6 id7 id8 id9 id10 id11 id12 id13 id14 id15 id16 id17 id18 id19 id20 id21 id22 id23 id24 id25 id26 id27 id28 id29 id30 id31 id32 id33"/>
 </defs>
 <defs class="EmbeddedBulletChars">
  <g id="bullet-char-template(57356)" transform="scale(0.00048828125,-0.00048828125)">
   <path d="M 580,1141 L 1163,571 580,0 -4,571 580,1141 Z"/>
  </g>
  <g id="bullet-char-template(57354)" transform="scale(0.00048828125,-0.00048828125)">
   <path d="M 8,1128 L 1137,1128 1137,0 8,0 8,1128 Z"/>
  </g>
  <g id="bullet-char-template(10146)" transform="scale(0.00048828125,-0.00048828125)">
   <path d="M 174,0 L 602,739 174,1481 1456,739 174,0 Z M 1358,739 L 309,1346 659,739 1358,739 Z"/>
  </g>
  <g id="bullet-char-template(10132)" transform="scale(0.00048828125,-0.00048828125)">
   <path d="M 2015,739 L 1276,0 717,0 1260,543 174,543 174,936 1260,936 717,1481 1274,1481 2015,739 Z"/>
  </g>
  <g id="bullet-char-template(10007)" transform="scale(0.00048828125,-0.00048828125)">
   <path d="M 0,-2 C -7,14 -16,27 -25,37 L 356,567 C 262,823 215,952 215,954 215,979 228,992 255,992 264,992 276,990 289,987 310,991 331,999 354,1012 L 381,999 492,748 772,1049 836,1024 860,1049 C 881,1039 901,1025 922,1006 886,937 835,863 770,784 769,783 710,716 594,584 L 774,223 C 774,196 753,168 711,139 L 727,119 C 717,90 699,76 672,76 641,76 570,178 457,381 L 164,-76 C 142,-110 111,-127 72,-127 30,-127 9,-110 8,-76 1,-67 -2,-52 -2,-32 -2,-23 -1,-13 0,-2 Z"/>
  </g>
  <g id="bullet-char-template(10004)" transform="scale(0.00048828125,-0.00048828125)">
   <path d="M 285,-33 C 182,-33 111,30 74,156 52,228 41,333 41,471 41,549 55,616 82,672 116,743 169,778 240,778 293,778 328,747 346,684 L 369,508 C 377,444 397,411 428,410 L 1163,1116 C 1174,1127 1196,1133 1229,1133 1271,1133 1292,1118 1292,1087 L 1292,965 C 1292,929 1282,901 1262,881 L 442,47 C 390,-6 338,-33 285,-33 Z"/>
  </g>
  <g id="bullet-char-template(9679)" transform="scale(0.00048828125,-0.00048828125)">
   <path d="M 813,0 C 632,0 489,54 383,161 276,268 223,411 223,592 223,773 276,916 383,1023 489,1130 632,1184 813,1184 992,1184 1136,1130 1245,1023 1353,916 1407,772 1407,592 1407,412 1353,268 1245,161 1136,54 992,0 813,0 Z"/>
  </g>
  <g id="bullet-char-template(8226)" transform="scale(0.00048828125,-0.00048828125)">
   <path d="M 346,457 C 273,457 209,483 155,535 101,586 74,649 74,723 74,796 101,859 155,911 209,963 273,989 346,989 419,989 480,963 531,910 582,859 608,796 608,723 608,648 583,586 532,535 482,483 420,457 346,457 Z"/>
  </g>
  <g id="bullet-char-template(8211)" transform="scale(0.00048828125,-0.00048828125)">
   <path d="M -4,459 L 1135,459 1135,606 -4,606 -4,459 Z"/>
  </g>
 </defs>
 <defs class="TextEmbeddedBitmaps"/>
 <g>
  <g id="id2" class="Master_Slide">
   <g id="bg-id2" class="Background"/>
   <g id="bo-id2" class="BackgroundObjects"/>
  </g>
 </g>
 <g class="SlideGroup">
  <g>
   <g id="id1" class="Slide" clip-path="url(#presentation_clip_path)">
    <g class="Page">
     <g class="com.sun.star.drawing.CustomShape">
      <g id="id3">
       <path fill="rgb(204,255,204)" stroke="none" d="M 2180,1763 C 1843,1763 1507,1572 1507,1381 1507,1190 1843,1000 2180,1000 L 5025,1000 C 5362,1000 5699,1190 5699,1381 5699,1572 5362,1763 5025,1763 L 2180,1763 Z M 1507,1000 L 1507,1000 Z M 5699,1763 L 5699,1763 Z"/>
       <path fill="none" stroke="rgb(52,101,175)" d="M 2180,1763 C 1843,1763 1507,1572 1507,1381 1507,1190 1843,1000 2180,1000 L 5025,1000 C 5362,1000 5699,1190 5699,1381 5699,1572 5362,1763 5025,1763 L 2180,1763 Z"/>
       <path fill="none" stroke="rgb(52,101,175)" d="M 1507,1000 L 1507,1000 Z"/>
       <path fill="none" stroke="rgb(52,101,175)" d="M 5699,1763 L 5699,1763 Z"/>
       <text class="TextShape"><tspan class="TextParagraph" font-family="Arial, sans-serif" font-size="353px" font-weight="400"><tspan class="TextPosition" x="2479" y="1504"><tspan fill="rgb(0,0,0)" stroke="none">jettyRun starts</tspan></tspan></tspan></text>
      </g>
     </g>
     <g class="com.sun.star.drawing.CustomShape">
      <g id="id4">
       <path fill="rgb(204,255,204)" stroke="none" d="M 1686,3412 L 3605,2650 5525,3412 3605,4174 1686,3412 1686,3412 Z M 1686,2650 L 1686,2650 Z M 5525,4174 L 5525,4174 Z"/>
       <path fill="none" stroke="rgb(52,101,175)" d="M 1686,3412 L 3605,2650 5525,3412 3605,4174 1686,3412 1686,3412 Z"/>
       <path fill="none" stroke="rgb(52,101,175)" d="M 1686,2650 L 1686,2650 Z"/>
       <path fill="none" stroke="rgb(52,101,175)" d="M 5525,4174 L 5525,4174 Z"/>
       <text class="TextShape"><tspan class="TextParagraph" font-family="Arial, sans-serif" font-size="353px" font-weight="400"><tspan class="TextPosition" x="2987" y="3336"><tspan fill="rgb(0,0,0)" stroke="none">sources</tspan></tspan><tspan class="TextPosition" x="2707" y="3734"><tspan fill="rgb(0,0,0)" stroke="none">up-to-date?</tspan></tspan></tspan></text>
      </g>
     </g>
     <g class="com.sun.star.drawing.ConnectorShape">
      <g id="id5">
       <path fill="none" stroke="rgb(0,0,0)" d="M 3604,1762 L 3605,2221"/>
       <path fill="rgb(0,0,0)" stroke="none" d="M 3605,2651 L 3754,2201 3454,2201 3605,2651 Z"/>
      </g>
     </g>
     <g class="com.sun.star.drawing.CustomShape">
      <g id="id6">
       <path fill="rgb(204,255,204)" stroke="none" d="M 5741,4244 L 9002,4244 9002,5064 5741,5064 5741,4244 5741,4244 Z M 5741,4244 L 5741,4244 Z M 9002,5065 L 9002,5065 Z"/>
       <path fill="none" stroke="rgb(52,101,175)" d="M 5741,4244 L 9002,4244 9002,5064 5741,5064 5741,4244 5741,4244 Z"/>
       <path fill="none" stroke="rgb(52,101,175)" d="M 5741,4244 L 5741,4244 Z"/>
       <path fill="none" stroke="rgb(52,101,175)" d="M 9002,5065 L 9002,5065 Z"/>
       <text class="TextShape"><tspan class="TextParagraph" font-family="Arial, sans-serif" font-size="353px" font-weight="400"><tspan class="TextPosition" x="6768" y="4777"><tspan fill="rgb(0,0,0)" stroke="none">compile</tspan></tspan></tspan></text>
      </g>
     </g>
     <g class="com.sun.star.drawing.ConnectorShape">
      <g id="id7">
       <path fill="none" stroke="rgb(0,0,0)" d="M 5524,3413 L 7371,3413 7371,3814"/>
       <path fill="rgb(0,0,0)" stroke="none" d="M 7371,4244 L 7521,3794 7221,3794 7371,4244 Z"/>
       <text class="TextShape"><tspan class="TextParagraph" font-family="Arial, sans-serif" font-size="353px" font-weight="400"><tspan class="TextPosition" x="6253" y="3753"><tspan fill="rgb(0,0,0)" stroke="none">no</tspan></tspan></tspan></text>
      </g>
     </g>
     <g class="com.sun.star.drawing.ConnectorShape">
      <g id="id8">
       <path fill="none" stroke="rgb(0,0,0)" d="M 3605,4174 L 3575,5904"/>
       <path fill="rgb(0,0,0)" stroke="none" d="M 3567,6334 L 3725,5887 3425,5881 3567,6334 Z"/>
       <text class="TextShape"><tspan class="TextParagraph" font-family="Arial, sans-serif" font-size="353px" font-weight="400"><tspan class="TextPosition" x="2921" y="4780"><tspan fill="rgb(0,0,0)" stroke="none">yes        </tspan></tspan></tspan></text>
      </g>
     </g>
     <g class="com.sun.star.drawing.ConnectorShape">
      <g id="id9">
       <path fill="none" stroke="rgb(0,0,0)" d="M 7371,5064 L 7371,5700 3567,5700 3567,5904"/>
       <path fill="rgb(0,0,0)" stroke="none" d="M 3567,6334 L 3717,5884 3417,5884 3567,6334 Z"/>
      </g>
     </g>
     <g class="com.sun.star.drawing.CustomShape">
      <g id="id10">
       <path fill="rgb(204,255,204)" stroke="none" d="M 1179,6334 L 5953,6334 5953,7389 1179,7389 1179,6334 1179,6334 Z M 1179,6334 L 1179,6334 Z M 5953,7389 L 5953,7389 Z"/>
       <path fill="none" stroke="rgb(52,101,175)" d="M 1179,6334 L 5953,6334 5953,7389 1179,7389 1179,6334 1179,6334 Z"/>
       <path fill="none" stroke="rgb(52,101,175)" d="M 1179,6334 L 1179,6334 Z"/>
       <path fill="none" stroke="rgb(52,101,175)" d="M 5953,7389 L 5953,7389 Z"/>
       <text class="TextShape"><tspan class="TextParagraph" font-family="Arial, sans-serif" font-size="353px" font-weight="400"><tspan class="TextPosition" x="2086" y="6785"><tspan fill="rgb(0,0,0)" stroke="none">start Jetty process </tspan></tspan><tspan class="TextPosition" x="1614" y="7183"><tspan fill="rgb(0,0,0)" stroke="none">against compiled classes</tspan></tspan></tspan></text>
      </g>
     </g>
     <g class="com.sun.star.drawing.ConnectorShape">
      <g id="id11">
       <path fill="none" stroke="rgb(0,0,0)" d="M 3567,7388 C 3567,7404 3570,7420 3577,7436"/>
       <path fill="none" stroke="rgb(0,0,0)" d="M 3594,7466 C 3605,7481 3619,7495 3636,7510"/>
       <path fill="none" stroke="rgb(0,0,0)" d="M 3658,7526 C 3670,7535 3683,7543 3698,7552"/>
       <path fill="none" stroke="rgb(0,0,0)" d="M 3727,7568 C 3743,7576 3761,7584 3779,7592"/>
       <path fill="none" stroke="rgb(0,0,0)" d="M 3816,7607 C 3832,7613 3848,7619 3865,7625"/>
       <path fill="none" stroke="rgb(0,0,0)" d="M 3893,7635 C 3908,7640 3924,7645 3940,7650"/>
       <path fill="none" stroke="rgb(0,0,0)" d="M 3972,7659 C 3988,7664 4005,7668 4023,7673"/>
       <path fill="none" stroke="rgb(0,0,0)" d="M 4058,7682 C 4076,7687 4095,7691 4115,7696"/>
       <path fill="none" stroke="rgb(0,0,0)" d="M 4153,7704 C 4170,7708 4187,7712 4204,7715"/>
       <path fill="none" stroke="rgb(0,0,0)" d="M 4234,7722 C 4250,7725 4266,7728 4282,7731"/>
       <path fill="none" stroke="rgb(0,0,0)" d="M 4313,7737 C 4330,7740 4347,7743 4364,7746"/>
       <path fill="none" stroke="rgb(0,0,0)" d="M 4397,7752 C 4415,7755 4432,7758 4450,7761"/>
       <path fill="none" stroke="rgb(0,0,0)" d="M 4486,7766 C 4504,7769 4523,7772 4542,7775"/>
       <path fill="none" stroke="rgb(0,0,0)" d="M 4578,7781 C 4598,7783 4617,7786 4637,7789"/>
       <path fill="none" stroke="rgb(0,0,0)" d="M 4670,7794 C 4686,7796 4702,7798 4718,7800"/>
       <path fill="none" stroke="rgb(0,0,0)" d="M 4749,7804 C 4766,7806 4782,7808 4799,7810"/>
       <path fill="none" stroke="rgb(0,0,0)" d="M 4831,7814 C 4848,7816 4865,7818 4883,7820"/>
       <path fill="none" stroke="rgb(0,0,0)" d="M 4916,7824 C 4934,7826 4951,7828 4969,7830"/>
       <path fill="none" stroke="rgb(0,0,0)" d="M 5004,7834 C 5022,7836 5040,7838 5058,7840"/>
       <path fill="none" stroke="rgb(0,0,0)" d="M 5094,7843 C 5112,7845 5131,7847 5150,7849"/>
       <path fill="none" stroke="rgb(0,0,0)" d="M 5187,7853 C 5206,7854 5225,7856 5244,7858"/>
       <path fill="none" stroke="rgb(0,0,0)" d="M 5278,7861 C 5294,7863 5311,7864 5327,7865"/>
       <path fill="none" stroke="rgb(0,0,0)" d="M 5359,7868 C 5375,7870 5392,7871 5409,7873"/>
       <path fill="none" stroke="rgb(0,0,0)" d="M 5441,7875 C 5458,7877 5475,7878 5492,7879"/>
       <path fill="none" stroke="rgb(0,0,0)" d="M 5525,7882 C 5543,7883 5560,7885 5577,7886"/>
       <path fill="none" stroke="rgb(0,0,0)" d="M 5611,7889 C 5629,7890 5647,7891 5665,7893"/>
       <path fill="none" stroke="rgb(0,0,0)" d="M 5699,7895 C 5717,7897 5735,7898 5754,7899"/>
       <path fill="none" stroke="rgb(0,0,0)" d="M 5789,7902 C 5807,7903 5826,7904 5845,7905"/>
       <path fill="none" stroke="rgb(0,0,0)" d="M 5881,7908 C 5899,7909 5918,7910 5937,7911"/>
       <path fill="none" stroke="rgb(0,0,0)" d="M 5974,7914 C 5992,7915 6010,7916 6028,7917"/>
       <path fill="none" stroke="rgb(0,0,0)" d="M 6060,7919 C 6076,7920 6093,7921 6109,7922"/>
       <path fill="none" stroke="rgb(0,0,0)" d="M 6142,7924 C 6158,7925 6175,7926 6192,7927"/>
       <path fill="none" stroke="rgb(0,0,0)" d="M 6225,7929 C 6242,7930 6259,7930 6276,7931"/>
       <path fill="none" stroke="rgb(0,0,0)" d="M 6310,7933 C 6327,7934 6344,7935 6362,7936"/>
       <path fill="none" stroke="rgb(0,0,0)" d="M 6396,7938 C 6413,7939 6431,7939 6449,7940"/>
       <path fill="none" stroke="rgb(0,0,0)" d="M 6483,7942 C 6501,7943 6519,7944 6537,7945"/>
       <path fill="none" stroke="rgb(0,0,0)" d="M 6572,7946 C 6590,7947 6608,7948 6626,7949"/>
       <path fill="none" stroke="rgb(0,0,0)" d="M 6662,7950 C 6680,7951 6699,7952 6717,7953"/>
       <path fill="none" stroke="rgb(0,0,0)" d="M 6753,7954 C 6772,7955 6791,7956 6809,7957"/>
       <path fill="none" stroke="rgb(0,0,0)" d="M 6846,7958 C 6864,7959 6882,7960 6901,7961"/>
       <path fill="none" stroke="rgb(0,0,0)" d="M 6933,7962 C 6949,7962 6966,7963 6983,7964"/>
       <path fill="none" stroke="rgb(0,0,0)" d="M 7015,7965 C 7032,7966 7049,7966 7066,7967"/>
       <path fill="none" stroke="rgb(0,0,0)" d="M 7099,7968 C 7116,7969 7133,7969 7150,7970"/>
       <path fill="none" stroke="rgb(0,0,0)" d="M 7183,7971 C 7201,7972 7218,7972 7235,7973"/>
       <path fill="none" stroke="rgb(0,0,0)" d="M 7269,7974 C 7286,7975 7304,7975 7321,7976"/>
       <path fill="none" stroke="rgb(0,0,0)" d="M 7355,7977 C 7373,7977 7391,7978 7408,7979"/>
       <path fill="none" stroke="rgb(0,0,0)" d="M 7443,7980 C 7461,7980 7479,7981 7497,7981"/>
       <path fill="none" stroke="rgb(0,0,0)" d="M 7531,7982 C 7549,7983 7568,7983 7586,7984"/>
       <path fill="none" stroke="rgb(0,0,0)" d="M 7621,7985 C 7639,7985 7658,7986 7676,7986"/>
       <path fill="none" stroke="rgb(0,0,0)" d="M 7711,7987 C 7730,7988 7748,7988 7767,7989"/>
       <path fill="none" stroke="rgb(0,0,0)" d="M 7803,7990 C 7822,7990 7840,7991 7859,7991"/>
       <path fill="none" stroke="rgb(0,0,0)" d="M 7896,7992 C 7912,7993 7929,7993 7946,7993"/>
       <path fill="none" stroke="rgb(0,0,0)" d="M 7979,7994 C 7996,7995 8012,7995 8029,7995"/>
       <path fill="none" stroke="rgb(0,0,0)" d="M 8062,7996 C 8079,7996 8096,7997 8113,7997"/>
       <path fill="none" stroke="rgb(0,0,0)" d="M 8146,7998 C 8163,7998 8180,7999 8198,7999"/>
       <path fill="none" stroke="rgb(0,0,0)" d="M 8231,8000 C 8248,8000 8266,8000 8283,8001"/>
       <path fill="none" stroke="rgb(0,0,0)" d="M 8317,8001 C 8334,8002 8352,8002 8369,8002"/>
       <path fill="none" stroke="rgb(0,0,0)" d="M 8403,8003 C 8421,8003 8438,8004 8456,8004"/>
       <path fill="none" stroke="rgb(0,0,0)" d="M 8490,8005 C 8508,8005 8526,8005 8544,8006"/>
       <path fill="none" stroke="rgb(0,0,0)" d="M 8578,8006 C 8596,8006 8614,8007 8632,8007"/>
       <path fill="none" stroke="rgb(0,0,0)" d="M 8667,8008 C 8685,8008 8703,8008 8721,8008"/>
       <path fill="none" stroke="rgb(0,0,0)" d="M 8756,8009 C 8775,8009 8793,8009 8811,8010"/>
       <path fill="none" stroke="rgb(0,0,0)" d="M 8847,8010 C 8865,8011 8883,8011 8902,8011"/>
       <path fill="none" stroke="rgb(0,0,0)" d="M 8938,8012 C 8956,8012 8975,8012 8993,8012"/>
       <path fill="none" stroke="rgb(0,0,0)" d="M 9030,8013 C 9047,8013 9065,8013 9082,8013"/>
       <path fill="none" stroke="rgb(0,0,0)" d="M 9115,8014 C 9132,8014 9149,8014 9166,8014"/>
       <path fill="none" stroke="rgb(0,0,0)" d="M 9198,8015 C 9215,8015 9232,8015 9250,8015"/>
       <path fill="none" stroke="rgb(0,0,0)" d="M 9283,8016 C 9300,8016 9317,8016 9334,8016"/>
       <path fill="none" stroke="rgb(0,0,0)" d="M 9367,8016 C 9385,8017 9402,8017 9419,8017"/>
       <path fill="none" stroke="rgb(0,0,0)" d="M 9453,8017 C 9470,8017 9487,8018 9505,8018"/>
       <path fill="none" stroke="rgb(0,0,0)" d="M 9539,8018 C 9556,8018 9574,8018 9591,8018"/>
       <path fill="none" stroke="rgb(0,0,0)" d="M 9625,8019 C 9643,8019 9661,8019 9678,8019"/>
       <path fill="none" stroke="rgb(0,0,0)" d="M 9713,8019 C 9730,8019 9748,8020 9766,8020"/>
       <path fill="none" stroke="rgb(0,0,0)" d="M 9800,8020 C 9818,8020 9836,8020 9854,8020"/>
       <path fill="none" stroke="rgb(0,0,0)" d="M 9889,8020 C 9907,8021 9925,8021 9943,8021"/>
       <path fill="none" stroke="rgb(0,0,0)" d="M 9978,8021 C 9996,8021 10014,8021 10032,8021"/>
       <path fill="none" stroke="rgb(0,0,0)" d="M 10068,8021 C 10086,8021 10104,8022 10123,8022"/>
       <path fill="none" stroke="rgb(0,0,0)" d="M 10158,8022 C 10176,8022 10195,8022 10213,8022"/>
       <path fill="none" stroke="rgb(0,0,0)" d="M 10249,8022 C 10268,8022 10286,8022 10305,8022"/>
       <path fill="rgb(0,0,0)" stroke="none" d="M 10779,8023 L 10329,7872 10329,8172 10779,8023 Z"/>
       <text class="TextShape"><tspan class="TextParagraph" font-family="Arial, sans-serif" font-size="353px" font-weight="400"><tspan class="TextPosition" x="8219" y="7829"><tspan fill="rgb(0,0,0)" stroke="none">start process   </tspan></tspan></tspan></text>
      </g>
     </g>
     <g class="com.sun.star.drawing.CustomShape">
      <g id="id12">
       <path fill="rgb(255,255,204)" stroke="none" d="M 10779,11804 L 14844,11804 14844,12976 10779,12976 10779,11804 10779,11804 Z M 10779,11804 L 10779,11804 Z M 14844,12976 L 14844,12976 Z"/>
       <path fill="none" stroke="rgb(52,101,175)" d="M 10779,11804 L 14844,11804 14844,12976 10779,12976 10779,11804 10779,11804 Z"/>
       <path fill="none" stroke="rgb(52,101,175)" d="M 10779,11804 L 10779,11804 Z"/>
       <path fill="none" stroke="rgb(52,101,175)" d="M 14844,12976 L 14844,12976 Z"/>
       <text class="TextShape"><tspan class="TextParagraph" font-family="Arial, sans-serif" font-size="353px" font-weight="400"><tspan class="TextPosition" x="11171" y="12314"><tspan fill="rgb(0,0,0)" stroke="none">send “started” signal </tspan></tspan></tspan><tspan class="TextParagraph" font-family="Arial, sans-serif" font-size="353px" font-weight="400"><tspan class="TextPosition" x="11747" y="12712"><tspan fill="rgb(0,0,0)" stroke="none">to </tspan><tspan font-weight="700" fill="rgb(0,0,0)" stroke="none">statusPort</tspan></tspan></tspan></text>
      </g>
     </g>
     <g class="com.sun.star.drawing.ConnectorShape">
      <g id="id13">
       <path fill="none" stroke="rgb(0,0,0)" d="M 3567,7388 L 3594,8567"/>
       <path fill="rgb(0,0,0)" stroke="none" d="M 3604,8997 L 3744,8544 3444,8551 3604,8997 Z"/>
      </g>
     </g>
     <g class="com.sun.star.drawing.CustomShape">
      <g id="id14">
       <path fill="rgb(204,255,204)" stroke="none" d="M 1625,11691 L 5700,11691 5700,12580 1625,12580 1625,11691 1625,11691 Z M 1625,11691 L 1625,11691 Z M 5700,12581 L 5700,12581 Z"/>
       <path fill="none" stroke="rgb(52,101,175)" d="M 1625,11691 L 5700,11691 5700,12580 1625,12580 1625,11691 1625,11691 Z"/>
       <path fill="none" stroke="rgb(52,101,175)" d="M 1625,11691 L 1625,11691 Z"/>
       <path fill="none" stroke="rgb(52,101,175)" d="M 5700,12581 L 5700,12581 Z"/>
       <text class="TextShape"><tspan class="TextParagraph" font-family="Arial, sans-serif" font-size="353px" font-weight="400"><tspan class="TextPosition" x="1950" y="12259"><tspan fill="rgb(0,0,0)" stroke="none">wait for user keypress</tspan></tspan></tspan></text>
      </g>
     </g>
     <g class="com.sun.star.drawing.CustomShape">
      <g id="id15">
       <path fill="rgb(204,255,204)" stroke="none" d="M 1634,8996 L 5572,8996 5572,10168 1634,10168 1634,8996 1634,8996 Z M 1634,8996 L 1634,8996 Z M 5572,10168 L 5572,10168 Z"/>
       <path fill="none" stroke="rgb(52,101,175)" d="M 1634,8996 L 5572,8996 5572,10168 1634,10168 1634,8996 1634,8996 Z"/>
       <path fill="none" stroke="rgb(52,101,175)" d="M 1634,8996 L 1634,8996 Z"/>
       <path fill="none" stroke="rgb(52,101,175)" d="M 5572,10168 L 5572,10168 Z"/>
       <text class="TextShape"><tspan class="TextParagraph" font-family="Arial, sans-serif" font-size="353px" font-weight="400"><tspan class="TextPosition" x="1778" y="9506"><tspan fill="rgb(0,0,0)" stroke="none">wait for “started” signal </tspan></tspan><tspan class="TextPosition" x="2489" y="9904"><tspan fill="rgb(0,0,0)" stroke="none">on </tspan><tspan font-weight="700" fill="rgb(0,0,0)" stroke="none">statusPort</tspan></tspan></tspan></text>
      </g>
     </g>
     <g class="com.sun.star.drawing.CustomShape">
      <g id="id16">
       <path fill="rgb(204,255,204)" stroke="none" d="M 1635,14203 L 5700,14203 5700,15375 1635,15375 1635,14203 1635,14203 Z M 1635,14203 L 1635,14203 Z M 5700,15375 L 5700,15375 Z"/>
       <path fill="none" stroke="rgb(52,101,175)" d="M 1635,14203 L 5700,14203 5700,15375 1635,15375 1635,14203 1635,14203 Z"/>
       <path fill="none" stroke="rgb(52,101,175)" d="M 1635,14203 L 1635,14203 Z"/>
       <path fill="none" stroke="rgb(52,101,175)" d="M 5700,15375 L 5700,15375 Z"/>
       <text class="TextShape"><tspan class="TextParagraph" font-family="Arial, sans-serif" font-size="353px" font-weight="400"><tspan class="TextPosition" x="2232" y="14713"><tspan fill="rgb(0,0,0)" stroke="none">send “stop” signal </tspan></tspan></tspan><tspan class="TextParagraph" font-family="Arial, sans-serif" font-size="353px" font-weight="400"><tspan class="TextPosition" x="2518" y="15111"><tspan fill="rgb(0,0,0)" stroke="none">to </tspan><tspan font-weight="700" fill="rgb(0,0,0)" stroke="none">servicePort</tspan></tspan></tspan></text>
      </g>
     </g>
     <g class="com.sun.star.drawing.ConnectorShape">
      <g id="id17">
       <path fill="none" stroke="rgb(0,0,0)" d="M 3662,12581 L 3666,13774"/>
       <path fill="rgb(0,0,0)" stroke="none" d="M 3667,14204 L 3816,13754 3516,13754 3667,14204 Z"/>
      </g>
     </g>
     <g class="com.sun.star.drawing.CustomShape">
      <g id="id18">
       <path fill="rgb(255,255,204)" stroke="none" d="M 11432,8405 C 11105,8405 10779,8214 10779,8023 10779,7832 11105,7642 11432,7642 L 14190,7642 C 14517,7642 14844,7832 14844,8023 14844,8214 14517,8405 14190,8405 L 11432,8405 Z M 10779,7642 L 10779,7642 Z M 14844,8405 L 14844,8405 Z"/>
       <path fill="none" stroke="rgb(52,101,175)" d="M 11432,8405 C 11105,8405 10779,8214 10779,8023 10779,7832 11105,7642 11432,7642 L 14190,7642 C 14517,7642 14844,7832 14844,8023 14844,8214 14517,8405 14190,8405 L 11432,8405 Z"/>
       <path fill="none" stroke="rgb(52,101,175)" d="M 10779,7642 L 10779,7642 Z"/>
       <path fill="none" stroke="rgb(52,101,175)" d="M 14844,8405 L 14844,8405 Z"/>
       <text class="TextShape"><tspan class="TextParagraph" font-family="Arial, sans-serif" font-size="353px" font-weight="400"><tspan class="TextPosition" x="11291" y="8146"><tspan fill="rgb(0,0,0)" stroke="none">Jetty process starts</tspan></tspan></tspan></text>
      </g>
     </g>
     <g class="com.sun.star.drawing.ConnectorShape">
      <g id="id19">
       <path fill="none" stroke="rgb(0,0,0)" d="M 12811,8404 L 12814,9244"/>
       <path fill="rgb(0,0,0)" stroke="none" d="M 12815,9674 L 12964,9224 12664,9224 12815,9674 Z"/>
      </g>
     </g>
     <g class="com.sun.star.drawing.CustomShape">
      <g id="id20">
       <path fill="rgb(255,255,204)" stroke="none" d="M 10398,14245 L 15225,14245 15225,15643 10398,15643 10398,14245 10398,14245 Z M 10398,14245 L 10398,14245 Z M 15225,15643 L 15225,15643 Z"/>
       <path fill="none" stroke="rgb(52,101,175)" d="M 10398,14245 L 15225,14245 15225,15643 10398,15643 10398,14245 10398,14245 Z"/>
       <path fill="none" stroke="rgb(52,101,175)" d="M 10398,14245 L 10398,14245 Z"/>
       <path fill="none" stroke="rgb(52,101,175)" d="M 15225,15643 L 15225,15643 Z"/>
       <text class="TextShape"><tspan class="TextParagraph" font-family="Arial, sans-serif" font-size="353px" font-weight="400"><tspan class="TextPosition" x="11878" y="14669"><tspan fill="rgb(0,0,0)" stroke="none">In wait loop.</tspan></tspan><tspan class="TextPosition" x="11095" y="15067"><tspan fill="rgb(0,0,0)" stroke="none">listen for “stop” signal </tspan></tspan><tspan class="TextPosition" x="11613" y="15465"><tspan fill="rgb(0,0,0)" stroke="none">on </tspan><tspan font-weight="700" fill="rgb(0,0,0)" stroke="none">servicePort</tspan></tspan></tspan></text>
      </g>
     </g>
     <g class="com.sun.star.drawing.ConnectorShape">
      <g id="id21">
       <path fill="none" stroke="rgb(0,0,0)" d="M 12811,12976 L 12811,13816"/>
       <path fill="rgb(0,0,0)" stroke="none" d="M 12811,14246 L 12961,13796 12661,13796 12811,14246 Z"/>
      </g>
     </g>
     <g class="com.sun.star.drawing.CustomShape">
      <g id="id22">
       <path fill="rgb(204,255,204)" stroke="none" d="M 1962,21867 C 1544,21867 1126,21545 1126,21224 1126,20903 1544,20582 1962,20582 L 5497,20582 C 5915,20582 6334,20903 6334,21224 6334,21545 5915,21867 5497,21867 L 1962,21867 Z M 1126,20582 L 1126,20582 Z M 6334,21867 L 6334,21867 Z"/>
       <path fill="none" stroke="rgb(52,101,175)" d="M 1962,21867 C 1544,21867 1126,21545 1126,21224 1126,20903 1544,20582 1962,20582 L 5497,20582 C 5915,20582 6334,20903 6334,21224 6334,21545 5915,21867 5497,21867 L 1962,21867 Z"/>
       <path fill="none" stroke="rgb(52,101,175)" d="M 1126,20582 L 1126,20582 Z"/>
       <path fill="none" stroke="rgb(52,101,175)" d="M 6334,21867 L 6334,21867 Z"/>
       <text class="TextShape"><tspan class="TextParagraph" font-family="Arial, sans-serif" font-size="353px" font-weight="400"><tspan class="TextPosition" x="2386" y="20949"><tspan fill="rgb(0,0,0)" stroke="none">jettyRun finished.</tspan></tspan><tspan class="TextPosition" x="2381" y="21347"><tspan fill="rgb(0,0,0)" stroke="none">Gradle proceeds </tspan></tspan><tspan class="TextPosition" x="2508" y="21745"><tspan fill="rgb(0,0,0)" stroke="none">with other tasks</tspan></tspan></tspan></text>
      </g>
     </g>
     <g class="com.sun.star.drawing.ConnectorShape">
      <g id="id23">
       <path fill="none" stroke="rgb(0,0,0)" d="M 10779,12390 L 10732,12365"/>
       <path fill="none" stroke="rgb(0,0,0)" d="M 10702,12349 L 10655,12323"/>
       <path fill="none" stroke="rgb(0,0,0)" d="M 10625,12307 L 10579,12282"/>
       <path fill="none" stroke="rgb(0,0,0)" d="M 10548,12266 L 10502,12241"/>
       <path fill="none" stroke="rgb(0,0,0)" d="M 10472,12224 L 10425,12199"/>
       <path fill="none" stroke="rgb(0,0,0)" d="M 10395,12183 L 10348,12158"/>
       <path fill="none" stroke="rgb(0,0,0)" d="M 10318,12141 L 10271,12116"/>
       <path fill="none" stroke="rgb(0,0,0)" d="M 10241,12100 L 10194,12075"/>
       <path fill="none" stroke="rgb(0,0,0)" d="M 10164,12059 L 10117,12033"/>
       <path fill="none" stroke="rgb(0,0,0)" d="M 10087,12017 L 10041,11992"/>
       <path fill="none" stroke="rgb(0,0,0)" d="M 10010,11976 L 9964,11950"/>
       <path fill="none" stroke="rgb(0,0,0)" d="M 9934,11934 L 9887,11909"/>
       <path fill="none" stroke="rgb(0,0,0)" d="M 9857,11893 L 9810,11868"/>
       <path fill="none" stroke="rgb(0,0,0)" d="M 9780,11851 L 9733,11826"/>
       <path fill="none" stroke="rgb(0,0,0)" d="M 9703,11810 L 9656,11785"/>
       <path fill="none" stroke="rgb(0,0,0)" d="M 9626,11768 L 9579,11743"/>
       <path fill="none" stroke="rgb(0,0,0)" d="M 9549,11727 L 9502,11702"/>
       <path fill="none" stroke="rgb(0,0,0)" d="M 9472,11686 L 9426,11660"/>
       <path fill="none" stroke="rgb(0,0,0)" d="M 9396,11644 L 9349,11619"/>
       <path fill="none" stroke="rgb(0,0,0)" d="M 9319,11603 L 9272,11578"/>
       <path fill="none" stroke="rgb(0,0,0)" d="M 9242,11561 L 9195,11536"/>
       <path fill="none" stroke="rgb(0,0,0)" d="M 9165,11520 L 9118,11495"/>
       <path fill="none" stroke="rgb(0,0,0)" d="M 9088,11478 L 9041,11453"/>
       <path fill="none" stroke="rgb(0,0,0)" d="M 9011,11437 L 8964,11412"/>
       <path fill="none" stroke="rgb(0,0,0)" d="M 8934,11396 L 8888,11370"/>
       <path fill="none" stroke="rgb(0,0,0)" d="M 8857,11354 L 8811,11329"/>
       <path fill="none" stroke="rgb(0,0,0)" d="M 8781,11313 L 8734,11288"/>
       <path fill="none" stroke="rgb(0,0,0)" d="M 8704,11271 L 8657,11246"/>
       <path fill="none" stroke="rgb(0,0,0)" d="M 8627,11230 L 8580,11205"/>
       <path fill="none" stroke="rgb(0,0,0)" d="M 8550,11188 L 8503,11163"/>
       <path fill="none" stroke="rgb(0,0,0)" d="M 8473,11147 L 8426,11122"/>
       <path fill="none" stroke="rgb(0,0,0)" d="M 8396,11106 L 8350,11080"/>
       <path fill="none" stroke="rgb(0,0,0)" d="M 8319,11064 L 8273,11039"/>
       <path fill="none" stroke="rgb(0,0,0)" d="M 8243,11023 L 8196,10997"/>
       <path fill="none" stroke="rgb(0,0,0)" d="M 8166,10981 L 8119,10956"/>
       <path fill="none" stroke="rgb(0,0,0)" d="M 8089,10940 L 8042,10915"/>
       <path fill="none" stroke="rgb(0,0,0)" d="M 8012,10898 L 7965,10873"/>
       <path fill="none" stroke="rgb(0,0,0)" d="M 7935,10857 L 7888,10832"/>
       <path fill="none" stroke="rgb(0,0,0)" d="M 7858,10815 L 7812,10790"/>
       <path fill="none" stroke="rgb(0,0,0)" d="M 7781,10774 L 7735,10749"/>
       <path fill="none" stroke="rgb(0,0,0)" d="M 7705,10733 L 7658,10707"/>
       <path fill="none" stroke="rgb(0,0,0)" d="M 7628,10691 L 7581,10666"/>
       <path fill="none" stroke="rgb(0,0,0)" d="M 7551,10650 L 7504,10625"/>
       <path fill="none" stroke="rgb(0,0,0)" d="M 7474,10608 L 7427,10583"/>
       <path fill="none" stroke="rgb(0,0,0)" d="M 7397,10567 L 7350,10542"/>
       <path fill="none" stroke="rgb(0,0,0)" d="M 7320,10525 L 7274,10500"/>
       <path fill="none" stroke="rgb(0,0,0)" d="M 7243,10484 L 7197,10459"/>
       <path fill="none" stroke="rgb(0,0,0)" d="M 7167,10443 L 7120,10417"/>
       <path fill="none" stroke="rgb(0,0,0)" d="M 7090,10401 L 7043,10376"/>
       <path fill="none" stroke="rgb(0,0,0)" d="M 7013,10360 L 6966,10335"/>
       <path fill="none" stroke="rgb(0,0,0)" d="M 6936,10318 L 6889,10293"/>
       <path fill="none" stroke="rgb(0,0,0)" d="M 6859,10277 L 6812,10252"/>
       <path fill="none" stroke="rgb(0,0,0)" d="M 6782,10235 L 6735,10210"/>
       <path fill="none" stroke="rgb(0,0,0)" d="M 6705,10194 L 6659,10169"/>
       <path fill="none" stroke="rgb(0,0,0)" d="M 6629,10153 L 6582,10127"/>
       <path fill="none" stroke="rgb(0,0,0)" d="M 6552,10111 L 6505,10086"/>
       <path fill="none" stroke="rgb(0,0,0)" d="M 6475,10070 L 6428,10044"/>
       <path fill="none" stroke="rgb(0,0,0)" d="M 6398,10028 L 6351,10003"/>
       <path fill="none" stroke="rgb(0,0,0)" d="M 6321,9987 L 6274,9962"/>
       <path fill="none" stroke="rgb(0,0,0)" d="M 6244,9945 L 6197,9920"/>
       <path fill="none" stroke="rgb(0,0,0)" d="M 6167,9904 L 6121,9879"/>
       <path fill="none" stroke="rgb(0,0,0)" d="M 6090,9863 L 6044,9837"/>
       <path fill="none" stroke="rgb(0,0,0)" d="M 6014,9821 L 5967,9796"/>
       <path fill="rgb(0,0,0)" stroke="none" d="M 5572,9583 L 5897,9929 6039,9664 5572,9583 Z"/>
       <text class="TextShape"><tspan class="TextParagraph" font-family="Arial, sans-serif" font-size="353px" font-weight="400"><tspan class="TextPosition" x="7941" y="11309"><tspan fill="rgb(0,0,0)" stroke="none">tcp</tspan></tspan></tspan></text>
      </g>
     </g>
     <g class="com.sun.star.drawing.CustomShape">
      <g id="id24">
       <path fill="rgb(255,255,204)" stroke="none" d="M 11518,17803 C 11212,17803 10906,17612 10906,17421 10906,17230 11212,17040 11518,17040 L 14104,17040 C 14410,17040 14717,17230 14717,17421 14717,17612 14410,17803 14104,17803 L 11518,17803 Z M 10906,17040 L 10906,17040 Z M 14717,17803 L 14717,17803 Z"/>
       <path fill="none" stroke="rgb(52,101,175)" d="M 11518,17803 C 11212,17803 10906,17612 10906,17421 10906,17230 11212,17040 11518,17040 L 14104,17040 C 14410,17040 14717,17230 14717,17421 14717,17612 14410,17803 14104,17803 L 11518,17803 Z"/>
       <path fill="none" stroke="rgb(52,101,175)" d="M 10906,17040 L 10906,17040 Z"/>
       <path fill="none" stroke="rgb(52,101,175)" d="M 14717,17803 L 14717,17803 Z"/>
       <text class="TextShape"><tspan class="TextParagraph" font-family="Arial, sans-serif" font-size="353px" font-weight="400"><tspan class="TextPosition" x="11120" y="17544"><tspan fill="rgb(0,0,0)" stroke="none">Jetty process finished</tspan></tspan></tspan></text>
      </g>
     </g>
     <g class="com.sun.star.drawing.ConnectorShape">
      <g id="id25">
       <path fill="none" stroke="rgb(0,0,0)" d="M 12811,15643 L 12811,16610"/>
       <path fill="rgb(0,0,0)" stroke="none" d="M 12811,17040 L 12961,16590 12661,16590 12811,17040 Z"/>
      </g>
     </g>
     <g class="com.sun.star.drawing.ConnectorShape">
      <g id="id26">
       <path fill="none" stroke="rgb(0,0,0)" d="M 5699,14789 L 5752,14791"/>
       <path fill="none" stroke="rgb(0,0,0)" d="M 5786,14792 L 5839,14794"/>
       <path fill="none" stroke="rgb(0,0,0)" d="M 5874,14795 L 5927,14797"/>
       <path fill="none" stroke="rgb(0,0,0)" d="M 5961,14798 L 6014,14799"/>
       <path fill="none" stroke="rgb(0,0,0)" d="M 6048,14801 L 6101,14802"/>
       <path fill="none" stroke="rgb(0,0,0)" d="M 6135,14803 L 6188,14805"/>
       <path fill="none" stroke="rgb(0,0,0)" d="M 6223,14806 L 6276,14808"/>
       <path fill="none" stroke="rgb(0,0,0)" d="M 6310,14809 L 6363,14811"/>
       <path fill="none" stroke="rgb(0,0,0)" d="M 6397,14812 L 6450,14814"/>
       <path fill="none" stroke="rgb(0,0,0)" d="M 6484,14815 L 6537,14817"/>
       <path fill="none" stroke="rgb(0,0,0)" d="M 6572,14818 L 6625,14820"/>
       <path fill="none" stroke="rgb(0,0,0)" d="M 6659,14821 L 6712,14822"/>
       <path fill="none" stroke="rgb(0,0,0)" d="M 6746,14824 L 6799,14825"/>
       <path fill="none" stroke="rgb(0,0,0)" d="M 6834,14826 L 6887,14828"/>
       <path fill="none" stroke="rgb(0,0,0)" d="M 6921,14829 L 6974,14831"/>
       <path fill="none" stroke="rgb(0,0,0)" d="M 7008,14832 L 7061,14834"/>
       <path fill="none" stroke="rgb(0,0,0)" d="M 7095,14835 L 7148,14837"/>
       <path fill="none" stroke="rgb(0,0,0)" d="M 7183,14838 L 7236,14840"/>
       <path fill="none" stroke="rgb(0,0,0)" d="M 7270,14841 L 7323,14843"/>
       <path fill="none" stroke="rgb(0,0,0)" d="M 7357,14844 L 7410,14845"/>
       <path fill="none" stroke="rgb(0,0,0)" d="M 7444,14847 L 7497,14848"/>
       <path fill="none" stroke="rgb(0,0,0)" d="M 7532,14849 L 7585,14851"/>
       <path fill="none" stroke="rgb(0,0,0)" d="M 7619,14852 L 7672,14854"/>
       <path fill="none" stroke="rgb(0,0,0)" d="M 7706,14855 L 7759,14857"/>
       <path fill="none" stroke="rgb(0,0,0)" d="M 7793,14858 L 7847,14860"/>
       <path fill="none" stroke="rgb(0,0,0)" d="M 7881,14861 L 7934,14863"/>
       <path fill="none" stroke="rgb(0,0,0)" d="M 7968,14864 L 8021,14866"/>
       <path fill="none" stroke="rgb(0,0,0)" d="M 8055,14867 L 8108,14868"/>
       <path fill="none" stroke="rgb(0,0,0)" d="M 8143,14870 L 8196,14871"/>
       <path fill="none" stroke="rgb(0,0,0)" d="M 8230,14872 L 8283,14874"/>
       <path fill="none" stroke="rgb(0,0,0)" d="M 8317,14875 L 8370,14877"/>
       <path fill="none" stroke="rgb(0,0,0)" d="M 8404,14878 L 8457,14880"/>
       <path fill="none" stroke="rgb(0,0,0)" d="M 8492,14881 L 8545,14883"/>
       <path fill="none" stroke="rgb(0,0,0)" d="M 8579,14884 L 8632,14886"/>
       <path fill="none" stroke="rgb(0,0,0)" d="M 8666,14887 L 8719,14889"/>
       <path fill="none" stroke="rgb(0,0,0)" d="M 8753,14890 L 8807,14892"/>
       <path fill="none" stroke="rgb(0,0,0)" d="M 8841,14893 L 8894,14894"/>
       <path fill="none" stroke="rgb(0,0,0)" d="M 8928,14896 L 8981,14897"/>
       <path fill="none" stroke="rgb(0,0,0)" d="M 9015,14898 L 9068,14900"/>
       <path fill="none" stroke="rgb(0,0,0)" d="M 9103,14901 L 9156,14903"/>
       <path fill="none" stroke="rgb(0,0,0)" d="M 9190,14904 L 9243,14906"/>
       <path fill="none" stroke="rgb(0,0,0)" d="M 9277,14907 L 9330,14909"/>
       <path fill="none" stroke="rgb(0,0,0)" d="M 9364,14910 L 9417,14912"/>
       <path fill="none" stroke="rgb(0,0,0)" d="M 9452,14913 L 9505,14915"/>
       <path fill="none" stroke="rgb(0,0,0)" d="M 9539,14916 L 9592,14917"/>
       <path fill="none" stroke="rgb(0,0,0)" d="M 9626,14919 L 9679,14920"/>
       <path fill="none" stroke="rgb(0,0,0)" d="M 9713,14921 L 9767,14923"/>
       <path fill="none" stroke="rgb(0,0,0)" d="M 9801,14924 L 9854,14926"/>
       <path fill="none" stroke="rgb(0,0,0)" d="M 9888,14927 L 9941,14929"/>
       <path fill="rgb(0,0,0)" stroke="none" d="M 10398,14944 L 9953,14779 9943,15079 10398,14944 Z"/>
       <text class="TextShape"><tspan class="TextParagraph" font-family="Arial, sans-serif" font-size="353px" font-weight="400"><tspan class="TextPosition" x="7035" y="15388"><tspan fill="rgb(0,0,0)" stroke="none">          </tspan><tspan fill="rgb(0,0,0)" stroke="none">tcp      </tspan></tspan></tspan></text>
      </g>
     </g>
     <g class="com.sun.star.drawing.CustomShape">
      <g id="id27">
       <path fill="rgb(204,255,204)" stroke="none" d="M 1762,17406 L 5573,17406 5573,18578 1762,18578 1762,17406 1762,17406 Z M 1762,17406 L 1762,17406 Z M 5573,18578 L 5573,18578 Z"/>
       <path fill="none" stroke="rgb(52,101,175)" d="M 1762,17406 L 5573,17406 5573,18578 1762,18578 1762,17406 1762,17406 Z"/>
       <path fill="none" stroke="rgb(52,101,175)" d="M 1762,17406 L 1762,17406 Z"/>
       <path fill="none" stroke="rgb(52,101,175)" d="M 5573,18578 L 5573,18578 Z"/>
       <text class="TextShape"><tspan class="TextParagraph" font-family="Arial, sans-serif" font-size="353px" font-weight="400"><tspan class="TextPosition" x="2014" y="17916"><tspan fill="rgb(0,0,0)" stroke="none">wait for Jetty process</tspan></tspan></tspan><tspan class="TextParagraph" font-family="Arial, sans-serif" font-size="353px" font-weight="400"><tspan class="TextPosition" x="3064" y="18314"><tspan fill="rgb(0,0,0)" stroke="none">to finish</tspan></tspan></tspan></text>
      </g>
     </g>
     <g class="com.sun.star.drawing.ConnectorShape">
      <g id="id28">
       <path fill="none" stroke="rgb(0,0,0)" d="M 3667,15375 L 3667,16977"/>
       <path fill="rgb(0,0,0)" stroke="none" d="M 3667,17407 L 3817,16957 3517,16957 3667,17407 Z"/>
      </g>
     </g>
     <g class="com.sun.star.drawing.ConnectorShape">
      <g id="id29">
       <path fill="none" stroke="rgb(0,0,0)" d="M 10906,17421 L 10853,17427"/>
       <path fill="none" stroke="rgb(0,0,0)" d="M 10819,17430 L 10766,17436"/>
       <path fill="none" stroke="rgb(0,0,0)" d="M 10732,17440 L 10680,17445"/>
       <path fill="none" stroke="rgb(0,0,0)" d="M 10646,17449 L 10593,17455"/>
       <path fill="none" stroke="rgb(0,0,0)" d="M 10559,17458 L 10506,17464"/>
       <path fill="none" stroke="rgb(0,0,0)" d="M 10472,17467 L 10419,17473"/>
       <path fill="none" stroke="rgb(0,0,0)" d="M 10385,17477 L 10332,17482"/>
       <path fill="none" stroke="rgb(0,0,0)" d="M 10298,17486 L 10245,17492"/>
       <path fill="none" stroke="rgb(0,0,0)" d="M 10211,17495 L 10159,17501"/>
       <path fill="none" stroke="rgb(0,0,0)" d="M 10125,17505 L 10072,17510"/>
       <path fill="none" stroke="rgb(0,0,0)" d="M 10038,17514 L 9985,17520"/>
       <path fill="none" stroke="rgb(0,0,0)" d="M 9951,17523 L 9898,17529"/>
       <path fill="none" stroke="rgb(0,0,0)" d="M 9864,17533 L 9811,17538"/>
       <path fill="none" stroke="rgb(0,0,0)" d="M 9777,17542 L 9725,17547"/>
       <path fill="none" stroke="rgb(0,0,0)" d="M 9690,17551 L 9638,17557"/>
       <path fill="none" stroke="rgb(0,0,0)" d="M 9604,17560 L 9551,17566"/>
       <path fill="none" stroke="rgb(0,0,0)" d="M 9517,17570 L 9464,17575"/>
       <path fill="none" stroke="rgb(0,0,0)" d="M 9430,17579 L 9377,17585"/>
       <path fill="none" stroke="rgb(0,0,0)" d="M 9343,17588 L 9290,17594"/>
       <path fill="none" stroke="rgb(0,0,0)" d="M 9256,17598 L 9204,17603"/>
       <path fill="none" stroke="rgb(0,0,0)" d="M 9170,17607 L 9117,17613"/>
       <path fill="none" stroke="rgb(0,0,0)" d="M 9083,17616 L 9030,17622"/>
       <path fill="none" stroke="rgb(0,0,0)" d="M 8996,17625 L 8943,17631"/>
       <path fill="none" stroke="rgb(0,0,0)" d="M 8909,17635 L 8856,17640"/>
       <path fill="none" stroke="rgb(0,0,0)" d="M 8822,17644 L 8769,17650"/>
       <path fill="none" stroke="rgb(0,0,0)" d="M 8735,17653 L 8683,17659"/>
       <path fill="none" stroke="rgb(0,0,0)" d="M 8649,17663 L 8596,17668"/>
       <path fill="none" stroke="rgb(0,0,0)" d="M 8562,17672 L 8509,17678"/>
       <path fill="none" stroke="rgb(0,0,0)" d="M 8475,17681 L 8422,17687"/>
       <path fill="none" stroke="rgb(0,0,0)" d="M 8388,17691 L 8335,17696"/>
       <path fill="none" stroke="rgb(0,0,0)" d="M 8301,17700 L 8249,17705"/>
       <path fill="none" stroke="rgb(0,0,0)" d="M 8215,17709 L 8162,17715"/>
       <path fill="none" stroke="rgb(0,0,0)" d="M 8128,17718 L 8075,17724"/>
       <path fill="none" stroke="rgb(0,0,0)" d="M 8041,17728 L 7988,17733"/>
       <path fill="none" stroke="rgb(0,0,0)" d="M 7954,17737 L 7901,17743"/>
       <path fill="none" stroke="rgb(0,0,0)" d="M 7867,17746 L 7814,17752"/>
       <path fill="none" stroke="rgb(0,0,0)" d="M 7780,17756 L 7728,17761"/>
       <path fill="none" stroke="rgb(0,0,0)" d="M 7694,17765 L 7641,17771"/>
       <path fill="none" stroke="rgb(0,0,0)" d="M 7607,17774 L 7554,17780"/>
       <path fill="none" stroke="rgb(0,0,0)" d="M 7520,17783 L 7467,17789"/>
       <path fill="none" stroke="rgb(0,0,0)" d="M 7433,17793 L 7380,17798"/>
       <path fill="none" stroke="rgb(0,0,0)" d="M 7346,17802 L 7294,17808"/>
       <path fill="none" stroke="rgb(0,0,0)" d="M 7259,17811 L 7207,17817"/>
       <path fill="none" stroke="rgb(0,0,0)" d="M 7173,17821 L 7120,17826"/>
       <path fill="none" stroke="rgb(0,0,0)" d="M 7086,17830 L 7033,17836"/>
       <path fill="none" stroke="rgb(0,0,0)" d="M 6999,17839 L 6946,17845"/>
       <path fill="none" stroke="rgb(0,0,0)" d="M 6912,17849 L 6859,17854"/>
       <path fill="none" stroke="rgb(0,0,0)" d="M 6825,17858 L 6773,17863"/>
       <path fill="none" stroke="rgb(0,0,0)" d="M 6739,17867 L 6686,17873"/>
       <path fill="none" stroke="rgb(0,0,0)" d="M 6652,17876 L 6599,17882"/>
       <path fill="none" stroke="rgb(0,0,0)" d="M 6565,17886 L 6512,17891"/>
       <path fill="none" stroke="rgb(0,0,0)" d="M 6478,17895 L 6425,17901"/>
       <path fill="none" stroke="rgb(0,0,0)" d="M 6391,17904 L 6338,17910"/>
       <path fill="none" stroke="rgb(0,0,0)" d="M 6304,17914 L 6252,17919"/>
       <path fill="none" stroke="rgb(0,0,0)" d="M 6218,17923 L 6165,17929"/>
       <path fill="none" stroke="rgb(0,0,0)" d="M 6131,17932 L 6078,17938"/>
       <path fill="none" stroke="rgb(0,0,0)" d="M 6044,17941 L 6000,17946"/>
       <path fill="rgb(0,0,0)" stroke="none" d="M 5572,17992 L 6035,18093 6003,17795 5572,17992 Z"/>
       <text class="TextShape"><tspan class="TextParagraph" font-family="Arial, sans-serif" font-size="353px" font-weight="400"><tspan class="TextPosition" x="7329" y="18228"><tspan fill="rgb(0,0,0)" stroke="none">thread sync</tspan></tspan></tspan></text>
      </g>
     </g>
     <g class="com.sun.star.drawing.ConnectorShape">
      <g id="id30">
       <path fill="none" stroke="rgb(0,0,0)" d="M 3667,18578 L 3717,20152"/>
       <path fill="rgb(0,0,0)" stroke="none" d="M 3731,20582 L 3867,20127 3567,20137 3731,20582 Z"/>
      </g>
     </g>
     <g class="com.sun.star.drawing.CustomShape">
      <g id="id31">
       <path fill="rgb(255,255,204)" stroke="none" d="M 10652,9673 L 14979,9673 14979,10562 10652,10562 10652,9673 10652,9673 Z M 10652,9673 L 10652,9673 Z M 14979,10563 L 14979,10563 Z"/>
       <path fill="none" stroke="rgb(52,101,175)" d="M 10652,9673 L 14979,9673 14979,10562 10652,10562 10652,9673 10652,9673 Z"/>
       <path fill="none" stroke="rgb(52,101,175)" d="M 10652,9673 L 10652,9673 Z"/>
       <path fill="none" stroke="rgb(52,101,175)" d="M 14979,10563 L 14979,10563 Z"/>
       <text class="TextShape"><tspan class="TextParagraph" font-family="Arial, sans-serif" font-size="353px" font-weight="400"><tspan class="TextPosition" x="10876" y="10042"><tspan fill="rgb(0,0,0)" stroke="none">listen for HTTP requests </tspan></tspan><tspan class="TextPosition" x="12229" y="10440"><tspan fill="rgb(0,0,0)" stroke="none">on </tspan><tspan font-weight="700" fill="rgb(0,0,0)" stroke="none">port</tspan></tspan></tspan></text>
      </g>
     </g>
     <g class="com.sun.star.drawing.ConnectorShape">
      <g id="id32">
       <path fill="none" stroke="rgb(0,0,0)" d="M 12815,10563 L 12812,11375"/>
       <path fill="rgb(0,0,0)" stroke="none" d="M 12811,11805 L 12962,11355 12662,11355 12811,11805 Z"/>
      </g>
     </g>
     <g class="com.sun.star.drawing.ConnectorShape">
      <g id="id33">
       <path fill="none" stroke="rgb(0,0,0)" d="M 3603,10168 L 3645,11262"/>
       <path fill="rgb(0,0,0)" stroke="none" d="M 3662,11692 L 3794,11237 3495,11248 3662,11692 Z"/>
       <text class="TextShape"><tspan class="TextParagraph" font-family="Arial, sans-serif" font-size="353px" font-weight="400"><tspan class="TextPosition" x="2318" y="11053"><tspan fill="rgb(0,0,0)" stroke="none">                           </tspan></tspan></tspan></text>
      </g>
     </g>
    </g>
   </g>
  </g>
 </g>
</svg>