<?xml version="1.0" encoding="UTF-8"?>
<!DOCTYPE svg PUBLIC "-//W3C//DTD SVG 1.1//EN" "http://www.w3.org/Graphics/SVG/1.1/DTD/svg11.dtd">
<svg version="1.2" width="180mm" height="230mm" viewBox="0 0 18000 23000" preserveAspectRatio="xMidYMid" fill-rule="evenodd" clip-path="url(#presentation_clip_path)" stroke-width="28.222" stroke-linejoin="round" xmlns="http://www.w3.org/2000/svg" xmlns:ooo="http://xml.openoffice.org/svg/export" xmlns:xlink="http://www.w3.org/1999/xlink" xml:space="preserve">
 <defs class="ClipPathGroup">
  <clipPath id="presentation_clip_path" clipPathUnits="userSpaceOnUse">
   <rect x="0" y="0" width="18000" height="23000"/>
  </clipPath>
 </defs>
 <defs class="TextShapeIndex">
  <g ooo:slide="id1" ooo:id-list="id3 id4 id5 id6 id7 id8 id9 id10 id11 id12 id13 id14 id15 id16 id17 id18 id19 id20 id21 id22 id23 id24 id25 id26 id27 id28 id29 id30 id31 id32"/>
 </defs>
 <defs class="EmbeddedBulletChars">
  <g id="bullet-char-template(57356)" transform="scale(0.00048828125,-0.00048828125)">
   <path d="M 580,1141 L 1163,571 580,0 -4,571 580,1141 Z"/>
  </g>
  <g id="bullet-char-template(57354)" transform="scale(0.00048828125,-0.00048828125)">
   <path d="M 8,1128 L 1137,1128 1137,0 8,0 8,1128 Z"/>
  </g>
  <g id="bullet-char-template(10146)" transform="scale(0.00048828125,-0.00048828125)">
   <path d="M 174,0 L 602,739 174,1481 1456,739 174,0 Z M 1358,739 L 309,1346 659,739 1358,739 Z"/>
  </g>
  <g id="bullet-char-template(10132)" transform="scale(0.00048828125,-0.00048828125)">
   <path d="M 2015,739 L 1276,0 717,0 1260,543 174,543 174,936 1260,936 717,1481 1274,1481 2015,739 Z"/>
  </g>
  <g id="bullet-char-template(10007)" transform="scale(0.00048828125,-0.00048828125)">
   <path d="M 0,-2 C -7,14 -16,27 -25,37 L 356,567 C 262,823 215,952 215,954 215,979 228,992 255,992 264,992 276,990 289,987 310,991 331,999 354,1012 L 381,999 492,748 772,1049 836,1024 860,1049 C 881,1039 901,1025 922,1006 886,937 835,863 770,784 769,783 710,716 594,584 L 774,223 C 774,196 753,168 711,139 L 727,119 C 717,90 699,76 672,76 641,76 570,178 457,381 L 164,-76 C 142,-110 111,-127 72,-127 30,-127 9,-110 8,-76 1,-67 -2,-52 -2,-32 -2,-23 -1,-13 0,-2 Z"/>
  </g>
  <g id="bullet-char-template(10004)" transform="scale(0.00048828125,-0.00048828125)">
   <path d="M 285,-33 C 182,-33 111,30 74,156 52,228 41,333 41,471 41,549 55,616 82,672 116,743 169,778 240,778 293,778 328,747 346,684 L 369,508 C 377,444 397,411 428,410 L 1163,1116 C 1174,1127 1196,1133 1229,1133 1271,1133 1292,1118 1292,1087 L 1292,965 C 1292,929 1282,901 1262,881 L 442,47 C 390,-6 338,-33 285,-33 Z"/>
  </g>
  <g id="bullet-char-template(9679)" transform="scale(0.00048828125,-0.00048828125)">
   <path d="M 813,0 C 632,0 489,54 383,161 276,268 223,411 223,592 223,773 276,916 383,1023 489,1130 632,1184 813,1184 992,1184 1136,1130 1245,1023 1353,916 1407,772 1407,592 1407,412 1353,268 1245,161 1136,54 992,0 813,0 Z"/>
  </g>
  <g id="bullet-char-template(8226)" transform="scale(0.00048828125,-0.00048828125)">
   <path d="M 346,457 C 273,457 209,483 155,535 101,586 74,649 74,723 74,796 101,859 155,911 209,963 273,989 346,989 419,989 480,963 531,910 582,859 608,796 608,723 608,648 583,586 532,535 482,483 420,457 346,457 Z"/>
  </g>
  <g id="bullet-char-template(8211)" transform="scale(0.00048828125,-0.00048828125)">
   <path d="M -4,459 L 1135,459 1135,606 -4,606 -4,459 Z"/>
  </g>
 </defs>
 <defs class="TextEmbeddedBitmaps"/>
 <g>
  <g id="id2" class="Master_Slide">
   <g id="bg-id2" class="Background"/>
   <g id="bo-id2" class="BackgroundObjects"/>
  </g>
 </g>
 <g class="SlideGroup">
  <g>
   <g id="id1" class="Slide" clip-path="url(#presentation_clip_path)">
    <g class="Page">
     <g class="com.sun.star.drawing.CustomShape">
      <g id="id3">
       <path fill="rgb(204,255,204)" stroke="none" d="M 2352,1854 C 2015,1854 1679,1663 1679,1472 1679,1281 2015,1091 2352,1091 L 5197,1091 C 5534,1091 5871,1281 5871,1472 5871,1663 5534,1854 5197,1854 L 2352,1854 Z M 1679,1091 L 1679,1091 Z M 5871,1854 L 5871,1854 Z"/>
       <path fill="none" stroke="rgb(52,101,175)" d="M 2352,1854 C 2015,1854 1679,1663 1679,1472 1679,1281 2015,1091 2352,1091 L 5197,1091 C 5534,1091 5871,1281 5871,1472 5871,1663 5534,1854 5197,1854 L 2352,1854 Z"/>
       <path fill="none" stroke="rgb(52,101,175)" d="M 1679,1091 L 1679,1091 Z"/>
       <path fill="none" stroke="rgb(52,101,175)" d="M 5871,1854 L 5871,1854 Z"/>
       <text class="TextShape"><tspan class="TextParagraph" font-family="Arial, sans-serif" font-size="353px" font-weight="400"><tspan class="TextPosition" x="2085" y="1595"><tspan fill="rgb(0,0,0)" stroke="none">jettyStartDebug starts</tspan></tspan></tspan></text>
      </g>
     </g>
     <g class="com.sun.star.drawing.CustomShape">
      <g id="id4">
       <path fill="rgb(204,255,204)" stroke="none" d="M 1858,3503 L 3777,2741 5697,3503 3777,4265 1858,3503 1858,3503 Z M 1858,2741 L 1858,2741 Z M 5697,4265 L 5697,4265 Z"/>
       <path fill="none" stroke="rgb(52,101,175)" d="M 1858,3503 L 3777,2741 5697,3503 3777,4265 1858,3503 1858,3503 Z"/>
       <path fill="none" stroke="rgb(52,101,175)" d="M 1858,2741 L 1858,2741 Z"/>
       <path fill="none" stroke="rgb(52,101,175)" d="M 5697,4265 L 5697,4265 Z"/>
       <text class="TextShape"><tspan class="TextParagraph" font-family="Arial, sans-serif" font-size="353px" font-weight="400"><tspan class="TextPosition" x="3159" y="3427"><tspan fill="rgb(0,0,0)" stroke="none">sources</tspan></tspan><tspan class="TextPosition" x="2879" y="3825"><tspan fill="rgb(0,0,0)" stroke="none">up-to-date?</tspan></tspan></tspan></text>
      </g>
     </g>
     <g class="com.sun.star.drawing.ConnectorShape">
      <g id="id5">
       <path fill="none" stroke="rgb(0,0,0)" d="M 3776,1853 L 3777,2312"/>
       <path fill="rgb(0,0,0)" stroke="none" d="M 3777,2742 L 3926,2292 3626,2292 3777,2742 Z"/>
      </g>
     </g>
     <g class="com.sun.star.drawing.CustomShape">
      <g id="id6">
       <path fill="rgb(204,255,204)" stroke="none" d="M 5913,4335 L 9174,4335 9174,5155 5913,5155 5913,4335 5913,4335 Z M 5913,4335 L 5913,4335 Z M 9174,5156 L 9174,5156 Z"/>
       <path fill="none" stroke="rgb(52,101,175)" d="M 5913,4335 L 9174,4335 9174,5155 5913,5155 5913,4335 5913,4335 Z"/>
       <path fill="none" stroke="rgb(52,101,175)" d="M 5913,4335 L 5913,4335 Z"/>
       <path fill="none" stroke="rgb(52,101,175)" d="M 9174,5156 L 9174,5156 Z"/>
       <text class="TextShape"><tspan class="TextParagraph" font-family="Arial, sans-serif" font-size="353px" font-weight="400"><tspan class="TextPosition" x="6940" y="4868"><tspan fill="rgb(0,0,0)" stroke="none">compile</tspan></tspan></tspan></text>
      </g>
     </g>
     <g class="com.sun.star.drawing.ConnectorShape">
      <g id="id7">
       <path fill="none" stroke="rgb(0,0,0)" d="M 5696,3504 L 7543,3504 7543,3905"/>
       <path fill="rgb(0,0,0)" stroke="none" d="M 7543,4335 L 7693,3885 7393,3885 7543,4335 Z"/>
       <text class="TextShape"><tspan class="TextParagraph" font-family="Arial, sans-serif" font-size="353px" font-weight="400"><tspan class="TextPosition" x="6425" y="3844"><tspan fill="rgb(0,0,0)" stroke="none">no</tspan></tspan></tspan></text>
      </g>
     </g>
     <g class="com.sun.star.drawing.ConnectorShape">
      <g id="id8">
       <path fill="none" stroke="rgb(0,0,0)" d="M 3777,4265 L 3747,5995"/>
       <path fill="rgb(0,0,0)" stroke="none" d="M 3739,6425 L 3897,5978 3597,5972 3739,6425 Z"/>
       <text class="TextShape"><tspan class="TextParagraph" font-family="Arial, sans-serif" font-size="353px" font-weight="400"><tspan class="TextPosition" x="3093" y="4871"><tspan fill="rgb(0,0,0)" stroke="none">yes        </tspan></tspan></tspan></text>
      </g>
     </g>
     <g class="com.sun.star.drawing.ConnectorShape">
      <g id="id9">
       <path fill="none" stroke="rgb(0,0,0)" d="M 7543,5155 L 7543,5791 3739,5791 3739,5995"/>
       <path fill="rgb(0,0,0)" stroke="none" d="M 3739,6425 L 3889,5975 3589,5975 3739,6425 Z"/>
      </g>
     </g>
     <g class="com.sun.star.drawing.CustomShape">
      <g id="id10">
       <path fill="rgb(204,255,204)" stroke="none" d="M 1351,6425 L 6125,6425 6125,7480 1351,7480 1351,6425 1351,6425 Z M 1351,6425 L 1351,6425 Z M 6125,7480 L 6125,7480 Z"/>
       <path fill="none" stroke="rgb(52,101,175)" d="M 1351,6425 L 6125,6425 6125,7480 1351,7480 1351,6425 1351,6425 Z"/>
       <path fill="none" stroke="rgb(52,101,175)" d="M 1351,6425 L 1351,6425 Z"/>
       <path fill="none" stroke="rgb(52,101,175)" d="M 6125,7480 L 6125,7480 Z"/>
       <text class="TextShape"><tspan class="TextParagraph" font-family="Arial, sans-serif" font-size="353px" font-weight="400"><tspan class="TextPosition" x="2258" y="6876"><tspan fill="rgb(0,0,0)" stroke="none">start Jetty process </tspan></tspan><tspan class="TextPosition" x="1786" y="7274"><tspan fill="rgb(0,0,0)" stroke="none">against compiled classes</tspan></tspan></tspan></text>
      </g>
     </g>
     <g class="com.sun.star.drawing.ConnectorShape">
      <g id="id11">
       <path fill="none" stroke="rgb(0,0,0)" d="M 3739,7479 C 3739,7495 3742,7511 3749,7527"/>
       <path fill="none" stroke="rgb(0,0,0)" d="M 3766,7557 C 3777,7572 3791,7586 3808,7601"/>
       <path fill="none" stroke="rgb(0,0,0)" d="M 3830,7617 C 3842,7626 3855,7634 3870,7643"/>
       <path fill="none" stroke="rgb(0,0,0)" d="M 3899,7659 C 3915,7667 3933,7675 3951,7683"/>
       <path fill="none" stroke="rgb(0,0,0)" d="M 3988,7698 C 4004,7704 4020,7710 4037,7716"/>
       <path fill="none" stroke="rgb(0,0,0)" d="M 4065,7726 C 4080,7731 4096,7736 4112,7741"/>
       <path fill="none" stroke="rgb(0,0,0)" d="M 4144,7750 C 4160,7755 4177,7759 4195,7764"/>
       <path fill="none" stroke="rgb(0,0,0)" d="M 4230,7773 C 4248,7778 4267,7782 4287,7787"/>
       <path fill="none" stroke="rgb(0,0,0)" d="M 4325,7795 C 4342,7799 4359,7803 4376,7806"/>
       <path fill="none" stroke="rgb(0,0,0)" d="M 4406,7813 C 4422,7816 4438,7819 4454,7822"/>
       <path fill="none" stroke="rgb(0,0,0)" d="M 4485,7828 C 4502,7831 4519,7834 4536,7837"/>
       <path fill="none" stroke="rgb(0,0,0)" d="M 4569,7843 C 4587,7846 4604,7849 4622,7852"/>
       <path fill="none" stroke="rgb(0,0,0)" d="M 4658,7857 C 4676,7860 4695,7863 4714,7866"/>
       <path fill="none" stroke="rgb(0,0,0)" d="M 4750,7872 C 4770,7874 4789,7877 4809,7880"/>
       <path fill="none" stroke="rgb(0,0,0)" d="M 4842,7885 C 4858,7887 4874,7889 4890,7891"/>
       <path fill="none" stroke="rgb(0,0,0)" d="M 4921,7895 C 4938,7897 4954,7899 4971,7901"/>
       <path fill="none" stroke="rgb(0,0,0)" d="M 5003,7905 C 5020,7907 5037,7909 5055,7911"/>
       <path fill="none" stroke="rgb(0,0,0)" d="M 5088,7915 C 5106,7917 5123,7919 5141,7921"/>
       <path fill="none" stroke="rgb(0,0,0)" d="M 5176,7925 C 5194,7927 5212,7929 5230,7931"/>
       <path fill="none" stroke="rgb(0,0,0)" d="M 5266,7934 C 5284,7936 5303,7938 5322,7940"/>
       <path fill="none" stroke="rgb(0,0,0)" d="M 5359,7944 C 5378,7945 5397,7947 5416,7949"/>
       <path fill="none" stroke="rgb(0,0,0)" d="M 5450,7952 C 5466,7954 5483,7955 5499,7956"/>
       <path fill="none" stroke="rgb(0,0,0)" d="M 5531,7959 C 5547,7961 5564,7962 5581,7964"/>
       <path fill="none" stroke="rgb(0,0,0)" d="M 5613,7966 C 5630,7968 5647,7969 5664,7970"/>
       <path fill="none" stroke="rgb(0,0,0)" d="M 5697,7973 C 5715,7974 5732,7976 5749,7977"/>
       <path fill="none" stroke="rgb(0,0,0)" d="M 5783,7980 C 5801,7981 5819,7982 5837,7984"/>
       <path fill="none" stroke="rgb(0,0,0)" d="M 5871,7986 C 5889,7988 5907,7989 5926,7990"/>
       <path fill="none" stroke="rgb(0,0,0)" d="M 5961,7993 C 5979,7994 5998,7995 6017,7996"/>
       <path fill="none" stroke="rgb(0,0,0)" d="M 6053,7999 C 6071,8000 6090,8001 6109,8002"/>
       <path fill="none" stroke="rgb(0,0,0)" d="M 6146,8005 C 6164,8006 6182,8007 6200,8008"/>
       <path fill="none" stroke="rgb(0,0,0)" d="M 6232,8010 C 6248,8011 6265,8012 6281,8013"/>
       <path fill="none" stroke="rgb(0,0,0)" d="M 6314,8015 C 6330,8016 6347,8017 6364,8018"/>
       <path fill="none" stroke="rgb(0,0,0)" d="M 6397,8020 C 6414,8021 6431,8021 6448,8022"/>
       <path fill="none" stroke="rgb(0,0,0)" d="M 6482,8024 C 6499,8025 6516,8026 6534,8027"/>
       <path fill="none" stroke="rgb(0,0,0)" d="M 6568,8029 C 6585,8030 6603,8030 6621,8031"/>
       <path fill="none" stroke="rgb(0,0,0)" d="M 6655,8033 C 6673,8034 6691,8035 6709,8036"/>
       <path fill="none" stroke="rgb(0,0,0)" d="M 6744,8037 C 6762,8038 6780,8039 6798,8040"/>
       <path fill="none" stroke="rgb(0,0,0)" d="M 6834,8041 C 6852,8042 6871,8043 6889,8044"/>
       <path fill="none" stroke="rgb(0,0,0)" d="M 6925,8045 C 6944,8046 6963,8047 6981,8048"/>
       <path fill="none" stroke="rgb(0,0,0)" d="M 7018,8049 C 7036,8050 7054,8051 7073,8052"/>
       <path fill="none" stroke="rgb(0,0,0)" d="M 7105,8053 C 7121,8053 7138,8054 7155,8055"/>
       <path fill="none" stroke="rgb(0,0,0)" d="M 7187,8056 C 7204,8057 7221,8057 7238,8058"/>
       <path fill="none" stroke="rgb(0,0,0)" d="M 7271,8059 C 7288,8060 7305,8060 7322,8061"/>
       <path fill="none" stroke="rgb(0,0,0)" d="M 7355,8062 C 7373,8063 7390,8063 7407,8064"/>
       <path fill="none" stroke="rgb(0,0,0)" d="M 7441,8065 C 7458,8066 7476,8066 7493,8067"/>
       <path fill="none" stroke="rgb(0,0,0)" d="M 7527,8068 C 7545,8068 7563,8069 7580,8070"/>
       <path fill="none" stroke="rgb(0,0,0)" d="M 7615,8071 C 7633,8071 7651,8072 7669,8072"/>
       <path fill="none" stroke="rgb(0,0,0)" d="M 7703,8073 C 7721,8074 7740,8074 7758,8075"/>
       <path fill="none" stroke="rgb(0,0,0)" d="M 7793,8076 C 7811,8076 7830,8077 7848,8077"/>
       <path fill="none" stroke="rgb(0,0,0)" d="M 7883,8078 C 7902,8079 7920,8079 7939,8080"/>
       <path fill="none" stroke="rgb(0,0,0)" d="M 7975,8081 C 7994,8081 8012,8082 8031,8082"/>
       <path fill="none" stroke="rgb(0,0,0)" d="M 8068,8083 C 8084,8084 8101,8084 8118,8084"/>
       <path fill="none" stroke="rgb(0,0,0)" d="M 8151,8085 C 8168,8086 8184,8086 8201,8086"/>
       <path fill="none" stroke="rgb(0,0,0)" d="M 8234,8087 C 8251,8087 8268,8088 8285,8088"/>
       <path fill="none" stroke="rgb(0,0,0)" d="M 8318,8089 C 8335,8089 8352,8090 8370,8090"/>
       <path fill="none" stroke="rgb(0,0,0)" d="M 8403,8091 C 8420,8091 8438,8091 8455,8092"/>
       <path fill="none" stroke="rgb(0,0,0)" d="M 8489,8092 C 8506,8093 8524,8093 8541,8093"/>
       <path fill="none" stroke="rgb(0,0,0)" d="M 8575,8094 C 8593,8094 8610,8095 8628,8095"/>
       <path fill="none" stroke="rgb(0,0,0)" d="M 8662,8096 C 8680,8096 8698,8096 8716,8097"/>
       <path fill="none" stroke="rgb(0,0,0)" d="M 8750,8097 C 8768,8097 8786,8098 8804,8098"/>
       <path fill="none" stroke="rgb(0,0,0)" d="M 8839,8099 C 8857,8099 8875,8099 8893,8099"/>
       <path fill="none" stroke="rgb(0,0,0)" d="M 8928,8100 C 8947,8100 8965,8100 8983,8101"/>
       <path fill="none" stroke="rgb(0,0,0)" d="M 9019,8101 C 9037,8102 9055,8102 9074,8102"/>
       <path fill="none" stroke="rgb(0,0,0)" d="M 9110,8103 C 9128,8103 9147,8103 9165,8103"/>
       <path fill="none" stroke="rgb(0,0,0)" d="M 9202,8104 C 9219,8104 9237,8104 9254,8104"/>
       <path fill="none" stroke="rgb(0,0,0)" d="M 9287,8105 C 9304,8105 9321,8105 9338,8105"/>
       <path fill="none" stroke="rgb(0,0,0)" d="M 9370,8106 C 9387,8106 9404,8106 9422,8106"/>
       <path fill="none" stroke="rgb(0,0,0)" d="M 9455,8107 C 9472,8107 9489,8107 9506,8107"/>
       <path fill="none" stroke="rgb(0,0,0)" d="M 9539,8107 C 9557,8108 9574,8108 9591,8108"/>
       <path fill="none" stroke="rgb(0,0,0)" d="M 9625,8108 C 9642,8108 9659,8109 9677,8109"/>
       <path fill="none" stroke="rgb(0,0,0)" d="M 9711,8109 C 9728,8109 9746,8109 9763,8109"/>
       <path fill="none" stroke="rgb(0,0,0)" d="M 9797,8110 C 9815,8110 9833,8110 9850,8110"/>
       <path fill="none" stroke="rgb(0,0,0)" d="M 9885,8110 C 9902,8110 9920,8111 9938,8111"/>
       <path fill="none" stroke="rgb(0,0,0)" d="M 9972,8111 C 9990,8111 10008,8111 10026,8111"/>
       <path fill="none" stroke="rgb(0,0,0)" d="M 10061,8111 C 10079,8112 10097,8112 10115,8112"/>
       <path fill="none" stroke="rgb(0,0,0)" d="M 10150,8112 C 10168,8112 10186,8112 10204,8112"/>
       <path fill="none" stroke="rgb(0,0,0)" d="M 10240,8112 C 10258,8112 10276,8113 10295,8113"/>
       <path fill="none" stroke="rgb(0,0,0)" d="M 10330,8113 C 10348,8113 10367,8113 10385,8113"/>
       <path fill="none" stroke="rgb(0,0,0)" d="M 10421,8113 C 10440,8113 10458,8113 10477,8113"/>
       <path fill="rgb(0,0,0)" stroke="none" d="M 10951,8114 L 10501,7963 10501,8263 10951,8114 Z"/>
       <text class="TextShape"><tspan class="TextParagraph" font-family="Arial, sans-serif" font-size="353px" font-weight="400"><tspan class="TextPosition" x="8391" y="7920"><tspan fill="rgb(0,0,0)" stroke="none">start process   </tspan></tspan></tspan></text>
      </g>
     </g>
     <g class="com.sun.star.drawing.CustomShape">
      <g id="id12">
       <path fill="rgb(255,255,204)" stroke="none" d="M 10951,13635 L 15016,13635 15016,14807 10951,14807 10951,13635 10951,13635 Z M 10951,13635 L 10951,13635 Z M 15016,14807 L 15016,14807 Z"/>
       <path fill="none" stroke="rgb(52,101,175)" d="M 10951,13635 L 15016,13635 15016,14807 10951,14807 10951,13635 10951,13635 Z"/>
       <path fill="none" stroke="rgb(52,101,175)" d="M 10951,13635 L 10951,13635 Z"/>
       <path fill="none" stroke="rgb(52,101,175)" d="M 15016,14807 L 15016,14807 Z"/>
       <text class="TextShape"><tspan class="TextParagraph" font-family="Arial, sans-serif" font-size="353px" font-weight="400"><tspan class="TextPosition" x="11343" y="14145"><tspan fill="rgb(0,0,0)" stroke="none">send “started” signal </tspan></tspan></tspan><tspan class="TextParagraph" font-family="Arial, sans-serif" font-size="353px" font-weight="400"><tspan class="TextPosition" x="11919" y="14543"><tspan fill="rgb(0,0,0)" stroke="none">to </tspan><tspan font-weight="700" fill="rgb(0,0,0)" stroke="none">statusPort</tspan></tspan></tspan></text>
      </g>
     </g>
     <g class="com.sun.star.drawing.ConnectorShape">
      <g id="id13">
       <path fill="none" stroke="rgb(0,0,0)" d="M 3739,7479 L 3766,8658"/>
       <path fill="rgb(0,0,0)" stroke="none" d="M 3776,9088 L 3916,8635 3616,8642 3776,9088 Z"/>
      </g>
     </g>
     <g class="com.sun.star.drawing.CustomShape">
      <g id="id14">
       <path fill="rgb(204,255,204)" stroke="none" d="M 1806,9087 L 5744,9087 5744,10259 1806,10259 1806,9087 1806,9087 Z M 1806,9087 L 1806,9087 Z M 5744,10259 L 5744,10259 Z"/>
       <path fill="none" stroke="rgb(52,101,175)" d="M 1806,9087 L 5744,9087 5744,10259 1806,10259 1806,9087 1806,9087 Z"/>
       <path fill="none" stroke="rgb(52,101,175)" d="M 1806,9087 L 1806,9087 Z"/>
       <path fill="none" stroke="rgb(52,101,175)" d="M 5744,10259 L 5744,10259 Z"/>
       <text class="TextShape"><tspan class="TextParagraph" font-family="Arial, sans-serif" font-size="353px" font-weight="400"><tspan class="TextPosition" x="1950" y="9597"><tspan fill="rgb(0,0,0)" stroke="none">wait for “started” signal </tspan></tspan><tspan class="TextPosition" x="2661" y="9995"><tspan fill="rgb(0,0,0)" stroke="none">on </tspan><tspan font-weight="700" fill="rgb(0,0,0)" stroke="none">statusPort</tspan></tspan></tspan></text>
      </g>
     </g>
     <g class="com.sun.star.drawing.CustomShape">
      <g id="id15">
       <path fill="rgb(255,255,204)" stroke="none" d="M 11604,8496 C 11277,8496 10951,8305 10951,8114 10951,7923 11277,7733 11604,7733 L 14362,7733 C 14689,7733 15016,7923 15016,8114 15016,8305 14689,8496 14362,8496 L 11604,8496 Z M 10951,7733 L 10951,7733 Z M 15016,8496 L 15016,8496 Z"/>
       <path fill="none" stroke="rgb(52,101,175)" d="M 11604,8496 C 11277,8496 10951,8305 10951,8114 10951,7923 11277,7733 11604,7733 L 14362,7733 C 14689,7733 15016,7923 15016,8114 15016,8305 14689,8496 14362,8496 L 11604,8496 Z"/>
       <path fill="none" stroke="rgb(52,101,175)" d="M 10951,7733 L 10951,7733 Z"/>
       <path fill="none" stroke="rgb(52,101,175)" d="M 15016,8496 L 15016,8496 Z"/>
       <text class="TextShape"><tspan class="TextParagraph" font-family="Arial, sans-serif" font-size="353px" font-weight="400"><tspan class="TextPosition" x="11463" y="8237"><tspan fill="rgb(0,0,0)" stroke="none">Jetty process starts</tspan></tspan></tspan></text>
      </g>
     </g>
     <g class="com.sun.star.drawing.ConnectorShape">
      <g id="id16">
       <path fill="none" stroke="rgb(0,0,0)" d="M 12967,10596 L 12979,11202"/>
       <path fill="rgb(0,0,0)" stroke="none" d="M 12987,11632 L 13128,11179 12828,11185 12987,11632 Z"/>
      </g>
     </g>
     <g class="com.sun.star.drawing.CustomShape">
      <g id="id17">
       <path fill="rgb(255,255,204)" stroke="none" d="M 10570,15822 L 15397,15822 15397,17220 10570,17220 10570,15822 10570,15822 Z M 10570,15822 L 10570,15822 Z M 15397,17220 L 15397,17220 Z"/>
       <path fill="none" stroke="rgb(52,101,175)" d="M 10570,15822 L 15397,15822 15397,17220 10570,17220 10570,15822 10570,15822 Z"/>
       <path fill="none" stroke="rgb(52,101,175)" d="M 10570,15822 L 10570,15822 Z"/>
       <path fill="none" stroke="rgb(52,101,175)" d="M 15397,17220 L 15397,17220 Z"/>
       <text class="TextShape"><tspan class="TextParagraph" font-family="Arial, sans-serif" font-size="353px" font-weight="400"><tspan class="TextPosition" x="12050" y="16246"><tspan fill="rgb(0,0,0)" stroke="none">In wait loop.</tspan></tspan><tspan class="TextPosition" x="11267" y="16644"><tspan fill="rgb(0,0,0)" stroke="none">listen for “stop” signal </tspan></tspan><tspan class="TextPosition" x="11785" y="17042"><tspan fill="rgb(0,0,0)" stroke="none">on </tspan><tspan font-weight="700" fill="rgb(0,0,0)" stroke="none">servicePort</tspan></tspan></tspan></text>
      </g>
     </g>
     <g class="com.sun.star.drawing.ConnectorShape">
      <g id="id18">
       <path fill="none" stroke="rgb(0,0,0)" d="M 12983,14807 L 12983,15393"/>
       <path fill="rgb(0,0,0)" stroke="none" d="M 12983,15823 L 13133,15373 12833,15373 12983,15823 Z"/>
      </g>
     </g>
     <g class="com.sun.star.drawing.CustomShape">
      <g id="id19">
       <path fill="rgb(204,255,204)" stroke="none" d="M 2029,21807 C 1600,21807 1172,21485 1172,21164 1172,20843 1600,20522 2029,20522 L 5649,20522 C 6078,20522 6507,20843 6507,21164 6507,21485 6078,21807 5649,21807 L 2029,21807 Z M 1172,20522 L 1172,20522 Z M 6507,21807 L 6507,21807 Z"/>
       <path fill="none" stroke="rgb(52,101,175)" d="M 2029,21807 C 1600,21807 1172,21485 1172,21164 1172,20843 1600,20522 2029,20522 L 5649,20522 C 6078,20522 6507,20843 6507,21164 6507,21485 6078,21807 5649,21807 L 2029,21807 Z"/>
       <path fill="none" stroke="rgb(52,101,175)" d="M 1172,20522 L 1172,20522 Z"/>
       <path fill="none" stroke="rgb(52,101,175)" d="M 6507,21807 L 6507,21807 Z"/>
       <text class="TextShape"><tspan class="TextParagraph" font-family="Arial, sans-serif" font-size="353px" font-weight="400"><tspan class="TextPosition" x="1930" y="20889"><tspan fill="rgb(0,0,0)" stroke="none">jettyStartDebug finished.</tspan></tspan><tspan class="TextPosition" x="2491" y="21287"><tspan fill="rgb(0,0,0)" stroke="none">Gradle proceeds </tspan></tspan><tspan class="TextPosition" x="2618" y="21685"><tspan fill="rgb(0,0,0)" stroke="none">with other tasks</tspan></tspan></tspan></text>
      </g>
     </g>
     <g class="com.sun.star.drawing.ConnectorShape">
      <g id="id20">
       <path fill="none" stroke="rgb(0,0,0)" d="M 10951,14221 L 10911,14186"/>
       <path fill="none" stroke="rgb(0,0,0)" d="M 10885,14164 L 10845,14129"/>
       <path fill="none" stroke="rgb(0,0,0)" d="M 10819,14106 L 10779,14071"/>
       <path fill="none" stroke="rgb(0,0,0)" d="M 10754,14049 L 10714,14014"/>
       <path fill="none" stroke="rgb(0,0,0)" d="M 10688,13991 L 10648,13956"/>
       <path fill="none" stroke="rgb(0,0,0)" d="M 10622,13934 L 10582,13899"/>
       <path fill="none" stroke="rgb(0,0,0)" d="M 10556,13876 L 10516,13841"/>
       <path fill="none" stroke="rgb(0,0,0)" d="M 10491,13819 L 10451,13784"/>
       <path fill="none" stroke="rgb(0,0,0)" d="M 10425,13762 L 10385,13727"/>
       <path fill="none" stroke="rgb(0,0,0)" d="M 10359,13704 L 10319,13669"/>
       <path fill="none" stroke="rgb(0,0,0)" d="M 10293,13647 L 10253,13612"/>
       <path fill="none" stroke="rgb(0,0,0)" d="M 10228,13589 L 10188,13554"/>
       <path fill="none" stroke="rgb(0,0,0)" d="M 10162,13532 L 10122,13497"/>
       <path fill="none" stroke="rgb(0,0,0)" d="M 10096,13474 L 10056,13439"/>
       <path fill="none" stroke="rgb(0,0,0)" d="M 10030,13417 L 9990,13382"/>
       <path fill="none" stroke="rgb(0,0,0)" d="M 9964,13359 L 9924,13325"/>
       <path fill="none" stroke="rgb(0,0,0)" d="M 9899,13302 L 9859,13267"/>
       <path fill="none" stroke="rgb(0,0,0)" d="M 9833,13245 L 9793,13210"/>
       <path fill="none" stroke="rgb(0,0,0)" d="M 9767,13187 L 9727,13152"/>
       <path fill="none" stroke="rgb(0,0,0)" d="M 9701,13130 L 9661,13095"/>
       <path fill="none" stroke="rgb(0,0,0)" d="M 9636,13072 L 9596,13037"/>
       <path fill="none" stroke="rgb(0,0,0)" d="M 9570,13015 L 9530,12980"/>
       <path fill="none" stroke="rgb(0,0,0)" d="M 9504,12957 L 9464,12923"/>
       <path fill="none" stroke="rgb(0,0,0)" d="M 9438,12900 L 9398,12865"/>
       <path fill="none" stroke="rgb(0,0,0)" d="M 9373,12843 L 9333,12808"/>
       <path fill="none" stroke="rgb(0,0,0)" d="M 9307,12785 L 9267,12750"/>
       <path fill="none" stroke="rgb(0,0,0)" d="M 9241,12728 L 9201,12693"/>
       <path fill="none" stroke="rgb(0,0,0)" d="M 9175,12670 L 9135,12635"/>
       <path fill="none" stroke="rgb(0,0,0)" d="M 9109,12613 L 9069,12578"/>
       <path fill="none" stroke="rgb(0,0,0)" d="M 9044,12555 L 9004,12520"/>
       <path fill="none" stroke="rgb(0,0,0)" d="M 8978,12498 L 8938,12463"/>
       <path fill="none" stroke="rgb(0,0,0)" d="M 8912,12441 L 8872,12406"/>
       <path fill="none" stroke="rgb(0,0,0)" d="M 8846,12383 L 8806,12348"/>
       <path fill="none" stroke="rgb(0,0,0)" d="M 8781,12326 L 8741,12291"/>
       <path fill="none" stroke="rgb(0,0,0)" d="M 8715,12268 L 8675,12233"/>
       <path fill="none" stroke="rgb(0,0,0)" d="M 8649,12211 L 8609,12176"/>
       <path fill="none" stroke="rgb(0,0,0)" d="M 8583,12153 L 8543,12118"/>
       <path fill="none" stroke="rgb(0,0,0)" d="M 8517,12096 L 8477,12061"/>
       <path fill="none" stroke="rgb(0,0,0)" d="M 8452,12039 L 8412,12004"/>
       <path fill="none" stroke="rgb(0,0,0)" d="M 8386,11981 L 8346,11946"/>
       <path fill="none" stroke="rgb(0,0,0)" d="M 8320,11924 L 8280,11889"/>
       <path fill="none" stroke="rgb(0,0,0)" d="M 8254,11866 L 8214,11831"/>
       <path fill="none" stroke="rgb(0,0,0)" d="M 8189,11809 L 8149,11774"/>
       <path fill="none" stroke="rgb(0,0,0)" d="M 8123,11751 L 8083,11716"/>
       <path fill="none" stroke="rgb(0,0,0)" d="M 8057,11694 L 8017,11659"/>
       <path fill="none" stroke="rgb(0,0,0)" d="M 7991,11636 L 7951,11602"/>
       <path fill="none" stroke="rgb(0,0,0)" d="M 7926,11579 L 7886,11544"/>
       <path fill="none" stroke="rgb(0,0,0)" d="M 7860,11522 L 7820,11487"/>
       <path fill="none" stroke="rgb(0,0,0)" d="M 7794,11464 L 7754,11429"/>
       <path fill="none" stroke="rgb(0,0,0)" d="M 7728,11407 L 7688,11372"/>
       <path fill="none" stroke="rgb(0,0,0)" d="M 7662,11349 L 7622,11314"/>
       <path fill="none" stroke="rgb(0,0,0)" d="M 7597,11292 L 7557,11257"/>
       <path fill="none" stroke="rgb(0,0,0)" d="M 7531,11234 L 7491,11200"/>
       <path fill="none" stroke="rgb(0,0,0)" d="M 7465,11177 L 7425,11142"/>
       <path fill="none" stroke="rgb(0,0,0)" d="M 7399,11120 L 7359,11085"/>
       <path fill="none" stroke="rgb(0,0,0)" d="M 7334,11062 L 7294,11027"/>
       <path fill="none" stroke="rgb(0,0,0)" d="M 7268,11005 L 7228,10970"/>
       <path fill="none" stroke="rgb(0,0,0)" d="M 7202,10947 L 7162,10912"/>
       <path fill="none" stroke="rgb(0,0,0)" d="M 7136,10890 L 7096,10855"/>
       <path fill="none" stroke="rgb(0,0,0)" d="M 7071,10832 L 7031,10797"/>
       <path fill="none" stroke="rgb(0,0,0)" d="M 7005,10775 L 6965,10740"/>
       <path fill="none" stroke="rgb(0,0,0)" d="M 6939,10718 L 6899,10683"/>
       <path fill="none" stroke="rgb(0,0,0)" d="M 6873,10660 L 6833,10625"/>
       <path fill="none" stroke="rgb(0,0,0)" d="M 6807,10603 L 6767,10568"/>
       <path fill="none" stroke="rgb(0,0,0)" d="M 6742,10545 L 6702,10510"/>
       <path fill="none" stroke="rgb(0,0,0)" d="M 6676,10488 L 6636,10453"/>
       <path fill="none" stroke="rgb(0,0,0)" d="M 6610,10430 L 6570,10395"/>
       <path fill="none" stroke="rgb(0,0,0)" d="M 6544,10373 L 6504,10338"/>
       <path fill="none" stroke="rgb(0,0,0)" d="M 6479,10315 L 6439,10281"/>
       <path fill="none" stroke="rgb(0,0,0)" d="M 6413,10258 L 6373,10223"/>
       <path fill="none" stroke="rgb(0,0,0)" d="M 6347,10201 L 6307,10166"/>
       <path fill="none" stroke="rgb(0,0,0)" d="M 6281,10143 L 6241,10108"/>
       <path fill="none" stroke="rgb(0,0,0)" d="M 6216,10086 L 6176,10051"/>
       <path fill="none" stroke="rgb(0,0,0)" d="M 6150,10028 L 6110,9993"/>
       <path fill="none" stroke="rgb(0,0,0)" d="M 6084,9971 L 6068,9957"/>
       <path fill="rgb(0,0,0)" stroke="none" d="M 5744,9674 L 5984,10083 6182,9857 5744,9674 Z"/>
       <text class="TextShape"><tspan class="TextParagraph" font-family="Arial, sans-serif" font-size="353px" font-weight="400"><tspan class="TextPosition" x="8113" y="12270"><tspan fill="rgb(0,0,0)" stroke="none">tcp</tspan></tspan></tspan></text>
      </g>
     </g>
     <g class="com.sun.star.drawing.CustomShape">
      <g id="id21">
       <path fill="rgb(255,255,204)" stroke="none" d="M 11690,19135 C 11384,19135 11078,18944 11078,18753 11078,18562 11384,18372 11690,18372 L 14276,18372 C 14582,18372 14889,18562 14889,18753 14889,18944 14582,19135 14276,19135 L 11690,19135 Z M 11078,18372 L 11078,18372 Z M 14889,19135 L 14889,19135 Z"/>
       <path fill="none" stroke="rgb(52,101,175)" d="M 11690,19135 C 11384,19135 11078,18944 11078,18753 11078,18562 11384,18372 11690,18372 L 14276,18372 C 14582,18372 14889,18562 14889,18753 14889,18944 14582,19135 14276,19135 L 11690,19135 Z"/>
       <path fill="none" stroke="rgb(52,101,175)" d="M 11078,18372 L 11078,18372 Z"/>
       <path fill="none" stroke="rgb(52,101,175)" d="M 14889,19135 L 14889,19135 Z"/>
       <text class="TextShape"><tspan class="TextParagraph" font-family="Arial, sans-serif" font-size="353px" font-weight="400"><tspan class="TextPosition" x="11292" y="18876"><tspan fill="rgb(0,0,0)" stroke="none">Jetty process finished</tspan></tspan></tspan></text>
      </g>
     </g>
     <g class="com.sun.star.drawing.ConnectorShape">
      <g id="id22">
       <path fill="none" stroke="rgb(0,0,0)" d="M 12983,17220 L 12983,17942"/>
       <path fill="rgb(0,0,0)" stroke="none" d="M 12983,18372 L 13133,17922 12833,17922 12983,18372 Z"/>
      </g>
     </g>
     <g class="com.sun.star.drawing.CustomShape">
      <g id="id23">
       <path fill="rgb(204,255,204)" stroke="none" d="M 1934,17497 L 5745,17497 5745,18669 1934,18669 1934,17497 1934,17497 Z M 1934,17497 L 1934,17497 Z M 5745,18669 L 5745,18669 Z"/>
       <path fill="none" stroke="rgb(52,101,175)" d="M 1934,17497 L 5745,17497 5745,18669 1934,18669 1934,17497 1934,17497 Z"/>
       <path fill="none" stroke="rgb(52,101,175)" d="M 1934,17497 L 1934,17497 Z"/>
       <path fill="none" stroke="rgb(52,101,175)" d="M 5745,18669 L 5745,18669 Z"/>
       <text class="TextShape"><tspan class="TextParagraph" font-family="Arial, sans-serif" font-size="353px" font-weight="400"><tspan class="TextPosition" x="2186" y="18007"><tspan fill="rgb(0,0,0)" stroke="none">wait for Jetty process</tspan></tspan></tspan><tspan class="TextParagraph" font-family="Arial, sans-serif" font-size="353px" font-weight="400"><tspan class="TextPosition" x="3236" y="18405"><tspan fill="rgb(0,0,0)" stroke="none">to finish</tspan></tspan></tspan></text>
      </g>
     </g>
     <g class="com.sun.star.drawing.ConnectorShape">
      <g id="id24">
       <path fill="none" stroke="rgb(0,0,0)" d="M 11078,18753 L 11025,18746"/>
       <path fill="none" stroke="rgb(0,0,0)" d="M 10991,18742 L 10939,18736"/>
       <path fill="none" stroke="rgb(0,0,0)" d="M 10905,18731 L 10852,18725"/>
       <path fill="none" stroke="rgb(0,0,0)" d="M 10818,18720 L 10765,18714"/>
       <path fill="none" stroke="rgb(0,0,0)" d="M 10731,18709 L 10679,18703"/>
       <path fill="none" stroke="rgb(0,0,0)" d="M 10645,18699 L 10592,18692"/>
       <path fill="none" stroke="rgb(0,0,0)" d="M 10558,18688 L 10505,18681"/>
       <path fill="none" stroke="rgb(0,0,0)" d="M 10472,18677 L 10419,18670"/>
       <path fill="none" stroke="rgb(0,0,0)" d="M 10385,18666 L 10332,18659"/>
       <path fill="none" stroke="rgb(0,0,0)" d="M 10298,18655 L 10246,18648"/>
       <path fill="none" stroke="rgb(0,0,0)" d="M 10212,18644 L 10159,18638"/>
       <path fill="none" stroke="rgb(0,0,0)" d="M 10125,18633 L 10072,18627"/>
       <path fill="none" stroke="rgb(0,0,0)" d="M 10038,18622 L 9986,18616"/>
       <path fill="none" stroke="rgb(0,0,0)" d="M 9952,18612 L 9899,18605"/>
       <path fill="none" stroke="rgb(0,0,0)" d="M 9865,18601 L 9812,18594"/>
       <path fill="none" stroke="rgb(0,0,0)" d="M 9778,18590 L 9726,18583"/>
       <path fill="none" stroke="rgb(0,0,0)" d="M 9692,18579 L 9639,18572"/>
       <path fill="none" stroke="rgb(0,0,0)" d="M 9605,18568 L 9552,18561"/>
       <path fill="none" stroke="rgb(0,0,0)" d="M 9519,18557 L 9466,18550"/>
       <path fill="none" stroke="rgb(0,0,0)" d="M 9432,18546 L 9379,18540"/>
       <path fill="none" stroke="rgb(0,0,0)" d="M 9345,18535 L 9293,18529"/>
       <path fill="none" stroke="rgb(0,0,0)" d="M 9259,18524 L 9206,18518"/>
       <path fill="none" stroke="rgb(0,0,0)" d="M 9172,18514 L 9119,18507"/>
       <path fill="none" stroke="rgb(0,0,0)" d="M 9085,18503 L 9033,18496"/>
       <path fill="none" stroke="rgb(0,0,0)" d="M 8999,18492 L 8946,18485"/>
       <path fill="none" stroke="rgb(0,0,0)" d="M 8912,18481 L 8859,18474"/>
       <path fill="none" stroke="rgb(0,0,0)" d="M 8825,18470 L 8773,18463"/>
       <path fill="none" stroke="rgb(0,0,0)" d="M 8739,18459 L 8686,18453"/>
       <path fill="none" stroke="rgb(0,0,0)" d="M 8652,18448 L 8599,18442"/>
       <path fill="none" stroke="rgb(0,0,0)" d="M 8566,18437 L 8513,18431"/>
       <path fill="none" stroke="rgb(0,0,0)" d="M 8479,18427 L 8426,18420"/>
       <path fill="none" stroke="rgb(0,0,0)" d="M 8392,18416 L 8340,18409"/>
       <path fill="none" stroke="rgb(0,0,0)" d="M 8306,18405 L 8253,18398"/>
       <path fill="none" stroke="rgb(0,0,0)" d="M 8219,18394 L 8166,18387"/>
       <path fill="none" stroke="rgb(0,0,0)" d="M 8132,18383 L 8080,18376"/>
       <path fill="none" stroke="rgb(0,0,0)" d="M 8046,18372 L 7993,18365"/>
       <path fill="none" stroke="rgb(0,0,0)" d="M 7959,18361 L 7906,18355"/>
       <path fill="none" stroke="rgb(0,0,0)" d="M 7872,18350 L 7820,18344"/>
       <path fill="none" stroke="rgb(0,0,0)" d="M 7786,18339 L 7733,18333"/>
       <path fill="none" stroke="rgb(0,0,0)" d="M 7699,18329 L 7646,18322"/>
       <path fill="none" stroke="rgb(0,0,0)" d="M 7613,18318 L 7560,18311"/>
       <path fill="none" stroke="rgb(0,0,0)" d="M 7526,18307 L 7473,18300"/>
       <path fill="none" stroke="rgb(0,0,0)" d="M 7439,18296 L 7387,18289"/>
       <path fill="none" stroke="rgb(0,0,0)" d="M 7353,18285 L 7300,18278"/>
       <path fill="none" stroke="rgb(0,0,0)" d="M 7266,18274 L 7213,18268"/>
       <path fill="none" stroke="rgb(0,0,0)" d="M 7179,18263 L 7127,18257"/>
       <path fill="none" stroke="rgb(0,0,0)" d="M 7093,18252 L 7040,18246"/>
       <path fill="none" stroke="rgb(0,0,0)" d="M 7006,18242 L 6953,18235"/>
       <path fill="none" stroke="rgb(0,0,0)" d="M 6919,18231 L 6867,18224"/>
       <path fill="none" stroke="rgb(0,0,0)" d="M 6833,18220 L 6780,18213"/>
       <path fill="none" stroke="rgb(0,0,0)" d="M 6746,18209 L 6693,18202"/>
       <path fill="none" stroke="rgb(0,0,0)" d="M 6660,18198 L 6607,18191"/>
       <path fill="none" stroke="rgb(0,0,0)" d="M 6573,18187 L 6520,18180"/>
       <path fill="none" stroke="rgb(0,0,0)" d="M 6486,18176 L 6434,18170"/>
       <path fill="none" stroke="rgb(0,0,0)" d="M 6400,18165 L 6347,18159"/>
       <path fill="none" stroke="rgb(0,0,0)" d="M 6313,18154 L 6260,18148"/>
       <path fill="none" stroke="rgb(0,0,0)" d="M 6226,18144 L 6174,18137"/>
       <path fill="rgb(0,0,0)" stroke="none" d="M 5744,18083 L 6172,18288 6209,17990 5744,18083 Z"/>
       <text class="TextShape"><tspan class="TextParagraph" font-family="Arial, sans-serif" font-size="353px" font-weight="400"><tspan class="TextPosition" x="7501" y="18939"><tspan fill="rgb(0,0,0)" stroke="none">thread sync</tspan></tspan></tspan></text>
      </g>
     </g>
     <g class="com.sun.star.drawing.ConnectorShape">
      <g id="id25">
       <path fill="none" stroke="rgb(0,0,0)" d="M 3839,18669 L 3839,20092"/>
       <path fill="rgb(0,0,0)" stroke="none" d="M 3839,20522 L 3989,20072 3689,20072 3839,20522 Z"/>
      </g>
     </g>
     <g class="com.sun.star.drawing.CustomShape">
      <g id="id26">
       <path fill="rgb(255,255,204)" stroke="none" d="M 10824,11631 L 15151,11631 15151,12520 10824,12520 10824,11631 10824,11631 Z M 10824,11631 L 10824,11631 Z M 15151,12521 L 15151,12521 Z"/>
       <path fill="none" stroke="rgb(52,101,175)" d="M 10824,11631 L 15151,11631 15151,12520 10824,12520 10824,11631 10824,11631 Z"/>
       <path fill="none" stroke="rgb(52,101,175)" d="M 10824,11631 L 10824,11631 Z"/>
       <path fill="none" stroke="rgb(52,101,175)" d="M 15151,12521 L 15151,12521 Z"/>
       <text class="TextShape"><tspan class="TextParagraph" font-family="Arial, sans-serif" font-size="353px" font-weight="400"><tspan class="TextPosition" x="11048" y="12000"><tspan fill="rgb(0,0,0)" stroke="none">listen for HTTP requests </tspan></tspan><tspan class="TextPosition" x="12401" y="12398"><tspan fill="rgb(0,0,0)" stroke="none">on </tspan><tspan font-weight="700" fill="rgb(0,0,0)" stroke="none">port</tspan></tspan></tspan></text>
      </g>
     </g>
     <g class="com.sun.star.drawing.ConnectorShape">
      <g id="id27">
       <path fill="none" stroke="rgb(0,0,0)" d="M 12987,12521 L 12985,13206"/>
       <path fill="rgb(0,0,0)" stroke="none" d="M 12983,13636 L 13135,13187 12835,13185 12983,13636 Z"/>
      </g>
     </g>
     <g class="com.sun.star.drawing.ConnectorShape">
      <g id="id28">
       <path fill="none" stroke="rgb(0,0,0)" d="M 3775,10259 L 3835,17068"/>
       <path fill="rgb(0,0,0)" stroke="none" d="M 3839,17498 L 3985,17047 3685,17049 3839,17498 Z"/>
       <text class="TextShape"><tspan class="TextParagraph" font-family="Arial, sans-serif" font-size="353px" font-weight="400"><tspan class="TextPosition" x="2492" y="14002"><tspan fill="rgb(0,0,0)" stroke="none">                           </tspan></tspan></tspan></text>
      </g>
     </g>
     <g class="com.sun.star.drawing.CustomShape">
      <g id="id29">
       <path fill="rgb(255,255,204)" stroke="none" d="M 11125,9542 L 14808,9542 14808,10597 11125,10597 11125,9542 11125,9542 Z M 11125,9542 L 11125,9542 Z M 14809,10597 L 14809,10597 Z"/>
       <path fill="none" stroke="rgb(52,101,175)" d="M 11125,9542 L 14808,9542 14808,10597 11125,10597 11125,9542 11125,9542 Z"/>
       <path fill="none" stroke="rgb(52,101,175)" d="M 11125,9542 L 11125,9542 Z"/>
       <path fill="none" stroke="rgb(52,101,175)" d="M 14809,10597 L 14809,10597 Z"/>
       <text class="TextShape"><tspan class="TextParagraph" font-family="Arial, sans-serif" font-size="353px" font-weight="400"><tspan class="TextPosition" x="11572" y="9993"><tspan fill="rgb(0,0,0)" stroke="none">suspended mode,</tspan></tspan></tspan><tspan class="TextParagraph" font-family="Arial, sans-serif" font-size="353px" font-weight="400"><tspan class="TextPosition" x="11574" y="10391"><tspan fill="rgb(0,0,0)" stroke="none">listen to port 5005</tspan></tspan></tspan></text>
      </g>
     </g>
     <g class="com.sun.star.drawing.ConnectorShape">
      <g id="id30">
       <path fill="none" stroke="rgb(0,0,0)" d="M 12983,8495 L 12974,9112"/>
       <path fill="rgb(0,0,0)" stroke="none" d="M 12967,9542 L 13124,9094 12824,9090 12967,9542 Z"/>
      </g>
     </g>
     <g class="com.sun.star.drawing.CustomShape">
      <g id="id31">
       <path fill="rgb(153,204,255)" stroke="none" d="M 11967,20141 L 15778,20141 15778,21665 11967,21665 11967,20141 11967,20141 Z M 11967,20141 L 11967,20141 Z M 15778,21666 L 15778,21666 Z"/>
       <path fill="none" stroke="rgb(52,101,175)" d="M 11967,20141 L 15778,20141 15778,21665 11967,21665 11967,20141 11967,20141 Z"/>
       <path fill="none" stroke="rgb(52,101,175)" d="M 11967,20141 L 11967,20141 Z"/>
       <path fill="none" stroke="rgb(52,101,175)" d="M 15778,21666 L 15778,21666 Z"/>
       <text class="TextShape"><tspan class="TextParagraph" font-family="Arial, sans-serif" font-size="353px" font-weight="400"><tspan class="TextPosition" x="12606" y="20628"><tspan fill="rgb(0,0,0)" stroke="none">gradle jettyStop,</tspan></tspan></tspan><tspan class="TextParagraph" font-family="Arial, sans-serif" font-size="353px" font-weight="400"><tspan class="TextPosition" x="12397" y="21026"><tspan fill="rgb(0,0,0)" stroke="none">sends “stop” signal</tspan></tspan></tspan><tspan class="TextParagraph" font-family="Arial, sans-serif" font-size="353px" font-weight="400"><tspan class="TextPosition" x="12723" y="21424"><tspan fill="rgb(0,0,0)" stroke="none">to </tspan><tspan font-weight="700" fill="rgb(0,0,0)" stroke="none">servicePort</tspan></tspan></tspan></text>
      </g>
     </g>
     <g class="com.sun.star.drawing.ConnectorShape">
      <g id="id32">
       <path fill="none" stroke="rgb(0,0,0)" d="M 15777,20903 C 15794,20903 15812,20901 15828,20897"/>
       <path fill="none" stroke="rgb(0,0,0)" d="M 15860,20888 C 15877,20882 15893,20875 15908,20865"/>
       <path fill="none" stroke="rgb(0,0,0)" d="M 15938,20845 C 15953,20834 15968,20821 15983,20806"/>
       <path fill="none" stroke="rgb(0,0,0)" d="M 16003,20784 C 16013,20773 16023,20760 16033,20747"/>
       <path fill="none" stroke="rgb(0,0,0)" d="M 16052,20721 C 16062,20707 16071,20692 16080,20677"/>
       <path fill="none" stroke="rgb(0,0,0)" d="M 16098,20646 C 16107,20629 16116,20612 16125,20595"/>
       <path fill="none" stroke="rgb(0,0,0)" d="M 16141,20559 C 16148,20543 16155,20527 16162,20510"/>
       <path fill="none" stroke="rgb(0,0,0)" d="M 16174,20481 C 16180,20466 16185,20450 16191,20435"/>
       <path fill="none" stroke="rgb(0,0,0)" d="M 16202,20404 C 16207,20387 16213,20371 16218,20354"/>
       <path fill="none" stroke="rgb(0,0,0)" d="M 16228,20321 C 16233,20304 16238,20286 16243,20268"/>
       <path fill="none" stroke="rgb(0,0,0)" d="M 16253,20233 C 16258,20215 16262,20197 16267,20178"/>
       <path fill="none" stroke="rgb(0,0,0)" d="M 16275,20141 C 16279,20125 16283,20108 16287,20091"/>
       <path fill="none" stroke="rgb(0,0,0)" d="M 16293,20059 C 16297,20043 16300,20026 16303,20010"/>
       <path fill="none" stroke="rgb(0,0,0)" d="M 16309,19977 C 16313,19960 16316,19943 16319,19925"/>
       <path fill="none" stroke="rgb(0,0,0)" d="M 16324,19892 C 16327,19874 16330,19857 16333,19839"/>
       <path fill="none" stroke="rgb(0,0,0)" d="M 16338,19804 C 16340,19786 16343,19768 16345,19750"/>
       <path fill="none" stroke="rgb(0,0,0)" d="M 16350,19715 C 16352,19696 16354,19678 16356,19659"/>
       <path fill="none" stroke="rgb(0,0,0)" d="M 16360,19623 C 16362,19606 16364,19589 16366,19572"/>
       <path fill="none" stroke="rgb(0,0,0)" d="M 16369,19539 C 16370,19522 16372,19505 16373,19487"/>
       <path fill="none" stroke="rgb(0,0,0)" d="M 16376,19454 C 16378,19436 16379,19419 16380,19401"/>
       <path fill="none" stroke="rgb(0,0,0)" d="M 16382,19367 C 16383,19349 16385,19332 16386,19314"/>
       <path fill="none" stroke="rgb(0,0,0)" d="M 16387,19279 C 16388,19261 16389,19243 16390,19226"/>
       <path fill="none" stroke="rgb(0,0,0)" d="M 16391,19191 C 16392,19173 16392,19155 16393,19136"/>
       <path fill="none" stroke="rgb(0,0,0)" d="M 16394,19101 C 16394,19083 16395,19065 16395,19047"/>
       <path fill="none" stroke="rgb(0,0,0)" d="M 16395,19013 C 16396,18996 16396,18978 16396,18961"/>
       <path fill="none" stroke="rgb(0,0,0)" d="M 16396,18926 C 16396,18909 16396,18891 16395,18873"/>
       <path fill="none" stroke="rgb(0,0,0)" d="M 16395,18839 C 16395,18821 16394,18804 16394,18786"/>
       <path fill="none" stroke="rgb(0,0,0)" d="M 16393,18752 C 16392,18734 16392,18716 16391,18698"/>
       <path fill="none" stroke="rgb(0,0,0)" d="M 16390,18664 C 16389,18646 16388,18629 16387,18611"/>
       <path fill="none" stroke="rgb(0,0,0)" d="M 16386,18577 C 16385,18559 16384,18541 16383,18524"/>
       <path fill="none" stroke="rgb(0,0,0)" d="M 16380,18489 C 16379,18471 16378,18453 16376,18436"/>
       <path fill="none" stroke="rgb(0,0,0)" d="M 16374,18401 C 16372,18383 16371,18365 16369,18347"/>
       <path fill="none" stroke="rgb(0,0,0)" d="M 16366,18313 C 16364,18295 16362,18277 16360,18259"/>
       <path fill="none" stroke="rgb(0,0,0)" d="M 16357,18225 C 16355,18207 16353,18190 16351,18172"/>
       <path fill="none" stroke="rgb(0,0,0)" d="M 16346,18138 C 16344,18121 16342,18103 16340,18086"/>
       <path fill="none" stroke="rgb(0,0,0)" d="M 16335,18052 C 16332,18035 16330,18018 16327,18000"/>
       <path fill="none" stroke="rgb(0,0,0)" d="M 16322,17967 C 16319,17950 16316,17933 16314,17916"/>
       <path fill="none" stroke="rgb(0,0,0)" d="M 16308,17881 C 16304,17863 16301,17845 16298,17827"/>
       <path fill="none" stroke="rgb(0,0,0)" d="M 16291,17792 C 16287,17774 16284,17756 16280,17739"/>
       <path fill="none" stroke="rgb(0,0,0)" d="M 16273,17705 C 16269,17687 16265,17670 16261,17652"/>
       <path fill="none" stroke="rgb(0,0,0)" d="M 16253,17619 C 16249,17602 16245,17585 16240,17568"/>
       <path fill="none" stroke="rgb(0,0,0)" d="M 16232,17535 C 16227,17519 16223,17502 16218,17485"/>
       <path fill="none" stroke="rgb(0,0,0)" d="M 16209,17454 C 16204,17437 16200,17421 16195,17405"/>
       <path fill="none" stroke="rgb(0,0,0)" d="M 16184,17372 C 16178,17354 16172,17336 16166,17318"/>
       <path fill="none" stroke="rgb(0,0,0)" d="M 16154,17284 C 16148,17267 16142,17249 16135,17232"/>
       <path fill="none" stroke="rgb(0,0,0)" d="M 16123,17200 C 16116,17183 16109,17167 16102,17150"/>
       <path fill="none" stroke="rgb(0,0,0)" d="M 16089,17119 C 16082,17103 16074,17088 16067,17072"/>
       <path fill="none" stroke="rgb(0,0,0)" d="M 16053,17043 C 16045,17028 16038,17013 16030,16998"/>
       <path fill="none" stroke="rgb(0,0,0)" d="M 16015,16970 C 16005,16954 15996,16937 15986,16921"/>
       <path fill="none" stroke="rgb(0,0,0)" d="M 15967,16890 C 15956,16874 15946,16859 15935,16844"/>
       <path fill="none" stroke="rgb(0,0,0)" d="M 15915,16816 C 15904,16801 15893,16787 15882,16774"/>
       <path fill="none" stroke="rgb(0,0,0)" d="M 15860,16749 C 15848,16736 15837,16723 15825,16712"/>
       <path fill="none" stroke="rgb(0,0,0)" d="M 15802,16689 C 15792,16680 15782,16672 15773,16664"/>
       <path fill="rgb(0,0,0)" stroke="none" d="M 15396,16522 L 15760,16826 15870,16547 15396,16522 Z"/>
       <text class="TextShape"><tspan class="TextParagraph" font-family="Arial, sans-serif" font-size="353px" font-weight="400"><tspan class="TextPosition" x="15647" y="18836"><tspan fill="rgb(0,0,0)" stroke="none">tcp</tspan></tspan></tspan></text>
      </g>
     </g>
    </g>
   </g>
  </g>
 </g>
</svg>