<?xml version="1.0" encoding="UTF-8"?>
<!DOCTYPE svg PUBLIC "-//W3C//DTD SVG 1.1//EN" "http://www.w3.org/Graphics/SVG/1.1/DTD/svg11.dtd">
<svg version="1.2" width="170mm" height="260mm" viewBox="0 0 17000 26000" preserveAspectRatio="xMidYMid" fill-rule="evenodd" clip-path="url(#presentation_clip_path)" stroke-width="28.222" stroke-linejoin="round" xmlns="http://www.w3.org/2000/svg" xmlns:ooo="http://xml.openoffice.org/svg/export" xmlns:xlink="http://www.w3.org/1999/xlink" xml:space="preserve">
 <defs class="ClipPathGroup">
  <clipPath id="presentation_clip_path" clipPathUnits="userSpaceOnUse">
   <rect x="0" y="0" width="17000" height="26000"/>
  </clipPath>
 </defs>
 <defs class="TextShapeIndex">
  <g ooo:slide="id1" ooo:id-list="id3 id4 id5 id6 id7 id8 id9 id10 id11 id12 id13 id14 id15 id16 id17 id18 id19 id20 id21 id22 id23 id24 id25 id26 id27 id28 id29 id30 id31 id32 id33 id34 id35"/>
 </defs>
 <defs class="EmbeddedBulletChars">
  <g id="bullet-char-template(57356)" transform="scale(0.00048828125,-0.00048828125)">
   <path d="M 580,1141 L 1163,571 580,0 -4,571 580,1141 Z"/>
  </g>
  <g id="bullet-char-template(57354)" transform="scale(0.00048828125,-0.00048828125)">
   <path d="M 8,1128 L 1137,1128 1137,0 8,0 8,1128 Z"/>
  </g>
  <g id="bullet-char-template(10146)" transform="scale(0.00048828125,-0.00048828125)">
   <path d="M 174,0 L 602,739 174,1481 1456,739 174,0 Z M 1358,739 L 309,1346 659,739 1358,739 Z"/>
  </g>
  <g id="bullet-char-template(10132)" transform="scale(0.00048828125,-0.00048828125)">
   <path d="M 2015,739 L 1276,0 717,0 1260,543 174,543 174,936 1260,936 717,1481 1274,1481 2015,739 Z"/>
  </g>
  <g id="bullet-char-template(10007)" transform="scale(0.00048828125,-0.00048828125)">
   <path d="M 0,-2 C -7,14 -16,27 -25,37 L 356,567 C 262,823 215,952 215,954 215,979 228,992 255,992 264,992 276,990 289,987 310,991 331,999 354,1012 L 381,999 492,748 772,1049 836,1024 860,1049 C 881,1039 901,1025 922,1006 886,937 835,863 770,784 769,783 710,716 594,584 L 774,223 C 774,196 753,168 711,139 L 727,119 C 717,90 699,76 672,76 641,76 570,178 457,381 L 164,-76 C 142,-110 111,-127 72,-127 30,-127 9,-110 8,-76 1,-67 -2,-52 -2,-32 -2,-23 -1,-13 0,-2 Z"/>
  </g>
  <g id="bullet-char-template(10004)" transform="scale(0.00048828125,-0.00048828125)">
   <path d="M 285,-33 C 182,-33 111,30 74,156 52,228 41,333 41,471 41,549 55,616 82,672 116,743 169,778 240,778 293,778 328,747 346,684 L 369,508 C 377,444 397,411 428,410 L 1163,1116 C 1174,1127 1196,1133 1229,1133 1271,1133 1292,1118 1292,1087 L 1292,965 C 1292,929 1282,901 1262,881 L 442,47 C 390,-6 338,-33 285,-33 Z"/>
  </g>
  <g id="bullet-char-template(9679)" transform="scale(0.00048828125,-0.00048828125)">
   <path d="M 813,0 C 632,0 489,54 383,161 276,268 223,411 223,592 223,773 276,916 383,1023 489,1130 632,1184 813,1184 992,1184 1136,1130 1245,1023 1353,916 1407,772 1407,592 1407,412 1353,268 1245,161 1136,54 992,0 813,0 Z"/>
  </g>
  <g id="bullet-char-template(8226)" transform="scale(0.00048828125,-0.00048828125)">
   <path d="M 346,457 C 273,457 209,483 155,535 101,586 74,649 74,723 74,796 101,859 155,911 209,963 273,989 346,989 419,989 480,963 531,910 582,859 608,796 608,723 608,648 583,586 532,535 482,483 420,457 346,457 Z"/>
  </g>
  <g id="bullet-char-template(8211)" transform="scale(0.00048828125,-0.00048828125)">
   <path d="M -4,459 L 1135,459 1135,606 -4,606 -4,459 Z"/>
  </g>
 </defs>
 <defs class="TextEmbeddedBitmaps"/>
 <g>
  <g id="id2" class="Master_Slide">
   <g id="bg-id2" class="Background"/>
   <g id="bo-id2" class="BackgroundObjects"/>
  </g>
 </g>
 <g class="SlideGroup">
  <g>
   <g id="id1" class="Slide" clip-path="url(#presentation_clip_path)">
    <g class="Page">
     <g class="com.sun.star.drawing.CustomShape">
      <g id="id3">
       <path fill="rgb(204,255,204)" stroke="none" d="M 2180,1890 C 1843,1890 1507,1699 1507,1508 1507,1317 1843,1127 2180,1127 L 5025,1127 C 5362,1127 5699,1317 5699,1508 5699,1699 5362,1890 5025,1890 L 2180,1890 Z M 1507,1127 L 1507,1127 Z M 5699,1890 L 5699,1890 Z"/>
       <path fill="none" stroke="rgb(52,101,175)" d="M 2180,1890 C 1843,1890 1507,1699 1507,1508 1507,1317 1843,1127 2180,1127 L 5025,1127 C 5362,1127 5699,1317 5699,1508 5699,1699 5362,1890 5025,1890 L 2180,1890 Z"/>
       <path fill="none" stroke="rgb(52,101,175)" d="M 1507,1127 L 1507,1127 Z"/>
       <path fill="none" stroke="rgb(52,101,175)" d="M 5699,1890 L 5699,1890 Z"/>
       <text class="TextShape"><tspan class="TextParagraph" font-family="Arial, sans-serif" font-size="353px" font-weight="400"><tspan class="TextPosition" x="2166" y="1631"><tspan fill="rgb(0,0,0)" stroke="none">jettyRunWar starts</tspan></tspan></tspan></text>
      </g>
     </g>
     <g class="com.sun.star.drawing.CustomShape">
      <g id="id4">
       <path fill="rgb(204,255,204)" stroke="none" d="M 1686,3539 L 3605,2777 5525,3539 3605,4301 1686,3539 1686,3539 Z M 1686,2777 L 1686,2777 Z M 5525,4301 L 5525,4301 Z"/>
       <path fill="none" stroke="rgb(52,101,175)" d="M 1686,3539 L 3605,2777 5525,3539 3605,4301 1686,3539 1686,3539 Z"/>
       <path fill="none" stroke="rgb(52,101,175)" d="M 1686,2777 L 1686,2777 Z"/>
       <path fill="none" stroke="rgb(52,101,175)" d="M 5525,4301 L 5525,4301 Z"/>
       <text class="TextShape"><tspan class="TextParagraph" font-family="Arial, sans-serif" font-size="353px" font-weight="400"><tspan class="TextPosition" x="2987" y="3463"><tspan fill="rgb(0,0,0)" stroke="none">sources</tspan></tspan><tspan class="TextPosition" x="2707" y="3861"><tspan fill="rgb(0,0,0)" stroke="none">up-to-date?</tspan></tspan></tspan></text>
      </g>
     </g>
     <g class="com.sun.star.drawing.ConnectorShape">
      <g id="id5">
       <path fill="none" stroke="rgb(0,0,0)" d="M 3604,1889 L 3605,2348"/>
       <path fill="rgb(0,0,0)" stroke="none" d="M 3605,2778 L 3754,2328 3454,2328 3605,2778 Z"/>
      </g>
     </g>
     <g class="com.sun.star.drawing.CustomShape">
      <g id="id6">
       <path fill="rgb(204,255,204)" stroke="none" d="M 5741,4371 L 9002,4371 9002,5191 5741,5191 5741,4371 5741,4371 Z M 5741,4371 L 5741,4371 Z M 9002,5192 L 9002,5192 Z"/>
       <path fill="none" stroke="rgb(52,101,175)" d="M 5741,4371 L 9002,4371 9002,5191 5741,5191 5741,4371 5741,4371 Z"/>
       <path fill="none" stroke="rgb(52,101,175)" d="M 5741,4371 L 5741,4371 Z"/>
       <path fill="none" stroke="rgb(52,101,175)" d="M 9002,5192 L 9002,5192 Z"/>
       <text class="TextShape"><tspan class="TextParagraph" font-family="Arial, sans-serif" font-size="353px" font-weight="400"><tspan class="TextPosition" x="6768" y="4904"><tspan fill="rgb(0,0,0)" stroke="none">compile</tspan></tspan></tspan></text>
      </g>
     </g>
     <g class="com.sun.star.drawing.ConnectorShape">
      <g id="id7">
       <path fill="none" stroke="rgb(0,0,0)" d="M 5524,3540 L 7371,3540 7371,3941"/>
       <path fill="rgb(0,0,0)" stroke="none" d="M 7371,4371 L 7521,3921 7221,3921 7371,4371 Z"/>
       <text class="TextShape"><tspan class="TextParagraph" font-family="Arial, sans-serif" font-size="353px" font-weight="400"><tspan class="TextPosition" x="6253" y="3880"><tspan fill="rgb(0,0,0)" stroke="none">no</tspan></tspan></tspan></text>
      </g>
     </g>
     <g class="com.sun.star.drawing.ConnectorShape">
      <g id="id8">
       <path fill="none" stroke="rgb(0,0,0)" d="M 3605,4301 L 3587,6334"/>
       <path fill="rgb(0,0,0)" stroke="none" d="M 3583,6764 L 3737,6315 3437,6313 3583,6764 Z"/>
       <text class="TextShape"><tspan class="TextParagraph" font-family="Arial, sans-serif" font-size="353px" font-weight="400"><tspan class="TextPosition" x="2929" y="5059"><tspan fill="rgb(0,0,0)" stroke="none">yes        </tspan></tspan></tspan></text>
      </g>
     </g>
     <g class="com.sun.star.drawing.ConnectorShape">
      <g id="id9">
       <path fill="none" stroke="rgb(0,0,0)" d="M 7371,5191 L 7371,5978 3583,5978 3583,6334"/>
       <path fill="rgb(0,0,0)" stroke="none" d="M 3583,6764 L 3733,6314 3433,6314 3583,6764 Z"/>
      </g>
     </g>
     <g class="com.sun.star.drawing.CustomShape">
      <g id="id10">
       <path fill="rgb(204,255,204)" stroke="none" d="M 1179,8836 L 5953,8836 5953,9891 1179,9891 1179,8836 1179,8836 Z M 1179,8836 L 1179,8836 Z M 5953,9891 L 5953,9891 Z"/>
       <path fill="none" stroke="rgb(52,101,175)" d="M 1179,8836 L 5953,8836 5953,9891 1179,9891 1179,8836 1179,8836 Z"/>
       <path fill="none" stroke="rgb(52,101,175)" d="M 1179,8836 L 1179,8836 Z"/>
       <path fill="none" stroke="rgb(52,101,175)" d="M 5953,9891 L 5953,9891 Z"/>
       <text class="TextShape"><tspan class="TextParagraph" font-family="Arial, sans-serif" font-size="353px" font-weight="400"><tspan class="TextPosition" x="2086" y="9287"><tspan fill="rgb(0,0,0)" stroke="none">start Jetty process </tspan></tspan><tspan class="TextPosition" x="2387" y="9685"><tspan fill="rgb(0,0,0)" stroke="none">against war-file</tspan></tspan></tspan></text>
      </g>
     </g>
     <g class="com.sun.star.drawing.ConnectorShape">
      <g id="id11">
       <path fill="none" stroke="rgb(0,0,0)" d="M 3567,9890 C 3567,9906 3570,9922 3577,9938"/>
       <path fill="none" stroke="rgb(0,0,0)" d="M 3594,9968 C 3605,9983 3619,9997 3636,10012"/>
       <path fill="none" stroke="rgb(0,0,0)" d="M 3658,10028 C 3670,10037 3683,10045 3698,10054"/>
       <path fill="none" stroke="rgb(0,0,0)" d="M 3727,10070 C 3743,10078 3761,10086 3779,10094"/>
       <path fill="none" stroke="rgb(0,0,0)" d="M 3816,10109 C 3832,10115 3848,10121 3865,10127"/>
       <path fill="none" stroke="rgb(0,0,0)" d="M 3893,10137 C 3908,10142 3924,10147 3940,10152"/>
       <path fill="none" stroke="rgb(0,0,0)" d="M 3972,10161 C 3988,10166 4005,10170 4023,10175"/>
       <path fill="none" stroke="rgb(0,0,0)" d="M 4058,10184 C 4076,10189 4095,10193 4115,10198"/>
       <path fill="none" stroke="rgb(0,0,0)" d="M 4153,10206 C 4170,10210 4187,10214 4204,10217"/>
       <path fill="none" stroke="rgb(0,0,0)" d="M 4234,10224 C 4250,10227 4266,10230 4282,10233"/>
       <path fill="none" stroke="rgb(0,0,0)" d="M 4313,10239 C 4330,10242 4347,10245 4364,10248"/>
       <path fill="none" stroke="rgb(0,0,0)" d="M 4397,10254 C 4415,10257 4432,10260 4450,10263"/>
       <path fill="none" stroke="rgb(0,0,0)" d="M 4486,10268 C 4504,10271 4523,10274 4542,10277"/>
       <path fill="none" stroke="rgb(0,0,0)" d="M 4578,10283 C 4598,10285 4617,10288 4637,10291"/>
       <path fill="none" stroke="rgb(0,0,0)" d="M 4670,10296 C 4686,10298 4702,10300 4718,10302"/>
       <path fill="none" stroke="rgb(0,0,0)" d="M 4749,10306 C 4766,10308 4782,10310 4799,10312"/>
       <path fill="none" stroke="rgb(0,0,0)" d="M 4831,10316 C 4848,10318 4865,10320 4883,10322"/>
       <path fill="none" stroke="rgb(0,0,0)" d="M 4916,10326 C 4934,10328 4951,10330 4969,10332"/>
       <path fill="none" stroke="rgb(0,0,0)" d="M 5004,10336 C 5022,10338 5040,10340 5058,10342"/>
       <path fill="none" stroke="rgb(0,0,0)" d="M 5094,10345 C 5112,10347 5131,10349 5150,10351"/>
       <path fill="none" stroke="rgb(0,0,0)" d="M 5187,10355 C 5206,10356 5225,10358 5244,10360"/>
       <path fill="none" stroke="rgb(0,0,0)" d="M 5278,10363 C 5294,10365 5311,10366 5327,10367"/>
       <path fill="none" stroke="rgb(0,0,0)" d="M 5359,10370 C 5375,10372 5392,10373 5409,10375"/>
       <path fill="none" stroke="rgb(0,0,0)" d="M 5441,10377 C 5458,10379 5475,10380 5492,10381"/>
       <path fill="none" stroke="rgb(0,0,0)" d="M 5525,10384 C 5543,10385 5560,10387 5577,10388"/>
       <path fill="none" stroke="rgb(0,0,0)" d="M 5611,10391 C 5629,10392 5647,10393 5665,10395"/>
       <path fill="none" stroke="rgb(0,0,0)" d="M 5699,10397 C 5717,10399 5735,10400 5754,10401"/>
       <path fill="none" stroke="rgb(0,0,0)" d="M 5789,10404 C 5807,10405 5826,10406 5845,10407"/>
       <path fill="none" stroke="rgb(0,0,0)" d="M 5881,10410 C 5899,10411 5918,10412 5937,10413"/>
       <path fill="none" stroke="rgb(0,0,0)" d="M 5974,10416 C 5992,10417 6010,10418 6028,10419"/>
       <path fill="none" stroke="rgb(0,0,0)" d="M 6060,10421 C 6076,10422 6093,10423 6109,10424"/>
       <path fill="none" stroke="rgb(0,0,0)" d="M 6142,10426 C 6158,10427 6175,10428 6192,10429"/>
       <path fill="none" stroke="rgb(0,0,0)" d="M 6225,10431 C 6242,10432 6259,10432 6276,10433"/>
       <path fill="none" stroke="rgb(0,0,0)" d="M 6310,10435 C 6327,10436 6344,10437 6362,10438"/>
       <path fill="none" stroke="rgb(0,0,0)" d="M 6396,10440 C 6413,10441 6431,10441 6449,10442"/>
       <path fill="none" stroke="rgb(0,0,0)" d="M 6483,10444 C 6501,10445 6519,10446 6537,10447"/>
       <path fill="none" stroke="rgb(0,0,0)" d="M 6572,10448 C 6590,10449 6608,10450 6626,10451"/>
       <path fill="none" stroke="rgb(0,0,0)" d="M 6662,10452 C 6680,10453 6699,10454 6717,10455"/>
       <path fill="none" stroke="rgb(0,0,0)" d="M 6753,10456 C 6772,10457 6791,10458 6809,10459"/>
       <path fill="none" stroke="rgb(0,0,0)" d="M 6846,10460 C 6864,10461 6882,10462 6901,10463"/>
       <path fill="none" stroke="rgb(0,0,0)" d="M 6933,10464 C 6949,10464 6966,10465 6983,10466"/>
       <path fill="none" stroke="rgb(0,0,0)" d="M 7015,10467 C 7032,10468 7049,10468 7066,10469"/>
       <path fill="none" stroke="rgb(0,0,0)" d="M 7099,10470 C 7116,10471 7133,10471 7150,10472"/>
       <path fill="none" stroke="rgb(0,0,0)" d="M 7183,10473 C 7201,10474 7218,10474 7235,10475"/>
       <path fill="none" stroke="rgb(0,0,0)" d="M 7269,10476 C 7286,10477 7304,10477 7321,10478"/>
       <path fill="none" stroke="rgb(0,0,0)" d="M 7355,10479 C 7373,10479 7391,10480 7408,10481"/>
       <path fill="none" stroke="rgb(0,0,0)" d="M 7443,10482 C 7461,10482 7479,10483 7497,10483"/>
       <path fill="none" stroke="rgb(0,0,0)" d="M 7531,10484 C 7549,10485 7568,10485 7586,10486"/>
       <path fill="none" stroke="rgb(0,0,0)" d="M 7621,10487 C 7639,10487 7658,10488 7676,10488"/>
       <path fill="none" stroke="rgb(0,0,0)" d="M 7711,10489 C 7730,10490 7748,10490 7767,10491"/>
       <path fill="none" stroke="rgb(0,0,0)" d="M 7803,10492 C 7822,10492 7840,10493 7859,10493"/>
       <path fill="none" stroke="rgb(0,0,0)" d="M 7896,10494 C 7912,10495 7929,10495 7946,10495"/>
       <path fill="none" stroke="rgb(0,0,0)" d="M 7979,10496 C 7996,10497 8012,10497 8029,10497"/>
       <path fill="none" stroke="rgb(0,0,0)" d="M 8062,10498 C 8079,10498 8096,10499 8113,10499"/>
       <path fill="none" stroke="rgb(0,0,0)" d="M 8146,10500 C 8163,10500 8180,10501 8198,10501"/>
       <path fill="none" stroke="rgb(0,0,0)" d="M 8231,10502 C 8248,10502 8266,10502 8283,10503"/>
       <path fill="none" stroke="rgb(0,0,0)" d="M 8317,10503 C 8334,10504 8352,10504 8369,10504"/>
       <path fill="none" stroke="rgb(0,0,0)" d="M 8403,10505 C 8421,10505 8438,10506 8456,10506"/>
       <path fill="none" stroke="rgb(0,0,0)" d="M 8490,10507 C 8508,10507 8526,10507 8544,10508"/>
       <path fill="none" stroke="rgb(0,0,0)" d="M 8578,10508 C 8596,10508 8614,10509 8632,10509"/>
       <path fill="none" stroke="rgb(0,0,0)" d="M 8667,10510 C 8685,10510 8703,10510 8721,10510"/>
       <path fill="none" stroke="rgb(0,0,0)" d="M 8756,10511 C 8775,10511 8793,10511 8811,10512"/>
       <path fill="none" stroke="rgb(0,0,0)" d="M 8847,10512 C 8865,10513 8883,10513 8902,10513"/>
       <path fill="none" stroke="rgb(0,0,0)" d="M 8938,10514 C 8956,10514 8975,10514 8993,10514"/>
       <path fill="none" stroke="rgb(0,0,0)" d="M 9030,10515 C 9047,10515 9065,10515 9082,10515"/>
       <path fill="none" stroke="rgb(0,0,0)" d="M 9115,10516 C 9132,10516 9149,10516 9166,10516"/>
       <path fill="none" stroke="rgb(0,0,0)" d="M 9198,10517 C 9215,10517 9232,10517 9250,10517"/>
       <path fill="none" stroke="rgb(0,0,0)" d="M 9283,10518 C 9300,10518 9317,10518 9334,10518"/>
       <path fill="none" stroke="rgb(0,0,0)" d="M 9367,10518 C 9385,10519 9402,10519 9419,10519"/>
       <path fill="none" stroke="rgb(0,0,0)" d="M 9453,10519 C 9470,10519 9487,10520 9505,10520"/>
       <path fill="none" stroke="rgb(0,0,0)" d="M 9539,10520 C 9556,10520 9574,10520 9591,10520"/>
       <path fill="none" stroke="rgb(0,0,0)" d="M 9625,10521 C 9643,10521 9661,10521 9678,10521"/>
       <path fill="none" stroke="rgb(0,0,0)" d="M 9713,10521 C 9730,10521 9748,10522 9766,10522"/>
       <path fill="none" stroke="rgb(0,0,0)" d="M 9800,10522 C 9818,10522 9836,10522 9854,10522"/>
       <path fill="none" stroke="rgb(0,0,0)" d="M 9889,10522 C 9907,10523 9925,10523 9943,10523"/>
       <path fill="none" stroke="rgb(0,0,0)" d="M 9978,10523 C 9996,10523 10014,10523 10032,10523"/>
       <path fill="none" stroke="rgb(0,0,0)" d="M 10068,10523 C 10086,10523 10104,10524 10123,10524"/>
       <path fill="none" stroke="rgb(0,0,0)" d="M 10158,10524 C 10176,10524 10195,10524 10213,10524"/>
       <path fill="none" stroke="rgb(0,0,0)" d="M 10249,10524 C 10268,10524 10286,10524 10305,10524"/>
       <path fill="rgb(0,0,0)" stroke="none" d="M 10779,10525 L 10329,10374 10329,10674 10779,10525 Z"/>
       <text class="TextShape"><tspan class="TextParagraph" font-family="Arial, sans-serif" font-size="353px" font-weight="400"><tspan class="TextPosition" x="8219" y="10331"><tspan fill="rgb(0,0,0)" stroke="none">start process   </tspan></tspan></tspan></text>
      </g>
     </g>
     <g class="com.sun.star.drawing.CustomShape">
      <g id="id12">
       <path fill="rgb(255,255,204)" stroke="none" d="M 10779,14306 L 14844,14306 14844,15478 10779,15478 10779,14306 10779,14306 Z M 10779,14306 L 10779,14306 Z M 14844,15478 L 14844,15478 Z"/>
       <path fill="none" stroke="rgb(52,101,175)" d="M 10779,14306 L 14844,14306 14844,15478 10779,15478 10779,14306 10779,14306 Z"/>
       <path fill="none" stroke="rgb(52,101,175)" d="M 10779,14306 L 10779,14306 Z"/>
       <path fill="none" stroke="rgb(52,101,175)" d="M 14844,15478 L 14844,15478 Z"/>
       <text class="TextShape"><tspan class="TextParagraph" font-family="Arial, sans-serif" font-size="353px" font-weight="400"><tspan class="TextPosition" x="11171" y="14816"><tspan fill="rgb(0,0,0)" stroke="none">send “started” signal </tspan></tspan></tspan><tspan class="TextParagraph" font-family="Arial, sans-serif" font-size="353px" font-weight="400"><tspan class="TextPosition" x="11747" y="15214"><tspan fill="rgb(0,0,0)" stroke="none">to </tspan><tspan font-weight="700" fill="rgb(0,0,0)" stroke="none">statusPort</tspan></tspan></tspan></text>
      </g>
     </g>
     <g class="com.sun.star.drawing.ConnectorShape">
      <g id="id13">
       <path fill="none" stroke="rgb(0,0,0)" d="M 3567,9890 L 3594,11069"/>
       <path fill="rgb(0,0,0)" stroke="none" d="M 3604,11499 L 3744,11046 3444,11053 3604,11499 Z"/>
      </g>
     </g>
     <g class="com.sun.star.drawing.CustomShape">
      <g id="id14">
       <path fill="rgb(204,255,204)" stroke="none" d="M 1625,14193 L 5700,14193 5700,15082 1625,15082 1625,14193 1625,14193 Z M 1625,14193 L 1625,14193 Z M 5700,15083 L 5700,15083 Z"/>
       <path fill="none" stroke="rgb(52,101,175)" d="M 1625,14193 L 5700,14193 5700,15082 1625,15082 1625,14193 1625,14193 Z"/>
       <path fill="none" stroke="rgb(52,101,175)" d="M 1625,14193 L 1625,14193 Z"/>
       <path fill="none" stroke="rgb(52,101,175)" d="M 5700,15083 L 5700,15083 Z"/>
       <text class="TextShape"><tspan class="TextParagraph" font-family="Arial, sans-serif" font-size="353px" font-weight="400"><tspan class="TextPosition" x="1950" y="14761"><tspan fill="rgb(0,0,0)" stroke="none">wait for user keypress</tspan></tspan></tspan></text>
      </g>
     </g>
     <g class="com.sun.star.drawing.CustomShape">
      <g id="id15">
       <path fill="rgb(204,255,204)" stroke="none" d="M 1634,11498 L 5572,11498 5572,12670 1634,12670 1634,11498 1634,11498 Z M 1634,11498 L 1634,11498 Z M 5572,12670 L 5572,12670 Z"/>
       <path fill="none" stroke="rgb(52,101,175)" d="M 1634,11498 L 5572,11498 5572,12670 1634,12670 1634,11498 1634,11498 Z"/>
       <path fill="none" stroke="rgb(52,101,175)" d="M 1634,11498 L 1634,11498 Z"/>
       <path fill="none" stroke="rgb(52,101,175)" d="M 5572,12670 L 5572,12670 Z"/>
       <text class="TextShape"><tspan class="TextParagraph" font-family="Arial, sans-serif" font-size="353px" font-weight="400"><tspan class="TextPosition" x="1778" y="12008"><tspan fill="rgb(0,0,0)" stroke="none">wait for “started” signal </tspan></tspan><tspan class="TextPosition" x="2489" y="12406"><tspan fill="rgb(0,0,0)" stroke="none">on </tspan><tspan font-weight="700" fill="rgb(0,0,0)" stroke="none">statusPort</tspan></tspan></tspan></text>
      </g>
     </g>
     <g class="com.sun.star.drawing.CustomShape">
      <g id="id16">
       <path fill="rgb(204,255,204)" stroke="none" d="M 1635,16705 L 5700,16705 5700,17877 1635,17877 1635,16705 1635,16705 Z M 1635,16705 L 1635,16705 Z M 5700,17877 L 5700,17877 Z"/>
       <path fill="none" stroke="rgb(52,101,175)" d="M 1635,16705 L 5700,16705 5700,17877 1635,17877 1635,16705 1635,16705 Z"/>
       <path fill="none" stroke="rgb(52,101,175)" d="M 1635,16705 L 1635,16705 Z"/>
       <path fill="none" stroke="rgb(52,101,175)" d="M 5700,17877 L 5700,17877 Z"/>
       <text class="TextShape"><tspan class="TextParagraph" font-family="Arial, sans-serif" font-size="353px" font-weight="400"><tspan class="TextPosition" x="2232" y="17215"><tspan fill="rgb(0,0,0)" stroke="none">send “stop” signal </tspan></tspan></tspan><tspan class="TextParagraph" font-family="Arial, sans-serif" font-size="353px" font-weight="400"><tspan class="TextPosition" x="2518" y="17613"><tspan fill="rgb(0,0,0)" stroke="none">to </tspan><tspan font-weight="700" fill="rgb(0,0,0)" stroke="none">servicePort</tspan></tspan></tspan></text>
      </g>
     </g>
     <g class="com.sun.star.drawing.ConnectorShape">
      <g id="id17">
       <path fill="none" stroke="rgb(0,0,0)" d="M 3662,15083 L 3666,16276"/>
       <path fill="rgb(0,0,0)" stroke="none" d="M 3667,16706 L 3816,16256 3516,16256 3667,16706 Z"/>
      </g>
     </g>
     <g class="com.sun.star.drawing.CustomShape">
      <g id="id18">
       <path fill="rgb(255,255,204)" stroke="none" d="M 11432,10907 C 11105,10907 10779,10716 10779,10525 10779,10334 11105,10144 11432,10144 L 14190,10144 C 14517,10144 14844,10334 14844,10525 14844,10716 14517,10907 14190,10907 L 11432,10907 Z M 10779,10144 L 10779,10144 Z M 14844,10907 L 14844,10907 Z"/>
       <path fill="none" stroke="rgb(52,101,175)" d="M 11432,10907 C 11105,10907 10779,10716 10779,10525 10779,10334 11105,10144 11432,10144 L 14190,10144 C 14517,10144 14844,10334 14844,10525 14844,10716 14517,10907 14190,10907 L 11432,10907 Z"/>
       <path fill="none" stroke="rgb(52,101,175)" d="M 10779,10144 L 10779,10144 Z"/>
       <path fill="none" stroke="rgb(52,101,175)" d="M 14844,10907 L 14844,10907 Z"/>
       <text class="TextShape"><tspan class="TextParagraph" font-family="Arial, sans-serif" font-size="353px" font-weight="400"><tspan class="TextPosition" x="11291" y="10648"><tspan fill="rgb(0,0,0)" stroke="none">Jetty process starts</tspan></tspan></tspan></text>
      </g>
     </g>
     <g class="com.sun.star.drawing.ConnectorShape">
      <g id="id19">
       <path fill="none" stroke="rgb(0,0,0)" d="M 12811,10906 L 12814,11746"/>
       <path fill="rgb(0,0,0)" stroke="none" d="M 12815,12176 L 12964,11726 12664,11726 12815,12176 Z"/>
      </g>
     </g>
     <g class="com.sun.star.drawing.CustomShape">
      <g id="id20">
       <path fill="rgb(255,255,204)" stroke="none" d="M 10398,16747 L 15225,16747 15225,18145 10398,18145 10398,16747 10398,16747 Z M 10398,16747 L 10398,16747 Z M 15225,18145 L 15225,18145 Z"/>
       <path fill="none" stroke="rgb(52,101,175)" d="M 10398,16747 L 15225,16747 15225,18145 10398,18145 10398,16747 10398,16747 Z"/>
       <path fill="none" stroke="rgb(52,101,175)" d="M 10398,16747 L 10398,16747 Z"/>
       <path fill="none" stroke="rgb(52,101,175)" d="M 15225,18145 L 15225,18145 Z"/>
       <text class="TextShape"><tspan class="TextParagraph" font-family="Arial, sans-serif" font-size="353px" font-weight="400"><tspan class="TextPosition" x="11878" y="17171"><tspan fill="rgb(0,0,0)" stroke="none">In wait loop.</tspan></tspan><tspan class="TextPosition" x="11095" y="17569"><tspan fill="rgb(0,0,0)" stroke="none">listen for “stop” signal </tspan></tspan><tspan class="TextPosition" x="11613" y="17967"><tspan fill="rgb(0,0,0)" stroke="none">on </tspan><tspan font-weight="700" fill="rgb(0,0,0)" stroke="none">servicePort</tspan></tspan></tspan></text>
      </g>
     </g>
     <g class="com.sun.star.drawing.ConnectorShape">
      <g id="id21">
       <path fill="none" stroke="rgb(0,0,0)" d="M 12811,15478 L 12811,16318"/>
       <path fill="rgb(0,0,0)" stroke="none" d="M 12811,16748 L 12961,16298 12661,16298 12811,16748 Z"/>
      </g>
     </g>
     <g class="com.sun.star.drawing.CustomShape">
      <g id="id22">
       <path fill="rgb(204,255,204)" stroke="none" d="M 1962,24369 C 1544,24369 1126,24047 1126,23726 1126,23405 1544,23084 1962,23084 L 5497,23084 C 5915,23084 6334,23405 6334,23726 6334,24047 5915,24369 5497,24369 L 1962,24369 Z M 1126,23084 L 1126,23084 Z M 6334,24369 L 6334,24369 Z"/>
       <path fill="none" stroke="rgb(52,101,175)" d="M 1962,24369 C 1544,24369 1126,24047 1126,23726 1126,23405 1544,23084 1962,23084 L 5497,23084 C 5915,23084 6334,23405 6334,23726 6334,24047 5915,24369 5497,24369 L 1962,24369 Z"/>
       <path fill="none" stroke="rgb(52,101,175)" d="M 1126,23084 L 1126,23084 Z"/>
       <path fill="none" stroke="rgb(52,101,175)" d="M 6334,24369 L 6334,24369 Z"/>
       <text class="TextShape"><tspan class="TextParagraph" font-family="Arial, sans-serif" font-size="353px" font-weight="400"><tspan class="TextPosition" x="2072" y="23451"><tspan fill="rgb(0,0,0)" stroke="none">jettyRunWar finished.</tspan></tspan><tspan class="TextPosition" x="2381" y="23849"><tspan fill="rgb(0,0,0)" stroke="none">Gradle proceeds </tspan></tspan><tspan class="TextPosition" x="2508" y="24247"><tspan fill="rgb(0,0,0)" stroke="none">with other tasks</tspan></tspan></tspan></text>
      </g>
     </g>
     <g class="com.sun.star.drawing.ConnectorShape">
      <g id="id23">
       <path fill="none" stroke="rgb(0,0,0)" d="M 10779,14892 L 10732,14867"/>
       <path fill="none" stroke="rgb(0,0,0)" d="M 10702,14851 L 10655,14825"/>
       <path fill="none" stroke="rgb(0,0,0)" d="M 10625,14809 L 10579,14784"/>
       <path fill="none" stroke="rgb(0,0,0)" d="M 10548,14768 L 10502,14743"/>
       <path fill="none" stroke="rgb(0,0,0)" d="M 10472,14726 L 10425,14701"/>
       <path fill="none" stroke="rgb(0,0,0)" d="M 10395,14685 L 10348,14660"/>
       <path fill="none" stroke="rgb(0,0,0)" d="M 10318,14643 L 10271,14618"/>
       <path fill="none" stroke="rgb(0,0,0)" d="M 10241,14602 L 10194,14577"/>
       <path fill="none" stroke="rgb(0,0,0)" d="M 10164,14561 L 10117,14535"/>
       <path fill="none" stroke="rgb(0,0,0)" d="M 10087,14519 L 10041,14494"/>
       <path fill="none" stroke="rgb(0,0,0)" d="M 10010,14478 L 9964,14452"/>
       <path fill="none" stroke="rgb(0,0,0)" d="M 9934,14436 L 9887,14411"/>
       <path fill="none" stroke="rgb(0,0,0)" d="M 9857,14395 L 9810,14370"/>
       <path fill="none" stroke="rgb(0,0,0)" d="M 9780,14353 L 9733,14328"/>
       <path fill="none" stroke="rgb(0,0,0)" d="M 9703,14312 L 9656,14287"/>
       <path fill="none" stroke="rgb(0,0,0)" d="M 9626,14270 L 9579,14245"/>
       <path fill="none" stroke="rgb(0,0,0)" d="M 9549,14229 L 9502,14204"/>
       <path fill="none" stroke="rgb(0,0,0)" d="M 9472,14188 L 9426,14162"/>
       <path fill="none" stroke="rgb(0,0,0)" d="M 9396,14146 L 9349,14121"/>
       <path fill="none" stroke="rgb(0,0,0)" d="M 9319,14105 L 9272,14080"/>
       <path fill="none" stroke="rgb(0,0,0)" d="M 9242,14063 L 9195,14038"/>
       <path fill="none" stroke="rgb(0,0,0)" d="M 9165,14022 L 9118,13997"/>
       <path fill="none" stroke="rgb(0,0,0)" d="M 9088,13980 L 9041,13955"/>
       <path fill="none" stroke="rgb(0,0,0)" d="M 9011,13939 L 8964,13914"/>
       <path fill="none" stroke="rgb(0,0,0)" d="M 8934,13898 L 8888,13872"/>
       <path fill="none" stroke="rgb(0,0,0)" d="M 8857,13856 L 8811,13831"/>
       <path fill="none" stroke="rgb(0,0,0)" d="M 8781,13815 L 8734,13790"/>
       <path fill="none" stroke="rgb(0,0,0)" d="M 8704,13773 L 8657,13748"/>
       <path fill="none" stroke="rgb(0,0,0)" d="M 8627,13732 L 8580,13707"/>
       <path fill="none" stroke="rgb(0,0,0)" d="M 8550,13690 L 8503,13665"/>
       <path fill="none" stroke="rgb(0,0,0)" d="M 8473,13649 L 8426,13624"/>
       <path fill="none" stroke="rgb(0,0,0)" d="M 8396,13608 L 8350,13582"/>
       <path fill="none" stroke="rgb(0,0,0)" d="M 8319,13566 L 8273,13541"/>
       <path fill="none" stroke="rgb(0,0,0)" d="M 8243,13525 L 8196,13499"/>
       <path fill="none" stroke="rgb(0,0,0)" d="M 8166,13483 L 8119,13458"/>
       <path fill="none" stroke="rgb(0,0,0)" d="M 8089,13442 L 8042,13417"/>
       <path fill="none" stroke="rgb(0,0,0)" d="M 8012,13400 L 7965,13375"/>
       <path fill="none" stroke="rgb(0,0,0)" d="M 7935,13359 L 7888,13334"/>
       <path fill="none" stroke="rgb(0,0,0)" d="M 7858,13317 L 7812,13292"/>
       <path fill="none" stroke="rgb(0,0,0)" d="M 7781,13276 L 7735,13251"/>
       <path fill="none" stroke="rgb(0,0,0)" d="M 7705,13235 L 7658,13209"/>
       <path fill="none" stroke="rgb(0,0,0)" d="M 7628,13193 L 7581,13168"/>
       <path fill="none" stroke="rgb(0,0,0)" d="M 7551,13152 L 7504,13127"/>
       <path fill="none" stroke="rgb(0,0,0)" d="M 7474,13110 L 7427,13085"/>
       <path fill="none" stroke="rgb(0,0,0)" d="M 7397,13069 L 7350,13044"/>
       <path fill="none" stroke="rgb(0,0,0)" d="M 7320,13027 L 7274,13002"/>
       <path fill="none" stroke="rgb(0,0,0)" d="M 7243,12986 L 7197,12961"/>
       <path fill="none" stroke="rgb(0,0,0)" d="M 7167,12945 L 7120,12919"/>
       <path fill="none" stroke="rgb(0,0,0)" d="M 7090,12903 L 7043,12878"/>
       <path fill="none" stroke="rgb(0,0,0)" d="M 7013,12862 L 6966,12837"/>
       <path fill="none" stroke="rgb(0,0,0)" d="M 6936,12820 L 6889,12795"/>
       <path fill="none" stroke="rgb(0,0,0)" d="M 6859,12779 L 6812,12754"/>
       <path fill="none" stroke="rgb(0,0,0)" d="M 6782,12737 L 6735,12712"/>
       <path fill="none" stroke="rgb(0,0,0)" d="M 6705,12696 L 6659,12671"/>
       <path fill="none" stroke="rgb(0,0,0)" d="M 6629,12655 L 6582,12629"/>
       <path fill="none" stroke="rgb(0,0,0)" d="M 6552,12613 L 6505,12588"/>
       <path fill="none" stroke="rgb(0,0,0)" d="M 6475,12572 L 6428,12546"/>
       <path fill="none" stroke="rgb(0,0,0)" d="M 6398,12530 L 6351,12505"/>
       <path fill="none" stroke="rgb(0,0,0)" d="M 6321,12489 L 6274,12464"/>
       <path fill="none" stroke="rgb(0,0,0)" d="M 6244,12447 L 6197,12422"/>
       <path fill="none" stroke="rgb(0,0,0)" d="M 6167,12406 L 6121,12381"/>
       <path fill="none" stroke="rgb(0,0,0)" d="M 6090,12365 L 6044,12339"/>
       <path fill="none" stroke="rgb(0,0,0)" d="M 6014,12323 L 5967,12298"/>
       <path fill="rgb(0,0,0)" stroke="none" d="M 5572,12085 L 5897,12431 6039,12166 5572,12085 Z"/>
       <text class="TextShape"><tspan class="TextParagraph" font-family="Arial, sans-serif" font-size="353px" font-weight="400"><tspan class="TextPosition" x="7941" y="13811"><tspan fill="rgb(0,0,0)" stroke="none">tcp</tspan></tspan></tspan></text>
      </g>
     </g>
     <g class="com.sun.star.drawing.CustomShape">
      <g id="id24">
       <path fill="rgb(255,255,204)" stroke="none" d="M 11518,20305 C 11212,20305 10906,20114 10906,19923 10906,19732 11212,19542 11518,19542 L 14104,19542 C 14410,19542 14717,19732 14717,19923 14717,20114 14410,20305 14104,20305 L 11518,20305 Z M 10906,19542 L 10906,19542 Z M 14717,20305 L 14717,20305 Z"/>
       <path fill="none" stroke="rgb(52,101,175)" d="M 11518,20305 C 11212,20305 10906,20114 10906,19923 10906,19732 11212,19542 11518,19542 L 14104,19542 C 14410,19542 14717,19732 14717,19923 14717,20114 14410,20305 14104,20305 L 11518,20305 Z"/>
       <path fill="none" stroke="rgb(52,101,175)" d="M 10906,19542 L 10906,19542 Z"/>
       <path fill="none" stroke="rgb(52,101,175)" d="M 14717,20305 L 14717,20305 Z"/>
       <text class="TextShape"><tspan class="TextParagraph" font-family="Arial, sans-serif" font-size="353px" font-weight="400"><tspan class="TextPosition" x="11120" y="20046"><tspan fill="rgb(0,0,0)" stroke="none">Jetty process finished</tspan></tspan></tspan></text>
      </g>
     </g>
     <g class="com.sun.star.drawing.ConnectorShape">
      <g id="id25">
       <path fill="none" stroke="rgb(0,0,0)" d="M 12811,18145 L 12811,19112"/>
       <path fill="rgb(0,0,0)" stroke="none" d="M 12811,19542 L 12961,19092 12661,19092 12811,19542 Z"/>
      </g>
     </g>
     <g class="com.sun.star.drawing.ConnectorShape">
      <g id="id26">
       <path fill="none" stroke="rgb(0,0,0)" d="M 5699,17291 L 5752,17293"/>
       <path fill="none" stroke="rgb(0,0,0)" d="M 5786,17294 L 5839,17296"/>
       <path fill="none" stroke="rgb(0,0,0)" d="M 5874,17297 L 5927,17299"/>
       <path fill="none" stroke="rgb(0,0,0)" d="M 5961,17300 L 6014,17301"/>
       <path fill="none" stroke="rgb(0,0,0)" d="M 6048,17303 L 6101,17304"/>
       <path fill="none" stroke="rgb(0,0,0)" d="M 6135,17305 L 6188,17307"/>
       <path fill="none" stroke="rgb(0,0,0)" d="M 6223,17308 L 6276,17310"/>
       <path fill="none" stroke="rgb(0,0,0)" d="M 6310,17311 L 6363,17313"/>
       <path fill="none" stroke="rgb(0,0,0)" d="M 6397,17314 L 6450,17316"/>
       <path fill="none" stroke="rgb(0,0,0)" d="M 6484,17317 L 6537,17319"/>
       <path fill="none" stroke="rgb(0,0,0)" d="M 6572,17320 L 6625,17322"/>
       <path fill="none" stroke="rgb(0,0,0)" d="M 6659,17323 L 6712,17324"/>
       <path fill="none" stroke="rgb(0,0,0)" d="M 6746,17326 L 6799,17327"/>
       <path fill="none" stroke="rgb(0,0,0)" d="M 6834,17328 L 6887,17330"/>
       <path fill="none" stroke="rgb(0,0,0)" d="M 6921,17331 L 6974,17333"/>
       <path fill="none" stroke="rgb(0,0,0)" d="M 7008,17334 L 7061,17336"/>
       <path fill="none" stroke="rgb(0,0,0)" d="M 7095,17337 L 7148,17339"/>
       <path fill="none" stroke="rgb(0,0,0)" d="M 7183,17340 L 7236,17342"/>
       <path fill="none" stroke="rgb(0,0,0)" d="M 7270,17343 L 7323,17345"/>
       <path fill="none" stroke="rgb(0,0,0)" d="M 7357,17346 L 7410,17347"/>
       <path fill="none" stroke="rgb(0,0,0)" d="M 7444,17349 L 7497,17350"/>
       <path fill="none" stroke="rgb(0,0,0)" d="M 7532,17351 L 7585,17353"/>
       <path fill="none" stroke="rgb(0,0,0)" d="M 7619,17354 L 7672,17356"/>
       <path fill="none" stroke="rgb(0,0,0)" d="M 7706,17357 L 7759,17359"/>
       <path fill="none" stroke="rgb(0,0,0)" d="M 7793,17360 L 7847,17362"/>
       <path fill="none" stroke="rgb(0,0,0)" d="M 7881,17363 L 7934,17365"/>
       <path fill="none" stroke="rgb(0,0,0)" d="M 7968,17366 L 8021,17368"/>
       <path fill="none" stroke="rgb(0,0,0)" d="M 8055,17369 L 8108,17370"/>
       <path fill="none" stroke="rgb(0,0,0)" d="M 8143,17372 L 8196,17373"/>
       <path fill="none" stroke="rgb(0,0,0)" d="M 8230,17374 L 8283,17376"/>
       <path fill="none" stroke="rgb(0,0,0)" d="M 8317,17377 L 8370,17379"/>
       <path fill="none" stroke="rgb(0,0,0)" d="M 8404,17380 L 8457,17382"/>
       <path fill="none" stroke="rgb(0,0,0)" d="M 8492,17383 L 8545,17385"/>
       <path fill="none" stroke="rgb(0,0,0)" d="M 8579,17386 L 8632,17388"/>
       <path fill="none" stroke="rgb(0,0,0)" d="M 8666,17389 L 8719,17391"/>
       <path fill="none" stroke="rgb(0,0,0)" d="M 8753,17392 L 8807,17394"/>
       <path fill="none" stroke="rgb(0,0,0)" d="M 8841,17395 L 8894,17396"/>
       <path fill="none" stroke="rgb(0,0,0)" d="M 8928,17398 L 8981,17399"/>
       <path fill="none" stroke="rgb(0,0,0)" d="M 9015,17400 L 9068,17402"/>
       <path fill="none" stroke="rgb(0,0,0)" d="M 9103,17403 L 9156,17405"/>
       <path fill="none" stroke="rgb(0,0,0)" d="M 9190,17406 L 9243,17408"/>
       <path fill="none" stroke="rgb(0,0,0)" d="M 9277,17409 L 9330,17411"/>
       <path fill="none" stroke="rgb(0,0,0)" d="M 9364,17412 L 9417,17414"/>
       <path fill="none" stroke="rgb(0,0,0)" d="M 9452,17415 L 9505,17417"/>
       <path fill="none" stroke="rgb(0,0,0)" d="M 9539,17418 L 9592,17419"/>
       <path fill="none" stroke="rgb(0,0,0)" d="M 9626,17421 L 9679,17422"/>
       <path fill="none" stroke="rgb(0,0,0)" d="M 9713,17423 L 9767,17425"/>
       <path fill="none" stroke="rgb(0,0,0)" d="M 9801,17426 L 9854,17428"/>
       <path fill="none" stroke="rgb(0,0,0)" d="M 9888,17429 L 9941,17431"/>
       <path fill="rgb(0,0,0)" stroke="none" d="M 10398,17446 L 9953,17281 9943,17581 10398,17446 Z"/>
       <text class="TextShape"><tspan class="TextParagraph" font-family="Arial, sans-serif" font-size="353px" font-weight="400"><tspan class="TextPosition" x="7035" y="17890"><tspan fill="rgb(0,0,0)" stroke="none">          </tspan><tspan fill="rgb(0,0,0)" stroke="none">tcp      </tspan></tspan></tspan></text>
      </g>
     </g>
     <g class="com.sun.star.drawing.CustomShape">
      <g id="id27">
       <path fill="rgb(204,255,204)" stroke="none" d="M 1762,19908 L 5573,19908 5573,21080 1762,21080 1762,19908 1762,19908 Z M 1762,19908 L 1762,19908 Z M 5573,21080 L 5573,21080 Z"/>
       <path fill="none" stroke="rgb(52,101,175)" d="M 1762,19908 L 5573,19908 5573,21080 1762,21080 1762,19908 1762,19908 Z"/>
       <path fill="none" stroke="rgb(52,101,175)" d="M 1762,19908 L 1762,19908 Z"/>
       <path fill="none" stroke="rgb(52,101,175)" d="M 5573,21080 L 5573,21080 Z"/>
       <text class="TextShape"><tspan class="TextParagraph" font-family="Arial, sans-serif" font-size="353px" font-weight="400"><tspan class="TextPosition" x="2014" y="20418"><tspan fill="rgb(0,0,0)" stroke="none">wait for Jetty process</tspan></tspan></tspan><tspan class="TextParagraph" font-family="Arial, sans-serif" font-size="353px" font-weight="400"><tspan class="TextPosition" x="3064" y="20816"><tspan fill="rgb(0,0,0)" stroke="none">to finish</tspan></tspan></tspan></text>
      </g>
     </g>
     <g class="com.sun.star.drawing.ConnectorShape">
      <g id="id28">
       <path fill="none" stroke="rgb(0,0,0)" d="M 3667,17877 L 3667,19479"/>
       <path fill="rgb(0,0,0)" stroke="none" d="M 3667,19909 L 3817,19459 3517,19459 3667,19909 Z"/>
      </g>
     </g>
     <g class="com.sun.star.drawing.ConnectorShape">
      <g id="id29">
       <path fill="none" stroke="rgb(0,0,0)" d="M 10906,19923 L 10853,19929"/>
       <path fill="none" stroke="rgb(0,0,0)" d="M 10819,19932 L 10766,19938"/>
       <path fill="none" stroke="rgb(0,0,0)" d="M 10732,19942 L 10680,19947"/>
       <path fill="none" stroke="rgb(0,0,0)" d="M 10646,19951 L 10593,19957"/>
       <path fill="none" stroke="rgb(0,0,0)" d="M 10559,19960 L 10506,19966"/>
       <path fill="none" stroke="rgb(0,0,0)" d="M 10472,19969 L 10419,19975"/>
       <path fill="none" stroke="rgb(0,0,0)" d="M 10385,19979 L 10332,19984"/>
       <path fill="none" stroke="rgb(0,0,0)" d="M 10298,19988 L 10245,19994"/>
       <path fill="none" stroke="rgb(0,0,0)" d="M 10211,19997 L 10159,20003"/>
       <path fill="none" stroke="rgb(0,0,0)" d="M 10125,20007 L 10072,20012"/>
       <path fill="none" stroke="rgb(0,0,0)" d="M 10038,20016 L 9985,20022"/>
       <path fill="none" stroke="rgb(0,0,0)" d="M 9951,20025 L 9898,20031"/>
       <path fill="none" stroke="rgb(0,0,0)" d="M 9864,20035 L 9811,20040"/>
       <path fill="none" stroke="rgb(0,0,0)" d="M 9777,20044 L 9725,20049"/>
       <path fill="none" stroke="rgb(0,0,0)" d="M 9690,20053 L 9638,20059"/>
       <path fill="none" stroke="rgb(0,0,0)" d="M 9604,20062 L 9551,20068"/>
       <path fill="none" stroke="rgb(0,0,0)" d="M 9517,20072 L 9464,20077"/>
       <path fill="none" stroke="rgb(0,0,0)" d="M 9430,20081 L 9377,20087"/>
       <path fill="none" stroke="rgb(0,0,0)" d="M 9343,20090 L 9290,20096"/>
       <path fill="none" stroke="rgb(0,0,0)" d="M 9256,20100 L 9204,20105"/>
       <path fill="none" stroke="rgb(0,0,0)" d="M 9170,20109 L 9117,20115"/>
       <path fill="none" stroke="rgb(0,0,0)" d="M 9083,20118 L 9030,20124"/>
       <path fill="none" stroke="rgb(0,0,0)" d="M 8996,20127 L 8943,20133"/>
       <path fill="none" stroke="rgb(0,0,0)" d="M 8909,20137 L 8856,20142"/>
       <path fill="none" stroke="rgb(0,0,0)" d="M 8822,20146 L 8769,20152"/>
       <path fill="none" stroke="rgb(0,0,0)" d="M 8735,20155 L 8683,20161"/>
       <path fill="none" stroke="rgb(0,0,0)" d="M 8649,20165 L 8596,20170"/>
       <path fill="none" stroke="rgb(0,0,0)" d="M 8562,20174 L 8509,20180"/>
       <path fill="none" stroke="rgb(0,0,0)" d="M 8475,20183 L 8422,20189"/>
       <path fill="none" stroke="rgb(0,0,0)" d="M 8388,20193 L 8335,20198"/>
       <path fill="none" stroke="rgb(0,0,0)" d="M 8301,20202 L 8249,20207"/>
       <path fill="none" stroke="rgb(0,0,0)" d="M 8215,20211 L 8162,20217"/>
       <path fill="none" stroke="rgb(0,0,0)" d="M 8128,20220 L 8075,20226"/>
       <path fill="none" stroke="rgb(0,0,0)" d="M 8041,20230 L 7988,20235"/>
       <path fill="none" stroke="rgb(0,0,0)" d="M 7954,20239 L 7901,20245"/>
       <path fill="none" stroke="rgb(0,0,0)" d="M 7867,20248 L 7814,20254"/>
       <path fill="none" stroke="rgb(0,0,0)" d="M 7780,20258 L 7728,20263"/>
       <path fill="none" stroke="rgb(0,0,0)" d="M 7694,20267 L 7641,20273"/>
       <path fill="none" stroke="rgb(0,0,0)" d="M 7607,20276 L 7554,20282"/>
       <path fill="none" stroke="rgb(0,0,0)" d="M 7520,20285 L 7467,20291"/>
       <path fill="none" stroke="rgb(0,0,0)" d="M 7433,20295 L 7380,20300"/>
       <path fill="none" stroke="rgb(0,0,0)" d="M 7346,20304 L 7294,20310"/>
       <path fill="none" stroke="rgb(0,0,0)" d="M 7259,20313 L 7207,20319"/>
       <path fill="none" stroke="rgb(0,0,0)" d="M 7173,20323 L 7120,20328"/>
       <path fill="none" stroke="rgb(0,0,0)" d="M 7086,20332 L 7033,20338"/>
       <path fill="none" stroke="rgb(0,0,0)" d="M 6999,20341 L 6946,20347"/>
       <path fill="none" stroke="rgb(0,0,0)" d="M 6912,20351 L 6859,20356"/>
       <path fill="none" stroke="rgb(0,0,0)" d="M 6825,20360 L 6773,20365"/>
       <path fill="none" stroke="rgb(0,0,0)" d="M 6739,20369 L 6686,20375"/>
       <path fill="none" stroke="rgb(0,0,0)" d="M 6652,20378 L 6599,20384"/>
       <path fill="none" stroke="rgb(0,0,0)" d="M 6565,20388 L 6512,20393"/>
       <path fill="none" stroke="rgb(0,0,0)" d="M 6478,20397 L 6425,20403"/>
       <path fill="none" stroke="rgb(0,0,0)" d="M 6391,20406 L 6338,20412"/>
       <path fill="none" stroke="rgb(0,0,0)" d="M 6304,20416 L 6252,20421"/>
       <path fill="none" stroke="rgb(0,0,0)" d="M 6218,20425 L 6165,20431"/>
       <path fill="none" stroke="rgb(0,0,0)" d="M 6131,20434 L 6078,20440"/>
       <path fill="none" stroke="rgb(0,0,0)" d="M 6044,20443 L 6000,20448"/>
       <path fill="rgb(0,0,0)" stroke="none" d="M 5572,20494 L 6035,20595 6003,20297 5572,20494 Z"/>
       <text class="TextShape"><tspan class="TextParagraph" font-family="Arial, sans-serif" font-size="353px" font-weight="400"><tspan class="TextPosition" x="7329" y="20730"><tspan fill="rgb(0,0,0)" stroke="none">thread sync</tspan></tspan></tspan></text>
      </g>
     </g>
     <g class="com.sun.star.drawing.ConnectorShape">
      <g id="id30">
       <path fill="none" stroke="rgb(0,0,0)" d="M 3667,21080 L 3717,22654"/>
       <path fill="rgb(0,0,0)" stroke="none" d="M 3731,23084 L 3867,22629 3567,22639 3731,23084 Z"/>
      </g>
     </g>
     <g class="com.sun.star.drawing.CustomShape">
      <g id="id31">
       <path fill="rgb(255,255,204)" stroke="none" d="M 10652,12175 L 14979,12175 14979,13064 10652,13064 10652,12175 10652,12175 Z M 10652,12175 L 10652,12175 Z M 14979,13065 L 14979,13065 Z"/>
       <path fill="none" stroke="rgb(52,101,175)" d="M 10652,12175 L 14979,12175 14979,13064 10652,13064 10652,12175 10652,12175 Z"/>
       <path fill="none" stroke="rgb(52,101,175)" d="M 10652,12175 L 10652,12175 Z"/>
       <path fill="none" stroke="rgb(52,101,175)" d="M 14979,13065 L 14979,13065 Z"/>
       <text class="TextShape"><tspan class="TextParagraph" font-family="Arial, sans-serif" font-size="353px" font-weight="400"><tspan class="TextPosition" x="10876" y="12544"><tspan fill="rgb(0,0,0)" stroke="none">listen for HTTP requests </tspan></tspan><tspan class="TextPosition" x="12229" y="12942"><tspan fill="rgb(0,0,0)" stroke="none">on </tspan><tspan font-weight="700" fill="rgb(0,0,0)" stroke="none">port</tspan></tspan></tspan></text>
      </g>
     </g>
     <g class="com.sun.star.drawing.ConnectorShape">
      <g id="id32">
       <path fill="none" stroke="rgb(0,0,0)" d="M 12815,13065 L 12812,13877"/>
       <path fill="rgb(0,0,0)" stroke="none" d="M 12811,14307 L 12962,13857 12662,13857 12811,14307 Z"/>
      </g>
     </g>
     <g class="com.sun.star.drawing.ConnectorShape">
      <g id="id33">
       <path fill="none" stroke="rgb(0,0,0)" d="M 3603,12670 L 3645,13764"/>
       <path fill="rgb(0,0,0)" stroke="none" d="M 3662,14194 L 3794,13739 3495,13750 3662,14194 Z"/>
       <text class="TextShape"><tspan class="TextParagraph" font-family="Arial, sans-serif" font-size="353px" font-weight="400"><tspan class="TextPosition" x="2318" y="13555"><tspan fill="rgb(0,0,0)" stroke="none">                           </tspan></tspan></tspan></text>
      </g>
     </g>
     <g class="com.sun.star.drawing.CustomShape">
      <g id="id34">
       <path fill="rgb(204,255,204)" stroke="none" d="M 1546,6764 L 5621,6764 5621,7584 1546,7584 1546,6764 1546,6764 Z M 1546,6764 L 1546,6764 Z M 5621,7585 L 5621,7585 Z"/>
       <path fill="none" stroke="rgb(52,101,175)" d="M 1546,6764 L 5621,6764 5621,7584 1546,7584 1546,6764 1546,6764 Z"/>
       <path fill="none" stroke="rgb(52,101,175)" d="M 1546,6764 L 1546,6764 Z"/>
       <path fill="none" stroke="rgb(52,101,175)" d="M 5621,7585 L 5621,7585 Z"/>
       <text class="TextShape"><tspan class="TextParagraph" font-family="Arial, sans-serif" font-size="353px" font-weight="400"><tspan class="TextPosition" x="2601" y="7297"><tspan fill="rgb(0,0,0)" stroke="none">build war-file</tspan></tspan></tspan></text>
      </g>
     </g>
     <g class="com.sun.star.drawing.ConnectorShape">
      <g id="id35">
       <path fill="none" stroke="rgb(0,0,0)" d="M 3583,7584 L 3572,8406"/>
       <path fill="rgb(0,0,0)" stroke="none" d="M 3567,8836 L 3723,8388 3423,8384 3567,8836 Z"/>
      </g>
     </g>
    </g>
   </g>
  </g>
 </g>
</svg>