<?xml version="1.0" encoding="UTF-8"?>
<!DOCTYPE svg PUBLIC "-//W3C//DTD SVG 1.1//EN" "http://www.w3.org/Graphics/SVG/1.1/DTD/svg11.dtd">
<svg version="1.2" width="210mm" height="297mm" viewBox="0 0 21000 29700" preserveAspectRatio="xMidYMid" fill-rule="evenodd" clip-path="url(#presentation_clip_path)" stroke-width="28.222" stroke-linejoin="round" xmlns="http://www.w3.org/2000/svg" xmlns:ooo="http://xml.openoffice.org/svg/export" xmlns:xlink="http://www.w3.org/1999/xlink" xml:space="preserve">
 <defs class="ClipPathGroup">
  <clipPath id="presentation_clip_path" clipPathUnits="userSpaceOnUse">
   <rect x="0" y="0" width="21000" height="29700"/>
  </clipPath>
 </defs>
 <defs class="TextShapeIndex">
  <g ooo:slide="id1" ooo:id-list="id3 id4 id5 id6 id7 id8 id9 id10 id11 id12 id13 id14 id15 id16 id17 id18 id19 id20 id21 id22 id23 id24 id25 id26 id27 id28 id29 id30 id31 id32"/>
 </defs>
 <defs class="EmbeddedBulletChars">
  <g id="bullet-char-template(57356)" transform="scale(0.00048828125,-0.00048828125)">
   <path d="M 580,1141 L 1163,571 580,0 -4,571 580,1141 Z"/>
  </g>
  <g id="bullet-char-template(57354)" transform="scale(0.00048828125,-0.00048828125)">
   <path d="M 8,1128 L 1137,1128 1137,0 8,0 8,1128 Z"/>
  </g>
  <g id="bullet-char-template(10146)" transform="scale(0.00048828125,-0.00048828125)">
   <path d="M 174,0 L 602,739 174,1481 1456,739 174,0 Z M 1358,739 L 309,1346 659,739 1358,739 Z"/>
  </g>
  <g id="bullet-char-template(10132)" transform="scale(0.00048828125,-0.00048828125)">
   <path d="M 2015,739 L 1276,0 717,0 1260,543 174,543 174,936 1260,936 717,1481 1274,1481 2015,739 Z"/>
  </g>
  <g id="bullet-char-template(10007)" transform="scale(0.00048828125,-0.00048828125)">
   <path d="M 0,-2 C -7,14 -16,27 -25,37 L 356,567 C 262,823 215,952 215,954 215,979 228,992 255,992 264,992 276,990 289,987 310,991 331,999 354,1012 L 381,999 492,748 772,1049 836,1024 860,1049 C 881,1039 901,1025 922,1006 886,937 835,863 770,784 769,783 710,716 594,584 L 774,223 C 774,196 753,168 711,139 L 727,119 C 717,90 699,76 672,76 641,76 570,178 457,381 L 164,-76 C 142,-110 111,-127 72,-127 30,-127 9,-110 8,-76 1,-67 -2,-52 -2,-32 -2,-23 -1,-13 0,-2 Z"/>
  </g>
  <g id="bullet-char-template(10004)" transform="scale(0.00048828125,-0.00048828125)">
   <path d="M 285,-33 C 182,-33 111,30 74,156 52,228 41,333 41,471 41,549 55,616 82,672 116,743 169,778 240,778 293,778 328,747 346,684 L 369,508 C 377,444 397,411 428,410 L 1163,1116 C 1174,1127 1196,1133 1229,1133 1271,1133 1292,1118 1292,1087 L 1292,965 C 1292,929 1282,901 1262,881 L 442,47 C 390,-6 338,-33 285,-33 Z"/>
  </g>
  <g id="bullet-char-template(9679)" transform="scale(0.00048828125,-0.00048828125)">
   <path d="M 813,0 C 632,0 489,54 383,161 276,268 223,411 223,592 223,773 276,916 383,1023 489,1130 632,1184 813,1184 992,1184 1136,1130 1245,1023 1353,916 1407,772 1407,592 1407,412 1353,268 1245,161 1136,54 992,0 813,0 Z"/>
  </g>
  <g id="bullet-char-template(8226)" transform="scale(0.00048828125,-0.00048828125)">
   <path d="M 346,457 C 273,457 209,483 155,535 101,586 74,649 74,723 74,796 101,859 155,911 209,963 273,989 346,989 419,989 480,963 531,910 582,859 608,796 608,723 608,648 583,586 532,535 482,483 420,457 346,457 Z"/>
  </g>
  <g id="bullet-char-template(8211)" transform="scale(0.00048828125,-0.00048828125)">
   <path d="M -4,459 L 1135,459 1135,606 -4,606 -4,459 Z"/>
  </g>
 </defs>
 <defs class="TextEmbeddedBitmaps"/>
 <g>
  <g id="id2" class="Master_Slide">
   <g id="bg-id2" class="Background"/>
   <g id="bo-id2" class="BackgroundObjects"/>
  </g>
 </g>
 <g class="SlideGroup">
  <g>
   <g id="id1" class="Slide" clip-path="url(#presentation_clip_path)">
    <g class="Page">
     <g class="com.sun.star.drawing.CustomShape">
      <g id="id3">
       <path fill="rgb(204,255,204)" stroke="none" d="M 4974,1763 C 4637,1763 4301,1572 4301,1381 4301,1190 4637,1000 4974,1000 L 7819,1000 C 8156,1000 8493,1190 8493,1381 8493,1572 8156,1763 7819,1763 L 4974,1763 Z M 4301,1000 L 4301,1000 Z M 8493,1763 L 8493,1763 Z"/>
       <path fill="none" stroke="rgb(52,101,175)" d="M 4974,1763 C 4637,1763 4301,1572 4301,1381 4301,1190 4637,1000 4974,1000 L 7819,1000 C 8156,1000 8493,1190 8493,1381 8493,1572 8156,1763 7819,1763 L 4974,1763 Z"/>
       <path fill="none" stroke="rgb(52,101,175)" d="M 4301,1000 L 4301,1000 Z"/>
       <path fill="none" stroke="rgb(52,101,175)" d="M 8493,1763 L 8493,1763 Z"/>
       <text class="TextShape"><tspan class="TextParagraph" font-family="Arial, sans-serif" font-size="353px" font-weight="400"><tspan class="TextPosition" x="4707" y="1504"><tspan fill="rgb(0,0,0)" stroke="none">jettyStartDebug starts</tspan></tspan></tspan></text>
      </g>
     </g>
     <g class="com.sun.star.drawing.CustomShape">
      <g id="id4">
       <path fill="rgb(204,255,204)" stroke="none" d="M 4480,3412 L 6399,2650 8319,3412 6399,4174 4480,3412 4480,3412 Z M 4480,2650 L 4480,2650 Z M 8319,4174 L 8319,4174 Z"/>
       <path fill="none" stroke="rgb(52,101,175)" d="M 4480,3412 L 6399,2650 8319,3412 6399,4174 4480,3412 4480,3412 Z"/>
       <path fill="none" stroke="rgb(52,101,175)" d="M 4480,2650 L 4480,2650 Z"/>
       <path fill="none" stroke="rgb(52,101,175)" d="M 8319,4174 L 8319,4174 Z"/>
       <text class="TextShape"><tspan class="TextParagraph" font-family="Arial, sans-serif" font-size="353px" font-weight="400"><tspan class="TextPosition" x="5781" y="3336"><tspan fill="rgb(0,0,0)" stroke="none">sources</tspan></tspan><tspan class="TextPosition" x="5501" y="3734"><tspan fill="rgb(0,0,0)" stroke="none">up-to-date?</tspan></tspan></tspan></text>
      </g>
     </g>
     <g class="com.sun.star.drawing.ConnectorShape">
      <g id="id5">
       <path fill="none" stroke="rgb(0,0,0)" d="M 6398,1762 L 6399,2221"/>
       <path fill="rgb(0,0,0)" stroke="none" d="M 6399,2651 L 6548,2201 6248,2201 6399,2651 Z"/>
      </g>
     </g>
     <g class="com.sun.star.drawing.CustomShape">
      <g id="id6">
       <path fill="rgb(204,255,204)" stroke="none" d="M 8535,4244 L 11796,4244 11796,5064 8535,5064 8535,4244 8535,4244 Z M 8535,4244 L 8535,4244 Z M 11796,5065 L 11796,5065 Z"/>
       <path fill="none" stroke="rgb(52,101,175)" d="M 8535,4244 L 11796,4244 11796,5064 8535,5064 8535,4244 8535,4244 Z"/>
       <path fill="none" stroke="rgb(52,101,175)" d="M 8535,4244 L 8535,4244 Z"/>
       <path fill="none" stroke="rgb(52,101,175)" d="M 11796,5065 L 11796,5065 Z"/>
       <text class="TextShape"><tspan class="TextParagraph" font-family="Arial, sans-serif" font-size="353px" font-weight="400"><tspan class="TextPosition" x="9562" y="4777"><tspan fill="rgb(0,0,0)" stroke="none">compile</tspan></tspan></tspan></text>
      </g>
     </g>
     <g class="com.sun.star.drawing.ConnectorShape">
      <g id="id7">
       <path fill="none" stroke="rgb(0,0,0)" d="M 8318,3413 L 10165,3413 10165,3814"/>
       <path fill="rgb(0,0,0)" stroke="none" d="M 10165,4244 L 10315,3794 10015,3794 10165,4244 Z"/>
       <text class="TextShape"><tspan class="TextParagraph" font-family="Arial, sans-serif" font-size="353px" font-weight="400"><tspan class="TextPosition" x="9047" y="3753"><tspan fill="rgb(0,0,0)" stroke="none">no</tspan></tspan></tspan></text>
      </g>
     </g>
     <g class="com.sun.star.drawing.ConnectorShape">
      <g id="id8">
       <path fill="none" stroke="rgb(0,0,0)" d="M 6399,4174 L 6369,5904"/>
       <path fill="rgb(0,0,0)" stroke="none" d="M 6361,6334 L 6519,5887 6219,5881 6361,6334 Z"/>
       <text class="TextShape"><tspan class="TextParagraph" font-family="Arial, sans-serif" font-size="353px" font-weight="400"><tspan class="TextPosition" x="5715" y="4780"><tspan fill="rgb(0,0,0)" stroke="none">yes        </tspan></tspan></tspan></text>
      </g>
     </g>
     <g class="com.sun.star.drawing.ConnectorShape">
      <g id="id9">
       <path fill="none" stroke="rgb(0,0,0)" d="M 10165,5064 L 10165,5700 6361,5700 6361,5904"/>
       <path fill="rgb(0,0,0)" stroke="none" d="M 6361,6334 L 6511,5884 6211,5884 6361,6334 Z"/>
      </g>
     </g>
     <g class="com.sun.star.drawing.CustomShape">
      <g id="id10">
       <path fill="rgb(204,255,204)" stroke="none" d="M 3973,6334 L 8747,6334 8747,7389 3973,7389 3973,6334 3973,6334 Z M 3973,6334 L 3973,6334 Z M 8747,7389 L 8747,7389 Z"/>
       <path fill="none" stroke="rgb(52,101,175)" d="M 3973,6334 L 8747,6334 8747,7389 3973,7389 3973,6334 3973,6334 Z"/>
       <path fill="none" stroke="rgb(52,101,175)" d="M 3973,6334 L 3973,6334 Z"/>
       <path fill="none" stroke="rgb(52,101,175)" d="M 8747,7389 L 8747,7389 Z"/>
       <text class="TextShape"><tspan class="TextParagraph" font-family="Arial, sans-serif" font-size="353px" font-weight="400"><tspan class="TextPosition" x="4880" y="6785"><tspan fill="rgb(0,0,0)" stroke="none">start Jetty process </tspan></tspan><tspan class="TextPosition" x="4408" y="7183"><tspan fill="rgb(0,0,0)" stroke="none">against compiled classes</tspan></tspan></tspan></text>
      </g>
     </g>
     <g class="com.sun.star.drawing.ConnectorShape">
      <g id="id11">
       <path fill="none" stroke="rgb(0,0,0)" d="M 6361,7388 C 6361,7404 6364,7420 6371,7436"/>
       <path fill="none" stroke="rgb(0,0,0)" d="M 6388,7466 C 6399,7481 6413,7495 6430,7510"/>
       <path fill="none" stroke="rgb(0,0,0)" d="M 6452,7526 C 6464,7535 6477,7543 6492,7552"/>
       <path fill="none" stroke="rgb(0,0,0)" d="M 6521,7568 C 6537,7576 6555,7584 6573,7592"/>
       <path fill="none" stroke="rgb(0,0,0)" d="M 6610,7607 C 6626,7613 6642,7619 6659,7625"/>
       <path fill="none" stroke="rgb(0,0,0)" d="M 6687,7635 C 6702,7640 6718,7645 6734,7650"/>
       <path fill="none" stroke="rgb(0,0,0)" d="M 6766,7659 C 6782,7664 6799,7668 6817,7673"/>
       <path fill="none" stroke="rgb(0,0,0)" d="M 6852,7682 C 6870,7687 6889,7691 6909,7696"/>
       <path fill="none" stroke="rgb(0,0,0)" d="M 6947,7704 C 6964,7708 6981,7712 6998,7715"/>
       <path fill="none" stroke="rgb(0,0,0)" d="M 7028,7722 C 7044,7725 7060,7728 7076,7731"/>
       <path fill="none" stroke="rgb(0,0,0)" d="M 7107,7737 C 7124,7740 7141,7743 7158,7746"/>
       <path fill="none" stroke="rgb(0,0,0)" d="M 7191,7752 C 7209,7755 7226,7758 7244,7761"/>
       <path fill="none" stroke="rgb(0,0,0)" d="M 7280,7766 C 7298,7769 7317,7772 7336,7775"/>
       <path fill="none" stroke="rgb(0,0,0)" d="M 7372,7781 C 7392,7783 7411,7786 7431,7789"/>
       <path fill="none" stroke="rgb(0,0,0)" d="M 7464,7794 C 7480,7796 7496,7798 7512,7800"/>
       <path fill="none" stroke="rgb(0,0,0)" d="M 7543,7804 C 7560,7806 7576,7808 7593,7810"/>
       <path fill="none" stroke="rgb(0,0,0)" d="M 7625,7814 C 7642,7816 7659,7818 7677,7820"/>
       <path fill="none" stroke="rgb(0,0,0)" d="M 7710,7824 C 7728,7826 7745,7828 7763,7830"/>
       <path fill="none" stroke="rgb(0,0,0)" d="M 7798,7834 C 7816,7836 7834,7838 7852,7840"/>
       <path fill="none" stroke="rgb(0,0,0)" d="M 7888,7843 C 7906,7845 7925,7847 7944,7849"/>
       <path fill="none" stroke="rgb(0,0,0)" d="M 7981,7853 C 8000,7854 8019,7856 8038,7858"/>
       <path fill="none" stroke="rgb(0,0,0)" d="M 8072,7861 C 8088,7863 8105,7864 8121,7865"/>
       <path fill="none" stroke="rgb(0,0,0)" d="M 8153,7868 C 8169,7870 8186,7871 8203,7873"/>
       <path fill="none" stroke="rgb(0,0,0)" d="M 8235,7875 C 8252,7877 8269,7878 8286,7879"/>
       <path fill="none" stroke="rgb(0,0,0)" d="M 8319,7882 C 8337,7883 8354,7885 8371,7886"/>
       <path fill="none" stroke="rgb(0,0,0)" d="M 8405,7889 C 8423,7890 8441,7891 8459,7893"/>
       <path fill="none" stroke="rgb(0,0,0)" d="M 8493,7895 C 8511,7897 8529,7898 8548,7899"/>
       <path fill="none" stroke="rgb(0,0,0)" d="M 8583,7902 C 8601,7903 8620,7904 8639,7905"/>
       <path fill="none" stroke="rgb(0,0,0)" d="M 8675,7908 C 8693,7909 8712,7910 8731,7911"/>
       <path fill="none" stroke="rgb(0,0,0)" d="M 8768,7914 C 8786,7915 8804,7916 8822,7917"/>
       <path fill="none" stroke="rgb(0,0,0)" d="M 8854,7919 C 8870,7920 8887,7921 8903,7922"/>
       <path fill="none" stroke="rgb(0,0,0)" d="M 8936,7924 C 8952,7925 8969,7926 8986,7927"/>
       <path fill="none" stroke="rgb(0,0,0)" d="M 9019,7929 C 9036,7930 9053,7930 9070,7931"/>
       <path fill="none" stroke="rgb(0,0,0)" d="M 9104,7933 C 9121,7934 9138,7935 9156,7936"/>
       <path fill="none" stroke="rgb(0,0,0)" d="M 9190,7938 C 9207,7939 9225,7939 9243,7940"/>
       <path fill="none" stroke="rgb(0,0,0)" d="M 9277,7942 C 9295,7943 9313,7944 9331,7945"/>
       <path fill="none" stroke="rgb(0,0,0)" d="M 9366,7946 C 9384,7947 9402,7948 9420,7949"/>
       <path fill="none" stroke="rgb(0,0,0)" d="M 9456,7950 C 9474,7951 9493,7952 9511,7953"/>
       <path fill="none" stroke="rgb(0,0,0)" d="M 9547,7954 C 9566,7955 9585,7956 9603,7957"/>
       <path fill="none" stroke="rgb(0,0,0)" d="M 9640,7958 C 9658,7959 9676,7960 9695,7961"/>
       <path fill="none" stroke="rgb(0,0,0)" d="M 9727,7962 C 9743,7962 9760,7963 9777,7964"/>
       <path fill="none" stroke="rgb(0,0,0)" d="M 9809,7965 C 9826,7966 9843,7966 9860,7967"/>
       <path fill="none" stroke="rgb(0,0,0)" d="M 9893,7968 C 9910,7969 9927,7969 9944,7970"/>
       <path fill="none" stroke="rgb(0,0,0)" d="M 9977,7971 C 9995,7972 10012,7972 10029,7973"/>
       <path fill="none" stroke="rgb(0,0,0)" d="M 10063,7974 C 10080,7975 10098,7975 10115,7976"/>
       <path fill="none" stroke="rgb(0,0,0)" d="M 10149,7977 C 10167,7977 10185,7978 10202,7979"/>
       <path fill="none" stroke="rgb(0,0,0)" d="M 10237,7980 C 10255,7980 10273,7981 10291,7981"/>
       <path fill="none" stroke="rgb(0,0,0)" d="M 10325,7982 C 10343,7983 10362,7983 10380,7984"/>
       <path fill="none" stroke="rgb(0,0,0)" d="M 10415,7985 C 10433,7985 10452,7986 10470,7986"/>
       <path fill="none" stroke="rgb(0,0,0)" d="M 10505,7987 C 10524,7988 10542,7988 10561,7989"/>
       <path fill="none" stroke="rgb(0,0,0)" d="M 10597,7990 C 10616,7990 10634,7991 10653,7991"/>
       <path fill="none" stroke="rgb(0,0,0)" d="M 10690,7992 C 10706,7993 10723,7993 10740,7993"/>
       <path fill="none" stroke="rgb(0,0,0)" d="M 10773,7994 C 10790,7995 10806,7995 10823,7995"/>
       <path fill="none" stroke="rgb(0,0,0)" d="M 10856,7996 C 10873,7996 10890,7997 10907,7997"/>
       <path fill="none" stroke="rgb(0,0,0)" d="M 10940,7998 C 10957,7998 10974,7999 10992,7999"/>
       <path fill="none" stroke="rgb(0,0,0)" d="M 11025,8000 C 11042,8000 11060,8000 11077,8001"/>
       <path fill="none" stroke="rgb(0,0,0)" d="M 11111,8001 C 11128,8002 11146,8002 11163,8002"/>
       <path fill="none" stroke="rgb(0,0,0)" d="M 11197,8003 C 11215,8003 11232,8004 11250,8004"/>
       <path fill="none" stroke="rgb(0,0,0)" d="M 11284,8005 C 11302,8005 11320,8005 11338,8006"/>
       <path fill="none" stroke="rgb(0,0,0)" d="M 11372,8006 C 11390,8006 11408,8007 11426,8007"/>
       <path fill="none" stroke="rgb(0,0,0)" d="M 11461,8008 C 11479,8008 11497,8008 11515,8008"/>
       <path fill="none" stroke="rgb(0,0,0)" d="M 11550,8009 C 11569,8009 11587,8009 11605,8010"/>
       <path fill="none" stroke="rgb(0,0,0)" d="M 11641,8010 C 11659,8011 11677,8011 11696,8011"/>
       <path fill="none" stroke="rgb(0,0,0)" d="M 11732,8012 C 11750,8012 11769,8012 11787,8012"/>
       <path fill="none" stroke="rgb(0,0,0)" d="M 11824,8013 C 11841,8013 11859,8013 11876,8013"/>
       <path fill="none" stroke="rgb(0,0,0)" d="M 11909,8014 C 11926,8014 11943,8014 11960,8014"/>
       <path fill="none" stroke="rgb(0,0,0)" d="M 11992,8015 C 12009,8015 12026,8015 12044,8015"/>
       <path fill="none" stroke="rgb(0,0,0)" d="M 12077,8016 C 12094,8016 12111,8016 12128,8016"/>
       <path fill="none" stroke="rgb(0,0,0)" d="M 12161,8016 C 12179,8017 12196,8017 12213,8017"/>
       <path fill="none" stroke="rgb(0,0,0)" d="M 12247,8017 C 12264,8017 12281,8018 12299,8018"/>
       <path fill="none" stroke="rgb(0,0,0)" d="M 12333,8018 C 12350,8018 12368,8018 12385,8018"/>
       <path fill="none" stroke="rgb(0,0,0)" d="M 12419,8019 C 12437,8019 12455,8019 12472,8019"/>
       <path fill="none" stroke="rgb(0,0,0)" d="M 12507,8019 C 12524,8019 12542,8020 12560,8020"/>
       <path fill="none" stroke="rgb(0,0,0)" d="M 12594,8020 C 12612,8020 12630,8020 12648,8020"/>
       <path fill="none" stroke="rgb(0,0,0)" d="M 12683,8020 C 12701,8021 12719,8021 12737,8021"/>
       <path fill="none" stroke="rgb(0,0,0)" d="M 12772,8021 C 12790,8021 12808,8021 12826,8021"/>
       <path fill="none" stroke="rgb(0,0,0)" d="M 12862,8021 C 12880,8021 12898,8022 12917,8022"/>
       <path fill="none" stroke="rgb(0,0,0)" d="M 12952,8022 C 12970,8022 12989,8022 13007,8022"/>
       <path fill="none" stroke="rgb(0,0,0)" d="M 13043,8022 C 13062,8022 13080,8022 13099,8022"/>
       <path fill="rgb(0,0,0)" stroke="none" d="M 13573,8023 L 13123,7872 13123,8172 13573,8023 Z"/>
       <text class="TextShape"><tspan class="TextParagraph" font-family="Arial, sans-serif" font-size="353px" font-weight="400"><tspan class="TextPosition" x="11013" y="7829"><tspan fill="rgb(0,0,0)" stroke="none">start process   </tspan></tspan></tspan></text>
      </g>
     </g>
     <g class="com.sun.star.drawing.CustomShape">
      <g id="id12">
       <path fill="rgb(255,255,204)" stroke="none" d="M 13573,13544 L 17638,13544 17638,14716 13573,14716 13573,13544 13573,13544 Z M 13573,13544 L 13573,13544 Z M 17638,14716 L 17638,14716 Z"/>
       <path fill="none" stroke="rgb(52,101,175)" d="M 13573,13544 L 17638,13544 17638,14716 13573,14716 13573,13544 13573,13544 Z"/>
       <path fill="none" stroke="rgb(52,101,175)" d="M 13573,13544 L 13573,13544 Z"/>
       <path fill="none" stroke="rgb(52,101,175)" d="M 17638,14716 L 17638,14716 Z"/>
       <text class="TextShape"><tspan class="TextParagraph" font-family="Arial, sans-serif" font-size="353px" font-weight="400"><tspan class="TextPosition" x="13965" y="14054"><tspan fill="rgb(0,0,0)" stroke="none">send “started” signal </tspan></tspan></tspan><tspan class="TextParagraph" font-family="Arial, sans-serif" font-size="353px" font-weight="400"><tspan class="TextPosition" x="14541" y="14452"><tspan fill="rgb(0,0,0)" stroke="none">to </tspan><tspan font-weight="700" fill="rgb(0,0,0)" stroke="none">statusPort</tspan></tspan></tspan></text>
      </g>
     </g>
     <g class="com.sun.star.drawing.ConnectorShape">
      <g id="id13">
       <path fill="none" stroke="rgb(0,0,0)" d="M 6361,7388 L 6388,8567"/>
       <path fill="rgb(0,0,0)" stroke="none" d="M 6398,8997 L 6538,8544 6238,8551 6398,8997 Z"/>
      </g>
     </g>
     <g class="com.sun.star.drawing.CustomShape">
      <g id="id14">
       <path fill="rgb(204,255,204)" stroke="none" d="M 4428,8996 L 8366,8996 8366,10168 4428,10168 4428,8996 4428,8996 Z M 4428,8996 L 4428,8996 Z M 8366,10168 L 8366,10168 Z"/>
       <path fill="none" stroke="rgb(52,101,175)" d="M 4428,8996 L 8366,8996 8366,10168 4428,10168 4428,8996 4428,8996 Z"/>
       <path fill="none" stroke="rgb(52,101,175)" d="M 4428,8996 L 4428,8996 Z"/>
       <path fill="none" stroke="rgb(52,101,175)" d="M 8366,10168 L 8366,10168 Z"/>
       <text class="TextShape"><tspan class="TextParagraph" font-family="Arial, sans-serif" font-size="353px" font-weight="400"><tspan class="TextPosition" x="4572" y="9506"><tspan fill="rgb(0,0,0)" stroke="none">wait for “started” signal </tspan></tspan><tspan class="TextPosition" x="5283" y="9904"><tspan fill="rgb(0,0,0)" stroke="none">on </tspan><tspan font-weight="700" fill="rgb(0,0,0)" stroke="none">statusPort</tspan></tspan></tspan></text>
      </g>
     </g>
     <g class="com.sun.star.drawing.CustomShape">
      <g id="id15">
       <path fill="rgb(255,255,204)" stroke="none" d="M 14226,8405 C 13899,8405 13573,8214 13573,8023 13573,7832 13899,7642 14226,7642 L 16984,7642 C 17311,7642 17638,7832 17638,8023 17638,8214 17311,8405 16984,8405 L 14226,8405 Z M 13573,7642 L 13573,7642 Z M 17638,8405 L 17638,8405 Z"/>
       <path fill="none" stroke="rgb(52,101,175)" d="M 14226,8405 C 13899,8405 13573,8214 13573,8023 13573,7832 13899,7642 14226,7642 L 16984,7642 C 17311,7642 17638,7832 17638,8023 17638,8214 17311,8405 16984,8405 L 14226,8405 Z"/>
       <path fill="none" stroke="rgb(52,101,175)" d="M 13573,7642 L 13573,7642 Z"/>
       <path fill="none" stroke="rgb(52,101,175)" d="M 17638,8405 L 17638,8405 Z"/>
       <text class="TextShape"><tspan class="TextParagraph" font-family="Arial, sans-serif" font-size="353px" font-weight="400"><tspan class="TextPosition" x="14085" y="8146"><tspan fill="rgb(0,0,0)" stroke="none">Jetty process starts</tspan></tspan></tspan></text>
      </g>
     </g>
     <g class="com.sun.star.drawing.ConnectorShape">
      <g id="id16">
       <path fill="none" stroke="rgb(0,0,0)" d="M 15589,10505 L 15601,11111"/>
       <path fill="rgb(0,0,0)" stroke="none" d="M 15609,11541 L 15750,11088 15450,11094 15609,11541 Z"/>
      </g>
     </g>
     <g class="com.sun.star.drawing.CustomShape">
      <g id="id17">
       <path fill="rgb(255,255,204)" stroke="none" d="M 13192,15731 L 18019,15731 18019,17129 13192,17129 13192,15731 13192,15731 Z M 13192,15731 L 13192,15731 Z M 18019,17129 L 18019,17129 Z"/>
       <path fill="none" stroke="rgb(52,101,175)" d="M 13192,15731 L 18019,15731 18019,17129 13192,17129 13192,15731 13192,15731 Z"/>
       <path fill="none" stroke="rgb(52,101,175)" d="M 13192,15731 L 13192,15731 Z"/>
       <path fill="none" stroke="rgb(52,101,175)" d="M 18019,17129 L 18019,17129 Z"/>
       <text class="TextShape"><tspan class="TextParagraph" font-family="Arial, sans-serif" font-size="353px" font-weight="400"><tspan class="TextPosition" x="14672" y="16155"><tspan fill="rgb(0,0,0)" stroke="none">In wait loop.</tspan></tspan><tspan class="TextPosition" x="13889" y="16553"><tspan fill="rgb(0,0,0)" stroke="none">listen for “stop” signal </tspan></tspan><tspan class="TextPosition" x="14407" y="16951"><tspan fill="rgb(0,0,0)" stroke="none">on </tspan><tspan font-weight="700" fill="rgb(0,0,0)" stroke="none">servicePort</tspan></tspan></tspan></text>
      </g>
     </g>
     <g class="com.sun.star.drawing.ConnectorShape">
      <g id="id18">
       <path fill="none" stroke="rgb(0,0,0)" d="M 15605,14716 L 15605,15302"/>
       <path fill="rgb(0,0,0)" stroke="none" d="M 15605,15732 L 15755,15282 15455,15282 15605,15732 Z"/>
      </g>
     </g>
     <g class="com.sun.star.drawing.CustomShape">
      <g id="id19">
       <path fill="rgb(204,255,204)" stroke="none" d="M 4651,21716 C 4222,21716 3794,21394 3794,21073 3794,20752 4222,20431 4651,20431 L 8271,20431 C 8700,20431 9129,20752 9129,21073 9129,21394 8700,21716 8271,21716 L 4651,21716 Z M 3794,20431 L 3794,20431 Z M 9129,21716 L 9129,21716 Z"/>
       <path fill="none" stroke="rgb(52,101,175)" d="M 4651,21716 C 4222,21716 3794,21394 3794,21073 3794,20752 4222,20431 4651,20431 L 8271,20431 C 8700,20431 9129,20752 9129,21073 9129,21394 8700,21716 8271,21716 L 4651,21716 Z"/>
       <path fill="none" stroke="rgb(52,101,175)" d="M 3794,20431 L 3794,20431 Z"/>
       <path fill="none" stroke="rgb(52,101,175)" d="M 9129,21716 L 9129,21716 Z"/>
       <text class="TextShape"><tspan class="TextParagraph" font-family="Arial, sans-serif" font-size="353px" font-weight="400"><tspan class="TextPosition" x="4552" y="20798"><tspan fill="rgb(0,0,0)" stroke="none">jettyStartDebug finished.</tspan></tspan><tspan class="TextPosition" x="5113" y="21196"><tspan fill="rgb(0,0,0)" stroke="none">Gradle proceeds </tspan></tspan><tspan class="TextPosition" x="5240" y="21594"><tspan fill="rgb(0,0,0)" stroke="none">with other tasks</tspan></tspan></tspan></text>
      </g>
     </g>
     <g class="com.sun.star.drawing.ConnectorShape">
      <g id="id20">
       <path fill="none" stroke="rgb(0,0,0)" d="M 13573,14130 L 13533,14095"/>
       <path fill="none" stroke="rgb(0,0,0)" d="M 13507,14073 L 13467,14038"/>
       <path fill="none" stroke="rgb(0,0,0)" d="M 13441,14015 L 13401,13980"/>
       <path fill="none" stroke="rgb(0,0,0)" d="M 13376,13958 L 13336,13923"/>
       <path fill="none" stroke="rgb(0,0,0)" d="M 13310,13900 L 13270,13865"/>
       <path fill="none" stroke="rgb(0,0,0)" d="M 13244,13843 L 13204,13808"/>
       <path fill="none" stroke="rgb(0,0,0)" d="M 13178,13785 L 13138,13750"/>
       <path fill="none" stroke="rgb(0,0,0)" d="M 13113,13728 L 13073,13693"/>
       <path fill="none" stroke="rgb(0,0,0)" d="M 13047,13671 L 13007,13636"/>
       <path fill="none" stroke="rgb(0,0,0)" d="M 12981,13613 L 12941,13578"/>
       <path fill="none" stroke="rgb(0,0,0)" d="M 12915,13556 L 12875,13521"/>
       <path fill="none" stroke="rgb(0,0,0)" d="M 12850,13498 L 12810,13463"/>
       <path fill="none" stroke="rgb(0,0,0)" d="M 12784,13441 L 12744,13406"/>
       <path fill="none" stroke="rgb(0,0,0)" d="M 12718,13383 L 12678,13348"/>
       <path fill="none" stroke="rgb(0,0,0)" d="M 12652,13326 L 12612,13291"/>
       <path fill="none" stroke="rgb(0,0,0)" d="M 12586,13268 L 12546,13234"/>
       <path fill="none" stroke="rgb(0,0,0)" d="M 12521,13211 L 12481,13176"/>
       <path fill="none" stroke="rgb(0,0,0)" d="M 12455,13154 L 12415,13119"/>
       <path fill="none" stroke="rgb(0,0,0)" d="M 12389,13096 L 12349,13061"/>
       <path fill="none" stroke="rgb(0,0,0)" d="M 12323,13039 L 12283,13004"/>
       <path fill="none" stroke="rgb(0,0,0)" d="M 12258,12981 L 12218,12946"/>
       <path fill="none" stroke="rgb(0,0,0)" d="M 12192,12924 L 12152,12889"/>
       <path fill="none" stroke="rgb(0,0,0)" d="M 12126,12866 L 12086,12832"/>
       <path fill="none" stroke="rgb(0,0,0)" d="M 12060,12809 L 12020,12774"/>
       <path fill="none" stroke="rgb(0,0,0)" d="M 11995,12752 L 11955,12717"/>
       <path fill="none" stroke="rgb(0,0,0)" d="M 11929,12694 L 11889,12659"/>
       <path fill="none" stroke="rgb(0,0,0)" d="M 11863,12637 L 11823,12602"/>
       <path fill="none" stroke="rgb(0,0,0)" d="M 11797,12579 L 11757,12544"/>
       <path fill="none" stroke="rgb(0,0,0)" d="M 11731,12522 L 11691,12487"/>
       <path fill="none" stroke="rgb(0,0,0)" d="M 11666,12464 L 11626,12429"/>
       <path fill="none" stroke="rgb(0,0,0)" d="M 11600,12407 L 11560,12372"/>
       <path fill="none" stroke="rgb(0,0,0)" d="M 11534,12350 L 11494,12315"/>
       <path fill="none" stroke="rgb(0,0,0)" d="M 11468,12292 L 11428,12257"/>
       <path fill="none" stroke="rgb(0,0,0)" d="M 11403,12235 L 11363,12200"/>
       <path fill="none" stroke="rgb(0,0,0)" d="M 11337,12177 L 11297,12142"/>
       <path fill="none" stroke="rgb(0,0,0)" d="M 11271,12120 L 11231,12085"/>
       <path fill="none" stroke="rgb(0,0,0)" d="M 11205,12062 L 11165,12027"/>
       <path fill="none" stroke="rgb(0,0,0)" d="M 11139,12005 L 11099,11970"/>
       <path fill="none" stroke="rgb(0,0,0)" d="M 11074,11948 L 11034,11913"/>
       <path fill="none" stroke="rgb(0,0,0)" d="M 11008,11890 L 10968,11855"/>
       <path fill="none" stroke="rgb(0,0,0)" d="M 10942,11833 L 10902,11798"/>
       <path fill="none" stroke="rgb(0,0,0)" d="M 10876,11775 L 10836,11740"/>
       <path fill="none" stroke="rgb(0,0,0)" d="M 10811,11718 L 10771,11683"/>
       <path fill="none" stroke="rgb(0,0,0)" d="M 10745,11660 L 10705,11625"/>
       <path fill="none" stroke="rgb(0,0,0)" d="M 10679,11603 L 10639,11568"/>
       <path fill="none" stroke="rgb(0,0,0)" d="M 10613,11545 L 10573,11511"/>
       <path fill="none" stroke="rgb(0,0,0)" d="M 10548,11488 L 10508,11453"/>
       <path fill="none" stroke="rgb(0,0,0)" d="M 10482,11431 L 10442,11396"/>
       <path fill="none" stroke="rgb(0,0,0)" d="M 10416,11373 L 10376,11338"/>
       <path fill="none" stroke="rgb(0,0,0)" d="M 10350,11316 L 10310,11281"/>
       <path fill="none" stroke="rgb(0,0,0)" d="M 10284,11258 L 10244,11223"/>
       <path fill="none" stroke="rgb(0,0,0)" d="M 10219,11201 L 10179,11166"/>
       <path fill="none" stroke="rgb(0,0,0)" d="M 10153,11143 L 10113,11109"/>
       <path fill="none" stroke="rgb(0,0,0)" d="M 10087,11086 L 10047,11051"/>
       <path fill="none" stroke="rgb(0,0,0)" d="M 10021,11029 L 9981,10994"/>
       <path fill="none" stroke="rgb(0,0,0)" d="M 9956,10971 L 9916,10936"/>
       <path fill="none" stroke="rgb(0,0,0)" d="M 9890,10914 L 9850,10879"/>
       <path fill="none" stroke="rgb(0,0,0)" d="M 9824,10856 L 9784,10821"/>
       <path fill="none" stroke="rgb(0,0,0)" d="M 9758,10799 L 9718,10764"/>
       <path fill="none" stroke="rgb(0,0,0)" d="M 9693,10741 L 9653,10706"/>
       <path fill="none" stroke="rgb(0,0,0)" d="M 9627,10684 L 9587,10649"/>
       <path fill="none" stroke="rgb(0,0,0)" d="M 9561,10627 L 9521,10592"/>
       <path fill="none" stroke="rgb(0,0,0)" d="M 9495,10569 L 9455,10534"/>
       <path fill="none" stroke="rgb(0,0,0)" d="M 9429,10512 L 9389,10477"/>
       <path fill="none" stroke="rgb(0,0,0)" d="M 9364,10454 L 9324,10419"/>
       <path fill="none" stroke="rgb(0,0,0)" d="M 9298,10397 L 9258,10362"/>
       <path fill="none" stroke="rgb(0,0,0)" d="M 9232,10339 L 9192,10304"/>
       <path fill="none" stroke="rgb(0,0,0)" d="M 9166,10282 L 9126,10247"/>
       <path fill="none" stroke="rgb(0,0,0)" d="M 9101,10224 L 9061,10190"/>
       <path fill="none" stroke="rgb(0,0,0)" d="M 9035,10167 L 8995,10132"/>
       <path fill="none" stroke="rgb(0,0,0)" d="M 8969,10110 L 8929,10075"/>
       <path fill="none" stroke="rgb(0,0,0)" d="M 8903,10052 L 8863,10017"/>
       <path fill="none" stroke="rgb(0,0,0)" d="M 8838,9995 L 8798,9960"/>
       <path fill="none" stroke="rgb(0,0,0)" d="M 8772,9937 L 8732,9902"/>
       <path fill="none" stroke="rgb(0,0,0)" d="M 8706,9880 L 8690,9866"/>
       <path fill="rgb(0,0,0)" stroke="none" d="M 8366,9583 L 8606,9992 8804,9766 8366,9583 Z"/>
       <text class="TextShape"><tspan class="TextParagraph" font-family="Arial, sans-serif" font-size="353px" font-weight="400"><tspan class="TextPosition" x="10735" y="12179"><tspan fill="rgb(0,0,0)" stroke="none">tcp</tspan></tspan></tspan></text>
      </g>
     </g>
     <g class="com.sun.star.drawing.CustomShape">
      <g id="id21">
       <path fill="rgb(255,255,204)" stroke="none" d="M 14312,19044 C 14006,19044 13700,18853 13700,18662 13700,18471 14006,18281 14312,18281 L 16898,18281 C 17204,18281 17511,18471 17511,18662 17511,18853 17204,19044 16898,19044 L 14312,19044 Z M 13700,18281 L 13700,18281 Z M 17511,19044 L 17511,19044 Z"/>
       <path fill="none" stroke="rgb(52,101,175)" d="M 14312,19044 C 14006,19044 13700,18853 13700,18662 13700,18471 14006,18281 14312,18281 L 16898,18281 C 17204,18281 17511,18471 17511,18662 17511,18853 17204,19044 16898,19044 L 14312,19044 Z"/>
       <path fill="none" stroke="rgb(52,101,175)" d="M 13700,18281 L 13700,18281 Z"/>
       <path fill="none" stroke="rgb(52,101,175)" d="M 17511,19044 L 17511,19044 Z"/>
       <text class="TextShape"><tspan class="TextParagraph" font-family="Arial, sans-serif" font-size="353px" font-weight="400"><tspan class="TextPosition" x="13914" y="18785"><tspan fill="rgb(0,0,0)" stroke="none">Jetty process finished</tspan></tspan></tspan></text>
      </g>
     </g>
     <g class="com.sun.star.drawing.ConnectorShape">
      <g id="id22">
       <path fill="none" stroke="rgb(0,0,0)" d="M 15605,17129 L 15605,17851"/>
       <path fill="rgb(0,0,0)" stroke="none" d="M 15605,18281 L 15755,17831 15455,17831 15605,18281 Z"/>
      </g>
     </g>
     <g class="com.sun.star.drawing.CustomShape">
      <g id="id23">
       <path fill="rgb(204,255,204)" stroke="none" d="M 4556,17406 L 8367,17406 8367,18578 4556,18578 4556,17406 4556,17406 Z M 4556,17406 L 4556,17406 Z M 8367,18578 L 8367,18578 Z"/>
       <path fill="none" stroke="rgb(52,101,175)" d="M 4556,17406 L 8367,17406 8367,18578 4556,18578 4556,17406 4556,17406 Z"/>
       <path fill="none" stroke="rgb(52,101,175)" d="M 4556,17406 L 4556,17406 Z"/>
       <path fill="none" stroke="rgb(52,101,175)" d="M 8367,18578 L 8367,18578 Z"/>
       <text class="TextShape"><tspan class="TextParagraph" font-family="Arial, sans-serif" font-size="353px" font-weight="400"><tspan class="TextPosition" x="4808" y="17916"><tspan fill="rgb(0,0,0)" stroke="none">wait for Jetty process</tspan></tspan></tspan><tspan class="TextParagraph" font-family="Arial, sans-serif" font-size="353px" font-weight="400"><tspan class="TextPosition" x="5858" y="18314"><tspan fill="rgb(0,0,0)" stroke="none">to finish</tspan></tspan></tspan></text>
      </g>
     </g>
     <g class="com.sun.star.drawing.ConnectorShape">
      <g id="id24">
       <path fill="none" stroke="rgb(0,0,0)" d="M 13700,18662 L 13647,18655"/>
       <path fill="none" stroke="rgb(0,0,0)" d="M 13613,18651 L 13561,18645"/>
       <path fill="none" stroke="rgb(0,0,0)" d="M 13527,18640 L 13474,18634"/>
       <path fill="none" stroke="rgb(0,0,0)" d="M 13440,18629 L 13387,18623"/>
       <path fill="none" stroke="rgb(0,0,0)" d="M 13353,18618 L 13301,18612"/>
       <path fill="none" stroke="rgb(0,0,0)" d="M 13267,18608 L 13214,18601"/>
       <path fill="none" stroke="rgb(0,0,0)" d="M 13180,18597 L 13127,18590"/>
       <path fill="none" stroke="rgb(0,0,0)" d="M 13094,18586 L 13041,18579"/>
       <path fill="none" stroke="rgb(0,0,0)" d="M 13007,18575 L 12954,18568"/>
       <path fill="none" stroke="rgb(0,0,0)" d="M 12920,18564 L 12868,18557"/>
       <path fill="none" stroke="rgb(0,0,0)" d="M 12834,18553 L 12781,18547"/>
       <path fill="none" stroke="rgb(0,0,0)" d="M 12747,18542 L 12694,18536"/>
       <path fill="none" stroke="rgb(0,0,0)" d="M 12660,18531 L 12608,18525"/>
       <path fill="none" stroke="rgb(0,0,0)" d="M 12574,18521 L 12521,18514"/>
       <path fill="none" stroke="rgb(0,0,0)" d="M 12487,18510 L 12434,18503"/>
       <path fill="none" stroke="rgb(0,0,0)" d="M 12400,18499 L 12348,18492"/>
       <path fill="none" stroke="rgb(0,0,0)" d="M 12314,18488 L 12261,18481"/>
       <path fill="none" stroke="rgb(0,0,0)" d="M 12227,18477 L 12174,18470"/>
       <path fill="none" stroke="rgb(0,0,0)" d="M 12141,18466 L 12088,18459"/>
       <path fill="none" stroke="rgb(0,0,0)" d="M 12054,18455 L 12001,18449"/>
       <path fill="none" stroke="rgb(0,0,0)" d="M 11967,18444 L 11915,18438"/>
       <path fill="none" stroke="rgb(0,0,0)" d="M 11881,18433 L 11828,18427"/>
       <path fill="none" stroke="rgb(0,0,0)" d="M 11794,18423 L 11741,18416"/>
       <path fill="none" stroke="rgb(0,0,0)" d="M 11707,18412 L 11655,18405"/>
       <path fill="none" stroke="rgb(0,0,0)" d="M 11621,18401 L 11568,18394"/>
       <path fill="none" stroke="rgb(0,0,0)" d="M 11534,18390 L 11481,18383"/>
       <path fill="none" stroke="rgb(0,0,0)" d="M 11447,18379 L 11395,18372"/>
       <path fill="none" stroke="rgb(0,0,0)" d="M 11361,18368 L 11308,18362"/>
       <path fill="none" stroke="rgb(0,0,0)" d="M 11274,18357 L 11221,18351"/>
       <path fill="none" stroke="rgb(0,0,0)" d="M 11188,18346 L 11135,18340"/>
       <path fill="none" stroke="rgb(0,0,0)" d="M 11101,18336 L 11048,18329"/>
       <path fill="none" stroke="rgb(0,0,0)" d="M 11014,18325 L 10962,18318"/>
       <path fill="none" stroke="rgb(0,0,0)" d="M 10928,18314 L 10875,18307"/>
       <path fill="none" stroke="rgb(0,0,0)" d="M 10841,18303 L 10788,18296"/>
       <path fill="none" stroke="rgb(0,0,0)" d="M 10754,18292 L 10702,18285"/>
       <path fill="none" stroke="rgb(0,0,0)" d="M 10668,18281 L 10615,18274"/>
       <path fill="none" stroke="rgb(0,0,0)" d="M 10581,18270 L 10528,18264"/>
       <path fill="none" stroke="rgb(0,0,0)" d="M 10494,18259 L 10442,18253"/>
       <path fill="none" stroke="rgb(0,0,0)" d="M 10408,18248 L 10355,18242"/>
       <path fill="none" stroke="rgb(0,0,0)" d="M 10321,18238 L 10268,18231"/>
       <path fill="none" stroke="rgb(0,0,0)" d="M 10235,18227 L 10182,18220"/>
       <path fill="none" stroke="rgb(0,0,0)" d="M 10148,18216 L 10095,18209"/>
       <path fill="none" stroke="rgb(0,0,0)" d="M 10061,18205 L 10009,18198"/>
       <path fill="none" stroke="rgb(0,0,0)" d="M 9975,18194 L 9922,18187"/>
       <path fill="none" stroke="rgb(0,0,0)" d="M 9888,18183 L 9835,18177"/>
       <path fill="none" stroke="rgb(0,0,0)" d="M 9801,18172 L 9749,18166"/>
       <path fill="none" stroke="rgb(0,0,0)" d="M 9715,18161 L 9662,18155"/>
       <path fill="none" stroke="rgb(0,0,0)" d="M 9628,18151 L 9575,18144"/>
       <path fill="none" stroke="rgb(0,0,0)" d="M 9541,18140 L 9489,18133"/>
       <path fill="none" stroke="rgb(0,0,0)" d="M 9455,18129 L 9402,18122"/>
       <path fill="none" stroke="rgb(0,0,0)" d="M 9368,18118 L 9315,18111"/>
       <path fill="none" stroke="rgb(0,0,0)" d="M 9282,18107 L 9229,18100"/>
       <path fill="none" stroke="rgb(0,0,0)" d="M 9195,18096 L 9142,18089"/>
       <path fill="none" stroke="rgb(0,0,0)" d="M 9108,18085 L 9056,18079"/>
       <path fill="none" stroke="rgb(0,0,0)" d="M 9022,18074 L 8969,18068"/>
       <path fill="none" stroke="rgb(0,0,0)" d="M 8935,18063 L 8882,18057"/>
       <path fill="none" stroke="rgb(0,0,0)" d="M 8848,18053 L 8796,18046"/>
       <path fill="rgb(0,0,0)" stroke="none" d="M 8366,17992 L 8794,18197 8831,17899 8366,17992 Z"/>
       <text class="TextShape"><tspan class="TextParagraph" font-family="Arial, sans-serif" font-size="353px" font-weight="400"><tspan class="TextPosition" x="10123" y="18848"><tspan fill="rgb(0,0,0)" stroke="none">thread sync</tspan></tspan></tspan></text>
      </g>
     </g>
     <g class="com.sun.star.drawing.ConnectorShape">
      <g id="id25">
       <path fill="none" stroke="rgb(0,0,0)" d="M 6461,18578 L 6461,20001"/>
       <path fill="rgb(0,0,0)" stroke="none" d="M 6461,20431 L 6611,19981 6311,19981 6461,20431 Z"/>
      </g>
     </g>
     <g class="com.sun.star.drawing.CustomShape">
      <g id="id26">
       <path fill="rgb(255,255,204)" stroke="none" d="M 13446,11540 L 17773,11540 17773,12429 13446,12429 13446,11540 13446,11540 Z M 13446,11540 L 13446,11540 Z M 17773,12430 L 17773,12430 Z"/>
       <path fill="none" stroke="rgb(52,101,175)" d="M 13446,11540 L 17773,11540 17773,12429 13446,12429 13446,11540 13446,11540 Z"/>
       <path fill="none" stroke="rgb(52,101,175)" d="M 13446,11540 L 13446,11540 Z"/>
       <path fill="none" stroke="rgb(52,101,175)" d="M 17773,12430 L 17773,12430 Z"/>
       <text class="TextShape"><tspan class="TextParagraph" font-family="Arial, sans-serif" font-size="353px" font-weight="400"><tspan class="TextPosition" x="13670" y="11909"><tspan fill="rgb(0,0,0)" stroke="none">listen for HTTP requests </tspan></tspan><tspan class="TextPosition" x="15023" y="12307"><tspan fill="rgb(0,0,0)" stroke="none">on </tspan><tspan font-weight="700" fill="rgb(0,0,0)" stroke="none">port</tspan></tspan></tspan></text>
      </g>
     </g>
     <g class="com.sun.star.drawing.ConnectorShape">
      <g id="id27">
       <path fill="none" stroke="rgb(0,0,0)" d="M 15609,12430 L 15607,13115"/>
       <path fill="rgb(0,0,0)" stroke="none" d="M 15605,13545 L 15757,13096 15457,13094 15605,13545 Z"/>
      </g>
     </g>
     <g class="com.sun.star.drawing.ConnectorShape">
      <g id="id28">
       <path fill="none" stroke="rgb(0,0,0)" d="M 6397,10168 L 6457,16977"/>
       <path fill="rgb(0,0,0)" stroke="none" d="M 6461,17407 L 6607,16956 6307,16958 6461,17407 Z"/>
       <text class="TextShape"><tspan class="TextParagraph" font-family="Arial, sans-serif" font-size="353px" font-weight="400"><tspan class="TextPosition" x="5114" y="13911"><tspan fill="rgb(0,0,0)" stroke="none">                           </tspan></tspan></tspan></text>
      </g>
     </g>
     <g class="com.sun.star.drawing.CustomShape">
      <g id="id29">
       <path fill="rgb(255,255,204)" stroke="none" d="M 13747,9451 L 17430,9451 17430,10506 13747,10506 13747,9451 13747,9451 Z M 13747,9451 L 13747,9451 Z M 17431,10506 L 17431,10506 Z"/>
       <path fill="none" stroke="rgb(52,101,175)" d="M 13747,9451 L 17430,9451 17430,10506 13747,10506 13747,9451 13747,9451 Z"/>
       <path fill="none" stroke="rgb(52,101,175)" d="M 13747,9451 L 13747,9451 Z"/>
       <path fill="none" stroke="rgb(52,101,175)" d="M 17431,10506 L 17431,10506 Z"/>
       <text class="TextShape"><tspan class="TextParagraph" font-family="Arial, sans-serif" font-size="353px" font-weight="400"><tspan class="TextPosition" x="14194" y="9902"><tspan fill="rgb(0,0,0)" stroke="none">suspended mode,</tspan></tspan></tspan><tspan class="TextParagraph" font-family="Arial, sans-serif" font-size="353px" font-weight="400"><tspan class="TextPosition" x="14196" y="10300"><tspan fill="rgb(0,0,0)" stroke="none">listen to port 5005</tspan></tspan></tspan></text>
      </g>
     </g>
     <g class="com.sun.star.drawing.ConnectorShape">
      <g id="id30">
       <path fill="none" stroke="rgb(0,0,0)" d="M 15605,8404 L 15596,9021"/>
       <path fill="rgb(0,0,0)" stroke="none" d="M 15589,9451 L 15746,9003 15446,8999 15589,9451 Z"/>
      </g>
     </g>
     <g class="com.sun.star.drawing.CustomShape">
      <g id="id31">
       <path fill="rgb(153,204,255)" stroke="none" d="M 14589,20050 L 18400,20050 18400,21574 14589,21574 14589,20050 14589,20050 Z M 14589,20050 L 14589,20050 Z M 18400,21575 L 18400,21575 Z"/>
       <path fill="none" stroke="rgb(52,101,175)" d="M 14589,20050 L 18400,20050 18400,21574 14589,21574 14589,20050 14589,20050 Z"/>
       <path fill="none" stroke="rgb(52,101,175)" d="M 14589,20050 L 14589,20050 Z"/>
       <path fill="none" stroke="rgb(52,101,175)" d="M 18400,21575 L 18400,21575 Z"/>
       <text class="TextShape"><tspan class="TextParagraph" font-family="Arial, sans-serif" font-size="353px" font-weight="400"><tspan class="TextPosition" x="15228" y="20537"><tspan fill="rgb(0,0,0)" stroke="none">gradle jettyStop,</tspan></tspan></tspan><tspan class="TextParagraph" font-family="Arial, sans-serif" font-size="353px" font-weight="400"><tspan class="TextPosition" x="15019" y="20935"><tspan fill="rgb(0,0,0)" stroke="none">sends “stop” signal</tspan></tspan></tspan><tspan class="TextParagraph" font-family="Arial, sans-serif" font-size="353px" font-weight="400"><tspan class="TextPosition" x="15345" y="21333"><tspan fill="rgb(0,0,0)" stroke="none">to </tspan><tspan font-weight="700" fill="rgb(0,0,0)" stroke="none">servicePort</tspan></tspan></tspan></text>
      </g>
     </g>
     <g class="com.sun.star.drawing.ConnectorShape">
      <g id="id32">
       <path fill="none" stroke="rgb(0,0,0)" d="M 18399,20812 C 18416,20812 18434,20810 18450,20806"/>
       <path fill="none" stroke="rgb(0,0,0)" d="M 18482,20797 C 18499,20791 18515,20784 18530,20774"/>
       <path fill="none" stroke="rgb(0,0,0)" d="M 18560,20754 C 18575,20743 18590,20730 18605,20715"/>
       <path fill="none" stroke="rgb(0,0,0)" d="M 18625,20693 C 18635,20682 18645,20669 18655,20656"/>
       <path fill="none" stroke="rgb(0,0,0)" d="M 18674,20630 C 18684,20616 18693,20601 18702,20586"/>
       <path fill="none" stroke="rgb(0,0,0)" d="M 18720,20555 C 18729,20538 18738,20521 18747,20504"/>
       <path fill="none" stroke="rgb(0,0,0)" d="M 18763,20468 C 18770,20452 18777,20436 18784,20419"/>
       <path fill="none" stroke="rgb(0,0,0)" d="M 18796,20390 C 18802,20375 18807,20359 18813,20344"/>
       <path fill="none" stroke="rgb(0,0,0)" d="M 18824,20313 C 18829,20296 18835,20280 18840,20263"/>
       <path fill="none" stroke="rgb(0,0,0)" d="M 18850,20230 C 18855,20213 18860,20195 18865,20177"/>
       <path fill="none" stroke="rgb(0,0,0)" d="M 18875,20142 C 18880,20124 18884,20106 18889,20087"/>
       <path fill="none" stroke="rgb(0,0,0)" d="M 18897,20050 C 18901,20034 18905,20017 18909,20000"/>
       <path fill="none" stroke="rgb(0,0,0)" d="M 18915,19968 C 18919,19952 18922,19935 18925,19919"/>
       <path fill="none" stroke="rgb(0,0,0)" d="M 18931,19886 C 18935,19869 18938,19852 18941,19834"/>
       <path fill="none" stroke="rgb(0,0,0)" d="M 18946,19801 C 18949,19783 18952,19766 18955,19748"/>
       <path fill="none" stroke="rgb(0,0,0)" d="M 18960,19713 C 18962,19695 18965,19677 18967,19659"/>
       <path fill="none" stroke="rgb(0,0,0)" d="M 18972,19624 C 18974,19605 18976,19587 18978,19568"/>
       <path fill="none" stroke="rgb(0,0,0)" d="M 18982,19532 C 18984,19515 18986,19498 18988,19481"/>
       <path fill="none" stroke="rgb(0,0,0)" d="M 18991,19448 C 18992,19431 18994,19414 18995,19396"/>
       <path fill="none" stroke="rgb(0,0,0)" d="M 18998,19363 C 19000,19345 19001,19328 19002,19310"/>
       <path fill="none" stroke="rgb(0,0,0)" d="M 19004,19276 C 19005,19258 19007,19241 19008,19223"/>
       <path fill="none" stroke="rgb(0,0,0)" d="M 19009,19188 C 19010,19170 19011,19152 19012,19135"/>
       <path fill="none" stroke="rgb(0,0,0)" d="M 19013,19100 C 19014,19082 19014,19064 19015,19045"/>
       <path fill="none" stroke="rgb(0,0,0)" d="M 19016,19010 C 19016,18992 19017,18974 19017,18956"/>
       <path fill="none" stroke="rgb(0,0,0)" d="M 19017,18922 C 19018,18905 19018,18887 19018,18870"/>
       <path fill="none" stroke="rgb(0,0,0)" d="M 19018,18835 C 19018,18818 19018,18800 19017,18782"/>
       <path fill="none" stroke="rgb(0,0,0)" d="M 19017,18748 C 19017,18730 19016,18713 19016,18695"/>
       <path fill="none" stroke="rgb(0,0,0)" d="M 19015,18661 C 19014,18643 19014,18625 19013,18607"/>
       <path fill="none" stroke="rgb(0,0,0)" d="M 19012,18573 C 19011,18555 19010,18538 19009,18520"/>
       <path fill="none" stroke="rgb(0,0,0)" d="M 19008,18486 C 19007,18468 19006,18450 19005,18433"/>
       <path fill="none" stroke="rgb(0,0,0)" d="M 19002,18398 C 19001,18380 19000,18362 18998,18345"/>
       <path fill="none" stroke="rgb(0,0,0)" d="M 18996,18310 C 18994,18292 18993,18274 18991,18256"/>
       <path fill="none" stroke="rgb(0,0,0)" d="M 18988,18222 C 18986,18204 18984,18186 18982,18168"/>
       <path fill="none" stroke="rgb(0,0,0)" d="M 18979,18134 C 18977,18116 18975,18099 18973,18081"/>
       <path fill="none" stroke="rgb(0,0,0)" d="M 18968,18047 C 18966,18030 18964,18012 18962,17995"/>
       <path fill="none" stroke="rgb(0,0,0)" d="M 18957,17961 C 18954,17944 18952,17927 18949,17909"/>
       <path fill="none" stroke="rgb(0,0,0)" d="M 18944,17876 C 18941,17859 18938,17842 18936,17825"/>
       <path fill="none" stroke="rgb(0,0,0)" d="M 18930,17790 C 18926,17772 18923,17754 18920,17736"/>
       <path fill="none" stroke="rgb(0,0,0)" d="M 18913,17701 C 18909,17683 18906,17665 18902,17648"/>
       <path fill="none" stroke="rgb(0,0,0)" d="M 18895,17614 C 18891,17596 18887,17579 18883,17561"/>
       <path fill="none" stroke="rgb(0,0,0)" d="M 18875,17528 C 18871,17511 18867,17494 18862,17477"/>
       <path fill="none" stroke="rgb(0,0,0)" d="M 18854,17444 C 18849,17428 18845,17411 18840,17394"/>
       <path fill="none" stroke="rgb(0,0,0)" d="M 18831,17363 C 18826,17346 18822,17330 18817,17314"/>
       <path fill="none" stroke="rgb(0,0,0)" d="M 18806,17281 C 18800,17263 18794,17245 18788,17227"/>
       <path fill="none" stroke="rgb(0,0,0)" d="M 18776,17193 C 18770,17176 18764,17158 18757,17141"/>
       <path fill="none" stroke="rgb(0,0,0)" d="M 18745,17109 C 18738,17092 18731,17076 18724,17059"/>
       <path fill="none" stroke="rgb(0,0,0)" d="M 18711,17028 C 18704,17012 18696,16997 18689,16981"/>
       <path fill="none" stroke="rgb(0,0,0)" d="M 18675,16952 C 18667,16937 18660,16922 18652,16907"/>
       <path fill="none" stroke="rgb(0,0,0)" d="M 18637,16879 C 18627,16863 18618,16846 18608,16830"/>
       <path fill="none" stroke="rgb(0,0,0)" d="M 18589,16799 C 18578,16783 18568,16768 18557,16753"/>
       <path fill="none" stroke="rgb(0,0,0)" d="M 18537,16725 C 18526,16710 18515,16696 18504,16683"/>
       <path fill="none" stroke="rgb(0,0,0)" d="M 18482,16658 C 18470,16645 18459,16632 18447,16621"/>
       <path fill="none" stroke="rgb(0,0,0)" d="M 18424,16598 C 18414,16589 18404,16581 18395,16573"/>
       <path fill="rgb(0,0,0)" stroke="none" d="M 18018,16431 L 18382,16735 18492,16456 18018,16431 Z"/>
       <text class="TextShape"><tspan class="TextParagraph" font-family="Arial, sans-serif" font-size="353px" font-weight="400"><tspan class="TextPosition" x="18269" y="18745"><tspan fill="rgb(0,0,0)" stroke="none">tcp</tspan></tspan></tspan></text>
      </g>
     </g>
    </g>
   </g>
  </g>
 </g>
</svg>