<?xml version="1.0" encoding="UTF-8"?>
<!DOCTYPE svg PUBLIC "-//W3C//DTD SVG 1.1//EN" "http://www.w3.org/Graphics/SVG/1.1/DTD/svg11.dtd">
<svg version="1.2" width="170mm" height="230mm" viewBox="0 0 17000 23000" preserveAspectRatio="xMidYMid" fill-rule="evenodd" clip-path="url(#presentation_clip_path)" stroke-width="28.222" stroke-linejoin="round" xmlns="http://www.w3.org/2000/svg" xmlns:ooo="http://xml.openoffice.org/svg/export" xmlns:xlink="http://www.w3.org/1999/xlink" xml:space="preserve">
 <defs class="ClipPathGroup">
  <clipPath id="presentation_clip_path" clipPathUnits="userSpaceOnUse">
   <rect x="0" y="0" width="17000" height="23000"/>
  </clipPath>
 </defs>
 <defs class="TextShapeIndex">
  <g ooo:slide="id1" ooo:id-list="id3 id4 id5 id6 id7 id8 id9 id10 id11 id12 id13 id14 id15 id16 id17 id18 id19 id20 id21 id22 id23 id24 id25 id26 id27 id28 id29 id30 id31 id32 id33 id34 id35"/>
 </defs>
 <defs class="EmbeddedBulletChars">
  <g id="bullet-char-template(57356)" transform="scale(0.00048828125,-0.00048828125)">
   <path d="M 580,1141 L 1163,571 580,0 -4,571 580,1141 Z"/>
  </g>
  <g id="bullet-char-template(57354)" transform="scale(0.00048828125,-0.00048828125)">
   <path d="M 8,1128 L 1137,1128 1137,0 8,0 8,1128 Z"/>
  </g>
  <g id="bullet-char-template(10146)" transform="scale(0.00048828125,-0.00048828125)">
   <path d="M 174,0 L 602,739 174,1481 1456,739 174,0 Z M 1358,739 L 309,1346 659,739 1358,739 Z"/>
  </g>
  <g id="bullet-char-template(10132)" transform="scale(0.00048828125,-0.00048828125)">
   <path d="M 2015,739 L 1276,0 717,0 1260,543 174,543 174,936 1260,936 717,1481 1274,1481 2015,739 Z"/>
  </g>
  <g id="bullet-char-template(10007)" transform="scale(0.00048828125,-0.00048828125)">
   <path d="M 0,-2 C -7,14 -16,27 -25,37 L 356,567 C 262,823 215,952 215,954 215,979 228,992 255,992 264,992 276,990 289,987 310,991 331,999 354,1012 L 381,999 492,748 772,1049 836,1024 860,1049 C 881,1039 901,1025 922,1006 886,937 835,863 770,784 769,783 710,716 594,584 L 774,223 C 774,196 753,168 711,139 L 727,119 C 717,90 699,76 672,76 641,76 570,178 457,381 L 164,-76 C 142,-110 111,-127 72,-127 30,-127 9,-110 8,-76 1,-67 -2,-52 -2,-32 -2,-23 -1,-13 0,-2 Z"/>
  </g>
  <g id="bullet-char-template(10004)" transform="scale(0.00048828125,-0.00048828125)">
   <path d="M 285,-33 C 182,-33 111,30 74,156 52,228 41,333 41,471 41,549 55,616 82,672 116,743 169,778 240,778 293,778 328,747 346,684 L 369,508 C 377,444 397,411 428,410 L 1163,1116 C 1174,1127 1196,1133 1229,1133 1271,1133 1292,1118 1292,1087 L 1292,965 C 1292,929 1282,901 1262,881 L 442,47 C 390,-6 338,-33 285,-33 Z"/>
  </g>
  <g id="bullet-char-template(9679)" transform="scale(0.00048828125,-0.00048828125)">
   <path d="M 813,0 C 632,0 489,54 383,161 276,268 223,411 223,592 223,773 276,916 383,1023 489,1130 632,1184 813,1184 992,1184 1136,1130 1245,1023 1353,916 1407,772 1407,592 1407,412 1353,268 1245,161 1136,54 992,0 813,0 Z"/>
  </g>
  <g id="bullet-char-template(8226)" transform="scale(0.00048828125,-0.00048828125)">
   <path d="M 346,457 C 273,457 209,483 155,535 101,586 74,649 74,723 74,796 101,859 155,911 209,963 273,989 346,989 419,989 480,963 531,910 582,859 608,796 608,723 608,648 583,586 532,535 482,483 420,457 346,457 Z"/>
  </g>
  <g id="bullet-char-template(8211)" transform="scale(0.00048828125,-0.00048828125)">
   <path d="M -4,459 L 1135,459 1135,606 -4,606 -4,459 Z"/>
  </g>
 </defs>
 <defs class="TextEmbeddedBitmaps"/>
 <g>
  <g id="id2" class="Master_Slide">
   <g id="bg-id2" class="Background"/>
   <g id="bo-id2" class="BackgroundObjects"/>
  </g>
 </g>
 <g class="SlideGroup">
  <g>
   <g id="id1" class="Slide" clip-path="url(#presentation_clip_path)">
    <g class="Page">
     <g class="com.sun.star.drawing.CustomShape">
      <g id="id3">
       <path fill="rgb(204,255,204)" stroke="none" d="M 2180,1852 C 1843,1852 1507,1661 1507,1470 1507,1279 1843,1089 2180,1089 L 5025,1089 C 5362,1089 5699,1279 5699,1470 5699,1661 5362,1852 5025,1852 L 2180,1852 Z M 1507,1089 L 1507,1089 Z M 5699,1852 L 5699,1852 Z"/>
       <path fill="none" stroke="rgb(52,101,175)" d="M 2180,1852 C 1843,1852 1507,1661 1507,1470 1507,1279 1843,1089 2180,1089 L 5025,1089 C 5362,1089 5699,1279 5699,1470 5699,1661 5362,1852 5025,1852 L 2180,1852 Z"/>
       <path fill="none" stroke="rgb(52,101,175)" d="M 1507,1089 L 1507,1089 Z"/>
       <path fill="none" stroke="rgb(52,101,175)" d="M 5699,1852 L 5699,1852 Z"/>
       <text class="TextShape"><tspan class="TextParagraph" font-family="Arial, sans-serif" font-size="353px" font-weight="400"><tspan class="TextPosition" x="1962" y="1593"><tspan fill="rgb(0,0,0)" stroke="none">jettyRunDebug starts</tspan></tspan></tspan></text>
      </g>
     </g>
     <g class="com.sun.star.drawing.CustomShape">
      <g id="id4">
       <path fill="rgb(204,255,204)" stroke="none" d="M 1686,3501 L 3605,2739 5525,3501 3605,4263 1686,3501 1686,3501 Z M 1686,2739 L 1686,2739 Z M 5525,4263 L 5525,4263 Z"/>
       <path fill="none" stroke="rgb(52,101,175)" d="M 1686,3501 L 3605,2739 5525,3501 3605,4263 1686,3501 1686,3501 Z"/>
       <path fill="none" stroke="rgb(52,101,175)" d="M 1686,2739 L 1686,2739 Z"/>
       <path fill="none" stroke="rgb(52,101,175)" d="M 5525,4263 L 5525,4263 Z"/>
       <text class="TextShape"><tspan class="TextParagraph" font-family="Arial, sans-serif" font-size="353px" font-weight="400"><tspan class="TextPosition" x="2987" y="3425"><tspan fill="rgb(0,0,0)" stroke="none">sources</tspan></tspan><tspan class="TextPosition" x="2707" y="3823"><tspan fill="rgb(0,0,0)" stroke="none">up-to-date?</tspan></tspan></tspan></text>
      </g>
     </g>
     <g class="com.sun.star.drawing.ConnectorShape">
      <g id="id5">
       <path fill="none" stroke="rgb(0,0,0)" d="M 3604,1851 L 3605,2310"/>
       <path fill="rgb(0,0,0)" stroke="none" d="M 3605,2740 L 3754,2290 3454,2290 3605,2740 Z"/>
      </g>
     </g>
     <g class="com.sun.star.drawing.CustomShape">
      <g id="id6">
       <path fill="rgb(204,255,204)" stroke="none" d="M 5741,4333 L 9002,4333 9002,5153 5741,5153 5741,4333 5741,4333 Z M 5741,4333 L 5741,4333 Z M 9002,5154 L 9002,5154 Z"/>
       <path fill="none" stroke="rgb(52,101,175)" d="M 5741,4333 L 9002,4333 9002,5153 5741,5153 5741,4333 5741,4333 Z"/>
       <path fill="none" stroke="rgb(52,101,175)" d="M 5741,4333 L 5741,4333 Z"/>
       <path fill="none" stroke="rgb(52,101,175)" d="M 9002,5154 L 9002,5154 Z"/>
       <text class="TextShape"><tspan class="TextParagraph" font-family="Arial, sans-serif" font-size="353px" font-weight="400"><tspan class="TextPosition" x="6768" y="4866"><tspan fill="rgb(0,0,0)" stroke="none">compile</tspan></tspan></tspan></text>
      </g>
     </g>
     <g class="com.sun.star.drawing.ConnectorShape">
      <g id="id7">
       <path fill="none" stroke="rgb(0,0,0)" d="M 5524,3502 L 7371,3502 7371,3903"/>
       <path fill="rgb(0,0,0)" stroke="none" d="M 7371,4333 L 7521,3883 7221,3883 7371,4333 Z"/>
       <text class="TextShape"><tspan class="TextParagraph" font-family="Arial, sans-serif" font-size="353px" font-weight="400"><tspan class="TextPosition" x="6253" y="3842"><tspan fill="rgb(0,0,0)" stroke="none">no</tspan></tspan></tspan></text>
      </g>
     </g>
     <g class="com.sun.star.drawing.ConnectorShape">
      <g id="id8">
       <path fill="none" stroke="rgb(0,0,0)" d="M 3605,4263 L 3575,5993"/>
       <path fill="rgb(0,0,0)" stroke="none" d="M 3567,6423 L 3725,5976 3425,5970 3567,6423 Z"/>
       <text class="TextShape"><tspan class="TextParagraph" font-family="Arial, sans-serif" font-size="353px" font-weight="400"><tspan class="TextPosition" x="2921" y="4869"><tspan fill="rgb(0,0,0)" stroke="none">yes        </tspan></tspan></tspan></text>
      </g>
     </g>
     <g class="com.sun.star.drawing.ConnectorShape">
      <g id="id9">
       <path fill="none" stroke="rgb(0,0,0)" d="M 7371,5153 L 7371,5789 3567,5789 3567,5993"/>
       <path fill="rgb(0,0,0)" stroke="none" d="M 3567,6423 L 3717,5973 3417,5973 3567,6423 Z"/>
      </g>
     </g>
     <g class="com.sun.star.drawing.CustomShape">
      <g id="id10">
       <path fill="rgb(204,255,204)" stroke="none" d="M 1179,6423 L 5953,6423 5953,7478 1179,7478 1179,6423 1179,6423 Z M 1179,6423 L 1179,6423 Z M 5953,7478 L 5953,7478 Z"/>
       <path fill="none" stroke="rgb(52,101,175)" d="M 1179,6423 L 5953,6423 5953,7478 1179,7478 1179,6423 1179,6423 Z"/>
       <path fill="none" stroke="rgb(52,101,175)" d="M 1179,6423 L 1179,6423 Z"/>
       <path fill="none" stroke="rgb(52,101,175)" d="M 5953,7478 L 5953,7478 Z"/>
       <text class="TextShape"><tspan class="TextParagraph" font-family="Arial, sans-serif" font-size="353px" font-weight="400"><tspan class="TextPosition" x="2086" y="6874"><tspan fill="rgb(0,0,0)" stroke="none">start Jetty process </tspan></tspan><tspan class="TextPosition" x="1614" y="7272"><tspan fill="rgb(0,0,0)" stroke="none">against compiled classes</tspan></tspan></tspan></text>
      </g>
     </g>
     <g class="com.sun.star.drawing.ConnectorShape">
      <g id="id11">
       <path fill="none" stroke="rgb(0,0,0)" d="M 3567,7477 C 3567,7493 3571,7509 3578,7525"/>
       <path fill="none" stroke="rgb(0,0,0)" d="M 3596,7554 C 3607,7568 3621,7582 3638,7595"/>
       <path fill="none" stroke="rgb(0,0,0)" d="M 3661,7611 C 3674,7620 3687,7628 3703,7636"/>
       <path fill="none" stroke="rgb(0,0,0)" d="M 3733,7652 C 3750,7660 3768,7668 3787,7675"/>
       <path fill="none" stroke="rgb(0,0,0)" d="M 3826,7690 C 3840,7695 3854,7700 3869,7705"/>
       <path fill="none" stroke="rgb(0,0,0)" d="M 3899,7714 C 3914,7719 3930,7724 3946,7729"/>
       <path fill="none" stroke="rgb(0,0,0)" d="M 3979,7738 C 3996,7742 4014,7747 4032,7751"/>
       <path fill="none" stroke="rgb(0,0,0)" d="M 4068,7760 C 4087,7764 4106,7769 4126,7773"/>
       <path fill="none" stroke="rgb(0,0,0)" d="M 4163,7781 C 4178,7784 4193,7787 4209,7790"/>
       <path fill="none" stroke="rgb(0,0,0)" d="M 4239,7796 C 4255,7799 4272,7802 4288,7805"/>
       <path fill="none" stroke="rgb(0,0,0)" d="M 4321,7811 C 4338,7814 4355,7817 4372,7820"/>
       <path fill="none" stroke="rgb(0,0,0)" d="M 4407,7825 C 4424,7828 4443,7831 4461,7834"/>
       <path fill="none" stroke="rgb(0,0,0)" d="M 4497,7839 C 4516,7842 4535,7845 4555,7848"/>
       <path fill="none" stroke="rgb(0,0,0)" d="M 4592,7853 C 4609,7855 4626,7857 4643,7860"/>
       <path fill="none" stroke="rgb(0,0,0)" d="M 4674,7864 C 4690,7866 4707,7868 4723,7870"/>
       <path fill="none" stroke="rgb(0,0,0)" d="M 4755,7874 C 4772,7876 4789,7878 4806,7880"/>
       <path fill="none" stroke="rgb(0,0,0)" d="M 4839,7884 C 4856,7886 4874,7888 4891,7889"/>
       <path fill="none" stroke="rgb(0,0,0)" d="M 4926,7893 C 4943,7895 4961,7897 4980,7899"/>
       <path fill="none" stroke="rgb(0,0,0)" d="M 5015,7903 C 5034,7904 5052,7906 5071,7908"/>
       <path fill="none" stroke="rgb(0,0,0)" d="M 5107,7912 C 5126,7913 5146,7915 5165,7917"/>
       <path fill="none" stroke="rgb(0,0,0)" d="M 5202,7920 C 5218,7922 5234,7923 5250,7925"/>
       <path fill="none" stroke="rgb(0,0,0)" d="M 5282,7927 C 5298,7929 5315,7930 5332,7931"/>
       <path fill="none" stroke="rgb(0,0,0)" d="M 5364,7934 C 5381,7936 5398,7937 5415,7938"/>
       <path fill="none" stroke="rgb(0,0,0)" d="M 5448,7941 C 5465,7942 5483,7943 5500,7945"/>
       <path fill="none" stroke="rgb(0,0,0)" d="M 5534,7947 C 5552,7949 5569,7950 5587,7951"/>
       <path fill="none" stroke="rgb(0,0,0)" d="M 5622,7954 C 5640,7955 5658,7956 5676,7957"/>
       <path fill="none" stroke="rgb(0,0,0)" d="M 5712,7960 C 5730,7961 5749,7962 5767,7964"/>
       <path fill="none" stroke="rgb(0,0,0)" d="M 5804,7966 C 5822,7967 5841,7968 5860,7969"/>
       <path fill="none" stroke="rgb(0,0,0)" d="M 5897,7972 C 5914,7973 5932,7974 5949,7975"/>
       <path fill="none" stroke="rgb(0,0,0)" d="M 5981,7977 C 5997,7978 6014,7979 6031,7980"/>
       <path fill="none" stroke="rgb(0,0,0)" d="M 6063,7981 C 6080,7982 6097,7983 6114,7984"/>
       <path fill="none" stroke="rgb(0,0,0)" d="M 6147,7986 C 6164,7987 6181,7988 6198,7989"/>
       <path fill="none" stroke="rgb(0,0,0)" d="M 6232,7990 C 6249,7991 6267,7992 6284,7993"/>
       <path fill="none" stroke="rgb(0,0,0)" d="M 6318,7995 C 6336,7996 6354,7997 6372,7997"/>
       <path fill="none" stroke="rgb(0,0,0)" d="M 6406,7999 C 6424,8000 6442,8001 6460,8002"/>
       <path fill="none" stroke="rgb(0,0,0)" d="M 6496,8003 C 6514,8004 6532,8005 6550,8006"/>
       <path fill="none" stroke="rgb(0,0,0)" d="M 6586,8007 C 6605,8008 6623,8009 6642,8009"/>
       <path fill="none" stroke="rgb(0,0,0)" d="M 6678,8011 C 6697,8012 6716,8013 6735,8013"/>
       <path fill="none" stroke="rgb(0,0,0)" d="M 6770,8015 C 6787,8015 6803,8016 6820,8017"/>
       <path fill="none" stroke="rgb(0,0,0)" d="M 6852,8018 C 6869,8018 6886,8019 6903,8020"/>
       <path fill="none" stroke="rgb(0,0,0)" d="M 6935,8021 C 6952,8022 6969,8022 6986,8023"/>
       <path fill="none" stroke="rgb(0,0,0)" d="M 7020,8024 C 7037,8025 7054,8025 7071,8026"/>
       <path fill="none" stroke="rgb(0,0,0)" d="M 7105,8027 C 7122,8027 7140,8028 7157,8029"/>
       <path fill="none" stroke="rgb(0,0,0)" d="M 7191,8030 C 7209,8030 7226,8031 7244,8031"/>
       <path fill="none" stroke="rgb(0,0,0)" d="M 7278,8032 C 7296,8033 7314,8033 7332,8034"/>
       <path fill="none" stroke="rgb(0,0,0)" d="M 7367,8035 C 7385,8035 7403,8036 7421,8037"/>
       <path fill="none" stroke="rgb(0,0,0)" d="M 7456,8038 C 7474,8038 7492,8039 7511,8039"/>
       <path fill="none" stroke="rgb(0,0,0)" d="M 7546,8040 C 7565,8040 7583,8041 7602,8041"/>
       <path fill="none" stroke="rgb(0,0,0)" d="M 7638,8042 C 7656,8043 7675,8043 7694,8044"/>
       <path fill="none" stroke="rgb(0,0,0)" d="M 7730,8045 C 7747,8045 7764,8045 7781,8046"/>
       <path fill="none" stroke="rgb(0,0,0)" d="M 7814,8047 C 7831,8047 7847,8047 7864,8048"/>
       <path fill="none" stroke="rgb(0,0,0)" d="M 7897,8048 C 7914,8049 7931,8049 7948,8050"/>
       <path fill="none" stroke="rgb(0,0,0)" d="M 7981,8050 C 7998,8051 8016,8051 8033,8051"/>
       <path fill="none" stroke="rgb(0,0,0)" d="M 8066,8052 C 8083,8052 8101,8053 8118,8053"/>
       <path fill="none" stroke="rgb(0,0,0)" d="M 8152,8054 C 8169,8054 8187,8054 8204,8055"/>
       <path fill="none" stroke="rgb(0,0,0)" d="M 8238,8055 C 8256,8056 8274,8056 8291,8056"/>
       <path fill="none" stroke="rgb(0,0,0)" d="M 8326,8057 C 8344,8057 8361,8057 8379,8058"/>
       <path fill="none" stroke="rgb(0,0,0)" d="M 8414,8058 C 8432,8059 8450,8059 8468,8059"/>
       <path fill="none" stroke="rgb(0,0,0)" d="M 8503,8060 C 8521,8060 8539,8060 8557,8061"/>
       <path fill="none" stroke="rgb(0,0,0)" d="M 8593,8061 C 8611,8061 8629,8062 8648,8062"/>
       <path fill="none" stroke="rgb(0,0,0)" d="M 8683,8062 C 8702,8063 8720,8063 8739,8063"/>
       <path fill="none" stroke="rgb(0,0,0)" d="M 8775,8064 C 8793,8064 8812,8064 8831,8064"/>
       <path fill="none" stroke="rgb(0,0,0)" d="M 8865,8065 C 8882,8065 8898,8065 8915,8065"/>
       <path fill="none" stroke="rgb(0,0,0)" d="M 8948,8066 C 8965,8066 8982,8066 8999,8066"/>
       <path fill="none" stroke="rgb(0,0,0)" d="M 9032,8067 C 9049,8067 9066,8067 9083,8067"/>
       <path fill="none" stroke="rgb(0,0,0)" d="M 9116,8067 C 9133,8068 9151,8068 9168,8068"/>
       <path fill="none" stroke="rgb(0,0,0)" d="M 9201,8068 C 9219,8068 9236,8069 9254,8069"/>
       <path fill="none" stroke="rgb(0,0,0)" d="M 9287,8069 C 9305,8069 9322,8069 9340,8069"/>
       <path fill="none" stroke="rgb(0,0,0)" d="M 9374,8070 C 9391,8070 9409,8070 9426,8070"/>
       <path fill="none" stroke="rgb(0,0,0)" d="M 9461,8070 C 9478,8070 9496,8071 9514,8071"/>
       <path fill="none" stroke="rgb(0,0,0)" d="M 9548,8071 C 9566,8071 9584,8071 9602,8071"/>
       <path fill="none" stroke="rgb(0,0,0)" d="M 9637,8071 C 9655,8072 9673,8072 9691,8072"/>
       <path fill="none" stroke="rgb(0,0,0)" d="M 9726,8072 C 9744,8072 9762,8072 9780,8072"/>
       <path fill="none" stroke="rgb(0,0,0)" d="M 9815,8072 C 9834,8072 9852,8073 9870,8073"/>
       <path fill="none" stroke="rgb(0,0,0)" d="M 9906,8073 C 9924,8073 9943,8073 9961,8073"/>
       <path fill="none" stroke="rgb(0,0,0)" d="M 9997,8073 C 10015,8073 10034,8073 10052,8073"/>
       <path fill="rgb(0,0,0)" stroke="none" d="M 10525,8074 L 10075,7923 10075,8223 10525,8074 Z"/>
       <text class="TextShape"><tspan class="TextParagraph" font-family="Arial, sans-serif" font-size="353px" font-weight="400"><tspan class="TextPosition" x="7965" y="7899"><tspan fill="rgb(0,0,0)" stroke="none">start process   </tspan></tspan></tspan></text>
      </g>
     </g>
     <g class="com.sun.star.drawing.CustomShape">
      <g id="id12">
       <path fill="rgb(255,255,204)" stroke="none" d="M 10525,14296 L 14590,14296 14590,15468 10525,15468 10525,14296 10525,14296 Z M 10525,14296 L 10525,14296 Z M 14590,15468 L 14590,15468 Z"/>
       <path fill="none" stroke="rgb(52,101,175)" d="M 10525,14296 L 14590,14296 14590,15468 10525,15468 10525,14296 10525,14296 Z"/>
       <path fill="none" stroke="rgb(52,101,175)" d="M 10525,14296 L 10525,14296 Z"/>
       <path fill="none" stroke="rgb(52,101,175)" d="M 14590,15468 L 14590,15468 Z"/>
       <text class="TextShape"><tspan class="TextParagraph" font-family="Arial, sans-serif" font-size="353px" font-weight="400"><tspan class="TextPosition" x="10917" y="14806"><tspan fill="rgb(0,0,0)" stroke="none">send “started” signal </tspan></tspan></tspan><tspan class="TextParagraph" font-family="Arial, sans-serif" font-size="353px" font-weight="400"><tspan class="TextPosition" x="11493" y="15204"><tspan fill="rgb(0,0,0)" stroke="none">to </tspan><tspan font-weight="700" fill="rgb(0,0,0)" stroke="none">statusPort</tspan></tspan></tspan></text>
      </g>
     </g>
     <g class="com.sun.star.drawing.ConnectorShape">
      <g id="id13">
       <path fill="none" stroke="rgb(0,0,0)" d="M 3567,7477 L 3594,8656"/>
       <path fill="rgb(0,0,0)" stroke="none" d="M 3604,9086 L 3744,8633 3444,8640 3604,9086 Z"/>
      </g>
     </g>
     <g class="com.sun.star.drawing.CustomShape">
      <g id="id14">
       <path fill="rgb(204,255,204)" stroke="none" d="M 1625,11780 L 5700,11780 5700,12669 1625,12669 1625,11780 1625,11780 Z M 1625,11780 L 1625,11780 Z M 5700,12670 L 5700,12670 Z"/>
       <path fill="none" stroke="rgb(52,101,175)" d="M 1625,11780 L 5700,11780 5700,12669 1625,12669 1625,11780 1625,11780 Z"/>
       <path fill="none" stroke="rgb(52,101,175)" d="M 1625,11780 L 1625,11780 Z"/>
       <path fill="none" stroke="rgb(52,101,175)" d="M 5700,12670 L 5700,12670 Z"/>
       <text class="TextShape"><tspan class="TextParagraph" font-family="Arial, sans-serif" font-size="353px" font-weight="400"><tspan class="TextPosition" x="1950" y="12348"><tspan fill="rgb(0,0,0)" stroke="none">wait for user keypress</tspan></tspan></tspan></text>
      </g>
     </g>
     <g class="com.sun.star.drawing.CustomShape">
      <g id="id15">
       <path fill="rgb(204,255,204)" stroke="none" d="M 1634,9085 L 5572,9085 5572,10257 1634,10257 1634,9085 1634,9085 Z M 1634,9085 L 1634,9085 Z M 5572,10257 L 5572,10257 Z"/>
       <path fill="none" stroke="rgb(52,101,175)" d="M 1634,9085 L 5572,9085 5572,10257 1634,10257 1634,9085 1634,9085 Z"/>
       <path fill="none" stroke="rgb(52,101,175)" d="M 1634,9085 L 1634,9085 Z"/>
       <path fill="none" stroke="rgb(52,101,175)" d="M 5572,10257 L 5572,10257 Z"/>
       <text class="TextShape"><tspan class="TextParagraph" font-family="Arial, sans-serif" font-size="353px" font-weight="400"><tspan class="TextPosition" x="1778" y="9595"><tspan fill="rgb(0,0,0)" stroke="none">wait for “started” signal </tspan></tspan><tspan class="TextPosition" x="2489" y="9993"><tspan fill="rgb(0,0,0)" stroke="none">on </tspan><tspan font-weight="700" fill="rgb(0,0,0)" stroke="none">statusPort</tspan></tspan></tspan></text>
      </g>
     </g>
     <g class="com.sun.star.drawing.CustomShape">
      <g id="id16">
       <path fill="rgb(204,255,204)" stroke="none" d="M 1635,14292 L 5700,14292 5700,15464 1635,15464 1635,14292 1635,14292 Z M 1635,14292 L 1635,14292 Z M 5700,15464 L 5700,15464 Z"/>
       <path fill="none" stroke="rgb(52,101,175)" d="M 1635,14292 L 5700,14292 5700,15464 1635,15464 1635,14292 1635,14292 Z"/>
       <path fill="none" stroke="rgb(52,101,175)" d="M 1635,14292 L 1635,14292 Z"/>
       <path fill="none" stroke="rgb(52,101,175)" d="M 5700,15464 L 5700,15464 Z"/>
       <text class="TextShape"><tspan class="TextParagraph" font-family="Arial, sans-serif" font-size="353px" font-weight="400"><tspan class="TextPosition" x="2232" y="14802"><tspan fill="rgb(0,0,0)" stroke="none">send “stop” signal </tspan></tspan></tspan><tspan class="TextParagraph" font-family="Arial, sans-serif" font-size="353px" font-weight="400"><tspan class="TextPosition" x="2518" y="15200"><tspan fill="rgb(0,0,0)" stroke="none">to </tspan><tspan font-weight="700" fill="rgb(0,0,0)" stroke="none">servicePort</tspan></tspan></tspan></text>
      </g>
     </g>
     <g class="com.sun.star.drawing.ConnectorShape">
      <g id="id17">
       <path fill="none" stroke="rgb(0,0,0)" d="M 3662,12670 L 3666,13863"/>
       <path fill="rgb(0,0,0)" stroke="none" d="M 3667,14293 L 3816,13843 3516,13843 3667,14293 Z"/>
      </g>
     </g>
     <g class="com.sun.star.drawing.CustomShape">
      <g id="id18">
       <path fill="rgb(255,255,204)" stroke="none" d="M 10144,16737 L 14971,16737 14971,18135 10144,18135 10144,16737 10144,16737 Z M 10144,16737 L 10144,16737 Z M 14971,18135 L 14971,18135 Z"/>
       <path fill="none" stroke="rgb(52,101,175)" d="M 10144,16737 L 14971,16737 14971,18135 10144,18135 10144,16737 10144,16737 Z"/>
       <path fill="none" stroke="rgb(52,101,175)" d="M 10144,16737 L 10144,16737 Z"/>
       <path fill="none" stroke="rgb(52,101,175)" d="M 14971,18135 L 14971,18135 Z"/>
       <text class="TextShape"><tspan class="TextParagraph" font-family="Arial, sans-serif" font-size="353px" font-weight="400"><tspan class="TextPosition" x="11624" y="17161"><tspan fill="rgb(0,0,0)" stroke="none">In wait loop.</tspan></tspan><tspan class="TextPosition" x="10841" y="17559"><tspan fill="rgb(0,0,0)" stroke="none">listen for “stop” signal </tspan></tspan><tspan class="TextPosition" x="11359" y="17957"><tspan fill="rgb(0,0,0)" stroke="none">on </tspan><tspan font-weight="700" fill="rgb(0,0,0)" stroke="none">servicePort</tspan></tspan></tspan></text>
      </g>
     </g>
     <g class="com.sun.star.drawing.ConnectorShape">
      <g id="id19">
       <path fill="none" stroke="rgb(0,0,0)" d="M 12557,15468 L 12557,16308"/>
       <path fill="rgb(0,0,0)" stroke="none" d="M 12557,16738 L 12707,16288 12407,16288 12557,16738 Z"/>
      </g>
     </g>
     <g class="com.sun.star.drawing.CustomShape">
      <g id="id20">
       <path fill="rgb(204,255,204)" stroke="none" d="M 1962,21956 C 1544,21956 1126,21634 1126,21313 1126,20992 1544,20671 1962,20671 L 5497,20671 C 5915,20671 6334,20992 6334,21313 6334,21634 5915,21956 5497,21956 L 1962,21956 Z M 1126,20671 L 1126,20671 Z M 6334,21956 L 6334,21956 Z"/>
       <path fill="none" stroke="rgb(52,101,175)" d="M 1962,21956 C 1544,21956 1126,21634 1126,21313 1126,20992 1544,20671 1962,20671 L 5497,20671 C 5915,20671 6334,20992 6334,21313 6334,21634 5915,21956 5497,21956 L 1962,21956 Z"/>
       <path fill="none" stroke="rgb(52,101,175)" d="M 1126,20671 L 1126,20671 Z"/>
       <path fill="none" stroke="rgb(52,101,175)" d="M 6334,21956 L 6334,21956 Z"/>
       <text class="TextShape"><tspan class="TextParagraph" font-family="Arial, sans-serif" font-size="353px" font-weight="400"><tspan class="TextPosition" x="1869" y="21038"><tspan fill="rgb(0,0,0)" stroke="none">jettyRunDebug finished.</tspan></tspan><tspan class="TextPosition" x="2381" y="21436"><tspan fill="rgb(0,0,0)" stroke="none">Gradle proceeds </tspan></tspan><tspan class="TextPosition" x="2508" y="21834"><tspan fill="rgb(0,0,0)" stroke="none">with other tasks</tspan></tspan></tspan></text>
      </g>
     </g>
     <g class="com.sun.star.drawing.ConnectorShape">
      <g id="id21">
       <path fill="none" stroke="rgb(0,0,0)" d="M 10525,14882 L 10488,14844"/>
       <path fill="none" stroke="rgb(0,0,0)" d="M 10465,14819 L 10428,14780"/>
       <path fill="none" stroke="rgb(0,0,0)" d="M 10405,14755 L 10368,14717"/>
       <path fill="none" stroke="rgb(0,0,0)" d="M 10345,14692 L 10308,14654"/>
       <path fill="none" stroke="rgb(0,0,0)" d="M 10284,14629 L 10248,14590"/>
       <path fill="none" stroke="rgb(0,0,0)" d="M 10224,14566 L 10188,14527"/>
       <path fill="none" stroke="rgb(0,0,0)" d="M 10164,14502 L 10127,14464"/>
       <path fill="none" stroke="rgb(0,0,0)" d="M 10104,14439 L 10067,14401"/>
       <path fill="none" stroke="rgb(0,0,0)" d="M 10044,14376 L 10007,14337"/>
       <path fill="none" stroke="rgb(0,0,0)" d="M 9984,14312 L 9947,14274"/>
       <path fill="none" stroke="rgb(0,0,0)" d="M 9923,14249 L 9887,14211"/>
       <path fill="none" stroke="rgb(0,0,0)" d="M 9863,14186 L 9827,14147"/>
       <path fill="none" stroke="rgb(0,0,0)" d="M 9803,14123 L 9766,14084"/>
       <path fill="none" stroke="rgb(0,0,0)" d="M 9743,14059 L 9706,14021"/>
       <path fill="none" stroke="rgb(0,0,0)" d="M 9683,13996 L 9646,13958"/>
       <path fill="none" stroke="rgb(0,0,0)" d="M 9623,13933 L 9586,13894"/>
       <path fill="none" stroke="rgb(0,0,0)" d="M 9562,13869 L 9526,13831"/>
       <path fill="none" stroke="rgb(0,0,0)" d="M 9502,13806 L 9466,13768"/>
       <path fill="none" stroke="rgb(0,0,0)" d="M 9442,13743 L 9405,13704"/>
       <path fill="none" stroke="rgb(0,0,0)" d="M 9382,13680 L 9345,13641"/>
       <path fill="none" stroke="rgb(0,0,0)" d="M 9322,13616 L 9285,13578"/>
       <path fill="none" stroke="rgb(0,0,0)" d="M 9262,13553 L 9225,13515"/>
       <path fill="none" stroke="rgb(0,0,0)" d="M 9201,13490 L 9165,13451"/>
       <path fill="none" stroke="rgb(0,0,0)" d="M 9141,13426 L 9105,13388"/>
       <path fill="none" stroke="rgb(0,0,0)" d="M 9081,13363 L 9045,13325"/>
       <path fill="none" stroke="rgb(0,0,0)" d="M 9021,13300 L 8984,13261"/>
       <path fill="none" stroke="rgb(0,0,0)" d="M 8961,13237 L 8924,13198"/>
       <path fill="none" stroke="rgb(0,0,0)" d="M 8901,13173 L 8864,13135"/>
       <path fill="none" stroke="rgb(0,0,0)" d="M 8840,13110 L 8804,13072"/>
       <path fill="none" stroke="rgb(0,0,0)" d="M 8780,13047 L 8744,13008"/>
       <path fill="none" stroke="rgb(0,0,0)" d="M 8720,12983 L 8684,12945"/>
       <path fill="none" stroke="rgb(0,0,0)" d="M 8660,12920 L 8623,12882"/>
       <path fill="none" stroke="rgb(0,0,0)" d="M 8600,12857 L 8563,12818"/>
       <path fill="none" stroke="rgb(0,0,0)" d="M 8540,12794 L 8503,12755"/>
       <path fill="none" stroke="rgb(0,0,0)" d="M 8479,12730 L 8443,12692"/>
       <path fill="none" stroke="rgb(0,0,0)" d="M 8419,12667 L 8383,12629"/>
       <path fill="none" stroke="rgb(0,0,0)" d="M 8359,12604 L 8323,12565"/>
       <path fill="none" stroke="rgb(0,0,0)" d="M 8299,12540 L 8262,12502"/>
       <path fill="none" stroke="rgb(0,0,0)" d="M 8239,12477 L 8202,12439"/>
       <path fill="none" stroke="rgb(0,0,0)" d="M 8179,12414 L 8142,12375"/>
       <path fill="none" stroke="rgb(0,0,0)" d="M 8118,12351 L 8082,12312"/>
       <path fill="none" stroke="rgb(0,0,0)" d="M 8058,12287 L 8022,12249"/>
       <path fill="none" stroke="rgb(0,0,0)" d="M 7998,12224 L 7962,12186"/>
       <path fill="none" stroke="rgb(0,0,0)" d="M 7938,12161 L 7901,12122"/>
       <path fill="none" stroke="rgb(0,0,0)" d="M 7878,12097 L 7841,12059"/>
       <path fill="none" stroke="rgb(0,0,0)" d="M 7818,12034 L 7781,11996"/>
       <path fill="none" stroke="rgb(0,0,0)" d="M 7758,11971 L 7721,11932"/>
       <path fill="none" stroke="rgb(0,0,0)" d="M 7697,11908 L 7661,11869"/>
       <path fill="none" stroke="rgb(0,0,0)" d="M 7637,11844 L 7601,11806"/>
       <path fill="none" stroke="rgb(0,0,0)" d="M 7577,11781 L 7540,11743"/>
       <path fill="none" stroke="rgb(0,0,0)" d="M 7517,11718 L 7480,11679"/>
       <path fill="none" stroke="rgb(0,0,0)" d="M 7457,11655 L 7420,11616"/>
       <path fill="none" stroke="rgb(0,0,0)" d="M 7397,11591 L 7360,11553"/>
       <path fill="none" stroke="rgb(0,0,0)" d="M 7336,11528 L 7300,11489"/>
       <path fill="none" stroke="rgb(0,0,0)" d="M 7276,11465 L 7240,11426"/>
       <path fill="none" stroke="rgb(0,0,0)" d="M 7216,11401 L 7179,11363"/>
       <path fill="none" stroke="rgb(0,0,0)" d="M 7156,11338 L 7119,11300"/>
       <path fill="none" stroke="rgb(0,0,0)" d="M 7096,11275 L 7059,11236"/>
       <path fill="none" stroke="rgb(0,0,0)" d="M 7036,11212 L 6999,11173"/>
       <path fill="none" stroke="rgb(0,0,0)" d="M 6975,11148 L 6939,11110"/>
       <path fill="none" stroke="rgb(0,0,0)" d="M 6915,11085 L 6879,11046"/>
       <path fill="none" stroke="rgb(0,0,0)" d="M 6855,11022 L 6819,10983"/>
       <path fill="none" stroke="rgb(0,0,0)" d="M 6795,10958 L 6758,10920"/>
       <path fill="none" stroke="rgb(0,0,0)" d="M 6735,10895 L 6698,10857"/>
       <path fill="none" stroke="rgb(0,0,0)" d="M 6675,10832 L 6638,10793"/>
       <path fill="none" stroke="rgb(0,0,0)" d="M 6614,10769 L 6578,10730"/>
       <path fill="none" stroke="rgb(0,0,0)" d="M 6554,10705 L 6518,10667"/>
       <path fill="none" stroke="rgb(0,0,0)" d="M 6494,10642 L 6458,10603"/>
       <path fill="none" stroke="rgb(0,0,0)" d="M 6434,10579 L 6397,10540"/>
       <path fill="none" stroke="rgb(0,0,0)" d="M 6374,10515 L 6337,10477"/>
       <path fill="none" stroke="rgb(0,0,0)" d="M 6314,10452 L 6277,10414"/>
       <path fill="none" stroke="rgb(0,0,0)" d="M 6253,10389 L 6217,10350"/>
       <path fill="none" stroke="rgb(0,0,0)" d="M 6193,10326 L 6157,10287"/>
       <path fill="none" stroke="rgb(0,0,0)" d="M 6133,10262 L 6097,10224"/>
       <path fill="none" stroke="rgb(0,0,0)" d="M 6073,10199 L 6036,10160"/>
       <path fill="none" stroke="rgb(0,0,0)" d="M 6013,10136 L 5976,10097"/>
       <path fill="none" stroke="rgb(0,0,0)" d="M 5953,10072 L 5916,10034"/>
       <path fill="none" stroke="rgb(0,0,0)" d="M 5892,10009 L 5868,9984"/>
       <path fill="rgb(0,0,0)" stroke="none" d="M 5572,9672 L 5773,10101 5991,9895 5572,9672 Z"/>
       <text class="TextShape"><tspan class="TextParagraph" font-family="Arial, sans-serif" font-size="353px" font-weight="400"><tspan class="TextPosition" x="7814" y="12599"><tspan fill="rgb(0,0,0)" stroke="none">tcp</tspan></tspan></tspan></text>
      </g>
     </g>
     <g class="com.sun.star.drawing.CustomShape">
      <g id="id22">
       <path fill="rgb(255,255,204)" stroke="none" d="M 11264,20295 C 10958,20295 10652,20104 10652,19913 10652,19722 10958,19532 11264,19532 L 13850,19532 C 14156,19532 14463,19722 14463,19913 14463,20104 14156,20295 13850,20295 L 11264,20295 Z M 10652,19532 L 10652,19532 Z M 14463,20295 L 14463,20295 Z"/>
       <path fill="none" stroke="rgb(52,101,175)" d="M 11264,20295 C 10958,20295 10652,20104 10652,19913 10652,19722 10958,19532 11264,19532 L 13850,19532 C 14156,19532 14463,19722 14463,19913 14463,20104 14156,20295 13850,20295 L 11264,20295 Z"/>
       <path fill="none" stroke="rgb(52,101,175)" d="M 10652,19532 L 10652,19532 Z"/>
       <path fill="none" stroke="rgb(52,101,175)" d="M 14463,20295 L 14463,20295 Z"/>
       <text class="TextShape"><tspan class="TextParagraph" font-family="Arial, sans-serif" font-size="353px" font-weight="400"><tspan class="TextPosition" x="10866" y="20036"><tspan fill="rgb(0,0,0)" stroke="none">Jetty process finished</tspan></tspan></tspan></text>
      </g>
     </g>
     <g class="com.sun.star.drawing.ConnectorShape">
      <g id="id23">
       <path fill="none" stroke="rgb(0,0,0)" d="M 12557,18135 L 12557,19102"/>
       <path fill="rgb(0,0,0)" stroke="none" d="M 12557,19532 L 12707,19082 12407,19082 12557,19532 Z"/>
      </g>
     </g>
     <g class="com.sun.star.drawing.ConnectorShape">
      <g id="id24">
       <path fill="none" stroke="rgb(0,0,0)" d="M 5699,14878 L 5745,14904"/>
       <path fill="none" stroke="rgb(0,0,0)" d="M 5775,14922 L 5821,14948"/>
       <path fill="none" stroke="rgb(0,0,0)" d="M 5850,14965 L 5896,14992"/>
       <path fill="none" stroke="rgb(0,0,0)" d="M 5926,15009 L 5972,15035"/>
       <path fill="none" stroke="rgb(0,0,0)" d="M 6002,15052 L 6048,15079"/>
       <path fill="none" stroke="rgb(0,0,0)" d="M 6077,15096 L 6123,15122"/>
       <path fill="none" stroke="rgb(0,0,0)" d="M 6153,15139 L 6199,15166"/>
       <path fill="none" stroke="rgb(0,0,0)" d="M 6229,15183 L 6275,15209"/>
       <path fill="none" stroke="rgb(0,0,0)" d="M 6304,15226 L 6350,15253"/>
       <path fill="none" stroke="rgb(0,0,0)" d="M 6380,15270 L 6426,15296"/>
       <path fill="none" stroke="rgb(0,0,0)" d="M 6456,15314 L 6502,15340"/>
       <path fill="none" stroke="rgb(0,0,0)" d="M 6531,15357 L 6578,15384"/>
       <path fill="none" stroke="rgb(0,0,0)" d="M 6607,15401 L 6653,15427"/>
       <path fill="none" stroke="rgb(0,0,0)" d="M 6683,15444 L 6729,15471"/>
       <path fill="none" stroke="rgb(0,0,0)" d="M 6759,15488 L 6805,15514"/>
       <path fill="none" stroke="rgb(0,0,0)" d="M 6834,15531 L 6880,15558"/>
       <path fill="none" stroke="rgb(0,0,0)" d="M 6910,15575 L 6956,15601"/>
       <path fill="none" stroke="rgb(0,0,0)" d="M 6986,15618 L 7032,15645"/>
       <path fill="none" stroke="rgb(0,0,0)" d="M 7061,15662 L 7107,15688"/>
       <path fill="none" stroke="rgb(0,0,0)" d="M 7137,15706 L 7183,15732"/>
       <path fill="none" stroke="rgb(0,0,0)" d="M 7213,15749 L 7259,15776"/>
       <path fill="none" stroke="rgb(0,0,0)" d="M 7288,15793 L 7334,15819"/>
       <path fill="none" stroke="rgb(0,0,0)" d="M 7364,15836 L 7410,15863"/>
       <path fill="none" stroke="rgb(0,0,0)" d="M 7440,15880 L 7486,15906"/>
       <path fill="none" stroke="rgb(0,0,0)" d="M 7515,15923 L 7561,15950"/>
       <path fill="none" stroke="rgb(0,0,0)" d="M 7591,15967 L 7637,15993"/>
       <path fill="none" stroke="rgb(0,0,0)" d="M 7667,16010 L 7713,16037"/>
       <path fill="none" stroke="rgb(0,0,0)" d="M 7742,16054 L 7788,16080"/>
       <path fill="none" stroke="rgb(0,0,0)" d="M 7818,16097 L 7864,16124"/>
       <path fill="none" stroke="rgb(0,0,0)" d="M 7894,16141 L 7940,16168"/>
       <path fill="none" stroke="rgb(0,0,0)" d="M 7969,16185 L 8015,16211"/>
       <path fill="none" stroke="rgb(0,0,0)" d="M 8045,16228 L 8091,16255"/>
       <path fill="none" stroke="rgb(0,0,0)" d="M 8121,16272 L 8167,16298"/>
       <path fill="none" stroke="rgb(0,0,0)" d="M 8196,16315 L 8242,16342"/>
       <path fill="none" stroke="rgb(0,0,0)" d="M 8272,16359 L 8318,16385"/>
       <path fill="none" stroke="rgb(0,0,0)" d="M 8348,16402 L 8394,16429"/>
       <path fill="none" stroke="rgb(0,0,0)" d="M 8424,16446 L 8470,16472"/>
       <path fill="none" stroke="rgb(0,0,0)" d="M 8499,16489 L 8545,16516"/>
       <path fill="none" stroke="rgb(0,0,0)" d="M 8575,16533 L 8621,16559"/>
       <path fill="none" stroke="rgb(0,0,0)" d="M 8651,16577 L 8697,16603"/>
       <path fill="none" stroke="rgb(0,0,0)" d="M 8726,16620 L 8772,16647"/>
       <path fill="none" stroke="rgb(0,0,0)" d="M 8802,16664 L 8848,16690"/>
       <path fill="none" stroke="rgb(0,0,0)" d="M 8878,16707 L 8924,16734"/>
       <path fill="none" stroke="rgb(0,0,0)" d="M 8953,16751 L 8999,16777"/>
       <path fill="none" stroke="rgb(0,0,0)" d="M 9029,16794 L 9075,16821"/>
       <path fill="none" stroke="rgb(0,0,0)" d="M 9105,16838 L 9151,16864"/>
       <path fill="none" stroke="rgb(0,0,0)" d="M 9180,16881 L 9226,16908"/>
       <path fill="none" stroke="rgb(0,0,0)" d="M 9256,16925 L 9302,16951"/>
       <path fill="none" stroke="rgb(0,0,0)" d="M 9332,16969 L 9378,16995"/>
       <path fill="none" stroke="rgb(0,0,0)" d="M 9407,17012 L 9453,17039"/>
       <path fill="none" stroke="rgb(0,0,0)" d="M 9483,17056 L 9529,17082"/>
       <path fill="none" stroke="rgb(0,0,0)" d="M 9559,17099 L 9605,17126"/>
       <path fill="none" stroke="rgb(0,0,0)" d="M 9634,17143 L 9680,17169"/>
       <path fill="none" stroke="rgb(0,0,0)" d="M 9710,17186 L 9756,17213"/>
       <path fill="rgb(0,0,0)" stroke="none" d="M 10144,17436 L 9829,17082 9679,17342 10144,17436 Z"/>
       <text class="TextShape"><tspan class="TextParagraph" font-family="Arial, sans-serif" font-size="353px" font-weight="400"><tspan class="TextPosition" x="6908" y="16678"><tspan fill="rgb(0,0,0)" stroke="none">          </tspan><tspan fill="rgb(0,0,0)" stroke="none">tcp      </tspan></tspan></tspan></text>
      </g>
     </g>
     <g class="com.sun.star.drawing.CustomShape">
      <g id="id25">
       <path fill="rgb(204,255,204)" stroke="none" d="M 1762,17495 L 5573,17495 5573,18667 1762,18667 1762,17495 1762,17495 Z M 1762,17495 L 1762,17495 Z M 5573,18667 L 5573,18667 Z"/>
       <path fill="none" stroke="rgb(52,101,175)" d="M 1762,17495 L 5573,17495 5573,18667 1762,18667 1762,17495 1762,17495 Z"/>
       <path fill="none" stroke="rgb(52,101,175)" d="M 1762,17495 L 1762,17495 Z"/>
       <path fill="none" stroke="rgb(52,101,175)" d="M 5573,18667 L 5573,18667 Z"/>
       <text class="TextShape"><tspan class="TextParagraph" font-family="Arial, sans-serif" font-size="353px" font-weight="400"><tspan class="TextPosition" x="2014" y="18005"><tspan fill="rgb(0,0,0)" stroke="none">wait for Jetty process</tspan></tspan></tspan><tspan class="TextParagraph" font-family="Arial, sans-serif" font-size="353px" font-weight="400"><tspan class="TextPosition" x="3064" y="18403"><tspan fill="rgb(0,0,0)" stroke="none">to finish</tspan></tspan></tspan></text>
      </g>
     </g>
     <g class="com.sun.star.drawing.ConnectorShape">
      <g id="id26">
       <path fill="none" stroke="rgb(0,0,0)" d="M 3667,15464 L 3667,17066"/>
       <path fill="rgb(0,0,0)" stroke="none" d="M 3667,17496 L 3817,17046 3517,17046 3667,17496 Z"/>
      </g>
     </g>
     <g class="com.sun.star.drawing.ConnectorShape">
      <g id="id27">
       <path fill="none" stroke="rgb(0,0,0)" d="M 10652,19913 L 10602,19895"/>
       <path fill="none" stroke="rgb(0,0,0)" d="M 10570,19883 L 10520,19865"/>
       <path fill="none" stroke="rgb(0,0,0)" d="M 10488,19854 L 10438,19836"/>
       <path fill="none" stroke="rgb(0,0,0)" d="M 10406,19824 L 10356,19806"/>
       <path fill="none" stroke="rgb(0,0,0)" d="M 10323,19795 L 10273,19777"/>
       <path fill="none" stroke="rgb(0,0,0)" d="M 10241,19765 L 10191,19747"/>
       <path fill="none" stroke="rgb(0,0,0)" d="M 10159,19735 L 10109,19717"/>
       <path fill="none" stroke="rgb(0,0,0)" d="M 10077,19706 L 10027,19688"/>
       <path fill="none" stroke="rgb(0,0,0)" d="M 9995,19676 L 9945,19658"/>
       <path fill="none" stroke="rgb(0,0,0)" d="M 9913,19646 L 9863,19628"/>
       <path fill="none" stroke="rgb(0,0,0)" d="M 9831,19617 L 9781,19599"/>
       <path fill="none" stroke="rgb(0,0,0)" d="M 9748,19587 L 9699,19569"/>
       <path fill="none" stroke="rgb(0,0,0)" d="M 9666,19558 L 9616,19540"/>
       <path fill="none" stroke="rgb(0,0,0)" d="M 9584,19528 L 9534,19510"/>
       <path fill="none" stroke="rgb(0,0,0)" d="M 9502,19498 L 9452,19480"/>
       <path fill="none" stroke="rgb(0,0,0)" d="M 9420,19469 L 9370,19451"/>
       <path fill="none" stroke="rgb(0,0,0)" d="M 9338,19439 L 9288,19421"/>
       <path fill="none" stroke="rgb(0,0,0)" d="M 9256,19409 L 9206,19391"/>
       <path fill="none" stroke="rgb(0,0,0)" d="M 9173,19380 L 9124,19362"/>
       <path fill="none" stroke="rgb(0,0,0)" d="M 9091,19350 L 9041,19332"/>
       <path fill="none" stroke="rgb(0,0,0)" d="M 9009,19321 L 8959,19303"/>
       <path fill="none" stroke="rgb(0,0,0)" d="M 8927,19291 L 8877,19273"/>
       <path fill="none" stroke="rgb(0,0,0)" d="M 8845,19261 L 8795,19243"/>
       <path fill="none" stroke="rgb(0,0,0)" d="M 8763,19232 L 8713,19214"/>
       <path fill="none" stroke="rgb(0,0,0)" d="M 8681,19202 L 8631,19184"/>
       <path fill="none" stroke="rgb(0,0,0)" d="M 8599,19172 L 8549,19154"/>
       <path fill="none" stroke="rgb(0,0,0)" d="M 8516,19143 L 8466,19125"/>
       <path fill="none" stroke="rgb(0,0,0)" d="M 8434,19113 L 8384,19095"/>
       <path fill="none" stroke="rgb(0,0,0)" d="M 8352,19084 L 8302,19066"/>
       <path fill="none" stroke="rgb(0,0,0)" d="M 8270,19054 L 8220,19036"/>
       <path fill="none" stroke="rgb(0,0,0)" d="M 8188,19024 L 8138,19006"/>
       <path fill="none" stroke="rgb(0,0,0)" d="M 8106,18995 L 8056,18977"/>
       <path fill="none" stroke="rgb(0,0,0)" d="M 8024,18965 L 7974,18947"/>
       <path fill="none" stroke="rgb(0,0,0)" d="M 7941,18935 L 7891,18917"/>
       <path fill="none" stroke="rgb(0,0,0)" d="M 7859,18906 L 7809,18888"/>
       <path fill="none" stroke="rgb(0,0,0)" d="M 7777,18876 L 7727,18858"/>
       <path fill="none" stroke="rgb(0,0,0)" d="M 7695,18847 L 7645,18829"/>
       <path fill="none" stroke="rgb(0,0,0)" d="M 7613,18817 L 7563,18799"/>
       <path fill="none" stroke="rgb(0,0,0)" d="M 7531,18787 L 7481,18769"/>
       <path fill="none" stroke="rgb(0,0,0)" d="M 7449,18758 L 7399,18740"/>
       <path fill="none" stroke="rgb(0,0,0)" d="M 7366,18728 L 7316,18710"/>
       <path fill="none" stroke="rgb(0,0,0)" d="M 7284,18698 L 7234,18680"/>
       <path fill="none" stroke="rgb(0,0,0)" d="M 7202,18669 L 7152,18651"/>
       <path fill="none" stroke="rgb(0,0,0)" d="M 7120,18639 L 7070,18621"/>
       <path fill="none" stroke="rgb(0,0,0)" d="M 7038,18610 L 6988,18592"/>
       <path fill="none" stroke="rgb(0,0,0)" d="M 6956,18580 L 6906,18562"/>
       <path fill="none" stroke="rgb(0,0,0)" d="M 6874,18550 L 6824,18532"/>
       <path fill="none" stroke="rgb(0,0,0)" d="M 6791,18521 L 6741,18503"/>
       <path fill="none" stroke="rgb(0,0,0)" d="M 6709,18491 L 6659,18473"/>
       <path fill="none" stroke="rgb(0,0,0)" d="M 6627,18462 L 6577,18444"/>
       <path fill="none" stroke="rgb(0,0,0)" d="M 6545,18432 L 6495,18414"/>
       <path fill="none" stroke="rgb(0,0,0)" d="M 6463,18402 L 6413,18384"/>
       <path fill="none" stroke="rgb(0,0,0)" d="M 6381,18373 L 6331,18355"/>
       <path fill="none" stroke="rgb(0,0,0)" d="M 6299,18343 L 6249,18325"/>
       <path fill="none" stroke="rgb(0,0,0)" d="M 6216,18313 L 6167,18295"/>
       <path fill="none" stroke="rgb(0,0,0)" d="M 6134,18284 L 6084,18266"/>
       <path fill="none" stroke="rgb(0,0,0)" d="M 6052,18254 L 6002,18236"/>
       <path fill="rgb(0,0,0)" stroke="none" d="M 5572,18081 L 5944,18375 6046,18093 5572,18081 Z"/>
       <text class="TextShape"><tspan class="TextParagraph" font-family="Arial, sans-serif" font-size="353px" font-weight="400"><tspan class="TextPosition" x="7202" y="19518"><tspan fill="rgb(0,0,0)" stroke="none">thread sync</tspan></tspan></tspan></text>
      </g>
     </g>
     <g class="com.sun.star.drawing.ConnectorShape">
      <g id="id28">
       <path fill="none" stroke="rgb(0,0,0)" d="M 3667,18667 L 3717,20241"/>
       <path fill="rgb(0,0,0)" stroke="none" d="M 3731,20671 L 3867,20216 3567,20226 3731,20671 Z"/>
      </g>
     </g>
     <g class="com.sun.star.drawing.ConnectorShape">
      <g id="id29">
       <path fill="none" stroke="rgb(0,0,0)" d="M 12553,13027 L 12556,13867"/>
       <path fill="rgb(0,0,0)" stroke="none" d="M 12557,14297 L 12706,13847 12406,13847 12557,14297 Z"/>
      </g>
     </g>
     <g class="com.sun.star.drawing.ConnectorShape">
      <g id="id30">
       <path fill="none" stroke="rgb(0,0,0)" d="M 3603,10257 L 3645,11351"/>
       <path fill="rgb(0,0,0)" stroke="none" d="M 3662,11781 L 3794,11326 3495,11337 3662,11781 Z"/>
       <text class="TextShape"><tspan class="TextParagraph" font-family="Arial, sans-serif" font-size="353px" font-weight="400"><tspan class="TextPosition" x="2318" y="11142"><tspan fill="rgb(0,0,0)" stroke="none">                           </tspan></tspan></tspan></text>
      </g>
     </g>
     <g class="com.sun.star.drawing.CustomShape">
      <g id="id31">
       <path fill="rgb(255,255,204)" stroke="none" d="M 10719,9725 L 14402,9725 14402,10780 10719,10780 10719,9725 10719,9725 Z M 10719,9725 L 10719,9725 Z M 14403,10780 L 14403,10780 Z"/>
       <path fill="none" stroke="rgb(52,101,175)" d="M 10719,9725 L 14402,9725 14402,10780 10719,10780 10719,9725 10719,9725 Z"/>
       <path fill="none" stroke="rgb(52,101,175)" d="M 10719,9725 L 10719,9725 Z"/>
       <path fill="none" stroke="rgb(52,101,175)" d="M 14403,10780 L 14403,10780 Z"/>
       <text class="TextShape"><tspan class="TextParagraph" font-family="Arial, sans-serif" font-size="353px" font-weight="400"><tspan class="TextPosition" x="11166" y="10176"><tspan fill="rgb(0,0,0)" stroke="none">suspended mode,</tspan></tspan></tspan><tspan class="TextParagraph" font-family="Arial, sans-serif" font-size="353px" font-weight="400"><tspan class="TextPosition" x="11168" y="10574"><tspan fill="rgb(0,0,0)" stroke="none">listen to port 5005</tspan></tspan></tspan></text>
      </g>
     </g>
     <g class="com.sun.star.drawing.ConnectorShape">
      <g id="id32">
       <path fill="none" stroke="rgb(0,0,0)" d="M 12557,8455 L 12560,9295"/>
       <path fill="rgb(0,0,0)" stroke="none" d="M 12561,9725 L 12710,9275 12410,9275 12561,9725 Z"/>
      </g>
     </g>
     <g class="com.sun.star.drawing.ConnectorShape">
      <g id="id33">
       <path fill="none" stroke="rgb(0,0,0)" d="M 12561,10779 L 12556,11708"/>
       <path fill="rgb(0,0,0)" stroke="none" d="M 12553,12138 L 12706,11689 12406,11687 12553,12138 Z"/>
       <text class="TextShape"><tspan class="TextParagraph" font-family="Arial, sans-serif" font-size="353px" font-weight="400"><tspan class="TextPosition" x="11240" y="11582"><tspan fill="rgb(0,0,0)" stroke="none">resume               </tspan></tspan></tspan></text>
      </g>
     </g>
     <g class="com.sun.star.drawing.CustomShape">
      <g id="id34">
       <path fill="rgb(255,255,204)" stroke="none" d="M 11178,8456 C 10851,8456 10525,8265 10525,8074 10525,7883 10851,7693 11178,7693 L 13936,7693 C 14263,7693 14590,7883 14590,8074 14590,8265 14263,8456 13936,8456 L 11178,8456 Z M 10525,7693 L 10525,7693 Z M 14590,8456 L 14590,8456 Z"/>
       <path fill="none" stroke="rgb(52,101,175)" d="M 11178,8456 C 10851,8456 10525,8265 10525,8074 10525,7883 10851,7693 11178,7693 L 13936,7693 C 14263,7693 14590,7883 14590,8074 14590,8265 14263,8456 13936,8456 L 11178,8456 Z"/>
       <path fill="none" stroke="rgb(52,101,175)" d="M 10525,7693 L 10525,7693 Z"/>
       <path fill="none" stroke="rgb(52,101,175)" d="M 14590,8456 L 14590,8456 Z"/>
       <text class="TextShape"><tspan class="TextParagraph" font-family="Arial, sans-serif" font-size="353px" font-weight="400"><tspan class="TextPosition" x="11037" y="8197"><tspan fill="rgb(0,0,0)" stroke="none">Jetty process starts</tspan></tspan></tspan></text>
      </g>
     </g>
     <g class="com.sun.star.drawing.CustomShape">
      <g id="id35">
       <path fill="rgb(255,255,204)" stroke="none" d="M 10390,12137 L 14717,12137 14717,13026 10390,13026 10390,12137 10390,12137 Z M 10390,12137 L 10390,12137 Z M 14717,13027 L 14717,13027 Z"/>
       <path fill="none" stroke="rgb(52,101,175)" d="M 10390,12137 L 14717,12137 14717,13026 10390,13026 10390,12137 10390,12137 Z"/>
       <path fill="none" stroke="rgb(52,101,175)" d="M 10390,12137 L 10390,12137 Z"/>
       <path fill="none" stroke="rgb(52,101,175)" d="M 14717,13027 L 14717,13027 Z"/>
       <text class="TextShape"><tspan class="TextParagraph" font-family="Arial, sans-serif" font-size="353px" font-weight="400"><tspan class="TextPosition" x="10614" y="12506"><tspan fill="rgb(0,0,0)" stroke="none">listen for HTTP requests </tspan></tspan><tspan class="TextPosition" x="11967" y="12904"><tspan fill="rgb(0,0,0)" stroke="none">on </tspan><tspan font-weight="700" fill="rgb(0,0,0)" stroke="none">port</tspan></tspan></tspan></text>
      </g>
     </g>
    </g>
   </g>
  </g>
 </g>
</svg>