<?xml version="1.0" encoding="UTF-8"?>
<!DOCTYPE svg PUBLIC "-//W3C//DTD SVG 1.1//EN" "http://www.w3.org/Graphics/SVG/1.1/DTD/svg11.dtd">
<svg version="1.2" width="180mm" height="255mm" viewBox="0 0 18000 25500" preserveAspectRatio="xMidYMid" fill-rule="evenodd" clip-path="url(#presentation_clip_path)" stroke-width="28.222" stroke-linejoin="round" xmlns="http://www.w3.org/2000/svg" xmlns:ooo="http://xml.openoffice.org/svg/export" xmlns:xlink="http://www.w3.org/1999/xlink" xml:space="preserve">
 <defs class="ClipPathGroup">
  <clipPath id="presentation_clip_path" clipPathUnits="userSpaceOnUse">
   <rect x="0" y="0" width="18000" height="25500"/>
  </clipPath>
 </defs>
 <defs class="TextShapeIndex">
  <g ooo:slide="id1" ooo:id-list="id3 id4 id5 id6 id7 id8 id9 id10 id11 id12 id13 id14 id15 id16 id17 id18 id19 id20 id21 id22 id23 id24 id25 id26 id27 id28 id29 id30 id31 id32 id33 id34"/>
 </defs>
 <defs class="EmbeddedBulletChars">
  <g id="bullet-char-template(57356)" transform="scale(0.00048828125,-0.00048828125)">
   <path d="M 580,1141 L 1163,571 580,0 -4,571 580,1141 Z"/>
  </g>
  <g id="bullet-char-template(57354)" transform="scale(0.00048828125,-0.00048828125)">
   <path d="M 8,1128 L 1137,1128 1137,0 8,0 8,1128 Z"/>
  </g>
  <g id="bullet-char-template(10146)" transform="scale(0.00048828125,-0.00048828125)">
   <path d="M 174,0 L 602,739 174,1481 1456,739 174,0 Z M 1358,739 L 309,1346 659,739 1358,739 Z"/>
  </g>
  <g id="bullet-char-template(10132)" transform="scale(0.00048828125,-0.00048828125)">
   <path d="M 2015,739 L 1276,0 717,0 1260,543 174,543 174,936 1260,936 717,1481 1274,1481 2015,739 Z"/>
  </g>
  <g id="bullet-char-template(10007)" transform="scale(0.00048828125,-0.00048828125)">
   <path d="M 0,-2 C -7,14 -16,27 -25,37 L 356,567 C 262,823 215,952 215,954 215,979 228,992 255,992 264,992 276,990 289,987 310,991 331,999 354,1012 L 381,999 492,748 772,1049 836,1024 860,1049 C 881,1039 901,1025 922,1006 886,937 835,863 770,784 769,783 710,716 594,584 L 774,223 C 774,196 753,168 711,139 L 727,119 C 717,90 699,76 672,76 641,76 570,178 457,381 L 164,-76 C 142,-110 111,-127 72,-127 30,-127 9,-110 8,-76 1,-67 -2,-52 -2,-32 -2,-23 -1,-13 0,-2 Z"/>
  </g>
  <g id="bullet-char-template(10004)" transform="scale(0.00048828125,-0.00048828125)">
   <path d="M 285,-33 C 182,-33 111,30 74,156 52,228 41,333 41,471 41,549 55,616 82,672 116,743 169,778 240,778 293,778 328,747 346,684 L 369,508 C 377,444 397,411 428,410 L 1163,1116 C 1174,1127 1196,1133 1229,1133 1271,1133 1292,1118 1292,1087 L 1292,965 C 1292,929 1282,901 1262,881 L 442,47 C 390,-6 338,-33 285,-33 Z"/>
  </g>
  <g id="bullet-char-template(9679)" transform="scale(0.00048828125,-0.00048828125)">
   <path d="M 813,0 C 632,0 489,54 383,161 276,268 223,411 223,592 223,773 276,916 383,1023 489,1130 632,1184 813,1184 992,1184 1136,1130 1245,1023 1353,916 1407,772 1407,592 1407,412 1353,268 1245,161 1136,54 992,0 813,0 Z"/>
  </g>
  <g id="bullet-char-template(8226)" transform="scale(0.00048828125,-0.00048828125)">
   <path d="M 346,457 C 273,457 209,483 155,535 101,586 74,649 74,723 74,796 101,859 155,911 209,963 273,989 346,989 419,989 480,963 531,910 582,859 608,796 608,723 608,648 583,586 532,535 482,483 420,457 346,457 Z"/>
  </g>
  <g id="bullet-char-template(8211)" transform="scale(0.00048828125,-0.00048828125)">
   <path d="M -4,459 L 1135,459 1135,606 -4,606 -4,459 Z"/>
  </g>
 </defs>
 <defs class="TextEmbeddedBitmaps"/>
 <g>
  <g id="id2" class="Master_Slide">
   <g id="bg-id2" class="Background"/>
   <g id="bo-id2" class="BackgroundObjects"/>
  </g>
 </g>
 <g class="SlideGroup">
  <g>
   <g id="id1" class="Slide" clip-path="url(#presentation_clip_path)">
    <g class="Page">
     <g class="com.sun.star.drawing.CustomShape">
      <g id="id3">
       <path fill="rgb(204,255,204)" stroke="none" d="M 2044,1890 C 1666,1890 1289,1699 1289,1508 1289,1317 1666,1127 2044,1127 L 5233,1127 C 5611,1127 5989,1317 5989,1508 5989,1699 5611,1890 5233,1890 L 2044,1890 Z M 1289,1127 L 1289,1127 Z M 5989,1890 L 5989,1890 Z"/>
       <path fill="none" stroke="rgb(52,101,175)" d="M 2044,1890 C 1666,1890 1289,1699 1289,1508 1289,1317 1666,1127 2044,1127 L 5233,1127 C 5611,1127 5989,1317 5989,1508 5989,1699 5611,1890 5233,1890 L 2044,1890 Z"/>
       <path fill="none" stroke="rgb(52,101,175)" d="M 1289,1127 L 1289,1127 Z"/>
       <path fill="none" stroke="rgb(52,101,175)" d="M 5989,1890 L 5989,1890 Z"/>
       <text class="TextShape"><tspan class="TextParagraph" font-family="Arial, sans-serif" font-size="353px" font-weight="400"><tspan class="TextPosition" x="1636" y="1631"><tspan fill="rgb(0,0,0)" stroke="none">jettyStartWarDebug starts</tspan></tspan></tspan></text>
      </g>
     </g>
     <g class="com.sun.star.drawing.CustomShape">
      <g id="id4">
       <path fill="rgb(204,255,204)" stroke="none" d="M 1722,3539 L 3641,2777 5561,3539 3641,4301 1722,3539 1722,3539 Z M 1722,2777 L 1722,2777 Z M 5561,4301 L 5561,4301 Z"/>
       <path fill="none" stroke="rgb(52,101,175)" d="M 1722,3539 L 3641,2777 5561,3539 3641,4301 1722,3539 1722,3539 Z"/>
       <path fill="none" stroke="rgb(52,101,175)" d="M 1722,2777 L 1722,2777 Z"/>
       <path fill="none" stroke="rgb(52,101,175)" d="M 5561,4301 L 5561,4301 Z"/>
       <text class="TextShape"><tspan class="TextParagraph" font-family="Arial, sans-serif" font-size="353px" font-weight="400"><tspan class="TextPosition" x="3023" y="3463"><tspan fill="rgb(0,0,0)" stroke="none">sources</tspan></tspan><tspan class="TextPosition" x="2743" y="3861"><tspan fill="rgb(0,0,0)" stroke="none">up-to-date?</tspan></tspan></tspan></text>
      </g>
     </g>
     <g class="com.sun.star.drawing.ConnectorShape">
      <g id="id5">
       <path fill="none" stroke="rgb(0,0,0)" d="M 3640,1889 L 3641,2348"/>
       <path fill="rgb(0,0,0)" stroke="none" d="M 3641,2778 L 3790,2328 3490,2328 3641,2778 Z"/>
      </g>
     </g>
     <g class="com.sun.star.drawing.CustomShape">
      <g id="id6">
       <path fill="rgb(204,255,204)" stroke="none" d="M 5777,4371 L 9038,4371 9038,5191 5777,5191 5777,4371 5777,4371 Z M 5777,4371 L 5777,4371 Z M 9038,5192 L 9038,5192 Z"/>
       <path fill="none" stroke="rgb(52,101,175)" d="M 5777,4371 L 9038,4371 9038,5191 5777,5191 5777,4371 5777,4371 Z"/>
       <path fill="none" stroke="rgb(52,101,175)" d="M 5777,4371 L 5777,4371 Z"/>
       <path fill="none" stroke="rgb(52,101,175)" d="M 9038,5192 L 9038,5192 Z"/>
       <text class="TextShape"><tspan class="TextParagraph" font-family="Arial, sans-serif" font-size="353px" font-weight="400"><tspan class="TextPosition" x="6804" y="4904"><tspan fill="rgb(0,0,0)" stroke="none">compile</tspan></tspan></tspan></text>
      </g>
     </g>
     <g class="com.sun.star.drawing.ConnectorShape">
      <g id="id7">
       <path fill="none" stroke="rgb(0,0,0)" d="M 5560,3540 L 7407,3540 7407,3941"/>
       <path fill="rgb(0,0,0)" stroke="none" d="M 7407,4371 L 7557,3921 7257,3921 7407,4371 Z"/>
       <text class="TextShape"><tspan class="TextParagraph" font-family="Arial, sans-serif" font-size="353px" font-weight="400"><tspan class="TextPosition" x="6289" y="3880"><tspan fill="rgb(0,0,0)" stroke="none">no</tspan></tspan></tspan></text>
      </g>
     </g>
     <g class="com.sun.star.drawing.ConnectorShape">
      <g id="id8">
       <path fill="none" stroke="rgb(0,0,0)" d="M 3641,4301 L 3623,6334"/>
       <path fill="rgb(0,0,0)" stroke="none" d="M 3619,6764 L 3773,6315 3473,6313 3619,6764 Z"/>
       <text class="TextShape"><tspan class="TextParagraph" font-family="Arial, sans-serif" font-size="353px" font-weight="400"><tspan class="TextPosition" x="2965" y="5059"><tspan fill="rgb(0,0,0)" stroke="none">yes        </tspan></tspan></tspan></text>
      </g>
     </g>
     <g class="com.sun.star.drawing.ConnectorShape">
      <g id="id9">
       <path fill="none" stroke="rgb(0,0,0)" d="M 7407,5191 L 7407,5978 3619,5978 3619,6334"/>
       <path fill="rgb(0,0,0)" stroke="none" d="M 3619,6764 L 3769,6314 3469,6314 3619,6764 Z"/>
      </g>
     </g>
     <g class="com.sun.star.drawing.CustomShape">
      <g id="id10">
       <path fill="rgb(204,255,204)" stroke="none" d="M 1215,8836 L 5989,8836 5989,9891 1215,9891 1215,8836 1215,8836 Z M 1215,8836 L 1215,8836 Z M 5989,9891 L 5989,9891 Z"/>
       <path fill="none" stroke="rgb(52,101,175)" d="M 1215,8836 L 5989,8836 5989,9891 1215,9891 1215,8836 1215,8836 Z"/>
       <path fill="none" stroke="rgb(52,101,175)" d="M 1215,8836 L 1215,8836 Z"/>
       <path fill="none" stroke="rgb(52,101,175)" d="M 5989,9891 L 5989,9891 Z"/>
       <text class="TextShape"><tspan class="TextParagraph" font-family="Arial, sans-serif" font-size="353px" font-weight="400"><tspan class="TextPosition" x="2122" y="9287"><tspan fill="rgb(0,0,0)" stroke="none">start Jetty process </tspan></tspan><tspan class="TextPosition" x="2423" y="9685"><tspan fill="rgb(0,0,0)" stroke="none">against war-file</tspan></tspan></tspan></text>
      </g>
     </g>
     <g class="com.sun.star.drawing.ConnectorShape">
      <g id="id11">
       <path fill="none" stroke="rgb(0,0,0)" d="M 3603,9890 C 3603,9906 3606,9922 3613,9938"/>
       <path fill="none" stroke="rgb(0,0,0)" d="M 3630,9968 C 3641,9983 3655,9997 3672,10012"/>
       <path fill="none" stroke="rgb(0,0,0)" d="M 3694,10028 C 3706,10037 3719,10045 3734,10054"/>
       <path fill="none" stroke="rgb(0,0,0)" d="M 3763,10070 C 3779,10078 3797,10086 3815,10094"/>
       <path fill="none" stroke="rgb(0,0,0)" d="M 3852,10109 C 3868,10115 3884,10121 3901,10127"/>
       <path fill="none" stroke="rgb(0,0,0)" d="M 3929,10137 C 3944,10142 3960,10147 3976,10152"/>
       <path fill="none" stroke="rgb(0,0,0)" d="M 4008,10161 C 4024,10166 4041,10170 4059,10175"/>
       <path fill="none" stroke="rgb(0,0,0)" d="M 4094,10184 C 4112,10189 4131,10193 4151,10198"/>
       <path fill="none" stroke="rgb(0,0,0)" d="M 4189,10206 C 4206,10210 4223,10214 4240,10217"/>
       <path fill="none" stroke="rgb(0,0,0)" d="M 4270,10224 C 4286,10227 4302,10230 4318,10233"/>
       <path fill="none" stroke="rgb(0,0,0)" d="M 4349,10239 C 4366,10242 4383,10245 4400,10248"/>
       <path fill="none" stroke="rgb(0,0,0)" d="M 4433,10254 C 4451,10257 4468,10260 4486,10263"/>
       <path fill="none" stroke="rgb(0,0,0)" d="M 4522,10268 C 4540,10271 4559,10274 4578,10277"/>
       <path fill="none" stroke="rgb(0,0,0)" d="M 4614,10283 C 4634,10285 4653,10288 4673,10291"/>
       <path fill="none" stroke="rgb(0,0,0)" d="M 4706,10296 C 4722,10298 4738,10300 4754,10302"/>
       <path fill="none" stroke="rgb(0,0,0)" d="M 4785,10306 C 4802,10308 4818,10310 4835,10312"/>
       <path fill="none" stroke="rgb(0,0,0)" d="M 4867,10316 C 4884,10318 4901,10320 4919,10322"/>
       <path fill="none" stroke="rgb(0,0,0)" d="M 4952,10326 C 4970,10328 4987,10330 5005,10332"/>
       <path fill="none" stroke="rgb(0,0,0)" d="M 5040,10336 C 5058,10338 5076,10340 5094,10342"/>
       <path fill="none" stroke="rgb(0,0,0)" d="M 5130,10345 C 5148,10347 5167,10349 5186,10351"/>
       <path fill="none" stroke="rgb(0,0,0)" d="M 5223,10355 C 5242,10356 5261,10358 5280,10360"/>
       <path fill="none" stroke="rgb(0,0,0)" d="M 5314,10363 C 5330,10365 5347,10366 5363,10367"/>
       <path fill="none" stroke="rgb(0,0,0)" d="M 5395,10370 C 5411,10372 5428,10373 5445,10375"/>
       <path fill="none" stroke="rgb(0,0,0)" d="M 5477,10377 C 5494,10379 5511,10380 5528,10381"/>
       <path fill="none" stroke="rgb(0,0,0)" d="M 5561,10384 C 5579,10385 5596,10387 5613,10388"/>
       <path fill="none" stroke="rgb(0,0,0)" d="M 5647,10391 C 5665,10392 5683,10393 5701,10395"/>
       <path fill="none" stroke="rgb(0,0,0)" d="M 5735,10397 C 5753,10399 5771,10400 5790,10401"/>
       <path fill="none" stroke="rgb(0,0,0)" d="M 5825,10404 C 5843,10405 5862,10406 5881,10407"/>
       <path fill="none" stroke="rgb(0,0,0)" d="M 5917,10410 C 5935,10411 5954,10412 5973,10413"/>
       <path fill="none" stroke="rgb(0,0,0)" d="M 6010,10416 C 6028,10417 6046,10418 6064,10419"/>
       <path fill="none" stroke="rgb(0,0,0)" d="M 6096,10421 C 6112,10422 6129,10423 6145,10424"/>
       <path fill="none" stroke="rgb(0,0,0)" d="M 6178,10426 C 6194,10427 6211,10428 6228,10429"/>
       <path fill="none" stroke="rgb(0,0,0)" d="M 6261,10431 C 6278,10432 6295,10432 6312,10433"/>
       <path fill="none" stroke="rgb(0,0,0)" d="M 6346,10435 C 6363,10436 6380,10437 6398,10438"/>
       <path fill="none" stroke="rgb(0,0,0)" d="M 6432,10440 C 6449,10441 6467,10441 6485,10442"/>
       <path fill="none" stroke="rgb(0,0,0)" d="M 6519,10444 C 6537,10445 6555,10446 6573,10447"/>
       <path fill="none" stroke="rgb(0,0,0)" d="M 6608,10448 C 6626,10449 6644,10450 6662,10451"/>
       <path fill="none" stroke="rgb(0,0,0)" d="M 6698,10452 C 6716,10453 6735,10454 6753,10455"/>
       <path fill="none" stroke="rgb(0,0,0)" d="M 6789,10456 C 6808,10457 6827,10458 6845,10459"/>
       <path fill="none" stroke="rgb(0,0,0)" d="M 6882,10460 C 6900,10461 6918,10462 6937,10463"/>
       <path fill="none" stroke="rgb(0,0,0)" d="M 6969,10464 C 6985,10464 7002,10465 7019,10466"/>
       <path fill="none" stroke="rgb(0,0,0)" d="M 7051,10467 C 7068,10468 7085,10468 7102,10469"/>
       <path fill="none" stroke="rgb(0,0,0)" d="M 7135,10470 C 7152,10471 7169,10471 7186,10472"/>
       <path fill="none" stroke="rgb(0,0,0)" d="M 7219,10473 C 7237,10474 7254,10474 7271,10475"/>
       <path fill="none" stroke="rgb(0,0,0)" d="M 7305,10476 C 7322,10477 7340,10477 7357,10478"/>
       <path fill="none" stroke="rgb(0,0,0)" d="M 7391,10479 C 7409,10479 7427,10480 7444,10481"/>
       <path fill="none" stroke="rgb(0,0,0)" d="M 7479,10482 C 7497,10482 7515,10483 7533,10483"/>
       <path fill="none" stroke="rgb(0,0,0)" d="M 7567,10484 C 7585,10485 7604,10485 7622,10486"/>
       <path fill="none" stroke="rgb(0,0,0)" d="M 7657,10487 C 7675,10487 7694,10488 7712,10488"/>
       <path fill="none" stroke="rgb(0,0,0)" d="M 7747,10489 C 7766,10490 7784,10490 7803,10491"/>
       <path fill="none" stroke="rgb(0,0,0)" d="M 7839,10492 C 7858,10492 7876,10493 7895,10493"/>
       <path fill="none" stroke="rgb(0,0,0)" d="M 7932,10494 C 7948,10495 7965,10495 7982,10495"/>
       <path fill="none" stroke="rgb(0,0,0)" d="M 8015,10496 C 8032,10497 8048,10497 8065,10497"/>
       <path fill="none" stroke="rgb(0,0,0)" d="M 8098,10498 C 8115,10498 8132,10499 8149,10499"/>
       <path fill="none" stroke="rgb(0,0,0)" d="M 8182,10500 C 8199,10500 8216,10501 8234,10501"/>
       <path fill="none" stroke="rgb(0,0,0)" d="M 8267,10502 C 8284,10502 8302,10502 8319,10503"/>
       <path fill="none" stroke="rgb(0,0,0)" d="M 8353,10503 C 8370,10504 8388,10504 8405,10504"/>
       <path fill="none" stroke="rgb(0,0,0)" d="M 8439,10505 C 8457,10505 8474,10506 8492,10506"/>
       <path fill="none" stroke="rgb(0,0,0)" d="M 8526,10507 C 8544,10507 8562,10507 8580,10508"/>
       <path fill="none" stroke="rgb(0,0,0)" d="M 8614,10508 C 8632,10508 8650,10509 8668,10509"/>
       <path fill="none" stroke="rgb(0,0,0)" d="M 8703,10510 C 8721,10510 8739,10510 8757,10510"/>
       <path fill="none" stroke="rgb(0,0,0)" d="M 8792,10511 C 8811,10511 8829,10511 8847,10512"/>
       <path fill="none" stroke="rgb(0,0,0)" d="M 8883,10512 C 8901,10513 8919,10513 8938,10513"/>
       <path fill="none" stroke="rgb(0,0,0)" d="M 8974,10514 C 8992,10514 9011,10514 9029,10514"/>
       <path fill="none" stroke="rgb(0,0,0)" d="M 9066,10515 C 9083,10515 9101,10515 9118,10515"/>
       <path fill="none" stroke="rgb(0,0,0)" d="M 9151,10516 C 9168,10516 9185,10516 9202,10516"/>
       <path fill="none" stroke="rgb(0,0,0)" d="M 9234,10517 C 9251,10517 9268,10517 9286,10517"/>
       <path fill="none" stroke="rgb(0,0,0)" d="M 9319,10518 C 9336,10518 9353,10518 9370,10518"/>
       <path fill="none" stroke="rgb(0,0,0)" d="M 9403,10518 C 9421,10519 9438,10519 9455,10519"/>
       <path fill="none" stroke="rgb(0,0,0)" d="M 9489,10519 C 9506,10519 9523,10520 9541,10520"/>
       <path fill="none" stroke="rgb(0,0,0)" d="M 9575,10520 C 9592,10520 9610,10520 9627,10520"/>
       <path fill="none" stroke="rgb(0,0,0)" d="M 9661,10521 C 9679,10521 9697,10521 9714,10521"/>
       <path fill="none" stroke="rgb(0,0,0)" d="M 9749,10521 C 9766,10521 9784,10522 9802,10522"/>
       <path fill="none" stroke="rgb(0,0,0)" d="M 9836,10522 C 9854,10522 9872,10522 9890,10522"/>
       <path fill="none" stroke="rgb(0,0,0)" d="M 9925,10522 C 9943,10523 9961,10523 9979,10523"/>
       <path fill="none" stroke="rgb(0,0,0)" d="M 10014,10523 C 10032,10523 10050,10523 10068,10523"/>
       <path fill="none" stroke="rgb(0,0,0)" d="M 10104,10523 C 10122,10523 10140,10524 10159,10524"/>
       <path fill="none" stroke="rgb(0,0,0)" d="M 10194,10524 C 10212,10524 10231,10524 10249,10524"/>
       <path fill="none" stroke="rgb(0,0,0)" d="M 10285,10524 C 10304,10524 10322,10524 10341,10524"/>
       <path fill="rgb(0,0,0)" stroke="none" d="M 10815,10525 L 10365,10374 10365,10674 10815,10525 Z"/>
       <text class="TextShape"><tspan class="TextParagraph" font-family="Arial, sans-serif" font-size="353px" font-weight="400"><tspan class="TextPosition" x="8255" y="10331"><tspan fill="rgb(0,0,0)" stroke="none">start process   </tspan></tspan></tspan></text>
      </g>
     </g>
     <g class="com.sun.star.drawing.CustomShape">
      <g id="id12">
       <path fill="rgb(255,255,204)" stroke="none" d="M 10815,16338 L 14880,16338 14880,17510 10815,17510 10815,16338 10815,16338 Z M 10815,16338 L 10815,16338 Z M 14880,17510 L 14880,17510 Z"/>
       <path fill="none" stroke="rgb(52,101,175)" d="M 10815,16338 L 14880,16338 14880,17510 10815,17510 10815,16338 10815,16338 Z"/>
       <path fill="none" stroke="rgb(52,101,175)" d="M 10815,16338 L 10815,16338 Z"/>
       <path fill="none" stroke="rgb(52,101,175)" d="M 14880,17510 L 14880,17510 Z"/>
       <text class="TextShape"><tspan class="TextParagraph" font-family="Arial, sans-serif" font-size="353px" font-weight="400"><tspan class="TextPosition" x="11207" y="16848"><tspan fill="rgb(0,0,0)" stroke="none">send “started” signal </tspan></tspan></tspan><tspan class="TextParagraph" font-family="Arial, sans-serif" font-size="353px" font-weight="400"><tspan class="TextPosition" x="11783" y="17246"><tspan fill="rgb(0,0,0)" stroke="none">to </tspan><tspan font-weight="700" fill="rgb(0,0,0)" stroke="none">statusPort</tspan></tspan></tspan></text>
      </g>
     </g>
     <g class="com.sun.star.drawing.ConnectorShape">
      <g id="id13">
       <path fill="none" stroke="rgb(0,0,0)" d="M 3603,9890 L 3630,11069"/>
       <path fill="rgb(0,0,0)" stroke="none" d="M 3640,11499 L 3780,11046 3480,11053 3640,11499 Z"/>
      </g>
     </g>
     <g class="com.sun.star.drawing.CustomShape">
      <g id="id14">
       <path fill="rgb(204,255,204)" stroke="none" d="M 1670,11498 L 5608,11498 5608,12670 1670,12670 1670,11498 1670,11498 Z M 1670,11498 L 1670,11498 Z M 5608,12670 L 5608,12670 Z"/>
       <path fill="none" stroke="rgb(52,101,175)" d="M 1670,11498 L 5608,11498 5608,12670 1670,12670 1670,11498 1670,11498 Z"/>
       <path fill="none" stroke="rgb(52,101,175)" d="M 1670,11498 L 1670,11498 Z"/>
       <path fill="none" stroke="rgb(52,101,175)" d="M 5608,12670 L 5608,12670 Z"/>
       <text class="TextShape"><tspan class="TextParagraph" font-family="Arial, sans-serif" font-size="353px" font-weight="400"><tspan class="TextPosition" x="1814" y="12008"><tspan fill="rgb(0,0,0)" stroke="none">wait for “started” signal </tspan></tspan><tspan class="TextPosition" x="2525" y="12406"><tspan fill="rgb(0,0,0)" stroke="none">on </tspan><tspan font-weight="700" fill="rgb(0,0,0)" stroke="none">statusPort</tspan></tspan></tspan></text>
      </g>
     </g>
     <g class="com.sun.star.drawing.CustomShape">
      <g id="id15">
       <path fill="rgb(255,255,204)" stroke="none" d="M 11468,10907 C 11141,10907 10815,10716 10815,10525 10815,10334 11141,10144 11468,10144 L 14226,10144 C 14553,10144 14880,10334 14880,10525 14880,10716 14553,10907 14226,10907 L 11468,10907 Z M 10815,10144 L 10815,10144 Z M 14880,10907 L 14880,10907 Z"/>
       <path fill="none" stroke="rgb(52,101,175)" d="M 11468,10907 C 11141,10907 10815,10716 10815,10525 10815,10334 11141,10144 11468,10144 L 14226,10144 C 14553,10144 14880,10334 14880,10525 14880,10716 14553,10907 14226,10907 L 11468,10907 Z"/>
       <path fill="none" stroke="rgb(52,101,175)" d="M 10815,10144 L 10815,10144 Z"/>
       <path fill="none" stroke="rgb(52,101,175)" d="M 14880,10907 L 14880,10907 Z"/>
       <text class="TextShape"><tspan class="TextParagraph" font-family="Arial, sans-serif" font-size="353px" font-weight="400"><tspan class="TextPosition" x="11327" y="10648"><tspan fill="rgb(0,0,0)" stroke="none">Jetty process starts</tspan></tspan></tspan></text>
      </g>
     </g>
     <g class="com.sun.star.drawing.ConnectorShape">
      <g id="id16">
       <path fill="none" stroke="rgb(0,0,0)" d="M 12873,13014 L 12859,13778"/>
       <path fill="rgb(0,0,0)" stroke="none" d="M 12851,14208 L 13009,13761 12709,13755 12851,14208 Z"/>
       <text class="TextShape"><tspan class="TextParagraph" font-family="Arial, sans-serif" font-size="353px" font-weight="400"><tspan class="TextPosition" x="11496" y="13734"><tspan fill="rgb(0,0,0)" stroke="none">resume                </tspan></tspan></tspan></text>
      </g>
     </g>
     <g class="com.sun.star.drawing.CustomShape">
      <g id="id17">
       <path fill="rgb(255,255,204)" stroke="none" d="M 10434,18779 L 15261,18779 15261,20177 10434,20177 10434,18779 10434,18779 Z M 10434,18779 L 10434,18779 Z M 15261,20177 L 15261,20177 Z"/>
       <path fill="none" stroke="rgb(52,101,175)" d="M 10434,18779 L 15261,18779 15261,20177 10434,20177 10434,18779 10434,18779 Z"/>
       <path fill="none" stroke="rgb(52,101,175)" d="M 10434,18779 L 10434,18779 Z"/>
       <path fill="none" stroke="rgb(52,101,175)" d="M 15261,20177 L 15261,20177 Z"/>
       <text class="TextShape"><tspan class="TextParagraph" font-family="Arial, sans-serif" font-size="353px" font-weight="400"><tspan class="TextPosition" x="11914" y="19203"><tspan fill="rgb(0,0,0)" stroke="none">In wait loop.</tspan></tspan><tspan class="TextPosition" x="11131" y="19601"><tspan fill="rgb(0,0,0)" stroke="none">listen for “stop” signal </tspan></tspan><tspan class="TextPosition" x="11649" y="19999"><tspan fill="rgb(0,0,0)" stroke="none">on </tspan><tspan font-weight="700" fill="rgb(0,0,0)" stroke="none">servicePort</tspan></tspan></tspan></text>
      </g>
     </g>
     <g class="com.sun.star.drawing.ConnectorShape">
      <g id="id18">
       <path fill="none" stroke="rgb(0,0,0)" d="M 12847,17510 L 12847,18350"/>
       <path fill="rgb(0,0,0)" stroke="none" d="M 12847,18780 L 12997,18330 12697,18330 12847,18780 Z"/>
      </g>
     </g>
     <g class="com.sun.star.drawing.CustomShape">
      <g id="id19">
       <path fill="rgb(204,255,204)" stroke="none" d="M 1998,24369 C 1580,24369 1162,24047 1162,23726 1162,23405 1580,23084 1998,23084 L 5533,23084 C 5951,23084 6370,23405 6370,23726 6370,24047 5951,24369 5533,24369 L 1998,24369 Z M 1162,23084 L 1162,23084 Z M 6370,24369 L 6370,24369 Z"/>
       <path fill="none" stroke="rgb(52,101,175)" d="M 1998,24369 C 1580,24369 1162,24047 1162,23726 1162,23405 1580,23084 1998,23084 L 5533,23084 C 5951,23084 6370,23405 6370,23726 6370,24047 5951,24369 5533,24369 L 1998,24369 Z"/>
       <path fill="none" stroke="rgb(52,101,175)" d="M 1162,23084 L 1162,23084 Z"/>
       <path fill="none" stroke="rgb(52,101,175)" d="M 6370,24369 L 6370,24369 Z"/>
       <text class="TextShape"><tspan class="TextParagraph" font-family="Arial, sans-serif" font-size="353px" font-weight="400"><tspan class="TextPosition" x="1543" y="23451"><tspan fill="rgb(0,0,0)" stroke="none">jettyStartWarDebug finished.</tspan></tspan><tspan class="TextPosition" x="2417" y="23849"><tspan fill="rgb(0,0,0)" stroke="none">Gradle proceeds </tspan></tspan><tspan class="TextPosition" x="2544" y="24247"><tspan fill="rgb(0,0,0)" stroke="none">with other tasks</tspan></tspan></tspan></text>
      </g>
     </g>
     <g class="com.sun.star.drawing.ConnectorShape">
      <g id="id20">
       <path fill="none" stroke="rgb(0,0,0)" d="M 10815,16924 L 10776,16888"/>
       <path fill="none" stroke="rgb(0,0,0)" d="M 10751,16865 L 10712,16828"/>
       <path fill="none" stroke="rgb(0,0,0)" d="M 10687,16805 L 10648,16769"/>
       <path fill="none" stroke="rgb(0,0,0)" d="M 10623,16746 L 10584,16710"/>
       <path fill="none" stroke="rgb(0,0,0)" d="M 10559,16686 L 10520,16650"/>
       <path fill="none" stroke="rgb(0,0,0)" d="M 10495,16627 L 10456,16591"/>
       <path fill="none" stroke="rgb(0,0,0)" d="M 10431,16567 L 10392,16531"/>
       <path fill="none" stroke="rgb(0,0,0)" d="M 10367,16508 L 10328,16472"/>
       <path fill="none" stroke="rgb(0,0,0)" d="M 10303,16448 L 10264,16412"/>
       <path fill="none" stroke="rgb(0,0,0)" d="M 10239,16389 L 10200,16353"/>
       <path fill="none" stroke="rgb(0,0,0)" d="M 10175,16330 L 10136,16293"/>
       <path fill="none" stroke="rgb(0,0,0)" d="M 10111,16270 L 10073,16234"/>
       <path fill="none" stroke="rgb(0,0,0)" d="M 10047,16211 L 10009,16175"/>
       <path fill="none" stroke="rgb(0,0,0)" d="M 9983,16151 L 9945,16115"/>
       <path fill="none" stroke="rgb(0,0,0)" d="M 9920,16092 L 9881,16056"/>
       <path fill="none" stroke="rgb(0,0,0)" d="M 9856,16032 L 9817,15996"/>
       <path fill="none" stroke="rgb(0,0,0)" d="M 9792,15973 L 9753,15937"/>
       <path fill="none" stroke="rgb(0,0,0)" d="M 9728,15913 L 9689,15877"/>
       <path fill="none" stroke="rgb(0,0,0)" d="M 9664,15854 L 9625,15818"/>
       <path fill="none" stroke="rgb(0,0,0)" d="M 9600,15795 L 9561,15758"/>
       <path fill="none" stroke="rgb(0,0,0)" d="M 9536,15735 L 9497,15699"/>
       <path fill="none" stroke="rgb(0,0,0)" d="M 9472,15676 L 9433,15640"/>
       <path fill="none" stroke="rgb(0,0,0)" d="M 9408,15616 L 9369,15580"/>
       <path fill="none" stroke="rgb(0,0,0)" d="M 9344,15557 L 9305,15521"/>
       <path fill="none" stroke="rgb(0,0,0)" d="M 9280,15497 L 9241,15461"/>
       <path fill="none" stroke="rgb(0,0,0)" d="M 9216,15438 L 9177,15402"/>
       <path fill="none" stroke="rgb(0,0,0)" d="M 9152,15379 L 9113,15342"/>
       <path fill="none" stroke="rgb(0,0,0)" d="M 9088,15319 L 9049,15283"/>
       <path fill="none" stroke="rgb(0,0,0)" d="M 9024,15260 L 8985,15223"/>
       <path fill="none" stroke="rgb(0,0,0)" d="M 8960,15200 L 8921,15164"/>
       <path fill="none" stroke="rgb(0,0,0)" d="M 8896,15141 L 8857,15105"/>
       <path fill="none" stroke="rgb(0,0,0)" d="M 8832,15081 L 8793,15045"/>
       <path fill="none" stroke="rgb(0,0,0)" d="M 8768,15022 L 8729,14986"/>
       <path fill="none" stroke="rgb(0,0,0)" d="M 8704,14962 L 8665,14926"/>
       <path fill="none" stroke="rgb(0,0,0)" d="M 8640,14903 L 8601,14867"/>
       <path fill="none" stroke="rgb(0,0,0)" d="M 8576,14844 L 8537,14807"/>
       <path fill="none" stroke="rgb(0,0,0)" d="M 8512,14784 L 8473,14748"/>
       <path fill="none" stroke="rgb(0,0,0)" d="M 8448,14725 L 8410,14689"/>
       <path fill="none" stroke="rgb(0,0,0)" d="M 8384,14665 L 8346,14629"/>
       <path fill="none" stroke="rgb(0,0,0)" d="M 8320,14606 L 8282,14570"/>
       <path fill="none" stroke="rgb(0,0,0)" d="M 8257,14546 L 8218,14510"/>
       <path fill="none" stroke="rgb(0,0,0)" d="M 8193,14487 L 8154,14451"/>
       <path fill="none" stroke="rgb(0,0,0)" d="M 8129,14427 L 8090,14391"/>
       <path fill="none" stroke="rgb(0,0,0)" d="M 8065,14368 L 8026,14332"/>
       <path fill="none" stroke="rgb(0,0,0)" d="M 8001,14309 L 7962,14272"/>
       <path fill="none" stroke="rgb(0,0,0)" d="M 7937,14249 L 7898,14213"/>
       <path fill="none" stroke="rgb(0,0,0)" d="M 7873,14190 L 7834,14154"/>
       <path fill="none" stroke="rgb(0,0,0)" d="M 7809,14130 L 7770,14094"/>
       <path fill="none" stroke="rgb(0,0,0)" d="M 7745,14071 L 7706,14035"/>
       <path fill="none" stroke="rgb(0,0,0)" d="M 7681,14011 L 7642,13975"/>
       <path fill="none" stroke="rgb(0,0,0)" d="M 7617,13952 L 7578,13916"/>
       <path fill="none" stroke="rgb(0,0,0)" d="M 7553,13892 L 7514,13856"/>
       <path fill="none" stroke="rgb(0,0,0)" d="M 7489,13833 L 7450,13797"/>
       <path fill="none" stroke="rgb(0,0,0)" d="M 7425,13774 L 7386,13737"/>
       <path fill="none" stroke="rgb(0,0,0)" d="M 7361,13714 L 7322,13678"/>
       <path fill="none" stroke="rgb(0,0,0)" d="M 7297,13655 L 7258,13619"/>
       <path fill="none" stroke="rgb(0,0,0)" d="M 7233,13595 L 7194,13559"/>
       <path fill="none" stroke="rgb(0,0,0)" d="M 7169,13536 L 7130,13500"/>
       <path fill="none" stroke="rgb(0,0,0)" d="M 7105,13476 L 7066,13440"/>
       <path fill="none" stroke="rgb(0,0,0)" d="M 7041,13417 L 7002,13381"/>
       <path fill="none" stroke="rgb(0,0,0)" d="M 6977,13358 L 6938,13321"/>
       <path fill="none" stroke="rgb(0,0,0)" d="M 6913,13298 L 6874,13262"/>
       <path fill="none" stroke="rgb(0,0,0)" d="M 6849,13239 L 6810,13202"/>
       <path fill="none" stroke="rgb(0,0,0)" d="M 6785,13179 L 6747,13143"/>
       <path fill="none" stroke="rgb(0,0,0)" d="M 6721,13120 L 6683,13084"/>
       <path fill="none" stroke="rgb(0,0,0)" d="M 6657,13060 L 6619,13024"/>
       <path fill="none" stroke="rgb(0,0,0)" d="M 6594,13001 L 6555,12965"/>
       <path fill="none" stroke="rgb(0,0,0)" d="M 6530,12941 L 6491,12905"/>
       <path fill="none" stroke="rgb(0,0,0)" d="M 6466,12882 L 6427,12846"/>
       <path fill="none" stroke="rgb(0,0,0)" d="M 6402,12823 L 6363,12786"/>
       <path fill="none" stroke="rgb(0,0,0)" d="M 6338,12763 L 6299,12727"/>
       <path fill="none" stroke="rgb(0,0,0)" d="M 6274,12704 L 6235,12668"/>
       <path fill="none" stroke="rgb(0,0,0)" d="M 6210,12644 L 6171,12608"/>
       <path fill="none" stroke="rgb(0,0,0)" d="M 6146,12585 L 6107,12549"/>
       <path fill="none" stroke="rgb(0,0,0)" d="M 6082,12525 L 6043,12489"/>
       <path fill="none" stroke="rgb(0,0,0)" d="M 6018,12466 L 5979,12430"/>
       <path fill="none" stroke="rgb(0,0,0)" d="M 5954,12406 L 5923,12378"/>
       <path fill="rgb(0,0,0)" stroke="none" d="M 5608,12085 L 5836,12501 6040,12281 5608,12085 Z"/>
       <text class="TextShape"><tspan class="TextParagraph" font-family="Arial, sans-serif" font-size="353px" font-weight="400"><tspan class="TextPosition" x="7977" y="14827"><tspan fill="rgb(0,0,0)" stroke="none">tcp</tspan></tspan></tspan></text>
      </g>
     </g>
     <g class="com.sun.star.drawing.CustomShape">
      <g id="id21">
       <path fill="rgb(255,255,204)" stroke="none" d="M 11554,22083 C 11248,22083 10942,21892 10942,21701 10942,21510 11248,21320 11554,21320 L 14140,21320 C 14446,21320 14753,21510 14753,21701 14753,21892 14446,22083 14140,22083 L 11554,22083 Z M 10942,21320 L 10942,21320 Z M 14753,22083 L 14753,22083 Z"/>
       <path fill="none" stroke="rgb(52,101,175)" d="M 11554,22083 C 11248,22083 10942,21892 10942,21701 10942,21510 11248,21320 11554,21320 L 14140,21320 C 14446,21320 14753,21510 14753,21701 14753,21892 14446,22083 14140,22083 L 11554,22083 Z"/>
       <path fill="none" stroke="rgb(52,101,175)" d="M 10942,21320 L 10942,21320 Z"/>
       <path fill="none" stroke="rgb(52,101,175)" d="M 14753,22083 L 14753,22083 Z"/>
       <text class="TextShape"><tspan class="TextParagraph" font-family="Arial, sans-serif" font-size="353px" font-weight="400"><tspan class="TextPosition" x="11156" y="21824"><tspan fill="rgb(0,0,0)" stroke="none">Jetty process finished</tspan></tspan></tspan></text>
      </g>
     </g>
     <g class="com.sun.star.drawing.ConnectorShape">
      <g id="id22">
       <path fill="none" stroke="rgb(0,0,0)" d="M 12847,20177 L 12847,20890"/>
       <path fill="rgb(0,0,0)" stroke="none" d="M 12847,21320 L 12997,20870 12697,20870 12847,21320 Z"/>
      </g>
     </g>
     <g class="com.sun.star.drawing.CustomShape">
      <g id="id23">
       <path fill="rgb(204,255,204)" stroke="none" d="M 1798,19908 L 5609,19908 5609,21080 1798,21080 1798,19908 1798,19908 Z M 1798,19908 L 1798,19908 Z M 5609,21080 L 5609,21080 Z"/>
       <path fill="none" stroke="rgb(52,101,175)" d="M 1798,19908 L 5609,19908 5609,21080 1798,21080 1798,19908 1798,19908 Z"/>
       <path fill="none" stroke="rgb(52,101,175)" d="M 1798,19908 L 1798,19908 Z"/>
       <path fill="none" stroke="rgb(52,101,175)" d="M 5609,21080 L 5609,21080 Z"/>
       <text class="TextShape"><tspan class="TextParagraph" font-family="Arial, sans-serif" font-size="353px" font-weight="400"><tspan class="TextPosition" x="2050" y="20418"><tspan fill="rgb(0,0,0)" stroke="none">wait for Jetty process</tspan></tspan></tspan><tspan class="TextParagraph" font-family="Arial, sans-serif" font-size="353px" font-weight="400"><tspan class="TextPosition" x="3100" y="20816"><tspan fill="rgb(0,0,0)" stroke="none">to finish</tspan></tspan></tspan></text>
      </g>
     </g>
     <g class="com.sun.star.drawing.ConnectorShape">
      <g id="id24">
       <path fill="none" stroke="rgb(0,0,0)" d="M 3640,12670 L 3699,19479"/>
       <path fill="rgb(0,0,0)" stroke="none" d="M 3703,19909 L 3849,19458 3549,19460 3703,19909 Z"/>
      </g>
     </g>
     <g class="com.sun.star.drawing.ConnectorShape">
      <g id="id25">
       <path fill="none" stroke="rgb(0,0,0)" d="M 10942,21701 L 10890,21689"/>
       <path fill="none" stroke="rgb(0,0,0)" d="M 10857,21682 L 10805,21670"/>
       <path fill="none" stroke="rgb(0,0,0)" d="M 10772,21662 L 10720,21651"/>
       <path fill="none" stroke="rgb(0,0,0)" d="M 10687,21643 L 10635,21631"/>
       <path fill="none" stroke="rgb(0,0,0)" d="M 10601,21624 L 10550,21612"/>
       <path fill="none" stroke="rgb(0,0,0)" d="M 10516,21605 L 10464,21593"/>
       <path fill="none" stroke="rgb(0,0,0)" d="M 10431,21585 L 10379,21574"/>
       <path fill="none" stroke="rgb(0,0,0)" d="M 10346,21566 L 10294,21554"/>
       <path fill="none" stroke="rgb(0,0,0)" d="M 10261,21547 L 10209,21535"/>
       <path fill="none" stroke="rgb(0,0,0)" d="M 10176,21528 L 10124,21516"/>
       <path fill="none" stroke="rgb(0,0,0)" d="M 10090,21508 L 10039,21497"/>
       <path fill="none" stroke="rgb(0,0,0)" d="M 10005,21489 L 9953,21477"/>
       <path fill="none" stroke="rgb(0,0,0)" d="M 9920,21470 L 9868,21458"/>
       <path fill="none" stroke="rgb(0,0,0)" d="M 9835,21450 L 9783,21439"/>
       <path fill="none" stroke="rgb(0,0,0)" d="M 9750,21431 L 9698,21419"/>
       <path fill="none" stroke="rgb(0,0,0)" d="M 9665,21412 L 9613,21400"/>
       <path fill="none" stroke="rgb(0,0,0)" d="M 9579,21393 L 9528,21381"/>
       <path fill="none" stroke="rgb(0,0,0)" d="M 9494,21373 L 9442,21362"/>
       <path fill="none" stroke="rgb(0,0,0)" d="M 9409,21354 L 9357,21342"/>
       <path fill="none" stroke="rgb(0,0,0)" d="M 9324,21335 L 9272,21323"/>
       <path fill="none" stroke="rgb(0,0,0)" d="M 9239,21316 L 9187,21304"/>
       <path fill="none" stroke="rgb(0,0,0)" d="M 9154,21296 L 9102,21285"/>
       <path fill="none" stroke="rgb(0,0,0)" d="M 9068,21277 L 9017,21265"/>
       <path fill="none" stroke="rgb(0,0,0)" d="M 8983,21258 L 8931,21246"/>
       <path fill="none" stroke="rgb(0,0,0)" d="M 8898,21238 L 8846,21227"/>
       <path fill="none" stroke="rgb(0,0,0)" d="M 8813,21219 L 8761,21207"/>
       <path fill="none" stroke="rgb(0,0,0)" d="M 8728,21200 L 8676,21188"/>
       <path fill="none" stroke="rgb(0,0,0)" d="M 8643,21181 L 8591,21169"/>
       <path fill="none" stroke="rgb(0,0,0)" d="M 8557,21161 L 8506,21150"/>
       <path fill="none" stroke="rgb(0,0,0)" d="M 8472,21142 L 8420,21130"/>
       <path fill="none" stroke="rgb(0,0,0)" d="M 8387,21123 L 8335,21111"/>
       <path fill="none" stroke="rgb(0,0,0)" d="M 8302,21104 L 8250,21092"/>
       <path fill="none" stroke="rgb(0,0,0)" d="M 8217,21084 L 8165,21073"/>
       <path fill="none" stroke="rgb(0,0,0)" d="M 8132,21065 L 8080,21053"/>
       <path fill="none" stroke="rgb(0,0,0)" d="M 8046,21046 L 7995,21034"/>
       <path fill="none" stroke="rgb(0,0,0)" d="M 7961,21026 L 7909,21015"/>
       <path fill="none" stroke="rgb(0,0,0)" d="M 7876,21007 L 7824,20996"/>
       <path fill="none" stroke="rgb(0,0,0)" d="M 7791,20988 L 7739,20976"/>
       <path fill="none" stroke="rgb(0,0,0)" d="M 7706,20969 L 7654,20957"/>
       <path fill="none" stroke="rgb(0,0,0)" d="M 7621,20949 L 7569,20938"/>
       <path fill="none" stroke="rgb(0,0,0)" d="M 7535,20930 L 7484,20918"/>
       <path fill="none" stroke="rgb(0,0,0)" d="M 7450,20911 L 7398,20899"/>
       <path fill="none" stroke="rgb(0,0,0)" d="M 7365,20892 L 7313,20880"/>
       <path fill="none" stroke="rgb(0,0,0)" d="M 7280,20872 L 7228,20861"/>
       <path fill="none" stroke="rgb(0,0,0)" d="M 7195,20853 L 7143,20841"/>
       <path fill="none" stroke="rgb(0,0,0)" d="M 7110,20834 L 7058,20822"/>
       <path fill="none" stroke="rgb(0,0,0)" d="M 7024,20815 L 6973,20803"/>
       <path fill="none" stroke="rgb(0,0,0)" d="M 6939,20795 L 6887,20784"/>
       <path fill="none" stroke="rgb(0,0,0)" d="M 6854,20776 L 6802,20764"/>
       <path fill="none" stroke="rgb(0,0,0)" d="M 6769,20757 L 6717,20745"/>
       <path fill="none" stroke="rgb(0,0,0)" d="M 6684,20737 L 6632,20726"/>
       <path fill="none" stroke="rgb(0,0,0)" d="M 6599,20718 L 6547,20706"/>
       <path fill="none" stroke="rgb(0,0,0)" d="M 6513,20699 L 6462,20687"/>
       <path fill="none" stroke="rgb(0,0,0)" d="M 6428,20680 L 6376,20668"/>
       <path fill="none" stroke="rgb(0,0,0)" d="M 6343,20660 L 6291,20649"/>
       <path fill="none" stroke="rgb(0,0,0)" d="M 6258,20641 L 6206,20629"/>
       <path fill="none" stroke="rgb(0,0,0)" d="M 6173,20622 L 6121,20610"/>
       <path fill="none" stroke="rgb(0,0,0)" d="M 6088,20603 L 6036,20591"/>
       <path fill="rgb(0,0,0)" stroke="none" d="M 5608,20494 L 6014,20740 6080,20447 5608,20494 Z"/>
       <text class="TextShape"><tspan class="TextParagraph" font-family="Arial, sans-serif" font-size="353px" font-weight="400"><tspan class="TextPosition" x="7365" y="21619"><tspan fill="rgb(0,0,0)" stroke="none">thread sync</tspan></tspan></tspan></text>
      </g>
     </g>
     <g class="com.sun.star.drawing.ConnectorShape">
      <g id="id26">
       <path fill="none" stroke="rgb(0,0,0)" d="M 3703,21080 L 3753,22654"/>
       <path fill="rgb(0,0,0)" stroke="none" d="M 3767,23084 L 3903,22629 3603,22639 3767,23084 Z"/>
      </g>
     </g>
     <g class="com.sun.star.drawing.CustomShape">
      <g id="id27">
       <path fill="rgb(255,255,204)" stroke="none" d="M 10688,14207 L 15015,14207 15015,15096 10688,15096 10688,14207 10688,14207 Z M 10688,14207 L 10688,14207 Z M 15015,15097 L 15015,15097 Z"/>
       <path fill="none" stroke="rgb(52,101,175)" d="M 10688,14207 L 15015,14207 15015,15096 10688,15096 10688,14207 10688,14207 Z"/>
       <path fill="none" stroke="rgb(52,101,175)" d="M 10688,14207 L 10688,14207 Z"/>
       <path fill="none" stroke="rgb(52,101,175)" d="M 15015,15097 L 15015,15097 Z"/>
       <text class="TextShape"><tspan class="TextParagraph" font-family="Arial, sans-serif" font-size="353px" font-weight="400"><tspan class="TextPosition" x="10912" y="14576"><tspan fill="rgb(0,0,0)" stroke="none">listen for HTTP requests </tspan></tspan><tspan class="TextPosition" x="12265" y="14974"><tspan fill="rgb(0,0,0)" stroke="none">on </tspan><tspan font-weight="700" fill="rgb(0,0,0)" stroke="none">port</tspan></tspan></tspan></text>
      </g>
     </g>
     <g class="com.sun.star.drawing.ConnectorShape">
      <g id="id28">
       <path fill="none" stroke="rgb(0,0,0)" d="M 12851,15097 L 12848,15909"/>
       <path fill="rgb(0,0,0)" stroke="none" d="M 12847,16339 L 12998,15889 12698,15889 12847,16339 Z"/>
      </g>
     </g>
     <g class="com.sun.star.drawing.CustomShape">
      <g id="id29">
       <path fill="rgb(204,255,204)" stroke="none" d="M 1582,6764 L 5657,6764 5657,7584 1582,7584 1582,6764 1582,6764 Z M 1582,6764 L 1582,6764 Z M 5657,7585 L 5657,7585 Z"/>
       <path fill="none" stroke="rgb(52,101,175)" d="M 1582,6764 L 5657,6764 5657,7584 1582,7584 1582,6764 1582,6764 Z"/>
       <path fill="none" stroke="rgb(52,101,175)" d="M 1582,6764 L 1582,6764 Z"/>
       <path fill="none" stroke="rgb(52,101,175)" d="M 5657,7585 L 5657,7585 Z"/>
       <text class="TextShape"><tspan class="TextParagraph" font-family="Arial, sans-serif" font-size="353px" font-weight="400"><tspan class="TextPosition" x="2637" y="7297"><tspan fill="rgb(0,0,0)" stroke="none">build war-file</tspan></tspan></tspan></text>
      </g>
     </g>
     <g class="com.sun.star.drawing.ConnectorShape">
      <g id="id30">
       <path fill="none" stroke="rgb(0,0,0)" d="M 3619,7584 L 3608,8406"/>
       <path fill="rgb(0,0,0)" stroke="none" d="M 3603,8836 L 3759,8388 3459,8384 3603,8836 Z"/>
      </g>
     </g>
     <g class="com.sun.star.drawing.CustomShape">
      <g id="id31">
       <path fill="rgb(153,204,255)" stroke="none" d="M 11958,22717 L 15769,22717 15769,24241 11958,24241 11958,22717 11958,22717 Z M 11958,22717 L 11958,22717 Z M 15769,24242 L 15769,24242 Z"/>
       <path fill="none" stroke="rgb(52,101,175)" d="M 11958,22717 L 15769,22717 15769,24241 11958,24241 11958,22717 11958,22717 Z"/>
       <path fill="none" stroke="rgb(52,101,175)" d="M 11958,22717 L 11958,22717 Z"/>
       <path fill="none" stroke="rgb(52,101,175)" d="M 15769,24242 L 15769,24242 Z"/>
       <text class="TextShape"><tspan class="TextParagraph" font-family="Arial, sans-serif" font-size="353px" font-weight="400"><tspan class="TextPosition" x="12597" y="23204"><tspan fill="rgb(0,0,0)" stroke="none">gradle jettyStop,</tspan></tspan></tspan><tspan class="TextParagraph" font-family="Arial, sans-serif" font-size="353px" font-weight="400"><tspan class="TextPosition" x="12388" y="23602"><tspan fill="rgb(0,0,0)" stroke="none">sends “stop” signal</tspan></tspan></tspan><tspan class="TextParagraph" font-family="Arial, sans-serif" font-size="353px" font-weight="400"><tspan class="TextPosition" x="12714" y="24000"><tspan fill="rgb(0,0,0)" stroke="none">to </tspan><tspan font-weight="700" fill="rgb(0,0,0)" stroke="none">servicePort</tspan></tspan></tspan></text>
      </g>
     </g>
     <g class="com.sun.star.drawing.ConnectorShape">
      <g id="id32">
       <path fill="none" stroke="rgb(0,0,0)" d="M 15768,23479 C 15786,23479 15803,23477 15820,23474"/>
       <path fill="none" stroke="rgb(0,0,0)" d="M 15852,23465 C 15869,23459 15885,23452 15901,23443"/>
       <path fill="none" stroke="rgb(0,0,0)" d="M 15931,23424 C 15947,23413 15962,23401 15976,23387"/>
       <path fill="none" stroke="rgb(0,0,0)" d="M 15998,23366 C 16008,23355 16019,23343 16030,23330"/>
       <path fill="none" stroke="rgb(0,0,0)" d="M 16050,23304 C 16060,23290 16070,23276 16079,23260"/>
       <path fill="none" stroke="rgb(0,0,0)" d="M 16098,23230 C 16108,23213 16117,23197 16126,23179"/>
       <path fill="none" stroke="rgb(0,0,0)" d="M 16143,23144 C 16151,23129 16157,23114 16164,23099"/>
       <path fill="none" stroke="rgb(0,0,0)" d="M 16177,23070 C 16183,23054 16189,23039 16195,23023"/>
       <path fill="none" stroke="rgb(0,0,0)" d="M 16207,22991 C 16213,22975 16219,22958 16224,22941"/>
       <path fill="none" stroke="rgb(0,0,0)" d="M 16235,22908 C 16241,22890 16246,22873 16251,22855"/>
       <path fill="none" stroke="rgb(0,0,0)" d="M 16261,22819 C 16266,22801 16271,22782 16276,22763"/>
       <path fill="none" stroke="rgb(0,0,0)" d="M 16284,22731 C 16288,22715 16291,22699 16295,22682"/>
       <path fill="none" stroke="rgb(0,0,0)" d="M 16302,22650 C 16306,22633 16309,22617 16312,22599"/>
       <path fill="none" stroke="rgb(0,0,0)" d="M 16319,22566 C 16322,22549 16325,22532 16328,22514"/>
       <path fill="none" stroke="rgb(0,0,0)" d="M 16334,22480 C 16337,22462 16340,22444 16342,22426"/>
       <path fill="none" stroke="rgb(0,0,0)" d="M 16348,22391 C 16350,22373 16353,22354 16355,22336"/>
       <path fill="none" stroke="rgb(0,0,0)" d="M 16359,22300 C 16361,22283 16363,22266 16365,22248"/>
       <path fill="none" stroke="rgb(0,0,0)" d="M 16369,22215 C 16371,22198 16372,22181 16374,22163"/>
       <path fill="none" stroke="rgb(0,0,0)" d="M 16377,22129 C 16378,22112 16379,22094 16381,22077"/>
       <path fill="none" stroke="rgb(0,0,0)" d="M 16383,22043 C 16384,22025 16385,22007 16386,21989"/>
       <path fill="none" stroke="rgb(0,0,0)" d="M 16388,21955 C 16389,21937 16390,21919 16390,21901"/>
       <path fill="none" stroke="rgb(0,0,0)" d="M 16391,21866 C 16392,21848 16392,21830 16393,21812"/>
       <path fill="none" stroke="rgb(0,0,0)" d="M 16393,21777 C 16394,21759 16394,21742 16394,21724"/>
       <path fill="none" stroke="rgb(0,0,0)" d="M 16394,21690 C 16394,21672 16394,21655 16393,21637"/>
       <path fill="none" stroke="rgb(0,0,0)" d="M 16393,21603 C 16392,21585 16392,21567 16391,21549"/>
       <path fill="none" stroke="rgb(0,0,0)" d="M 16390,21515 C 16390,21497 16389,21480 16388,21462"/>
       <path fill="none" stroke="rgb(0,0,0)" d="M 16386,21428 C 16385,21410 16384,21392 16383,21375"/>
       <path fill="none" stroke="rgb(0,0,0)" d="M 16381,21340 C 16380,21323 16378,21305 16377,21287"/>
       <path fill="none" stroke="rgb(0,0,0)" d="M 16374,21253 C 16372,21235 16371,21217 16369,21200"/>
       <path fill="none" stroke="rgb(0,0,0)" d="M 16365,21165 C 16363,21147 16361,21129 16359,21112"/>
       <path fill="none" stroke="rgb(0,0,0)" d="M 16355,21077 C 16353,21059 16350,21042 16348,21024"/>
       <path fill="none" stroke="rgb(0,0,0)" d="M 16343,20990 C 16340,20972 16338,20955 16335,20937"/>
       <path fill="none" stroke="rgb(0,0,0)" d="M 16329,20904 C 16327,20886 16324,20869 16320,20852"/>
       <path fill="none" stroke="rgb(0,0,0)" d="M 16314,20818 C 16311,20801 16308,20784 16304,20767"/>
       <path fill="none" stroke="rgb(0,0,0)" d="M 16297,20734 C 16294,20717 16290,20699 16286,20682"/>
       <path fill="none" stroke="rgb(0,0,0)" d="M 16278,20647 C 16273,20629 16269,20612 16265,20594"/>
       <path fill="none" stroke="rgb(0,0,0)" d="M 16256,20560 C 16251,20543 16246,20525 16241,20508"/>
       <path fill="none" stroke="rgb(0,0,0)" d="M 16232,20475 C 16227,20458 16221,20441 16216,20424"/>
       <path fill="none" stroke="rgb(0,0,0)" d="M 16206,20392 C 16200,20375 16194,20359 16189,20343"/>
       <path fill="none" stroke="rgb(0,0,0)" d="M 16177,20311 C 16171,20295 16165,20279 16159,20263"/>
       <path fill="none" stroke="rgb(0,0,0)" d="M 16147,20233 C 16140,20215 16133,20198 16125,20181"/>
       <path fill="none" stroke="rgb(0,0,0)" d="M 16111,20148 C 16103,20132 16095,20115 16087,20099"/>
       <path fill="none" stroke="rgb(0,0,0)" d="M 16071,20068 C 16063,20052 16055,20036 16046,20020"/>
       <path fill="none" stroke="rgb(0,0,0)" d="M 16029,19991 C 16021,19976 16012,19961 16003,19946"/>
       <path fill="none" stroke="rgb(0,0,0)" d="M 15985,19918 C 15976,19904 15966,19890 15956,19876"/>
       <path fill="none" stroke="rgb(0,0,0)" d="M 15937,19850 C 15926,19835 15915,19820 15903,19806"/>
       <path fill="none" stroke="rgb(0,0,0)" d="M 15880,19779 C 15868,19765 15856,19751 15843,19738"/>
       <path fill="none" stroke="rgb(0,0,0)" d="M 15819,19714 C 15806,19701 15793,19689 15780,19678"/>
       <path fill="none" stroke="rgb(0,0,0)" d="M 15754,19656 C 15741,19645 15727,19634 15713,19624"/>
       <path fill="none" stroke="rgb(0,0,0)" d="M 15685,19605 C 15675,19599 15665,19592 15655,19586"/>
       <path fill="rgb(0,0,0)" stroke="none" d="M 15260,19479 L 15652,19747 15734,19458 15260,19479 Z"/>
       <text class="TextShape"><tspan class="TextParagraph" font-family="Arial, sans-serif" font-size="353px" font-weight="400"><tspan class="TextPosition" x="15579" y="21602"><tspan fill="rgb(0,0,0)" stroke="none">tcp</tspan></tspan></tspan></text>
      </g>
     </g>
     <g class="com.sun.star.drawing.CustomShape">
      <g id="id33">
       <path fill="rgb(255,255,204)" stroke="none" d="M 11031,11960 L 14714,11960 14714,13015 11031,13015 11031,11960 11031,11960 Z M 11031,11960 L 11031,11960 Z M 14715,13015 L 14715,13015 Z"/>
       <path fill="none" stroke="rgb(52,101,175)" d="M 11031,11960 L 14714,11960 14714,13015 11031,13015 11031,11960 11031,11960 Z"/>
       <path fill="none" stroke="rgb(52,101,175)" d="M 11031,11960 L 11031,11960 Z"/>
       <path fill="none" stroke="rgb(52,101,175)" d="M 14715,13015 L 14715,13015 Z"/>
       <text class="TextShape"><tspan class="TextParagraph" font-family="Arial, sans-serif" font-size="353px" font-weight="400"><tspan class="TextPosition" x="11478" y="12411"><tspan fill="rgb(0,0,0)" stroke="none">suspended mode,</tspan></tspan></tspan><tspan class="TextParagraph" font-family="Arial, sans-serif" font-size="353px" font-weight="400"><tspan class="TextPosition" x="11480" y="12809"><tspan fill="rgb(0,0,0)" stroke="none">listen to port 5005</tspan></tspan></tspan></text>
      </g>
     </g>
     <g class="com.sun.star.drawing.ConnectorShape">
      <g id="id34">
       <path fill="none" stroke="rgb(0,0,0)" d="M 12847,10906 L 12862,11530"/>
       <path fill="rgb(0,0,0)" stroke="none" d="M 12873,11960 L 13012,11506 12712,11514 12873,11960 Z"/>
      </g>
     </g>
    </g>
   </g>
  </g>
 </g>
</svg>