<?xml version="1.0" encoding="UTF-8"?>
<!DOCTYPE svg PUBLIC "-//W3C//DTD SVG 1.1//EN" "http://www.w3.org/Graphics/SVG/1.1/DTD/svg11.dtd">
<svg version="1.2" width="180mm" height="255mm" viewBox="0 0 18000 25500" preserveAspectRatio="xMidYMid" fill-rule="evenodd" clip-path="url(#presentation_clip_path)" stroke-width="28.222" stroke-linejoin="round" xmlns="http://www.w3.org/2000/svg" xmlns:ooo="http://xml.openoffice.org/svg/export" xmlns:xlink="http://www.w3.org/1999/xlink" xml:space="preserve">
 <defs class="ClipPathGroup">
  <clipPath id="presentation_clip_path" clipPathUnits="userSpaceOnUse">
   <rect x="0" y="0" width="18000" height="25500"/>
  </clipPath>
 </defs>
 <defs class="TextShapeIndex">
  <g ooo:slide="id1" ooo:id-list="id3 id4 id5 id6 id7 id8 id9 id10 id11 id12 id13 id14 id15 id16 id17 id18 id19 id20 id21 id22 id23 id24 id25 id26 id27 id28 id29 id30 id31 id32"/>
 </defs>
 <defs class="EmbeddedBulletChars">
  <g id="bullet-char-template(57356)" transform="scale(0.00048828125,-0.00048828125)">
   <path d="M 580,1141 L 1163,571 580,0 -4,571 580,1141 Z"/>
  </g>
  <g id="bullet-char-template(57354)" transform="scale(0.00048828125,-0.00048828125)">
   <path d="M 8,1128 L 1137,1128 1137,0 8,0 8,1128 Z"/>
  </g>
  <g id="bullet-char-template(10146)" transform="scale(0.00048828125,-0.00048828125)">
   <path d="M 174,0 L 602,739 174,1481 1456,739 174,0 Z M 1358,739 L 309,1346 659,739 1358,739 Z"/>
  </g>
  <g id="bullet-char-template(10132)" transform="scale(0.00048828125,-0.00048828125)">
   <path d="M 2015,739 L 1276,0 717,0 1260,543 174,543 174,936 1260,936 717,1481 1274,1481 2015,739 Z"/>
  </g>
  <g id="bullet-char-template(10007)" transform="scale(0.00048828125,-0.00048828125)">
   <path d="M 0,-2 C -7,14 -16,27 -25,37 L 356,567 C 262,823 215,952 215,954 215,979 228,992 255,992 264,992 276,990 289,987 310,991 331,999 354,1012 L 381,999 492,748 772,1049 836,1024 860,1049 C 881,1039 901,1025 922,1006 886,937 835,863 770,784 769,783 710,716 594,584 L 774,223 C 774,196 753,168 711,139 L 727,119 C 717,90 699,76 672,76 641,76 570,178 457,381 L 164,-76 C 142,-110 111,-127 72,-127 30,-127 9,-110 8,-76 1,-67 -2,-52 -2,-32 -2,-23 -1,-13 0,-2 Z"/>
  </g>
  <g id="bullet-char-template(10004)" transform="scale(0.00048828125,-0.00048828125)">
   <path d="M 285,-33 C 182,-33 111,30 74,156 52,228 41,333 41,471 41,549 55,616 82,672 116,743 169,778 240,778 293,778 328,747 346,684 L 369,508 C 377,444 397,411 428,410 L 1163,1116 C 1174,1127 1196,1133 1229,1133 1271,1133 1292,1118 1292,1087 L 1292,965 C 1292,929 1282,901 1262,881 L 442,47 C 390,-6 338,-33 285,-33 Z"/>
  </g>
  <g id="bullet-char-template(9679)" transform="scale(0.00048828125,-0.00048828125)">
   <path d="M 813,0 C 632,0 489,54 383,161 276,268 223,411 223,592 223,773 276,916 383,1023 489,1130 632,1184 813,1184 992,1184 1136,1130 1245,1023 1353,916 1407,772 1407,592 1407,412 1353,268 1245,161 1136,54 992,0 813,0 Z"/>
  </g>
  <g id="bullet-char-template(8226)" transform="scale(0.00048828125,-0.00048828125)">
   <path d="M 346,457 C 273,457 209,483 155,535 101,586 74,649 74,723 74,796 101,859 155,911 209,963 273,989 346,989 419,989 480,963 531,910 582,859 608,796 608,723 608,648 583,586 532,535 482,483 420,457 346,457 Z"/>
  </g>
  <g id="bullet-char-template(8211)" transform="scale(0.00048828125,-0.00048828125)">
   <path d="M -4,459 L 1135,459 1135,606 -4,606 -4,459 Z"/>
  </g>
 </defs>
 <defs class="TextEmbeddedBitmaps"/>
 <g>
  <g id="id2" class="Master_Slide">
   <g id="bg-id2" class="Background"/>
   <g id="bo-id2" class="BackgroundObjects"/>
  </g>
 </g>
 <g class="SlideGroup">
  <g>
   <g id="id1" class="Slide" clip-path="url(#presentation_clip_path)">
    <g class="Page">
     <g class="com.sun.star.drawing.CustomShape">
      <g id="id3">
       <path fill="rgb(204,255,204)" stroke="none" d="M 2216,1890 C 1879,1890 1543,1699 1543,1508 1543,1317 1879,1127 2216,1127 L 5061,1127 C 5398,1127 5735,1317 5735,1508 5735,1699 5398,1890 5061,1890 L 2216,1890 Z M 1543,1127 L 1543,1127 Z M 5735,1890 L 5735,1890 Z"/>
       <path fill="none" stroke="rgb(52,101,175)" d="M 2216,1890 C 1879,1890 1543,1699 1543,1508 1543,1317 1879,1127 2216,1127 L 5061,1127 C 5398,1127 5735,1317 5735,1508 5735,1699 5398,1890 5061,1890 L 2216,1890 Z"/>
       <path fill="none" stroke="rgb(52,101,175)" d="M 1543,1127 L 1543,1127 Z"/>
       <path fill="none" stroke="rgb(52,101,175)" d="M 5735,1890 L 5735,1890 Z"/>
       <text class="TextShape"><tspan class="TextParagraph" font-family="Arial, sans-serif" font-size="353px" font-weight="400"><tspan class="TextPosition" x="2153" y="1631"><tspan fill="rgb(0,0,0)" stroke="none">jettyStartWar starts</tspan></tspan></tspan></text>
      </g>
     </g>
     <g class="com.sun.star.drawing.CustomShape">
      <g id="id4">
       <path fill="rgb(204,255,204)" stroke="none" d="M 1722,3539 L 3641,2777 5561,3539 3641,4301 1722,3539 1722,3539 Z M 1722,2777 L 1722,2777 Z M 5561,4301 L 5561,4301 Z"/>
       <path fill="none" stroke="rgb(52,101,175)" d="M 1722,3539 L 3641,2777 5561,3539 3641,4301 1722,3539 1722,3539 Z"/>
       <path fill="none" stroke="rgb(52,101,175)" d="M 1722,2777 L 1722,2777 Z"/>
       <path fill="none" stroke="rgb(52,101,175)" d="M 5561,4301 L 5561,4301 Z"/>
       <text class="TextShape"><tspan class="TextParagraph" font-family="Arial, sans-serif" font-size="353px" font-weight="400"><tspan class="TextPosition" x="3023" y="3463"><tspan fill="rgb(0,0,0)" stroke="none">sources</tspan></tspan><tspan class="TextPosition" x="2743" y="3861"><tspan fill="rgb(0,0,0)" stroke="none">up-to-date?</tspan></tspan></tspan></text>
      </g>
     </g>
     <g class="com.sun.star.drawing.ConnectorShape">
      <g id="id5">
       <path fill="none" stroke="rgb(0,0,0)" d="M 3640,1889 L 3641,2348"/>
       <path fill="rgb(0,0,0)" stroke="none" d="M 3641,2778 L 3790,2328 3490,2328 3641,2778 Z"/>
      </g>
     </g>
     <g class="com.sun.star.drawing.CustomShape">
      <g id="id6">
       <path fill="rgb(204,255,204)" stroke="none" d="M 5777,4371 L 9038,4371 9038,5191 5777,5191 5777,4371 5777,4371 Z M 5777,4371 L 5777,4371 Z M 9038,5192 L 9038,5192 Z"/>
       <path fill="none" stroke="rgb(52,101,175)" d="M 5777,4371 L 9038,4371 9038,5191 5777,5191 5777,4371 5777,4371 Z"/>
       <path fill="none" stroke="rgb(52,101,175)" d="M 5777,4371 L 5777,4371 Z"/>
       <path fill="none" stroke="rgb(52,101,175)" d="M 9038,5192 L 9038,5192 Z"/>
       <text class="TextShape"><tspan class="TextParagraph" font-family="Arial, sans-serif" font-size="353px" font-weight="400"><tspan class="TextPosition" x="6804" y="4904"><tspan fill="rgb(0,0,0)" stroke="none">compile</tspan></tspan></tspan></text>
      </g>
     </g>
     <g class="com.sun.star.drawing.ConnectorShape">
      <g id="id7">
       <path fill="none" stroke="rgb(0,0,0)" d="M 5560,3540 L 7407,3540 7407,3941"/>
       <path fill="rgb(0,0,0)" stroke="none" d="M 7407,4371 L 7557,3921 7257,3921 7407,4371 Z"/>
       <text class="TextShape"><tspan class="TextParagraph" font-family="Arial, sans-serif" font-size="353px" font-weight="400"><tspan class="TextPosition" x="6289" y="3880"><tspan fill="rgb(0,0,0)" stroke="none">no</tspan></tspan></tspan></text>
      </g>
     </g>
     <g class="com.sun.star.drawing.ConnectorShape">
      <g id="id8">
       <path fill="none" stroke="rgb(0,0,0)" d="M 3641,4301 L 3623,6334"/>
       <path fill="rgb(0,0,0)" stroke="none" d="M 3619,6764 L 3773,6315 3473,6313 3619,6764 Z"/>
       <text class="TextShape"><tspan class="TextParagraph" font-family="Arial, sans-serif" font-size="353px" font-weight="400"><tspan class="TextPosition" x="2965" y="5059"><tspan fill="rgb(0,0,0)" stroke="none">yes        </tspan></tspan></tspan></text>
      </g>
     </g>
     <g class="com.sun.star.drawing.ConnectorShape">
      <g id="id9">
       <path fill="none" stroke="rgb(0,0,0)" d="M 7407,5191 L 7407,5978 3619,5978 3619,6334"/>
       <path fill="rgb(0,0,0)" stroke="none" d="M 3619,6764 L 3769,6314 3469,6314 3619,6764 Z"/>
      </g>
     </g>
     <g class="com.sun.star.drawing.CustomShape">
      <g id="id10">
       <path fill="rgb(204,255,204)" stroke="none" d="M 1215,8836 L 5989,8836 5989,9891 1215,9891 1215,8836 1215,8836 Z M 1215,8836 L 1215,8836 Z M 5989,9891 L 5989,9891 Z"/>
       <path fill="none" stroke="rgb(52,101,175)" d="M 1215,8836 L 5989,8836 5989,9891 1215,9891 1215,8836 1215,8836 Z"/>
       <path fill="none" stroke="rgb(52,101,175)" d="M 1215,8836 L 1215,8836 Z"/>
       <path fill="none" stroke="rgb(52,101,175)" d="M 5989,9891 L 5989,9891 Z"/>
       <text class="TextShape"><tspan class="TextParagraph" font-family="Arial, sans-serif" font-size="353px" font-weight="400"><tspan class="TextPosition" x="2122" y="9287"><tspan fill="rgb(0,0,0)" stroke="none">start Jetty process </tspan></tspan><tspan class="TextPosition" x="2423" y="9685"><tspan fill="rgb(0,0,0)" stroke="none">against war-file</tspan></tspan></tspan></text>
      </g>
     </g>
     <g class="com.sun.star.drawing.ConnectorShape">
      <g id="id11">
       <path fill="none" stroke="rgb(0,0,0)" d="M 3603,9890 C 3603,9906 3606,9922 3613,9938"/>
       <path fill="none" stroke="rgb(0,0,0)" d="M 3630,9968 C 3641,9983 3655,9997 3672,10012"/>
       <path fill="none" stroke="rgb(0,0,0)" d="M 3694,10028 C 3706,10037 3719,10045 3734,10054"/>
       <path fill="none" stroke="rgb(0,0,0)" d="M 3763,10070 C 3779,10078 3797,10086 3815,10094"/>
       <path fill="none" stroke="rgb(0,0,0)" d="M 3852,10109 C 3868,10115 3884,10121 3901,10127"/>
       <path fill="none" stroke="rgb(0,0,0)" d="M 3929,10137 C 3944,10142 3960,10147 3976,10152"/>
       <path fill="none" stroke="rgb(0,0,0)" d="M 4008,10161 C 4024,10166 4041,10170 4059,10175"/>
       <path fill="none" stroke="rgb(0,0,0)" d="M 4094,10184 C 4112,10189 4131,10193 4151,10198"/>
       <path fill="none" stroke="rgb(0,0,0)" d="M 4189,10206 C 4206,10210 4223,10214 4240,10217"/>
       <path fill="none" stroke="rgb(0,0,0)" d="M 4270,10224 C 4286,10227 4302,10230 4318,10233"/>
       <path fill="none" stroke="rgb(0,0,0)" d="M 4349,10239 C 4366,10242 4383,10245 4400,10248"/>
       <path fill="none" stroke="rgb(0,0,0)" d="M 4433,10254 C 4451,10257 4468,10260 4486,10263"/>
       <path fill="none" stroke="rgb(0,0,0)" d="M 4522,10268 C 4540,10271 4559,10274 4578,10277"/>
       <path fill="none" stroke="rgb(0,0,0)" d="M 4614,10283 C 4634,10285 4653,10288 4673,10291"/>
       <path fill="none" stroke="rgb(0,0,0)" d="M 4706,10296 C 4722,10298 4738,10300 4754,10302"/>
       <path fill="none" stroke="rgb(0,0,0)" d="M 4785,10306 C 4802,10308 4818,10310 4835,10312"/>
       <path fill="none" stroke="rgb(0,0,0)" d="M 4867,10316 C 4884,10318 4901,10320 4919,10322"/>
       <path fill="none" stroke="rgb(0,0,0)" d="M 4952,10326 C 4970,10328 4987,10330 5005,10332"/>
       <path fill="none" stroke="rgb(0,0,0)" d="M 5040,10336 C 5058,10338 5076,10340 5094,10342"/>
       <path fill="none" stroke="rgb(0,0,0)" d="M 5130,10345 C 5148,10347 5167,10349 5186,10351"/>
       <path fill="none" stroke="rgb(0,0,0)" d="M 5223,10355 C 5242,10356 5261,10358 5280,10360"/>
       <path fill="none" stroke="rgb(0,0,0)" d="M 5314,10363 C 5330,10365 5347,10366 5363,10367"/>
       <path fill="none" stroke="rgb(0,0,0)" d="M 5395,10370 C 5411,10372 5428,10373 5445,10375"/>
       <path fill="none" stroke="rgb(0,0,0)" d="M 5477,10377 C 5494,10379 5511,10380 5528,10381"/>
       <path fill="none" stroke="rgb(0,0,0)" d="M 5561,10384 C 5579,10385 5596,10387 5613,10388"/>
       <path fill="none" stroke="rgb(0,0,0)" d="M 5647,10391 C 5665,10392 5683,10393 5701,10395"/>
       <path fill="none" stroke="rgb(0,0,0)" d="M 5735,10397 C 5753,10399 5771,10400 5790,10401"/>
       <path fill="none" stroke="rgb(0,0,0)" d="M 5825,10404 C 5843,10405 5862,10406 5881,10407"/>
       <path fill="none" stroke="rgb(0,0,0)" d="M 5917,10410 C 5935,10411 5954,10412 5973,10413"/>
       <path fill="none" stroke="rgb(0,0,0)" d="M 6010,10416 C 6028,10417 6046,10418 6064,10419"/>
       <path fill="none" stroke="rgb(0,0,0)" d="M 6096,10421 C 6112,10422 6129,10423 6145,10424"/>
       <path fill="none" stroke="rgb(0,0,0)" d="M 6178,10426 C 6194,10427 6211,10428 6228,10429"/>
       <path fill="none" stroke="rgb(0,0,0)" d="M 6261,10431 C 6278,10432 6295,10432 6312,10433"/>
       <path fill="none" stroke="rgb(0,0,0)" d="M 6346,10435 C 6363,10436 6380,10437 6398,10438"/>
       <path fill="none" stroke="rgb(0,0,0)" d="M 6432,10440 C 6449,10441 6467,10441 6485,10442"/>
       <path fill="none" stroke="rgb(0,0,0)" d="M 6519,10444 C 6537,10445 6555,10446 6573,10447"/>
       <path fill="none" stroke="rgb(0,0,0)" d="M 6608,10448 C 6626,10449 6644,10450 6662,10451"/>
       <path fill="none" stroke="rgb(0,0,0)" d="M 6698,10452 C 6716,10453 6735,10454 6753,10455"/>
       <path fill="none" stroke="rgb(0,0,0)" d="M 6789,10456 C 6808,10457 6827,10458 6845,10459"/>
       <path fill="none" stroke="rgb(0,0,0)" d="M 6882,10460 C 6900,10461 6918,10462 6937,10463"/>
       <path fill="none" stroke="rgb(0,0,0)" d="M 6969,10464 C 6985,10464 7002,10465 7019,10466"/>
       <path fill="none" stroke="rgb(0,0,0)" d="M 7051,10467 C 7068,10468 7085,10468 7102,10469"/>
       <path fill="none" stroke="rgb(0,0,0)" d="M 7135,10470 C 7152,10471 7169,10471 7186,10472"/>
       <path fill="none" stroke="rgb(0,0,0)" d="M 7219,10473 C 7237,10474 7254,10474 7271,10475"/>
       <path fill="none" stroke="rgb(0,0,0)" d="M 7305,10476 C 7322,10477 7340,10477 7357,10478"/>
       <path fill="none" stroke="rgb(0,0,0)" d="M 7391,10479 C 7409,10479 7427,10480 7444,10481"/>
       <path fill="none" stroke="rgb(0,0,0)" d="M 7479,10482 C 7497,10482 7515,10483 7533,10483"/>
       <path fill="none" stroke="rgb(0,0,0)" d="M 7567,10484 C 7585,10485 7604,10485 7622,10486"/>
       <path fill="none" stroke="rgb(0,0,0)" d="M 7657,10487 C 7675,10487 7694,10488 7712,10488"/>
       <path fill="none" stroke="rgb(0,0,0)" d="M 7747,10489 C 7766,10490 7784,10490 7803,10491"/>
       <path fill="none" stroke="rgb(0,0,0)" d="M 7839,10492 C 7858,10492 7876,10493 7895,10493"/>
       <path fill="none" stroke="rgb(0,0,0)" d="M 7932,10494 C 7948,10495 7965,10495 7982,10495"/>
       <path fill="none" stroke="rgb(0,0,0)" d="M 8015,10496 C 8032,10497 8048,10497 8065,10497"/>
       <path fill="none" stroke="rgb(0,0,0)" d="M 8098,10498 C 8115,10498 8132,10499 8149,10499"/>
       <path fill="none" stroke="rgb(0,0,0)" d="M 8182,10500 C 8199,10500 8216,10501 8234,10501"/>
       <path fill="none" stroke="rgb(0,0,0)" d="M 8267,10502 C 8284,10502 8302,10502 8319,10503"/>
       <path fill="none" stroke="rgb(0,0,0)" d="M 8353,10503 C 8370,10504 8388,10504 8405,10504"/>
       <path fill="none" stroke="rgb(0,0,0)" d="M 8439,10505 C 8457,10505 8474,10506 8492,10506"/>
       <path fill="none" stroke="rgb(0,0,0)" d="M 8526,10507 C 8544,10507 8562,10507 8580,10508"/>
       <path fill="none" stroke="rgb(0,0,0)" d="M 8614,10508 C 8632,10508 8650,10509 8668,10509"/>
       <path fill="none" stroke="rgb(0,0,0)" d="M 8703,10510 C 8721,10510 8739,10510 8757,10510"/>
       <path fill="none" stroke="rgb(0,0,0)" d="M 8792,10511 C 8811,10511 8829,10511 8847,10512"/>
       <path fill="none" stroke="rgb(0,0,0)" d="M 8883,10512 C 8901,10513 8919,10513 8938,10513"/>
       <path fill="none" stroke="rgb(0,0,0)" d="M 8974,10514 C 8992,10514 9011,10514 9029,10514"/>
       <path fill="none" stroke="rgb(0,0,0)" d="M 9066,10515 C 9083,10515 9101,10515 9118,10515"/>
       <path fill="none" stroke="rgb(0,0,0)" d="M 9151,10516 C 9168,10516 9185,10516 9202,10516"/>
       <path fill="none" stroke="rgb(0,0,0)" d="M 9234,10517 C 9251,10517 9268,10517 9286,10517"/>
       <path fill="none" stroke="rgb(0,0,0)" d="M 9319,10518 C 9336,10518 9353,10518 9370,10518"/>
       <path fill="none" stroke="rgb(0,0,0)" d="M 9403,10518 C 9421,10519 9438,10519 9455,10519"/>
       <path fill="none" stroke="rgb(0,0,0)" d="M 9489,10519 C 9506,10519 9523,10520 9541,10520"/>
       <path fill="none" stroke="rgb(0,0,0)" d="M 9575,10520 C 9592,10520 9610,10520 9627,10520"/>
       <path fill="none" stroke="rgb(0,0,0)" d="M 9661,10521 C 9679,10521 9697,10521 9714,10521"/>
       <path fill="none" stroke="rgb(0,0,0)" d="M 9749,10521 C 9766,10521 9784,10522 9802,10522"/>
       <path fill="none" stroke="rgb(0,0,0)" d="M 9836,10522 C 9854,10522 9872,10522 9890,10522"/>
       <path fill="none" stroke="rgb(0,0,0)" d="M 9925,10522 C 9943,10523 9961,10523 9979,10523"/>
       <path fill="none" stroke="rgb(0,0,0)" d="M 10014,10523 C 10032,10523 10050,10523 10068,10523"/>
       <path fill="none" stroke="rgb(0,0,0)" d="M 10104,10523 C 10122,10523 10140,10524 10159,10524"/>
       <path fill="none" stroke="rgb(0,0,0)" d="M 10194,10524 C 10212,10524 10231,10524 10249,10524"/>
       <path fill="none" stroke="rgb(0,0,0)" d="M 10285,10524 C 10304,10524 10322,10524 10341,10524"/>
       <path fill="rgb(0,0,0)" stroke="none" d="M 10815,10525 L 10365,10374 10365,10674 10815,10525 Z"/>
       <text class="TextShape"><tspan class="TextParagraph" font-family="Arial, sans-serif" font-size="353px" font-weight="400"><tspan class="TextPosition" x="8255" y="10331"><tspan fill="rgb(0,0,0)" stroke="none">start process   </tspan></tspan></tspan></text>
      </g>
     </g>
     <g class="com.sun.star.drawing.CustomShape">
      <g id="id12">
       <path fill="rgb(255,255,204)" stroke="none" d="M 10815,14306 L 14880,14306 14880,15478 10815,15478 10815,14306 10815,14306 Z M 10815,14306 L 10815,14306 Z M 14880,15478 L 14880,15478 Z"/>
       <path fill="none" stroke="rgb(52,101,175)" d="M 10815,14306 L 14880,14306 14880,15478 10815,15478 10815,14306 10815,14306 Z"/>
       <path fill="none" stroke="rgb(52,101,175)" d="M 10815,14306 L 10815,14306 Z"/>
       <path fill="none" stroke="rgb(52,101,175)" d="M 14880,15478 L 14880,15478 Z"/>
       <text class="TextShape"><tspan class="TextParagraph" font-family="Arial, sans-serif" font-size="353px" font-weight="400"><tspan class="TextPosition" x="11207" y="14816"><tspan fill="rgb(0,0,0)" stroke="none">send “started” signal </tspan></tspan></tspan><tspan class="TextParagraph" font-family="Arial, sans-serif" font-size="353px" font-weight="400"><tspan class="TextPosition" x="11783" y="15214"><tspan fill="rgb(0,0,0)" stroke="none">to </tspan><tspan font-weight="700" fill="rgb(0,0,0)" stroke="none">statusPort</tspan></tspan></tspan></text>
      </g>
     </g>
     <g class="com.sun.star.drawing.ConnectorShape">
      <g id="id13">
       <path fill="none" stroke="rgb(0,0,0)" d="M 3603,9890 L 3630,11069"/>
       <path fill="rgb(0,0,0)" stroke="none" d="M 3640,11499 L 3780,11046 3480,11053 3640,11499 Z"/>
      </g>
     </g>
     <g class="com.sun.star.drawing.CustomShape">
      <g id="id14">
       <path fill="rgb(204,255,204)" stroke="none" d="M 1670,11498 L 5608,11498 5608,12670 1670,12670 1670,11498 1670,11498 Z M 1670,11498 L 1670,11498 Z M 5608,12670 L 5608,12670 Z"/>
       <path fill="none" stroke="rgb(52,101,175)" d="M 1670,11498 L 5608,11498 5608,12670 1670,12670 1670,11498 1670,11498 Z"/>
       <path fill="none" stroke="rgb(52,101,175)" d="M 1670,11498 L 1670,11498 Z"/>
       <path fill="none" stroke="rgb(52,101,175)" d="M 5608,12670 L 5608,12670 Z"/>
       <text class="TextShape"><tspan class="TextParagraph" font-family="Arial, sans-serif" font-size="353px" font-weight="400"><tspan class="TextPosition" x="1814" y="12008"><tspan fill="rgb(0,0,0)" stroke="none">wait for “started” signal </tspan></tspan><tspan class="TextPosition" x="2525" y="12406"><tspan fill="rgb(0,0,0)" stroke="none">on </tspan><tspan font-weight="700" fill="rgb(0,0,0)" stroke="none">statusPort</tspan></tspan></tspan></text>
      </g>
     </g>
     <g class="com.sun.star.drawing.CustomShape">
      <g id="id15">
       <path fill="rgb(255,255,204)" stroke="none" d="M 11468,10907 C 11141,10907 10815,10716 10815,10525 10815,10334 11141,10144 11468,10144 L 14226,10144 C 14553,10144 14880,10334 14880,10525 14880,10716 14553,10907 14226,10907 L 11468,10907 Z M 10815,10144 L 10815,10144 Z M 14880,10907 L 14880,10907 Z"/>
       <path fill="none" stroke="rgb(52,101,175)" d="M 11468,10907 C 11141,10907 10815,10716 10815,10525 10815,10334 11141,10144 11468,10144 L 14226,10144 C 14553,10144 14880,10334 14880,10525 14880,10716 14553,10907 14226,10907 L 11468,10907 Z"/>
       <path fill="none" stroke="rgb(52,101,175)" d="M 10815,10144 L 10815,10144 Z"/>
       <path fill="none" stroke="rgb(52,101,175)" d="M 14880,10907 L 14880,10907 Z"/>
       <text class="TextShape"><tspan class="TextParagraph" font-family="Arial, sans-serif" font-size="353px" font-weight="400"><tspan class="TextPosition" x="11327" y="10648"><tspan fill="rgb(0,0,0)" stroke="none">Jetty process starts</tspan></tspan></tspan></text>
      </g>
     </g>
     <g class="com.sun.star.drawing.ConnectorShape">
      <g id="id16">
       <path fill="none" stroke="rgb(0,0,0)" d="M 12847,10906 L 12850,11746"/>
       <path fill="rgb(0,0,0)" stroke="none" d="M 12851,12176 L 13000,11726 12700,11726 12851,12176 Z"/>
      </g>
     </g>
     <g class="com.sun.star.drawing.CustomShape">
      <g id="id17">
       <path fill="rgb(255,255,204)" stroke="none" d="M 10434,16747 L 15261,16747 15261,18145 10434,18145 10434,16747 10434,16747 Z M 10434,16747 L 10434,16747 Z M 15261,18145 L 15261,18145 Z"/>
       <path fill="none" stroke="rgb(52,101,175)" d="M 10434,16747 L 15261,16747 15261,18145 10434,18145 10434,16747 10434,16747 Z"/>
       <path fill="none" stroke="rgb(52,101,175)" d="M 10434,16747 L 10434,16747 Z"/>
       <path fill="none" stroke="rgb(52,101,175)" d="M 15261,18145 L 15261,18145 Z"/>
       <text class="TextShape"><tspan class="TextParagraph" font-family="Arial, sans-serif" font-size="353px" font-weight="400"><tspan class="TextPosition" x="11914" y="17171"><tspan fill="rgb(0,0,0)" stroke="none">In wait loop.</tspan></tspan><tspan class="TextPosition" x="11131" y="17569"><tspan fill="rgb(0,0,0)" stroke="none">listen for “stop” signal </tspan></tspan><tspan class="TextPosition" x="11649" y="17967"><tspan fill="rgb(0,0,0)" stroke="none">on </tspan><tspan font-weight="700" fill="rgb(0,0,0)" stroke="none">servicePort</tspan></tspan></tspan></text>
      </g>
     </g>
     <g class="com.sun.star.drawing.ConnectorShape">
      <g id="id18">
       <path fill="none" stroke="rgb(0,0,0)" d="M 12847,15478 L 12847,16318"/>
       <path fill="rgb(0,0,0)" stroke="none" d="M 12847,16748 L 12997,16298 12697,16298 12847,16748 Z"/>
      </g>
     </g>
     <g class="com.sun.star.drawing.CustomShape">
      <g id="id19">
       <path fill="rgb(204,255,204)" stroke="none" d="M 1998,24369 C 1580,24369 1162,24047 1162,23726 1162,23405 1580,23084 1998,23084 L 5533,23084 C 5951,23084 6370,23405 6370,23726 6370,24047 5951,24369 5533,24369 L 1998,24369 Z M 1162,23084 L 1162,23084 Z M 6370,24369 L 6370,24369 Z"/>
       <path fill="none" stroke="rgb(52,101,175)" d="M 1998,24369 C 1580,24369 1162,24047 1162,23726 1162,23405 1580,23084 1998,23084 L 5533,23084 C 5951,23084 6370,23405 6370,23726 6370,24047 5951,24369 5533,24369 L 1998,24369 Z"/>
       <path fill="none" stroke="rgb(52,101,175)" d="M 1162,23084 L 1162,23084 Z"/>
       <path fill="none" stroke="rgb(52,101,175)" d="M 6370,24369 L 6370,24369 Z"/>
       <text class="TextShape"><tspan class="TextParagraph" font-family="Arial, sans-serif" font-size="353px" font-weight="400"><tspan class="TextPosition" x="2060" y="23451"><tspan fill="rgb(0,0,0)" stroke="none">jettyStartWar finished.</tspan></tspan><tspan class="TextPosition" x="2417" y="23849"><tspan fill="rgb(0,0,0)" stroke="none">Gradle proceeds </tspan></tspan><tspan class="TextPosition" x="2544" y="24247"><tspan fill="rgb(0,0,0)" stroke="none">with other tasks</tspan></tspan></tspan></text>
      </g>
     </g>
     <g class="com.sun.star.drawing.ConnectorShape">
      <g id="id20">
       <path fill="none" stroke="rgb(0,0,0)" d="M 10815,14892 L 10768,14867"/>
       <path fill="none" stroke="rgb(0,0,0)" d="M 10738,14851 L 10691,14825"/>
       <path fill="none" stroke="rgb(0,0,0)" d="M 10661,14809 L 10615,14784"/>
       <path fill="none" stroke="rgb(0,0,0)" d="M 10584,14768 L 10538,14743"/>
       <path fill="none" stroke="rgb(0,0,0)" d="M 10508,14726 L 10461,14701"/>
       <path fill="none" stroke="rgb(0,0,0)" d="M 10431,14685 L 10384,14660"/>
       <path fill="none" stroke="rgb(0,0,0)" d="M 10354,14643 L 10307,14618"/>
       <path fill="none" stroke="rgb(0,0,0)" d="M 10277,14602 L 10230,14577"/>
       <path fill="none" stroke="rgb(0,0,0)" d="M 10200,14561 L 10153,14535"/>
       <path fill="none" stroke="rgb(0,0,0)" d="M 10123,14519 L 10077,14494"/>
       <path fill="none" stroke="rgb(0,0,0)" d="M 10046,14478 L 10000,14452"/>
       <path fill="none" stroke="rgb(0,0,0)" d="M 9970,14436 L 9923,14411"/>
       <path fill="none" stroke="rgb(0,0,0)" d="M 9893,14395 L 9846,14370"/>
       <path fill="none" stroke="rgb(0,0,0)" d="M 9816,14353 L 9769,14328"/>
       <path fill="none" stroke="rgb(0,0,0)" d="M 9739,14312 L 9692,14287"/>
       <path fill="none" stroke="rgb(0,0,0)" d="M 9662,14270 L 9615,14245"/>
       <path fill="none" stroke="rgb(0,0,0)" d="M 9585,14229 L 9538,14204"/>
       <path fill="none" stroke="rgb(0,0,0)" d="M 9508,14188 L 9462,14162"/>
       <path fill="none" stroke="rgb(0,0,0)" d="M 9432,14146 L 9385,14121"/>
       <path fill="none" stroke="rgb(0,0,0)" d="M 9355,14105 L 9308,14080"/>
       <path fill="none" stroke="rgb(0,0,0)" d="M 9278,14063 L 9231,14038"/>
       <path fill="none" stroke="rgb(0,0,0)" d="M 9201,14022 L 9154,13997"/>
       <path fill="none" stroke="rgb(0,0,0)" d="M 9124,13980 L 9077,13955"/>
       <path fill="none" stroke="rgb(0,0,0)" d="M 9047,13939 L 9000,13914"/>
       <path fill="none" stroke="rgb(0,0,0)" d="M 8970,13898 L 8924,13872"/>
       <path fill="none" stroke="rgb(0,0,0)" d="M 8893,13856 L 8847,13831"/>
       <path fill="none" stroke="rgb(0,0,0)" d="M 8817,13815 L 8770,13790"/>
       <path fill="none" stroke="rgb(0,0,0)" d="M 8740,13773 L 8693,13748"/>
       <path fill="none" stroke="rgb(0,0,0)" d="M 8663,13732 L 8616,13707"/>
       <path fill="none" stroke="rgb(0,0,0)" d="M 8586,13690 L 8539,13665"/>
       <path fill="none" stroke="rgb(0,0,0)" d="M 8509,13649 L 8462,13624"/>
       <path fill="none" stroke="rgb(0,0,0)" d="M 8432,13608 L 8386,13582"/>
       <path fill="none" stroke="rgb(0,0,0)" d="M 8355,13566 L 8309,13541"/>
       <path fill="none" stroke="rgb(0,0,0)" d="M 8279,13525 L 8232,13499"/>
       <path fill="none" stroke="rgb(0,0,0)" d="M 8202,13483 L 8155,13458"/>
       <path fill="none" stroke="rgb(0,0,0)" d="M 8125,13442 L 8078,13417"/>
       <path fill="none" stroke="rgb(0,0,0)" d="M 8048,13400 L 8001,13375"/>
       <path fill="none" stroke="rgb(0,0,0)" d="M 7971,13359 L 7924,13334"/>
       <path fill="none" stroke="rgb(0,0,0)" d="M 7894,13317 L 7848,13292"/>
       <path fill="none" stroke="rgb(0,0,0)" d="M 7817,13276 L 7771,13251"/>
       <path fill="none" stroke="rgb(0,0,0)" d="M 7741,13235 L 7694,13209"/>
       <path fill="none" stroke="rgb(0,0,0)" d="M 7664,13193 L 7617,13168"/>
       <path fill="none" stroke="rgb(0,0,0)" d="M 7587,13152 L 7540,13127"/>
       <path fill="none" stroke="rgb(0,0,0)" d="M 7510,13110 L 7463,13085"/>
       <path fill="none" stroke="rgb(0,0,0)" d="M 7433,13069 L 7386,13044"/>
       <path fill="none" stroke="rgb(0,0,0)" d="M 7356,13027 L 7310,13002"/>
       <path fill="none" stroke="rgb(0,0,0)" d="M 7279,12986 L 7233,12961"/>
       <path fill="none" stroke="rgb(0,0,0)" d="M 7203,12945 L 7156,12919"/>
       <path fill="none" stroke="rgb(0,0,0)" d="M 7126,12903 L 7079,12878"/>
       <path fill="none" stroke="rgb(0,0,0)" d="M 7049,12862 L 7002,12837"/>
       <path fill="none" stroke="rgb(0,0,0)" d="M 6972,12820 L 6925,12795"/>
       <path fill="none" stroke="rgb(0,0,0)" d="M 6895,12779 L 6848,12754"/>
       <path fill="none" stroke="rgb(0,0,0)" d="M 6818,12737 L 6771,12712"/>
       <path fill="none" stroke="rgb(0,0,0)" d="M 6741,12696 L 6695,12671"/>
       <path fill="none" stroke="rgb(0,0,0)" d="M 6665,12655 L 6618,12629"/>
       <path fill="none" stroke="rgb(0,0,0)" d="M 6588,12613 L 6541,12588"/>
       <path fill="none" stroke="rgb(0,0,0)" d="M 6511,12572 L 6464,12546"/>
       <path fill="none" stroke="rgb(0,0,0)" d="M 6434,12530 L 6387,12505"/>
       <path fill="none" stroke="rgb(0,0,0)" d="M 6357,12489 L 6310,12464"/>
       <path fill="none" stroke="rgb(0,0,0)" d="M 6280,12447 L 6233,12422"/>
       <path fill="none" stroke="rgb(0,0,0)" d="M 6203,12406 L 6157,12381"/>
       <path fill="none" stroke="rgb(0,0,0)" d="M 6126,12365 L 6080,12339"/>
       <path fill="none" stroke="rgb(0,0,0)" d="M 6050,12323 L 6003,12298"/>
       <path fill="rgb(0,0,0)" stroke="none" d="M 5608,12085 L 5933,12431 6075,12166 5608,12085 Z"/>
       <text class="TextShape"><tspan class="TextParagraph" font-family="Arial, sans-serif" font-size="353px" font-weight="400"><tspan class="TextPosition" x="7977" y="13811"><tspan fill="rgb(0,0,0)" stroke="none">tcp</tspan></tspan></tspan></text>
      </g>
     </g>
     <g class="com.sun.star.drawing.CustomShape">
      <g id="id21">
       <path fill="rgb(255,255,204)" stroke="none" d="M 11554,20305 C 11248,20305 10942,20114 10942,19923 10942,19732 11248,19542 11554,19542 L 14140,19542 C 14446,19542 14753,19732 14753,19923 14753,20114 14446,20305 14140,20305 L 11554,20305 Z M 10942,19542 L 10942,19542 Z M 14753,20305 L 14753,20305 Z"/>
       <path fill="none" stroke="rgb(52,101,175)" d="M 11554,20305 C 11248,20305 10942,20114 10942,19923 10942,19732 11248,19542 11554,19542 L 14140,19542 C 14446,19542 14753,19732 14753,19923 14753,20114 14446,20305 14140,20305 L 11554,20305 Z"/>
       <path fill="none" stroke="rgb(52,101,175)" d="M 10942,19542 L 10942,19542 Z"/>
       <path fill="none" stroke="rgb(52,101,175)" d="M 14753,20305 L 14753,20305 Z"/>
       <text class="TextShape"><tspan class="TextParagraph" font-family="Arial, sans-serif" font-size="353px" font-weight="400"><tspan class="TextPosition" x="11156" y="20046"><tspan fill="rgb(0,0,0)" stroke="none">Jetty process finished</tspan></tspan></tspan></text>
      </g>
     </g>
     <g class="com.sun.star.drawing.ConnectorShape">
      <g id="id22">
       <path fill="none" stroke="rgb(0,0,0)" d="M 12847,18145 L 12847,19112"/>
       <path fill="rgb(0,0,0)" stroke="none" d="M 12847,19542 L 12997,19092 12697,19092 12847,19542 Z"/>
      </g>
     </g>
     <g class="com.sun.star.drawing.CustomShape">
      <g id="id23">
       <path fill="rgb(204,255,204)" stroke="none" d="M 1798,19908 L 5609,19908 5609,21080 1798,21080 1798,19908 1798,19908 Z M 1798,19908 L 1798,19908 Z M 5609,21080 L 5609,21080 Z"/>
       <path fill="none" stroke="rgb(52,101,175)" d="M 1798,19908 L 5609,19908 5609,21080 1798,21080 1798,19908 1798,19908 Z"/>
       <path fill="none" stroke="rgb(52,101,175)" d="M 1798,19908 L 1798,19908 Z"/>
       <path fill="none" stroke="rgb(52,101,175)" d="M 5609,21080 L 5609,21080 Z"/>
       <text class="TextShape"><tspan class="TextParagraph" font-family="Arial, sans-serif" font-size="353px" font-weight="400"><tspan class="TextPosition" x="2050" y="20418"><tspan fill="rgb(0,0,0)" stroke="none">wait for Jetty process</tspan></tspan></tspan><tspan class="TextParagraph" font-family="Arial, sans-serif" font-size="353px" font-weight="400"><tspan class="TextPosition" x="3100" y="20816"><tspan fill="rgb(0,0,0)" stroke="none">to finish</tspan></tspan></tspan></text>
      </g>
     </g>
     <g class="com.sun.star.drawing.ConnectorShape">
      <g id="id24">
       <path fill="none" stroke="rgb(0,0,0)" d="M 3640,12670 L 3699,19479"/>
       <path fill="rgb(0,0,0)" stroke="none" d="M 3703,19909 L 3849,19458 3549,19460 3703,19909 Z"/>
      </g>
     </g>
     <g class="com.sun.star.drawing.ConnectorShape">
      <g id="id25">
       <path fill="none" stroke="rgb(0,0,0)" d="M 10942,19923 L 10889,19929"/>
       <path fill="none" stroke="rgb(0,0,0)" d="M 10855,19932 L 10802,19938"/>
       <path fill="none" stroke="rgb(0,0,0)" d="M 10768,19942 L 10716,19947"/>
       <path fill="none" stroke="rgb(0,0,0)" d="M 10682,19951 L 10629,19957"/>
       <path fill="none" stroke="rgb(0,0,0)" d="M 10595,19960 L 10542,19966"/>
       <path fill="none" stroke="rgb(0,0,0)" d="M 10508,19969 L 10455,19975"/>
       <path fill="none" stroke="rgb(0,0,0)" d="M 10421,19979 L 10368,19984"/>
       <path fill="none" stroke="rgb(0,0,0)" d="M 10334,19988 L 10281,19994"/>
       <path fill="none" stroke="rgb(0,0,0)" d="M 10247,19997 L 10195,20003"/>
       <path fill="none" stroke="rgb(0,0,0)" d="M 10161,20007 L 10108,20012"/>
       <path fill="none" stroke="rgb(0,0,0)" d="M 10074,20016 L 10021,20022"/>
       <path fill="none" stroke="rgb(0,0,0)" d="M 9987,20025 L 9934,20031"/>
       <path fill="none" stroke="rgb(0,0,0)" d="M 9900,20035 L 9847,20040"/>
       <path fill="none" stroke="rgb(0,0,0)" d="M 9813,20044 L 9761,20049"/>
       <path fill="none" stroke="rgb(0,0,0)" d="M 9726,20053 L 9674,20059"/>
       <path fill="none" stroke="rgb(0,0,0)" d="M 9640,20062 L 9587,20068"/>
       <path fill="none" stroke="rgb(0,0,0)" d="M 9553,20072 L 9500,20077"/>
       <path fill="none" stroke="rgb(0,0,0)" d="M 9466,20081 L 9413,20087"/>
       <path fill="none" stroke="rgb(0,0,0)" d="M 9379,20090 L 9326,20096"/>
       <path fill="none" stroke="rgb(0,0,0)" d="M 9292,20100 L 9240,20105"/>
       <path fill="none" stroke="rgb(0,0,0)" d="M 9206,20109 L 9153,20115"/>
       <path fill="none" stroke="rgb(0,0,0)" d="M 9119,20118 L 9066,20124"/>
       <path fill="none" stroke="rgb(0,0,0)" d="M 9032,20127 L 8979,20133"/>
       <path fill="none" stroke="rgb(0,0,0)" d="M 8945,20137 L 8892,20142"/>
       <path fill="none" stroke="rgb(0,0,0)" d="M 8858,20146 L 8805,20152"/>
       <path fill="none" stroke="rgb(0,0,0)" d="M 8771,20155 L 8719,20161"/>
       <path fill="none" stroke="rgb(0,0,0)" d="M 8685,20165 L 8632,20170"/>
       <path fill="none" stroke="rgb(0,0,0)" d="M 8598,20174 L 8545,20180"/>
       <path fill="none" stroke="rgb(0,0,0)" d="M 8511,20183 L 8458,20189"/>
       <path fill="none" stroke="rgb(0,0,0)" d="M 8424,20193 L 8371,20198"/>
       <path fill="none" stroke="rgb(0,0,0)" d="M 8337,20202 L 8285,20207"/>
       <path fill="none" stroke="rgb(0,0,0)" d="M 8251,20211 L 8198,20217"/>
       <path fill="none" stroke="rgb(0,0,0)" d="M 8164,20220 L 8111,20226"/>
       <path fill="none" stroke="rgb(0,0,0)" d="M 8077,20230 L 8024,20235"/>
       <path fill="none" stroke="rgb(0,0,0)" d="M 7990,20239 L 7937,20245"/>
       <path fill="none" stroke="rgb(0,0,0)" d="M 7903,20248 L 7850,20254"/>
       <path fill="none" stroke="rgb(0,0,0)" d="M 7816,20258 L 7764,20263"/>
       <path fill="none" stroke="rgb(0,0,0)" d="M 7730,20267 L 7677,20273"/>
       <path fill="none" stroke="rgb(0,0,0)" d="M 7643,20276 L 7590,20282"/>
       <path fill="none" stroke="rgb(0,0,0)" d="M 7556,20285 L 7503,20291"/>
       <path fill="none" stroke="rgb(0,0,0)" d="M 7469,20295 L 7416,20300"/>
       <path fill="none" stroke="rgb(0,0,0)" d="M 7382,20304 L 7330,20310"/>
       <path fill="none" stroke="rgb(0,0,0)" d="M 7295,20313 L 7243,20319"/>
       <path fill="none" stroke="rgb(0,0,0)" d="M 7209,20323 L 7156,20328"/>
       <path fill="none" stroke="rgb(0,0,0)" d="M 7122,20332 L 7069,20338"/>
       <path fill="none" stroke="rgb(0,0,0)" d="M 7035,20341 L 6982,20347"/>
       <path fill="none" stroke="rgb(0,0,0)" d="M 6948,20351 L 6895,20356"/>
       <path fill="none" stroke="rgb(0,0,0)" d="M 6861,20360 L 6809,20365"/>
       <path fill="none" stroke="rgb(0,0,0)" d="M 6775,20369 L 6722,20375"/>
       <path fill="none" stroke="rgb(0,0,0)" d="M 6688,20378 L 6635,20384"/>
       <path fill="none" stroke="rgb(0,0,0)" d="M 6601,20388 L 6548,20393"/>
       <path fill="none" stroke="rgb(0,0,0)" d="M 6514,20397 L 6461,20403"/>
       <path fill="none" stroke="rgb(0,0,0)" d="M 6427,20406 L 6374,20412"/>
       <path fill="none" stroke="rgb(0,0,0)" d="M 6340,20416 L 6288,20421"/>
       <path fill="none" stroke="rgb(0,0,0)" d="M 6254,20425 L 6201,20431"/>
       <path fill="none" stroke="rgb(0,0,0)" d="M 6167,20434 L 6114,20440"/>
       <path fill="none" stroke="rgb(0,0,0)" d="M 6080,20443 L 6036,20448"/>
       <path fill="rgb(0,0,0)" stroke="none" d="M 5608,20494 L 6071,20595 6039,20297 5608,20494 Z"/>
       <text class="TextShape"><tspan class="TextParagraph" font-family="Arial, sans-serif" font-size="353px" font-weight="400"><tspan class="TextPosition" x="7365" y="20730"><tspan fill="rgb(0,0,0)" stroke="none">thread sync</tspan></tspan></tspan></text>
      </g>
     </g>
     <g class="com.sun.star.drawing.ConnectorShape">
      <g id="id26">
       <path fill="none" stroke="rgb(0,0,0)" d="M 3703,21080 L 3753,22654"/>
       <path fill="rgb(0,0,0)" stroke="none" d="M 3767,23084 L 3903,22629 3603,22639 3767,23084 Z"/>
      </g>
     </g>
     <g class="com.sun.star.drawing.CustomShape">
      <g id="id27">
       <path fill="rgb(255,255,204)" stroke="none" d="M 10688,12175 L 15015,12175 15015,13064 10688,13064 10688,12175 10688,12175 Z M 10688,12175 L 10688,12175 Z M 15015,13065 L 15015,13065 Z"/>
       <path fill="none" stroke="rgb(52,101,175)" d="M 10688,12175 L 15015,12175 15015,13064 10688,13064 10688,12175 10688,12175 Z"/>
       <path fill="none" stroke="rgb(52,101,175)" d="M 10688,12175 L 10688,12175 Z"/>
       <path fill="none" stroke="rgb(52,101,175)" d="M 15015,13065 L 15015,13065 Z"/>
       <text class="TextShape"><tspan class="TextParagraph" font-family="Arial, sans-serif" font-size="353px" font-weight="400"><tspan class="TextPosition" x="10912" y="12544"><tspan fill="rgb(0,0,0)" stroke="none">listen for HTTP requests </tspan></tspan><tspan class="TextPosition" x="12265" y="12942"><tspan fill="rgb(0,0,0)" stroke="none">on </tspan><tspan font-weight="700" fill="rgb(0,0,0)" stroke="none">port</tspan></tspan></tspan></text>
      </g>
     </g>
     <g class="com.sun.star.drawing.ConnectorShape">
      <g id="id28">
       <path fill="none" stroke="rgb(0,0,0)" d="M 12851,13065 L 12848,13877"/>
       <path fill="rgb(0,0,0)" stroke="none" d="M 12847,14307 L 12998,13857 12698,13857 12847,14307 Z"/>
      </g>
     </g>
     <g class="com.sun.star.drawing.CustomShape">
      <g id="id29">
       <path fill="rgb(204,255,204)" stroke="none" d="M 1582,6764 L 5657,6764 5657,7584 1582,7584 1582,6764 1582,6764 Z M 1582,6764 L 1582,6764 Z M 5657,7585 L 5657,7585 Z"/>
       <path fill="none" stroke="rgb(52,101,175)" d="M 1582,6764 L 5657,6764 5657,7584 1582,7584 1582,6764 1582,6764 Z"/>
       <path fill="none" stroke="rgb(52,101,175)" d="M 1582,6764 L 1582,6764 Z"/>
       <path fill="none" stroke="rgb(52,101,175)" d="M 5657,7585 L 5657,7585 Z"/>
       <text class="TextShape"><tspan class="TextParagraph" font-family="Arial, sans-serif" font-size="353px" font-weight="400"><tspan class="TextPosition" x="2637" y="7297"><tspan fill="rgb(0,0,0)" stroke="none">build war-file</tspan></tspan></tspan></text>
      </g>
     </g>
     <g class="com.sun.star.drawing.ConnectorShape">
      <g id="id30">
       <path fill="none" stroke="rgb(0,0,0)" d="M 3619,7584 L 3608,8406"/>
       <path fill="rgb(0,0,0)" stroke="none" d="M 3603,8836 L 3759,8388 3459,8384 3603,8836 Z"/>
      </g>
     </g>
     <g class="com.sun.star.drawing.CustomShape">
      <g id="id31">
       <path fill="rgb(153,204,255)" stroke="none" d="M 11958,21701 L 15769,21701 15769,23225 11958,23225 11958,21701 11958,21701 Z M 11958,21701 L 11958,21701 Z M 15769,23226 L 15769,23226 Z"/>
       <path fill="none" stroke="rgb(52,101,175)" d="M 11958,21701 L 15769,21701 15769,23225 11958,23225 11958,21701 11958,21701 Z"/>
       <path fill="none" stroke="rgb(52,101,175)" d="M 11958,21701 L 11958,21701 Z"/>
       <path fill="none" stroke="rgb(52,101,175)" d="M 15769,23226 L 15769,23226 Z"/>
       <text class="TextShape"><tspan class="TextParagraph" font-family="Arial, sans-serif" font-size="353px" font-weight="400"><tspan class="TextPosition" x="12597" y="22188"><tspan fill="rgb(0,0,0)" stroke="none">gradle jettyStop,</tspan></tspan></tspan><tspan class="TextParagraph" font-family="Arial, sans-serif" font-size="353px" font-weight="400"><tspan class="TextPosition" x="12388" y="22586"><tspan fill="rgb(0,0,0)" stroke="none">sends “stop” signal</tspan></tspan></tspan><tspan class="TextParagraph" font-family="Arial, sans-serif" font-size="353px" font-weight="400"><tspan class="TextPosition" x="12714" y="22984"><tspan fill="rgb(0,0,0)" stroke="none">to </tspan><tspan font-weight="700" fill="rgb(0,0,0)" stroke="none">servicePort</tspan></tspan></tspan></text>
      </g>
     </g>
     <g class="com.sun.star.drawing.ConnectorShape">
      <g id="id32">
       <path fill="none" stroke="rgb(0,0,0)" d="M 15768,22463 C 15785,22463 15801,22461 15817,22457"/>
       <path fill="none" stroke="rgb(0,0,0)" d="M 15848,22447 C 15864,22440 15880,22432 15895,22422"/>
       <path fill="none" stroke="rgb(0,0,0)" d="M 15924,22400 C 15939,22387 15954,22373 15968,22357"/>
       <path fill="none" stroke="rgb(0,0,0)" d="M 15989,22332 C 15998,22321 16007,22308 16016,22295"/>
       <path fill="none" stroke="rgb(0,0,0)" d="M 16033,22269 C 16042,22255 16051,22241 16059,22225"/>
       <path fill="none" stroke="rgb(0,0,0)" d="M 16075,22195 C 16084,22179 16092,22162 16100,22145"/>
       <path fill="none" stroke="rgb(0,0,0)" d="M 16115,22110 C 16123,22092 16131,22074 16138,22054"/>
       <path fill="none" stroke="rgb(0,0,0)" d="M 16151,22020 C 16157,22005 16162,21990 16167,21975"/>
       <path fill="none" stroke="rgb(0,0,0)" d="M 16177,21945 C 16182,21929 16187,21913 16192,21897"/>
       <path fill="none" stroke="rgb(0,0,0)" d="M 16202,21866 C 16207,21849 16211,21832 16216,21815"/>
       <path fill="none" stroke="rgb(0,0,0)" d="M 16225,21782 C 16230,21764 16234,21747 16238,21729"/>
       <path fill="none" stroke="rgb(0,0,0)" d="M 16247,21694 C 16251,21676 16255,21657 16259,21639"/>
       <path fill="none" stroke="rgb(0,0,0)" d="M 16267,21602 C 16271,21584 16275,21565 16279,21546"/>
       <path fill="none" stroke="rgb(0,0,0)" d="M 16285,21515 C 16288,21498 16291,21482 16294,21465"/>
       <path fill="none" stroke="rgb(0,0,0)" d="M 16299,21433 C 16302,21416 16305,21399 16308,21382"/>
       <path fill="none" stroke="rgb(0,0,0)" d="M 16313,21349 C 16316,21332 16318,21315 16321,21297"/>
       <path fill="none" stroke="rgb(0,0,0)" d="M 16326,21263 C 16328,21246 16331,21228 16333,21210"/>
       <path fill="none" stroke="rgb(0,0,0)" d="M 16337,21176 C 16340,21158 16342,21139 16344,21121"/>
       <path fill="none" stroke="rgb(0,0,0)" d="M 16348,21086 C 16350,21068 16352,21049 16354,21031"/>
       <path fill="none" stroke="rgb(0,0,0)" d="M 16358,20995 C 16359,20977 16361,20959 16363,20941"/>
       <path fill="none" stroke="rgb(0,0,0)" d="M 16365,20908 C 16367,20891 16368,20874 16370,20856"/>
       <path fill="none" stroke="rgb(0,0,0)" d="M 16372,20823 C 16373,20806 16375,20788 16376,20771"/>
       <path fill="none" stroke="rgb(0,0,0)" d="M 16378,20737 C 16379,20719 16380,20702 16381,20684"/>
       <path fill="none" stroke="rgb(0,0,0)" d="M 16383,20650 C 16384,20632 16385,20614 16385,20597"/>
       <path fill="none" stroke="rgb(0,0,0)" d="M 16387,20562 C 16387,20544 16388,20526 16389,20508"/>
       <path fill="none" stroke="rgb(0,0,0)" d="M 16390,20474 C 16390,20456 16391,20438 16391,20419"/>
       <path fill="none" stroke="rgb(0,0,0)" d="M 16392,20384 C 16392,20366 16392,20348 16393,20330"/>
       <path fill="none" stroke="rgb(0,0,0)" d="M 16393,20295 C 16393,20278 16393,20260 16393,20243"/>
       <path fill="none" stroke="rgb(0,0,0)" d="M 16393,20208 C 16393,20191 16393,20173 16393,20155"/>
       <path fill="none" stroke="rgb(0,0,0)" d="M 16392,20121 C 16392,20103 16392,20086 16391,20068"/>
       <path fill="none" stroke="rgb(0,0,0)" d="M 16391,20034 C 16390,20016 16390,19998 16389,19981"/>
       <path fill="none" stroke="rgb(0,0,0)" d="M 16388,19946 C 16387,19929 16387,19911 16386,19893"/>
       <path fill="none" stroke="rgb(0,0,0)" d="M 16384,19859 C 16383,19841 16383,19823 16382,19806"/>
       <path fill="none" stroke="rgb(0,0,0)" d="M 16380,19771 C 16379,19754 16378,19736 16376,19718"/>
       <path fill="none" stroke="rgb(0,0,0)" d="M 16374,19684 C 16373,19667 16372,19649 16370,19631"/>
       <path fill="none" stroke="rgb(0,0,0)" d="M 16368,19596 C 16366,19578 16365,19560 16363,19542"/>
       <path fill="none" stroke="rgb(0,0,0)" d="M 16360,19508 C 16358,19490 16357,19472 16355,19454"/>
       <path fill="none" stroke="rgb(0,0,0)" d="M 16351,19420 C 16349,19402 16347,19384 16345,19366"/>
       <path fill="none" stroke="rgb(0,0,0)" d="M 16341,19332 C 16339,19314 16337,19297 16335,19279"/>
       <path fill="none" stroke="rgb(0,0,0)" d="M 16331,19245 C 16328,19228 16326,19210 16324,19193"/>
       <path fill="none" stroke="rgb(0,0,0)" d="M 16319,19159 C 16316,19142 16314,19125 16311,19107"/>
       <path fill="none" stroke="rgb(0,0,0)" d="M 16306,19074 C 16303,19057 16300,19040 16297,19023"/>
       <path fill="none" stroke="rgb(0,0,0)" d="M 16292,18990 C 16289,18972 16285,18954 16282,18937"/>
       <path fill="none" stroke="rgb(0,0,0)" d="M 16275,18901 C 16272,18883 16268,18865 16265,18847"/>
       <path fill="none" stroke="rgb(0,0,0)" d="M 16258,18813 C 16254,18795 16250,18777 16246,18760"/>
       <path fill="none" stroke="rgb(0,0,0)" d="M 16238,18726 C 16234,18708 16230,18691 16226,18673"/>
       <path fill="none" stroke="rgb(0,0,0)" d="M 16218,18640 C 16214,18623 16209,18606 16205,18589"/>
       <path fill="none" stroke="rgb(0,0,0)" d="M 16196,18557 C 16191,18540 16187,18523 16182,18507"/>
       <path fill="none" stroke="rgb(0,0,0)" d="M 16173,18475 C 16168,18459 16163,18442 16158,18426"/>
       <path fill="none" stroke="rgb(0,0,0)" d="M 16148,18396 C 16142,18378 16137,18361 16131,18343"/>
       <path fill="none" stroke="rgb(0,0,0)" d="M 16119,18309 C 16112,18291 16106,18273 16099,18256"/>
       <path fill="none" stroke="rgb(0,0,0)" d="M 16086,18223 C 16080,18205 16073,18189 16066,18172"/>
       <path fill="none" stroke="rgb(0,0,0)" d="M 16052,18140 C 16045,18124 16038,18107 16031,18091"/>
       <path fill="none" stroke="rgb(0,0,0)" d="M 16016,18061 C 16009,18045 16001,18030 15994,18015"/>
       <path fill="none" stroke="rgb(0,0,0)" d="M 15979,17986 C 15971,17971 15963,17956 15955,17942"/>
       <path fill="none" stroke="rgb(0,0,0)" d="M 15939,17914 C 15929,17899 15920,17883 15910,17868"/>
       <path fill="none" stroke="rgb(0,0,0)" d="M 15890,17837 C 15879,17821 15868,17806 15857,17791"/>
       <path fill="none" stroke="rgb(0,0,0)" d="M 15836,17762 C 15825,17748 15813,17734 15802,17720"/>
       <path fill="none" stroke="rgb(0,0,0)" d="M 15779,17695 C 15767,17682 15755,17669 15743,17657"/>
       <path fill="none" stroke="rgb(0,0,0)" d="M 15719,17635 C 15706,17623 15694,17612 15681,17602"/>
       <path fill="none" stroke="rgb(0,0,0)" d="M 15656,17582 C 15652,17579 15648,17576 15644,17573"/>
       <path fill="rgb(0,0,0)" stroke="none" d="M 15260,17447 L 15636,17736 15734,17453 15260,17447 Z"/>
       <text class="TextShape"><tspan class="TextParagraph" font-family="Arial, sans-serif" font-size="353px" font-weight="400"><tspan class="TextPosition" x="15579" y="20078"><tspan fill="rgb(0,0,0)" stroke="none">tcp</tspan></tspan></tspan></text>
      </g>
     </g>
    </g>
   </g>
  </g>
 </g>
</svg>