<?xml version="1.0" encoding="UTF-8"?>
<!DOCTYPE svg PUBLIC "-//W3C//DTD SVG 1.1//EN" "http://www.w3.org/Graphics/SVG/1.1/DTD/svg11.dtd">
<svg version="1.2" width="210mm" height="297mm" viewBox="0 0 21000 29700" preserveAspectRatio="xMidYMid" fill-rule="evenodd" clip-path="url(#presentation_clip_path)" stroke-width="28.222" stroke-linejoin="round" xmlns="http://www.w3.org/2000/svg" xmlns:ooo="http://xml.openoffice.org/svg/export" xmlns:xlink="http://www.w3.org/1999/xlink" xml:space="preserve">
 <defs class="ClipPathGroup">
  <clipPath id="presentation_clip_path" clipPathUnits="userSpaceOnUse">
   <rect x="0" y="0" width="21000" height="29700"/>
  </clipPath>
 </defs>
 <defs class="TextShapeIndex">
  <g ooo:slide="id1" ooo:id-list="id3 id4 id5 id6 id7 id8 id9 id10 id11 id12 id13 id14 id15 id16 id17 id18 id19 id20 id21 id22 id23 id24 id25 id26 id27 id28 id29 id30 id31 id32 id33 id34"/>
 </defs>
 <defs class="EmbeddedBulletChars">
  <g id="bullet-char-template(57356)" transform="scale(0.00048828125,-0.00048828125)">
   <path d="M 580,1141 L 1163,571 580,0 -4,571 580,1141 Z"/>
  </g>
  <g id="bullet-char-template(57354)" transform="scale(0.00048828125,-0.00048828125)">
   <path d="M 8,1128 L 1137,1128 1137,0 8,0 8,1128 Z"/>
  </g>
  <g id="bullet-char-template(10146)" transform="scale(0.00048828125,-0.00048828125)">
   <path d="M 174,0 L 602,739 174,1481 1456,739 174,0 Z M 1358,739 L 309,1346 659,739 1358,739 Z"/>
  </g>
  <g id="bullet-char-template(10132)" transform="scale(0.00048828125,-0.00048828125)">
   <path d="M 2015,739 L 1276,0 717,0 1260,543 174,543 174,936 1260,936 717,1481 1274,1481 2015,739 Z"/>
  </g>
  <g id="bullet-char-template(10007)" transform="scale(0.00048828125,-0.00048828125)">
   <path d="M 0,-2 C -7,14 -16,27 -25,37 L 356,567 C 262,823 215,952 215,954 215,979 228,992 255,992 264,992 276,990 289,987 310,991 331,999 354,1012 L 381,999 492,748 772,1049 836,1024 860,1049 C 881,1039 901,1025 922,1006 886,937 835,863 770,784 769,783 710,716 594,584 L 774,223 C 774,196 753,168 711,139 L 727,119 C 717,90 699,76 672,76 641,76 570,178 457,381 L 164,-76 C 142,-110 111,-127 72,-127 30,-127 9,-110 8,-76 1,-67 -2,-52 -2,-32 -2,-23 -1,-13 0,-2 Z"/>
  </g>
  <g id="bullet-char-template(10004)" transform="scale(0.00048828125,-0.00048828125)">
   <path d="M 285,-33 C 182,-33 111,30 74,156 52,228 41,333 41,471 41,549 55,616 82,672 116,743 169,778 240,778 293,778 328,747 346,684 L 369,508 C 377,444 397,411 428,410 L 1163,1116 C 1174,1127 1196,1133 1229,1133 1271,1133 1292,1118 1292,1087 L 1292,965 C 1292,929 1282,901 1262,881 L 442,47 C 390,-6 338,-33 285,-33 Z"/>
  </g>
  <g id="bullet-char-template(9679)" transform="scale(0.00048828125,-0.00048828125)">
   <path d="M 813,0 C 632,0 489,54 383,161 276,268 223,411 223,592 223,773 276,916 383,1023 489,1130 632,1184 813,1184 992,1184 1136,1130 1245,1023 1353,916 1407,772 1407,592 1407,412 1353,268 1245,161 1136,54 992,0 813,0 Z"/>
  </g>
  <g id="bullet-char-template(8226)" transform="scale(0.00048828125,-0.00048828125)">
   <path d="M 346,457 C 273,457 209,483 155,535 101,586 74,649 74,723 74,796 101,859 155,911 209,963 273,989 346,989 419,989 480,963 531,910 582,859 608,796 608,723 608,648 583,586 532,535 482,483 420,457 346,457 Z"/>
  </g>
  <g id="bullet-char-template(8211)" transform="scale(0.00048828125,-0.00048828125)">
   <path d="M -4,459 L 1135,459 1135,606 -4,606 -4,459 Z"/>
  </g>
 </defs>
 <defs class="TextEmbeddedBitmaps"/>
 <g>
  <g id="id2" class="Master_Slide">
   <g id="bg-id2" class="Background"/>
   <g id="bo-id2" class="BackgroundObjects"/>
  </g>
 </g>
 <g class="SlideGroup">
  <g>
   <g id="id1" class="Slide" clip-path="url(#presentation_clip_path)">
    <g class="Page">
     <g class="com.sun.star.drawing.CustomShape">
      <g id="id3">
       <path fill="rgb(204,255,204)" stroke="none" d="M 4802,1763 C 4424,1763 4047,1572 4047,1381 4047,1190 4424,1000 4802,1000 L 7991,1000 C 8369,1000 8747,1190 8747,1381 8747,1572 8369,1763 7991,1763 L 4802,1763 Z M 4047,1000 L 4047,1000 Z M 8747,1763 L 8747,1763 Z"/>
       <path fill="none" stroke="rgb(52,101,175)" d="M 4802,1763 C 4424,1763 4047,1572 4047,1381 4047,1190 4424,1000 4802,1000 L 7991,1000 C 8369,1000 8747,1190 8747,1381 8747,1572 8369,1763 7991,1763 L 4802,1763 Z"/>
       <path fill="none" stroke="rgb(52,101,175)" d="M 4047,1000 L 4047,1000 Z"/>
       <path fill="none" stroke="rgb(52,101,175)" d="M 8747,1763 L 8747,1763 Z"/>
       <text class="TextShape"><tspan class="TextParagraph" font-family="Arial, sans-serif" font-size="353px" font-weight="400"><tspan class="TextPosition" x="4394" y="1504"><tspan fill="rgb(0,0,0)" stroke="none">jettyStartWarDebug starts</tspan></tspan></tspan></text>
      </g>
     </g>
     <g class="com.sun.star.drawing.CustomShape">
      <g id="id4">
       <path fill="rgb(204,255,204)" stroke="none" d="M 4480,3412 L 6399,2650 8319,3412 6399,4174 4480,3412 4480,3412 Z M 4480,2650 L 4480,2650 Z M 8319,4174 L 8319,4174 Z"/>
       <path fill="none" stroke="rgb(52,101,175)" d="M 4480,3412 L 6399,2650 8319,3412 6399,4174 4480,3412 4480,3412 Z"/>
       <path fill="none" stroke="rgb(52,101,175)" d="M 4480,2650 L 4480,2650 Z"/>
       <path fill="none" stroke="rgb(52,101,175)" d="M 8319,4174 L 8319,4174 Z"/>
       <text class="TextShape"><tspan class="TextParagraph" font-family="Arial, sans-serif" font-size="353px" font-weight="400"><tspan class="TextPosition" x="5781" y="3336"><tspan fill="rgb(0,0,0)" stroke="none">sources</tspan></tspan><tspan class="TextPosition" x="5501" y="3734"><tspan fill="rgb(0,0,0)" stroke="none">up-to-date?</tspan></tspan></tspan></text>
      </g>
     </g>
     <g class="com.sun.star.drawing.ConnectorShape">
      <g id="id5">
       <path fill="none" stroke="rgb(0,0,0)" d="M 6398,1762 L 6399,2221"/>
       <path fill="rgb(0,0,0)" stroke="none" d="M 6399,2651 L 6548,2201 6248,2201 6399,2651 Z"/>
      </g>
     </g>
     <g class="com.sun.star.drawing.CustomShape">
      <g id="id6">
       <path fill="rgb(204,255,204)" stroke="none" d="M 8535,4244 L 11796,4244 11796,5064 8535,5064 8535,4244 8535,4244 Z M 8535,4244 L 8535,4244 Z M 11796,5065 L 11796,5065 Z"/>
       <path fill="none" stroke="rgb(52,101,175)" d="M 8535,4244 L 11796,4244 11796,5064 8535,5064 8535,4244 8535,4244 Z"/>
       <path fill="none" stroke="rgb(52,101,175)" d="M 8535,4244 L 8535,4244 Z"/>
       <path fill="none" stroke="rgb(52,101,175)" d="M 11796,5065 L 11796,5065 Z"/>
       <text class="TextShape"><tspan class="TextParagraph" font-family="Arial, sans-serif" font-size="353px" font-weight="400"><tspan class="TextPosition" x="9562" y="4777"><tspan fill="rgb(0,0,0)" stroke="none">compile</tspan></tspan></tspan></text>
      </g>
     </g>
     <g class="com.sun.star.drawing.ConnectorShape">
      <g id="id7">
       <path fill="none" stroke="rgb(0,0,0)" d="M 8318,3413 L 10165,3413 10165,3814"/>
       <path fill="rgb(0,0,0)" stroke="none" d="M 10165,4244 L 10315,3794 10015,3794 10165,4244 Z"/>
       <text class="TextShape"><tspan class="TextParagraph" font-family="Arial, sans-serif" font-size="353px" font-weight="400"><tspan class="TextPosition" x="9047" y="3753"><tspan fill="rgb(0,0,0)" stroke="none">no</tspan></tspan></tspan></text>
      </g>
     </g>
     <g class="com.sun.star.drawing.ConnectorShape">
      <g id="id8">
       <path fill="none" stroke="rgb(0,0,0)" d="M 6399,4174 L 6381,6207"/>
       <path fill="rgb(0,0,0)" stroke="none" d="M 6377,6637 L 6531,6188 6231,6186 6377,6637 Z"/>
       <text class="TextShape"><tspan class="TextParagraph" font-family="Arial, sans-serif" font-size="353px" font-weight="400"><tspan class="TextPosition" x="5723" y="4932"><tspan fill="rgb(0,0,0)" stroke="none">yes        </tspan></tspan></tspan></text>
      </g>
     </g>
     <g class="com.sun.star.drawing.ConnectorShape">
      <g id="id9">
       <path fill="none" stroke="rgb(0,0,0)" d="M 10165,5064 L 10165,5851 6377,5851 6377,6207"/>
       <path fill="rgb(0,0,0)" stroke="none" d="M 6377,6637 L 6527,6187 6227,6187 6377,6637 Z"/>
      </g>
     </g>
     <g class="com.sun.star.drawing.CustomShape">
      <g id="id10">
       <path fill="rgb(204,255,204)" stroke="none" d="M 3973,8709 L 8747,8709 8747,9764 3973,9764 3973,8709 3973,8709 Z M 3973,8709 L 3973,8709 Z M 8747,9764 L 8747,9764 Z"/>
       <path fill="none" stroke="rgb(52,101,175)" d="M 3973,8709 L 8747,8709 8747,9764 3973,9764 3973,8709 3973,8709 Z"/>
       <path fill="none" stroke="rgb(52,101,175)" d="M 3973,8709 L 3973,8709 Z"/>
       <path fill="none" stroke="rgb(52,101,175)" d="M 8747,9764 L 8747,9764 Z"/>
       <text class="TextShape"><tspan class="TextParagraph" font-family="Arial, sans-serif" font-size="353px" font-weight="400"><tspan class="TextPosition" x="4880" y="9160"><tspan fill="rgb(0,0,0)" stroke="none">start Jetty process </tspan></tspan><tspan class="TextPosition" x="5181" y="9558"><tspan fill="rgb(0,0,0)" stroke="none">against war-file</tspan></tspan></tspan></text>
      </g>
     </g>
     <g class="com.sun.star.drawing.ConnectorShape">
      <g id="id11">
       <path fill="none" stroke="rgb(0,0,0)" d="M 6361,9763 C 6361,9779 6364,9795 6371,9811"/>
       <path fill="none" stroke="rgb(0,0,0)" d="M 6388,9841 C 6399,9856 6413,9870 6430,9885"/>
       <path fill="none" stroke="rgb(0,0,0)" d="M 6452,9901 C 6464,9910 6477,9918 6492,9927"/>
       <path fill="none" stroke="rgb(0,0,0)" d="M 6521,9943 C 6537,9951 6555,9959 6573,9967"/>
       <path fill="none" stroke="rgb(0,0,0)" d="M 6610,9982 C 6626,9988 6642,9994 6659,10000"/>
       <path fill="none" stroke="rgb(0,0,0)" d="M 6687,10010 C 6702,10015 6718,10020 6734,10025"/>
       <path fill="none" stroke="rgb(0,0,0)" d="M 6766,10034 C 6782,10039 6799,10043 6817,10048"/>
       <path fill="none" stroke="rgb(0,0,0)" d="M 6852,10057 C 6870,10062 6889,10066 6909,10071"/>
       <path fill="none" stroke="rgb(0,0,0)" d="M 6947,10079 C 6964,10083 6981,10087 6998,10090"/>
       <path fill="none" stroke="rgb(0,0,0)" d="M 7028,10097 C 7044,10100 7060,10103 7076,10106"/>
       <path fill="none" stroke="rgb(0,0,0)" d="M 7107,10112 C 7124,10115 7141,10118 7158,10121"/>
       <path fill="none" stroke="rgb(0,0,0)" d="M 7191,10127 C 7209,10130 7226,10133 7244,10136"/>
       <path fill="none" stroke="rgb(0,0,0)" d="M 7280,10141 C 7298,10144 7317,10147 7336,10150"/>
       <path fill="none" stroke="rgb(0,0,0)" d="M 7372,10156 C 7392,10158 7411,10161 7431,10164"/>
       <path fill="none" stroke="rgb(0,0,0)" d="M 7464,10169 C 7480,10171 7496,10173 7512,10175"/>
       <path fill="none" stroke="rgb(0,0,0)" d="M 7543,10179 C 7560,10181 7576,10183 7593,10185"/>
       <path fill="none" stroke="rgb(0,0,0)" d="M 7625,10189 C 7642,10191 7659,10193 7677,10195"/>
       <path fill="none" stroke="rgb(0,0,0)" d="M 7710,10199 C 7728,10201 7745,10203 7763,10205"/>
       <path fill="none" stroke="rgb(0,0,0)" d="M 7798,10209 C 7816,10211 7834,10213 7852,10215"/>
       <path fill="none" stroke="rgb(0,0,0)" d="M 7888,10218 C 7906,10220 7925,10222 7944,10224"/>
       <path fill="none" stroke="rgb(0,0,0)" d="M 7981,10228 C 8000,10229 8019,10231 8038,10233"/>
       <path fill="none" stroke="rgb(0,0,0)" d="M 8072,10236 C 8088,10238 8105,10239 8121,10240"/>
       <path fill="none" stroke="rgb(0,0,0)" d="M 8153,10243 C 8169,10245 8186,10246 8203,10248"/>
       <path fill="none" stroke="rgb(0,0,0)" d="M 8235,10250 C 8252,10252 8269,10253 8286,10254"/>
       <path fill="none" stroke="rgb(0,0,0)" d="M 8319,10257 C 8337,10258 8354,10260 8371,10261"/>
       <path fill="none" stroke="rgb(0,0,0)" d="M 8405,10264 C 8423,10265 8441,10266 8459,10268"/>
       <path fill="none" stroke="rgb(0,0,0)" d="M 8493,10270 C 8511,10272 8529,10273 8548,10274"/>
       <path fill="none" stroke="rgb(0,0,0)" d="M 8583,10277 C 8601,10278 8620,10279 8639,10280"/>
       <path fill="none" stroke="rgb(0,0,0)" d="M 8675,10283 C 8693,10284 8712,10285 8731,10286"/>
       <path fill="none" stroke="rgb(0,0,0)" d="M 8768,10289 C 8786,10290 8804,10291 8822,10292"/>
       <path fill="none" stroke="rgb(0,0,0)" d="M 8854,10294 C 8870,10295 8887,10296 8903,10297"/>
       <path fill="none" stroke="rgb(0,0,0)" d="M 8936,10299 C 8952,10300 8969,10301 8986,10302"/>
       <path fill="none" stroke="rgb(0,0,0)" d="M 9019,10304 C 9036,10305 9053,10305 9070,10306"/>
       <path fill="none" stroke="rgb(0,0,0)" d="M 9104,10308 C 9121,10309 9138,10310 9156,10311"/>
       <path fill="none" stroke="rgb(0,0,0)" d="M 9190,10313 C 9207,10314 9225,10314 9243,10315"/>
       <path fill="none" stroke="rgb(0,0,0)" d="M 9277,10317 C 9295,10318 9313,10319 9331,10320"/>
       <path fill="none" stroke="rgb(0,0,0)" d="M 9366,10321 C 9384,10322 9402,10323 9420,10324"/>
       <path fill="none" stroke="rgb(0,0,0)" d="M 9456,10325 C 9474,10326 9493,10327 9511,10328"/>
       <path fill="none" stroke="rgb(0,0,0)" d="M 9547,10329 C 9566,10330 9585,10331 9603,10332"/>
       <path fill="none" stroke="rgb(0,0,0)" d="M 9640,10333 C 9658,10334 9676,10335 9695,10336"/>
       <path fill="none" stroke="rgb(0,0,0)" d="M 9727,10337 C 9743,10337 9760,10338 9777,10339"/>
       <path fill="none" stroke="rgb(0,0,0)" d="M 9809,10340 C 9826,10341 9843,10341 9860,10342"/>
       <path fill="none" stroke="rgb(0,0,0)" d="M 9893,10343 C 9910,10344 9927,10344 9944,10345"/>
       <path fill="none" stroke="rgb(0,0,0)" d="M 9977,10346 C 9995,10347 10012,10347 10029,10348"/>
       <path fill="none" stroke="rgb(0,0,0)" d="M 10063,10349 C 10080,10350 10098,10350 10115,10351"/>
       <path fill="none" stroke="rgb(0,0,0)" d="M 10149,10352 C 10167,10352 10185,10353 10202,10354"/>
       <path fill="none" stroke="rgb(0,0,0)" d="M 10237,10355 C 10255,10355 10273,10356 10291,10356"/>
       <path fill="none" stroke="rgb(0,0,0)" d="M 10325,10357 C 10343,10358 10362,10358 10380,10359"/>
       <path fill="none" stroke="rgb(0,0,0)" d="M 10415,10360 C 10433,10360 10452,10361 10470,10361"/>
       <path fill="none" stroke="rgb(0,0,0)" d="M 10505,10362 C 10524,10363 10542,10363 10561,10364"/>
       <path fill="none" stroke="rgb(0,0,0)" d="M 10597,10365 C 10616,10365 10634,10366 10653,10366"/>
       <path fill="none" stroke="rgb(0,0,0)" d="M 10690,10367 C 10706,10368 10723,10368 10740,10368"/>
       <path fill="none" stroke="rgb(0,0,0)" d="M 10773,10369 C 10790,10370 10806,10370 10823,10370"/>
       <path fill="none" stroke="rgb(0,0,0)" d="M 10856,10371 C 10873,10371 10890,10372 10907,10372"/>
       <path fill="none" stroke="rgb(0,0,0)" d="M 10940,10373 C 10957,10373 10974,10374 10992,10374"/>
       <path fill="none" stroke="rgb(0,0,0)" d="M 11025,10375 C 11042,10375 11060,10375 11077,10376"/>
       <path fill="none" stroke="rgb(0,0,0)" d="M 11111,10376 C 11128,10377 11146,10377 11163,10377"/>
       <path fill="none" stroke="rgb(0,0,0)" d="M 11197,10378 C 11215,10378 11232,10379 11250,10379"/>
       <path fill="none" stroke="rgb(0,0,0)" d="M 11284,10380 C 11302,10380 11320,10380 11338,10381"/>
       <path fill="none" stroke="rgb(0,0,0)" d="M 11372,10381 C 11390,10381 11408,10382 11426,10382"/>
       <path fill="none" stroke="rgb(0,0,0)" d="M 11461,10383 C 11479,10383 11497,10383 11515,10383"/>
       <path fill="none" stroke="rgb(0,0,0)" d="M 11550,10384 C 11569,10384 11587,10384 11605,10385"/>
       <path fill="none" stroke="rgb(0,0,0)" d="M 11641,10385 C 11659,10386 11677,10386 11696,10386"/>
       <path fill="none" stroke="rgb(0,0,0)" d="M 11732,10387 C 11750,10387 11769,10387 11787,10387"/>
       <path fill="none" stroke="rgb(0,0,0)" d="M 11824,10388 C 11841,10388 11859,10388 11876,10388"/>
       <path fill="none" stroke="rgb(0,0,0)" d="M 11909,10389 C 11926,10389 11943,10389 11960,10389"/>
       <path fill="none" stroke="rgb(0,0,0)" d="M 11992,10390 C 12009,10390 12026,10390 12044,10390"/>
       <path fill="none" stroke="rgb(0,0,0)" d="M 12077,10391 C 12094,10391 12111,10391 12128,10391"/>
       <path fill="none" stroke="rgb(0,0,0)" d="M 12161,10391 C 12179,10392 12196,10392 12213,10392"/>
       <path fill="none" stroke="rgb(0,0,0)" d="M 12247,10392 C 12264,10392 12281,10393 12299,10393"/>
       <path fill="none" stroke="rgb(0,0,0)" d="M 12333,10393 C 12350,10393 12368,10393 12385,10393"/>
       <path fill="none" stroke="rgb(0,0,0)" d="M 12419,10394 C 12437,10394 12455,10394 12472,10394"/>
       <path fill="none" stroke="rgb(0,0,0)" d="M 12507,10394 C 12524,10394 12542,10395 12560,10395"/>
       <path fill="none" stroke="rgb(0,0,0)" d="M 12594,10395 C 12612,10395 12630,10395 12648,10395"/>
       <path fill="none" stroke="rgb(0,0,0)" d="M 12683,10395 C 12701,10396 12719,10396 12737,10396"/>
       <path fill="none" stroke="rgb(0,0,0)" d="M 12772,10396 C 12790,10396 12808,10396 12826,10396"/>
       <path fill="none" stroke="rgb(0,0,0)" d="M 12862,10396 C 12880,10396 12898,10397 12917,10397"/>
       <path fill="none" stroke="rgb(0,0,0)" d="M 12952,10397 C 12970,10397 12989,10397 13007,10397"/>
       <path fill="none" stroke="rgb(0,0,0)" d="M 13043,10397 C 13062,10397 13080,10397 13099,10397"/>
       <path fill="rgb(0,0,0)" stroke="none" d="M 13573,10398 L 13123,10247 13123,10547 13573,10398 Z"/>
       <text class="TextShape"><tspan class="TextParagraph" font-family="Arial, sans-serif" font-size="353px" font-weight="400"><tspan class="TextPosition" x="11013" y="10204"><tspan fill="rgb(0,0,0)" stroke="none">start process   </tspan></tspan></tspan></text>
      </g>
     </g>
     <g class="com.sun.star.drawing.CustomShape">
      <g id="id12">
       <path fill="rgb(255,255,204)" stroke="none" d="M 13573,16211 L 17638,16211 17638,17383 13573,17383 13573,16211 13573,16211 Z M 13573,16211 L 13573,16211 Z M 17638,17383 L 17638,17383 Z"/>
       <path fill="none" stroke="rgb(52,101,175)" d="M 13573,16211 L 17638,16211 17638,17383 13573,17383 13573,16211 13573,16211 Z"/>
       <path fill="none" stroke="rgb(52,101,175)" d="M 13573,16211 L 13573,16211 Z"/>
       <path fill="none" stroke="rgb(52,101,175)" d="M 17638,17383 L 17638,17383 Z"/>
       <text class="TextShape"><tspan class="TextParagraph" font-family="Arial, sans-serif" font-size="353px" font-weight="400"><tspan class="TextPosition" x="13965" y="16721"><tspan fill="rgb(0,0,0)" stroke="none">send “started” signal </tspan></tspan></tspan><tspan class="TextParagraph" font-family="Arial, sans-serif" font-size="353px" font-weight="400"><tspan class="TextPosition" x="14541" y="17119"><tspan fill="rgb(0,0,0)" stroke="none">to </tspan><tspan font-weight="700" fill="rgb(0,0,0)" stroke="none">statusPort</tspan></tspan></tspan></text>
      </g>
     </g>
     <g class="com.sun.star.drawing.ConnectorShape">
      <g id="id13">
       <path fill="none" stroke="rgb(0,0,0)" d="M 6361,9763 L 6388,10942"/>
       <path fill="rgb(0,0,0)" stroke="none" d="M 6398,11372 L 6538,10919 6238,10926 6398,11372 Z"/>
      </g>
     </g>
     <g class="com.sun.star.drawing.CustomShape">
      <g id="id14">
       <path fill="rgb(204,255,204)" stroke="none" d="M 4428,11371 L 8366,11371 8366,12543 4428,12543 4428,11371 4428,11371 Z M 4428,11371 L 4428,11371 Z M 8366,12543 L 8366,12543 Z"/>
       <path fill="none" stroke="rgb(52,101,175)" d="M 4428,11371 L 8366,11371 8366,12543 4428,12543 4428,11371 4428,11371 Z"/>
       <path fill="none" stroke="rgb(52,101,175)" d="M 4428,11371 L 4428,11371 Z"/>
       <path fill="none" stroke="rgb(52,101,175)" d="M 8366,12543 L 8366,12543 Z"/>
       <text class="TextShape"><tspan class="TextParagraph" font-family="Arial, sans-serif" font-size="353px" font-weight="400"><tspan class="TextPosition" x="4572" y="11881"><tspan fill="rgb(0,0,0)" stroke="none">wait for “started” signal </tspan></tspan><tspan class="TextPosition" x="5283" y="12279"><tspan fill="rgb(0,0,0)" stroke="none">on </tspan><tspan font-weight="700" fill="rgb(0,0,0)" stroke="none">statusPort</tspan></tspan></tspan></text>
      </g>
     </g>
     <g class="com.sun.star.drawing.CustomShape">
      <g id="id15">
       <path fill="rgb(255,255,204)" stroke="none" d="M 14226,10780 C 13899,10780 13573,10589 13573,10398 13573,10207 13899,10017 14226,10017 L 16984,10017 C 17311,10017 17638,10207 17638,10398 17638,10589 17311,10780 16984,10780 L 14226,10780 Z M 13573,10017 L 13573,10017 Z M 17638,10780 L 17638,10780 Z"/>
       <path fill="none" stroke="rgb(52,101,175)" d="M 14226,10780 C 13899,10780 13573,10589 13573,10398 13573,10207 13899,10017 14226,10017 L 16984,10017 C 17311,10017 17638,10207 17638,10398 17638,10589 17311,10780 16984,10780 L 14226,10780 Z"/>
       <path fill="none" stroke="rgb(52,101,175)" d="M 13573,10017 L 13573,10017 Z"/>
       <path fill="none" stroke="rgb(52,101,175)" d="M 17638,10780 L 17638,10780 Z"/>
       <text class="TextShape"><tspan class="TextParagraph" font-family="Arial, sans-serif" font-size="353px" font-weight="400"><tspan class="TextPosition" x="14085" y="10521"><tspan fill="rgb(0,0,0)" stroke="none">Jetty process starts</tspan></tspan></tspan></text>
      </g>
     </g>
     <g class="com.sun.star.drawing.ConnectorShape">
      <g id="id16">
       <path fill="none" stroke="rgb(0,0,0)" d="M 15631,12887 L 15617,13651"/>
       <path fill="rgb(0,0,0)" stroke="none" d="M 15609,14081 L 15767,13634 15467,13628 15609,14081 Z"/>
       <text class="TextShape"><tspan class="TextParagraph" font-family="Arial, sans-serif" font-size="353px" font-weight="400"><tspan class="TextPosition" x="14254" y="13607"><tspan fill="rgb(0,0,0)" stroke="none">resume                </tspan></tspan></tspan></text>
      </g>
     </g>
     <g class="com.sun.star.drawing.CustomShape">
      <g id="id17">
       <path fill="rgb(255,255,204)" stroke="none" d="M 13192,18652 L 18019,18652 18019,20050 13192,20050 13192,18652 13192,18652 Z M 13192,18652 L 13192,18652 Z M 18019,20050 L 18019,20050 Z"/>
       <path fill="none" stroke="rgb(52,101,175)" d="M 13192,18652 L 18019,18652 18019,20050 13192,20050 13192,18652 13192,18652 Z"/>
       <path fill="none" stroke="rgb(52,101,175)" d="M 13192,18652 L 13192,18652 Z"/>
       <path fill="none" stroke="rgb(52,101,175)" d="M 18019,20050 L 18019,20050 Z"/>
       <text class="TextShape"><tspan class="TextParagraph" font-family="Arial, sans-serif" font-size="353px" font-weight="400"><tspan class="TextPosition" x="14672" y="19076"><tspan fill="rgb(0,0,0)" stroke="none">In wait loop.</tspan></tspan><tspan class="TextPosition" x="13889" y="19474"><tspan fill="rgb(0,0,0)" stroke="none">listen for “stop” signal </tspan></tspan><tspan class="TextPosition" x="14407" y="19872"><tspan fill="rgb(0,0,0)" stroke="none">on </tspan><tspan font-weight="700" fill="rgb(0,0,0)" stroke="none">servicePort</tspan></tspan></tspan></text>
      </g>
     </g>
     <g class="com.sun.star.drawing.ConnectorShape">
      <g id="id18">
       <path fill="none" stroke="rgb(0,0,0)" d="M 15605,17383 L 15605,18223"/>
       <path fill="rgb(0,0,0)" stroke="none" d="M 15605,18653 L 15755,18203 15455,18203 15605,18653 Z"/>
      </g>
     </g>
     <g class="com.sun.star.drawing.CustomShape">
      <g id="id19">
       <path fill="rgb(204,255,204)" stroke="none" d="M 4756,24242 C 4338,24242 3920,23920 3920,23599 3920,23278 4338,22957 4756,22957 L 8291,22957 C 8709,22957 9128,23278 9128,23599 9128,23920 8709,24242 8291,24242 L 4756,24242 Z M 3920,22957 L 3920,22957 Z M 9128,24242 L 9128,24242 Z"/>
       <path fill="none" stroke="rgb(52,101,175)" d="M 4756,24242 C 4338,24242 3920,23920 3920,23599 3920,23278 4338,22957 4756,22957 L 8291,22957 C 8709,22957 9128,23278 9128,23599 9128,23920 8709,24242 8291,24242 L 4756,24242 Z"/>
       <path fill="none" stroke="rgb(52,101,175)" d="M 3920,22957 L 3920,22957 Z"/>
       <path fill="none" stroke="rgb(52,101,175)" d="M 9128,24242 L 9128,24242 Z"/>
       <text class="TextShape"><tspan class="TextParagraph" font-family="Arial, sans-serif" font-size="353px" font-weight="400"><tspan class="TextPosition" x="4301" y="23324"><tspan fill="rgb(0,0,0)" stroke="none">jettyStartWarDebug finished.</tspan></tspan><tspan class="TextPosition" x="5175" y="23722"><tspan fill="rgb(0,0,0)" stroke="none">Gradle proceeds </tspan></tspan><tspan class="TextPosition" x="5302" y="24120"><tspan fill="rgb(0,0,0)" stroke="none">with other tasks</tspan></tspan></tspan></text>
      </g>
     </g>
     <g class="com.sun.star.drawing.ConnectorShape">
      <g id="id20">
       <path fill="none" stroke="rgb(0,0,0)" d="M 13573,16797 L 13534,16761"/>
       <path fill="none" stroke="rgb(0,0,0)" d="M 13509,16738 L 13470,16701"/>
       <path fill="none" stroke="rgb(0,0,0)" d="M 13445,16678 L 13406,16642"/>
       <path fill="none" stroke="rgb(0,0,0)" d="M 13381,16619 L 13342,16583"/>
       <path fill="none" stroke="rgb(0,0,0)" d="M 13317,16559 L 13278,16523"/>
       <path fill="none" stroke="rgb(0,0,0)" d="M 13253,16500 L 13214,16464"/>
       <path fill="none" stroke="rgb(0,0,0)" d="M 13189,16440 L 13150,16404"/>
       <path fill="none" stroke="rgb(0,0,0)" d="M 13125,16381 L 13086,16345"/>
       <path fill="none" stroke="rgb(0,0,0)" d="M 13061,16321 L 13022,16285"/>
       <path fill="none" stroke="rgb(0,0,0)" d="M 12997,16262 L 12958,16226"/>
       <path fill="none" stroke="rgb(0,0,0)" d="M 12933,16203 L 12894,16166"/>
       <path fill="none" stroke="rgb(0,0,0)" d="M 12869,16143 L 12831,16107"/>
       <path fill="none" stroke="rgb(0,0,0)" d="M 12805,16084 L 12767,16048"/>
       <path fill="none" stroke="rgb(0,0,0)" d="M 12741,16024 L 12703,15988"/>
       <path fill="none" stroke="rgb(0,0,0)" d="M 12678,15965 L 12639,15929"/>
       <path fill="none" stroke="rgb(0,0,0)" d="M 12614,15905 L 12575,15869"/>
       <path fill="none" stroke="rgb(0,0,0)" d="M 12550,15846 L 12511,15810"/>
       <path fill="none" stroke="rgb(0,0,0)" d="M 12486,15786 L 12447,15750"/>
       <path fill="none" stroke="rgb(0,0,0)" d="M 12422,15727 L 12383,15691"/>
       <path fill="none" stroke="rgb(0,0,0)" d="M 12358,15668 L 12319,15631"/>
       <path fill="none" stroke="rgb(0,0,0)" d="M 12294,15608 L 12255,15572"/>
       <path fill="none" stroke="rgb(0,0,0)" d="M 12230,15549 L 12191,15513"/>
       <path fill="none" stroke="rgb(0,0,0)" d="M 12166,15489 L 12127,15453"/>
       <path fill="none" stroke="rgb(0,0,0)" d="M 12102,15430 L 12063,15394"/>
       <path fill="none" stroke="rgb(0,0,0)" d="M 12038,15370 L 11999,15334"/>
       <path fill="none" stroke="rgb(0,0,0)" d="M 11974,15311 L 11935,15275"/>
       <path fill="none" stroke="rgb(0,0,0)" d="M 11910,15252 L 11871,15215"/>
       <path fill="none" stroke="rgb(0,0,0)" d="M 11846,15192 L 11807,15156"/>
       <path fill="none" stroke="rgb(0,0,0)" d="M 11782,15133 L 11743,15096"/>
       <path fill="none" stroke="rgb(0,0,0)" d="M 11718,15073 L 11679,15037"/>
       <path fill="none" stroke="rgb(0,0,0)" d="M 11654,15014 L 11615,14978"/>
       <path fill="none" stroke="rgb(0,0,0)" d="M 11590,14954 L 11551,14918"/>
       <path fill="none" stroke="rgb(0,0,0)" d="M 11526,14895 L 11487,14859"/>
       <path fill="none" stroke="rgb(0,0,0)" d="M 11462,14835 L 11423,14799"/>
       <path fill="none" stroke="rgb(0,0,0)" d="M 11398,14776 L 11359,14740"/>
       <path fill="none" stroke="rgb(0,0,0)" d="M 11334,14717 L 11295,14680"/>
       <path fill="none" stroke="rgb(0,0,0)" d="M 11270,14657 L 11231,14621"/>
       <path fill="none" stroke="rgb(0,0,0)" d="M 11206,14598 L 11168,14562"/>
       <path fill="none" stroke="rgb(0,0,0)" d="M 11142,14538 L 11104,14502"/>
       <path fill="none" stroke="rgb(0,0,0)" d="M 11078,14479 L 11040,14443"/>
       <path fill="none" stroke="rgb(0,0,0)" d="M 11015,14419 L 10976,14383"/>
       <path fill="none" stroke="rgb(0,0,0)" d="M 10951,14360 L 10912,14324"/>
       <path fill="none" stroke="rgb(0,0,0)" d="M 10887,14300 L 10848,14264"/>
       <path fill="none" stroke="rgb(0,0,0)" d="M 10823,14241 L 10784,14205"/>
       <path fill="none" stroke="rgb(0,0,0)" d="M 10759,14182 L 10720,14145"/>
       <path fill="none" stroke="rgb(0,0,0)" d="M 10695,14122 L 10656,14086"/>
       <path fill="none" stroke="rgb(0,0,0)" d="M 10631,14063 L 10592,14027"/>
       <path fill="none" stroke="rgb(0,0,0)" d="M 10567,14003 L 10528,13967"/>
       <path fill="none" stroke="rgb(0,0,0)" d="M 10503,13944 L 10464,13908"/>
       <path fill="none" stroke="rgb(0,0,0)" d="M 10439,13884 L 10400,13848"/>
       <path fill="none" stroke="rgb(0,0,0)" d="M 10375,13825 L 10336,13789"/>
       <path fill="none" stroke="rgb(0,0,0)" d="M 10311,13765 L 10272,13729"/>
       <path fill="none" stroke="rgb(0,0,0)" d="M 10247,13706 L 10208,13670"/>
       <path fill="none" stroke="rgb(0,0,0)" d="M 10183,13647 L 10144,13610"/>
       <path fill="none" stroke="rgb(0,0,0)" d="M 10119,13587 L 10080,13551"/>
       <path fill="none" stroke="rgb(0,0,0)" d="M 10055,13528 L 10016,13492"/>
       <path fill="none" stroke="rgb(0,0,0)" d="M 9991,13468 L 9952,13432"/>
       <path fill="none" stroke="rgb(0,0,0)" d="M 9927,13409 L 9888,13373"/>
       <path fill="none" stroke="rgb(0,0,0)" d="M 9863,13349 L 9824,13313"/>
       <path fill="none" stroke="rgb(0,0,0)" d="M 9799,13290 L 9760,13254"/>
       <path fill="none" stroke="rgb(0,0,0)" d="M 9735,13231 L 9696,13194"/>
       <path fill="none" stroke="rgb(0,0,0)" d="M 9671,13171 L 9632,13135"/>
       <path fill="none" stroke="rgb(0,0,0)" d="M 9607,13112 L 9568,13075"/>
       <path fill="none" stroke="rgb(0,0,0)" d="M 9543,13052 L 9505,13016"/>
       <path fill="none" stroke="rgb(0,0,0)" d="M 9479,12993 L 9441,12957"/>
       <path fill="none" stroke="rgb(0,0,0)" d="M 9415,12933 L 9377,12897"/>
       <path fill="none" stroke="rgb(0,0,0)" d="M 9352,12874 L 9313,12838"/>
       <path fill="none" stroke="rgb(0,0,0)" d="M 9288,12814 L 9249,12778"/>
       <path fill="none" stroke="rgb(0,0,0)" d="M 9224,12755 L 9185,12719"/>
       <path fill="none" stroke="rgb(0,0,0)" d="M 9160,12696 L 9121,12659"/>
       <path fill="none" stroke="rgb(0,0,0)" d="M 9096,12636 L 9057,12600"/>
       <path fill="none" stroke="rgb(0,0,0)" d="M 9032,12577 L 8993,12541"/>
       <path fill="none" stroke="rgb(0,0,0)" d="M 8968,12517 L 8929,12481"/>
       <path fill="none" stroke="rgb(0,0,0)" d="M 8904,12458 L 8865,12422"/>
       <path fill="none" stroke="rgb(0,0,0)" d="M 8840,12398 L 8801,12362"/>
       <path fill="none" stroke="rgb(0,0,0)" d="M 8776,12339 L 8737,12303"/>
       <path fill="none" stroke="rgb(0,0,0)" d="M 8712,12279 L 8681,12251"/>
       <path fill="rgb(0,0,0)" stroke="none" d="M 8366,11958 L 8594,12374 8798,12154 8366,11958 Z"/>
       <text class="TextShape"><tspan class="TextParagraph" font-family="Arial, sans-serif" font-size="353px" font-weight="400"><tspan class="TextPosition" x="10735" y="14700"><tspan fill="rgb(0,0,0)" stroke="none">tcp</tspan></tspan></tspan></text>
      </g>
     </g>
     <g class="com.sun.star.drawing.CustomShape">
      <g id="id21">
       <path fill="rgb(255,255,204)" stroke="none" d="M 14312,21956 C 14006,21956 13700,21765 13700,21574 13700,21383 14006,21193 14312,21193 L 16898,21193 C 17204,21193 17511,21383 17511,21574 17511,21765 17204,21956 16898,21956 L 14312,21956 Z M 13700,21193 L 13700,21193 Z M 17511,21956 L 17511,21956 Z"/>
       <path fill="none" stroke="rgb(52,101,175)" d="M 14312,21956 C 14006,21956 13700,21765 13700,21574 13700,21383 14006,21193 14312,21193 L 16898,21193 C 17204,21193 17511,21383 17511,21574 17511,21765 17204,21956 16898,21956 L 14312,21956 Z"/>
       <path fill="none" stroke="rgb(52,101,175)" d="M 13700,21193 L 13700,21193 Z"/>
       <path fill="none" stroke="rgb(52,101,175)" d="M 17511,21956 L 17511,21956 Z"/>
       <text class="TextShape"><tspan class="TextParagraph" font-family="Arial, sans-serif" font-size="353px" font-weight="400"><tspan class="TextPosition" x="13914" y="21697"><tspan fill="rgb(0,0,0)" stroke="none">Jetty process finished</tspan></tspan></tspan></text>
      </g>
     </g>
     <g class="com.sun.star.drawing.ConnectorShape">
      <g id="id22">
       <path fill="none" stroke="rgb(0,0,0)" d="M 15605,20050 L 15605,20763"/>
       <path fill="rgb(0,0,0)" stroke="none" d="M 15605,21193 L 15755,20743 15455,20743 15605,21193 Z"/>
      </g>
     </g>
     <g class="com.sun.star.drawing.CustomShape">
      <g id="id23">
       <path fill="rgb(204,255,204)" stroke="none" d="M 4556,19781 L 8367,19781 8367,20953 4556,20953 4556,19781 4556,19781 Z M 4556,19781 L 4556,19781 Z M 8367,20953 L 8367,20953 Z"/>
       <path fill="none" stroke="rgb(52,101,175)" d="M 4556,19781 L 8367,19781 8367,20953 4556,20953 4556,19781 4556,19781 Z"/>
       <path fill="none" stroke="rgb(52,101,175)" d="M 4556,19781 L 4556,19781 Z"/>
       <path fill="none" stroke="rgb(52,101,175)" d="M 8367,20953 L 8367,20953 Z"/>
       <text class="TextShape"><tspan class="TextParagraph" font-family="Arial, sans-serif" font-size="353px" font-weight="400"><tspan class="TextPosition" x="4808" y="20291"><tspan fill="rgb(0,0,0)" stroke="none">wait for Jetty process</tspan></tspan></tspan><tspan class="TextParagraph" font-family="Arial, sans-serif" font-size="353px" font-weight="400"><tspan class="TextPosition" x="5858" y="20689"><tspan fill="rgb(0,0,0)" stroke="none">to finish</tspan></tspan></tspan></text>
      </g>
     </g>
     <g class="com.sun.star.drawing.ConnectorShape">
      <g id="id24">
       <path fill="none" stroke="rgb(0,0,0)" d="M 6398,12543 L 6457,19352"/>
       <path fill="rgb(0,0,0)" stroke="none" d="M 6461,19782 L 6607,19331 6307,19333 6461,19782 Z"/>
      </g>
     </g>
     <g class="com.sun.star.drawing.ConnectorShape">
      <g id="id25">
       <path fill="none" stroke="rgb(0,0,0)" d="M 13700,21574 L 13648,21562"/>
       <path fill="none" stroke="rgb(0,0,0)" d="M 13615,21555 L 13563,21543"/>
       <path fill="none" stroke="rgb(0,0,0)" d="M 13530,21535 L 13478,21524"/>
       <path fill="none" stroke="rgb(0,0,0)" d="M 13445,21516 L 13393,21504"/>
       <path fill="none" stroke="rgb(0,0,0)" d="M 13359,21497 L 13308,21485"/>
       <path fill="none" stroke="rgb(0,0,0)" d="M 13274,21478 L 13222,21466"/>
       <path fill="none" stroke="rgb(0,0,0)" d="M 13189,21458 L 13137,21447"/>
       <path fill="none" stroke="rgb(0,0,0)" d="M 13104,21439 L 13052,21427"/>
       <path fill="none" stroke="rgb(0,0,0)" d="M 13019,21420 L 12967,21408"/>
       <path fill="none" stroke="rgb(0,0,0)" d="M 12934,21401 L 12882,21389"/>
       <path fill="none" stroke="rgb(0,0,0)" d="M 12848,21381 L 12797,21370"/>
       <path fill="none" stroke="rgb(0,0,0)" d="M 12763,21362 L 12711,21350"/>
       <path fill="none" stroke="rgb(0,0,0)" d="M 12678,21343 L 12626,21331"/>
       <path fill="none" stroke="rgb(0,0,0)" d="M 12593,21323 L 12541,21312"/>
       <path fill="none" stroke="rgb(0,0,0)" d="M 12508,21304 L 12456,21292"/>
       <path fill="none" stroke="rgb(0,0,0)" d="M 12423,21285 L 12371,21273"/>
       <path fill="none" stroke="rgb(0,0,0)" d="M 12337,21266 L 12286,21254"/>
       <path fill="none" stroke="rgb(0,0,0)" d="M 12252,21246 L 12200,21235"/>
       <path fill="none" stroke="rgb(0,0,0)" d="M 12167,21227 L 12115,21215"/>
       <path fill="none" stroke="rgb(0,0,0)" d="M 12082,21208 L 12030,21196"/>
       <path fill="none" stroke="rgb(0,0,0)" d="M 11997,21189 L 11945,21177"/>
       <path fill="none" stroke="rgb(0,0,0)" d="M 11912,21169 L 11860,21158"/>
       <path fill="none" stroke="rgb(0,0,0)" d="M 11826,21150 L 11775,21138"/>
       <path fill="none" stroke="rgb(0,0,0)" d="M 11741,21131 L 11689,21119"/>
       <path fill="none" stroke="rgb(0,0,0)" d="M 11656,21111 L 11604,21100"/>
       <path fill="none" stroke="rgb(0,0,0)" d="M 11571,21092 L 11519,21080"/>
       <path fill="none" stroke="rgb(0,0,0)" d="M 11486,21073 L 11434,21061"/>
       <path fill="none" stroke="rgb(0,0,0)" d="M 11401,21054 L 11349,21042"/>
       <path fill="none" stroke="rgb(0,0,0)" d="M 11315,21034 L 11264,21023"/>
       <path fill="none" stroke="rgb(0,0,0)" d="M 11230,21015 L 11178,21003"/>
       <path fill="none" stroke="rgb(0,0,0)" d="M 11145,20996 L 11093,20984"/>
       <path fill="none" stroke="rgb(0,0,0)" d="M 11060,20977 L 11008,20965"/>
       <path fill="none" stroke="rgb(0,0,0)" d="M 10975,20957 L 10923,20946"/>
       <path fill="none" stroke="rgb(0,0,0)" d="M 10890,20938 L 10838,20926"/>
       <path fill="none" stroke="rgb(0,0,0)" d="M 10804,20919 L 10753,20907"/>
       <path fill="none" stroke="rgb(0,0,0)" d="M 10719,20899 L 10667,20888"/>
       <path fill="none" stroke="rgb(0,0,0)" d="M 10634,20880 L 10582,20869"/>
       <path fill="none" stroke="rgb(0,0,0)" d="M 10549,20861 L 10497,20849"/>
       <path fill="none" stroke="rgb(0,0,0)" d="M 10464,20842 L 10412,20830"/>
       <path fill="none" stroke="rgb(0,0,0)" d="M 10379,20822 L 10327,20811"/>
       <path fill="none" stroke="rgb(0,0,0)" d="M 10293,20803 L 10242,20791"/>
       <path fill="none" stroke="rgb(0,0,0)" d="M 10208,20784 L 10156,20772"/>
       <path fill="none" stroke="rgb(0,0,0)" d="M 10123,20765 L 10071,20753"/>
       <path fill="none" stroke="rgb(0,0,0)" d="M 10038,20745 L 9986,20734"/>
       <path fill="none" stroke="rgb(0,0,0)" d="M 9953,20726 L 9901,20714"/>
       <path fill="none" stroke="rgb(0,0,0)" d="M 9868,20707 L 9816,20695"/>
       <path fill="none" stroke="rgb(0,0,0)" d="M 9782,20688 L 9731,20676"/>
       <path fill="none" stroke="rgb(0,0,0)" d="M 9697,20668 L 9645,20657"/>
       <path fill="none" stroke="rgb(0,0,0)" d="M 9612,20649 L 9560,20637"/>
       <path fill="none" stroke="rgb(0,0,0)" d="M 9527,20630 L 9475,20618"/>
       <path fill="none" stroke="rgb(0,0,0)" d="M 9442,20610 L 9390,20599"/>
       <path fill="none" stroke="rgb(0,0,0)" d="M 9357,20591 L 9305,20579"/>
       <path fill="none" stroke="rgb(0,0,0)" d="M 9271,20572 L 9220,20560"/>
       <path fill="none" stroke="rgb(0,0,0)" d="M 9186,20553 L 9134,20541"/>
       <path fill="none" stroke="rgb(0,0,0)" d="M 9101,20533 L 9049,20522"/>
       <path fill="none" stroke="rgb(0,0,0)" d="M 9016,20514 L 8964,20502"/>
       <path fill="none" stroke="rgb(0,0,0)" d="M 8931,20495 L 8879,20483"/>
       <path fill="none" stroke="rgb(0,0,0)" d="M 8846,20476 L 8794,20464"/>
       <path fill="rgb(0,0,0)" stroke="none" d="M 8366,20367 L 8772,20613 8838,20320 8366,20367 Z"/>
       <text class="TextShape"><tspan class="TextParagraph" font-family="Arial, sans-serif" font-size="353px" font-weight="400"><tspan class="TextPosition" x="10123" y="21492"><tspan fill="rgb(0,0,0)" stroke="none">thread sync</tspan></tspan></tspan></text>
      </g>
     </g>
     <g class="com.sun.star.drawing.ConnectorShape">
      <g id="id26">
       <path fill="none" stroke="rgb(0,0,0)" d="M 6461,20953 L 6511,22527"/>
       <path fill="rgb(0,0,0)" stroke="none" d="M 6525,22957 L 6661,22502 6361,22512 6525,22957 Z"/>
      </g>
     </g>
     <g class="com.sun.star.drawing.CustomShape">
      <g id="id27">
       <path fill="rgb(255,255,204)" stroke="none" d="M 13446,14080 L 17773,14080 17773,14969 13446,14969 13446,14080 13446,14080 Z M 13446,14080 L 13446,14080 Z M 17773,14970 L 17773,14970 Z"/>
       <path fill="none" stroke="rgb(52,101,175)" d="M 13446,14080 L 17773,14080 17773,14969 13446,14969 13446,14080 13446,14080 Z"/>
       <path fill="none" stroke="rgb(52,101,175)" d="M 13446,14080 L 13446,14080 Z"/>
       <path fill="none" stroke="rgb(52,101,175)" d="M 17773,14970 L 17773,14970 Z"/>
       <text class="TextShape"><tspan class="TextParagraph" font-family="Arial, sans-serif" font-size="353px" font-weight="400"><tspan class="TextPosition" x="13670" y="14449"><tspan fill="rgb(0,0,0)" stroke="none">listen for HTTP requests </tspan></tspan><tspan class="TextPosition" x="15023" y="14847"><tspan fill="rgb(0,0,0)" stroke="none">on </tspan><tspan font-weight="700" fill="rgb(0,0,0)" stroke="none">port</tspan></tspan></tspan></text>
      </g>
     </g>
     <g class="com.sun.star.drawing.ConnectorShape">
      <g id="id28">
       <path fill="none" stroke="rgb(0,0,0)" d="M 15609,14970 L 15606,15782"/>
       <path fill="rgb(0,0,0)" stroke="none" d="M 15605,16212 L 15756,15762 15456,15762 15605,16212 Z"/>
      </g>
     </g>
     <g class="com.sun.star.drawing.CustomShape">
      <g id="id29">
       <path fill="rgb(204,255,204)" stroke="none" d="M 4340,6637 L 8415,6637 8415,7457 4340,7457 4340,6637 4340,6637 Z M 4340,6637 L 4340,6637 Z M 8415,7458 L 8415,7458 Z"/>
       <path fill="none" stroke="rgb(52,101,175)" d="M 4340,6637 L 8415,6637 8415,7457 4340,7457 4340,6637 4340,6637 Z"/>
       <path fill="none" stroke="rgb(52,101,175)" d="M 4340,6637 L 4340,6637 Z"/>
       <path fill="none" stroke="rgb(52,101,175)" d="M 8415,7458 L 8415,7458 Z"/>
       <text class="TextShape"><tspan class="TextParagraph" font-family="Arial, sans-serif" font-size="353px" font-weight="400"><tspan class="TextPosition" x="5395" y="7170"><tspan fill="rgb(0,0,0)" stroke="none">build war-file</tspan></tspan></tspan></text>
      </g>
     </g>
     <g class="com.sun.star.drawing.ConnectorShape">
      <g id="id30">
       <path fill="none" stroke="rgb(0,0,0)" d="M 6377,7457 L 6366,8279"/>
       <path fill="rgb(0,0,0)" stroke="none" d="M 6361,8709 L 6517,8261 6217,8257 6361,8709 Z"/>
      </g>
     </g>
     <g class="com.sun.star.drawing.CustomShape">
      <g id="id31">
       <path fill="rgb(153,204,255)" stroke="none" d="M 14716,22590 L 18527,22590 18527,24114 14716,24114 14716,22590 14716,22590 Z M 14716,22590 L 14716,22590 Z M 18527,24115 L 18527,24115 Z"/>
       <path fill="none" stroke="rgb(52,101,175)" d="M 14716,22590 L 18527,22590 18527,24114 14716,24114 14716,22590 14716,22590 Z"/>
       <path fill="none" stroke="rgb(52,101,175)" d="M 14716,22590 L 14716,22590 Z"/>
       <path fill="none" stroke="rgb(52,101,175)" d="M 18527,24115 L 18527,24115 Z"/>
       <text class="TextShape"><tspan class="TextParagraph" font-family="Arial, sans-serif" font-size="353px" font-weight="400"><tspan class="TextPosition" x="15355" y="23077"><tspan fill="rgb(0,0,0)" stroke="none">gradle jettyStop,</tspan></tspan></tspan><tspan class="TextParagraph" font-family="Arial, sans-serif" font-size="353px" font-weight="400"><tspan class="TextPosition" x="15146" y="23475"><tspan fill="rgb(0,0,0)" stroke="none">sends “stop” signal</tspan></tspan></tspan><tspan class="TextParagraph" font-family="Arial, sans-serif" font-size="353px" font-weight="400"><tspan class="TextPosition" x="15472" y="23873"><tspan fill="rgb(0,0,0)" stroke="none">to </tspan><tspan font-weight="700" fill="rgb(0,0,0)" stroke="none">servicePort</tspan></tspan></tspan></text>
      </g>
     </g>
     <g class="com.sun.star.drawing.ConnectorShape">
      <g id="id32">
       <path fill="none" stroke="rgb(0,0,0)" d="M 18526,23352 C 18544,23352 18561,23350 18578,23347"/>
       <path fill="none" stroke="rgb(0,0,0)" d="M 18610,23338 C 18627,23332 18643,23325 18659,23316"/>
       <path fill="none" stroke="rgb(0,0,0)" d="M 18689,23297 C 18705,23286 18720,23274 18734,23260"/>
       <path fill="none" stroke="rgb(0,0,0)" d="M 18756,23239 C 18766,23228 18777,23216 18788,23203"/>
       <path fill="none" stroke="rgb(0,0,0)" d="M 18808,23177 C 18818,23163 18828,23149 18837,23133"/>
       <path fill="none" stroke="rgb(0,0,0)" d="M 18856,23103 C 18866,23086 18875,23070 18884,23052"/>
       <path fill="none" stroke="rgb(0,0,0)" d="M 18901,23017 C 18909,23002 18915,22987 18922,22972"/>
       <path fill="none" stroke="rgb(0,0,0)" d="M 18935,22943 C 18941,22927 18947,22912 18953,22896"/>
       <path fill="none" stroke="rgb(0,0,0)" d="M 18965,22864 C 18971,22848 18977,22831 18982,22814"/>
       <path fill="none" stroke="rgb(0,0,0)" d="M 18993,22781 C 18999,22763 19004,22746 19009,22728"/>
       <path fill="none" stroke="rgb(0,0,0)" d="M 19019,22692 C 19024,22674 19029,22655 19034,22636"/>
       <path fill="none" stroke="rgb(0,0,0)" d="M 19042,22604 C 19046,22588 19049,22572 19053,22555"/>
       <path fill="none" stroke="rgb(0,0,0)" d="M 19060,22523 C 19064,22506 19067,22490 19070,22472"/>
       <path fill="none" stroke="rgb(0,0,0)" d="M 19077,22439 C 19080,22422 19083,22405 19086,22387"/>
       <path fill="none" stroke="rgb(0,0,0)" d="M 19092,22353 C 19095,22335 19098,22317 19100,22299"/>
       <path fill="none" stroke="rgb(0,0,0)" d="M 19106,22264 C 19108,22246 19111,22227 19113,22209"/>
       <path fill="none" stroke="rgb(0,0,0)" d="M 19117,22173 C 19119,22156 19121,22139 19123,22121"/>
       <path fill="none" stroke="rgb(0,0,0)" d="M 19127,22088 C 19129,22071 19130,22054 19132,22036"/>
       <path fill="none" stroke="rgb(0,0,0)" d="M 19135,22002 C 19136,21985 19137,21967 19139,21950"/>
       <path fill="none" stroke="rgb(0,0,0)" d="M 19141,21916 C 19142,21898 19143,21880 19144,21862"/>
       <path fill="none" stroke="rgb(0,0,0)" d="M 19146,21828 C 19147,21810 19148,21792 19148,21774"/>
       <path fill="none" stroke="rgb(0,0,0)" d="M 19149,21739 C 19150,21721 19150,21703 19151,21685"/>
       <path fill="none" stroke="rgb(0,0,0)" d="M 19151,21650 C 19152,21632 19152,21615 19152,21597"/>
       <path fill="none" stroke="rgb(0,0,0)" d="M 19152,21563 C 19152,21545 19152,21528 19151,21510"/>
       <path fill="none" stroke="rgb(0,0,0)" d="M 19151,21476 C 19150,21458 19150,21440 19149,21422"/>
       <path fill="none" stroke="rgb(0,0,0)" d="M 19148,21388 C 19148,21370 19147,21353 19146,21335"/>
       <path fill="none" stroke="rgb(0,0,0)" d="M 19144,21301 C 19143,21283 19142,21265 19141,21248"/>
       <path fill="none" stroke="rgb(0,0,0)" d="M 19139,21213 C 19138,21196 19136,21178 19135,21160"/>
       <path fill="none" stroke="rgb(0,0,0)" d="M 19132,21126 C 19130,21108 19129,21090 19127,21073"/>
       <path fill="none" stroke="rgb(0,0,0)" d="M 19123,21038 C 19121,21020 19119,21002 19117,20985"/>
       <path fill="none" stroke="rgb(0,0,0)" d="M 19113,20950 C 19111,20932 19108,20915 19106,20897"/>
       <path fill="none" stroke="rgb(0,0,0)" d="M 19101,20863 C 19098,20845 19096,20828 19093,20810"/>
       <path fill="none" stroke="rgb(0,0,0)" d="M 19087,20777 C 19085,20759 19082,20742 19078,20725"/>
       <path fill="none" stroke="rgb(0,0,0)" d="M 19072,20691 C 19069,20674 19066,20657 19062,20640"/>
       <path fill="none" stroke="rgb(0,0,0)" d="M 19055,20607 C 19052,20590 19048,20572 19044,20555"/>
       <path fill="none" stroke="rgb(0,0,0)" d="M 19036,20520 C 19031,20502 19027,20485 19023,20467"/>
       <path fill="none" stroke="rgb(0,0,0)" d="M 19014,20433 C 19009,20416 19004,20398 18999,20381"/>
       <path fill="none" stroke="rgb(0,0,0)" d="M 18990,20348 C 18985,20331 18979,20314 18974,20297"/>
       <path fill="none" stroke="rgb(0,0,0)" d="M 18964,20265 C 18958,20248 18952,20232 18947,20216"/>
       <path fill="none" stroke="rgb(0,0,0)" d="M 18935,20184 C 18929,20168 18923,20152 18917,20136"/>
       <path fill="none" stroke="rgb(0,0,0)" d="M 18905,20106 C 18898,20088 18891,20071 18883,20054"/>
       <path fill="none" stroke="rgb(0,0,0)" d="M 18869,20021 C 18861,20005 18853,19988 18845,19972"/>
       <path fill="none" stroke="rgb(0,0,0)" d="M 18829,19941 C 18821,19925 18813,19909 18804,19893"/>
       <path fill="none" stroke="rgb(0,0,0)" d="M 18787,19864 C 18779,19849 18770,19834 18761,19819"/>
       <path fill="none" stroke="rgb(0,0,0)" d="M 18743,19791 C 18734,19777 18724,19763 18714,19749"/>
       <path fill="none" stroke="rgb(0,0,0)" d="M 18695,19723 C 18684,19708 18673,19693 18661,19679"/>
       <path fill="none" stroke="rgb(0,0,0)" d="M 18638,19652 C 18626,19638 18614,19624 18601,19611"/>
       <path fill="none" stroke="rgb(0,0,0)" d="M 18577,19587 C 18564,19574 18551,19562 18538,19551"/>
       <path fill="none" stroke="rgb(0,0,0)" d="M 18512,19529 C 18499,19518 18485,19507 18471,19497"/>
       <path fill="none" stroke="rgb(0,0,0)" d="M 18443,19478 C 18433,19472 18423,19465 18413,19459"/>
       <path fill="rgb(0,0,0)" stroke="none" d="M 18018,19352 L 18410,19620 18492,19331 18018,19352 Z"/>
       <text class="TextShape"><tspan class="TextParagraph" font-family="Arial, sans-serif" font-size="353px" font-weight="400"><tspan class="TextPosition" x="18337" y="21475"><tspan fill="rgb(0,0,0)" stroke="none">tcp</tspan></tspan></tspan></text>
      </g>
     </g>
     <g class="com.sun.star.drawing.CustomShape">
      <g id="id33">
       <path fill="rgb(255,255,204)" stroke="none" d="M 13789,11833 L 17472,11833 17472,12888 13789,12888 13789,11833 13789,11833 Z M 13789,11833 L 13789,11833 Z M 17473,12888 L 17473,12888 Z"/>
       <path fill="none" stroke="rgb(52,101,175)" d="M 13789,11833 L 17472,11833 17472,12888 13789,12888 13789,11833 13789,11833 Z"/>
       <path fill="none" stroke="rgb(52,101,175)" d="M 13789,11833 L 13789,11833 Z"/>
       <path fill="none" stroke="rgb(52,101,175)" d="M 17473,12888 L 17473,12888 Z"/>
       <text class="TextShape"><tspan class="TextParagraph" font-family="Arial, sans-serif" font-size="353px" font-weight="400"><tspan class="TextPosition" x="14236" y="12284"><tspan fill="rgb(0,0,0)" stroke="none">suspended mode,</tspan></tspan></tspan><tspan class="TextParagraph" font-family="Arial, sans-serif" font-size="353px" font-weight="400"><tspan class="TextPosition" x="14238" y="12682"><tspan fill="rgb(0,0,0)" stroke="none">listen to port 5005</tspan></tspan></tspan></text>
      </g>
     </g>
     <g class="com.sun.star.drawing.ConnectorShape">
      <g id="id34">
       <path fill="none" stroke="rgb(0,0,0)" d="M 15605,10779 L 15620,11403"/>
       <path fill="rgb(0,0,0)" stroke="none" d="M 15631,11833 L 15770,11379 15470,11387 15631,11833 Z"/>
      </g>
     </g>
    </g>
   </g>
  </g>
 </g>
</svg>