<?xml version="1.0" encoding="UTF-8"?>
<!DOCTYPE svg PUBLIC "-//W3C//DTD SVG 1.1//EN" "http://www.w3.org/Graphics/SVG/1.1/DTD/svg11.dtd">
<svg version="1.2" width="180mm" height="230mm" viewBox="0 0 18000 23000" preserveAspectRatio="xMidYMid" fill-rule="evenodd" clip-path="url(#presentation_clip_path)" stroke-width="28.222" stroke-linejoin="round" xmlns="http://www.w3.org/2000/svg" xmlns:ooo="http://xml.openoffice.org/svg/export" xmlns:xlink="http://www.w3.org/1999/xlink" xml:space="preserve">
 <defs class="ClipPathGroup">
  <clipPath id="presentation_clip_path" clipPathUnits="userSpaceOnUse">
   <rect x="0" y="0" width="18000" height="23000"/>
  </clipPath>
 </defs>
 <defs class="TextShapeIndex">
  <g ooo:slide="id1" ooo:id-list="id3 id4 id5 id6 id7 id8 id9 id10 id11 id12 id13 id14 id15 id16 id17 id18 id19 id20 id21 id22 id23 id24 id25 id26 id27 id28 id29 id30"/>
 </defs>
 <defs class="EmbeddedBulletChars">
  <g id="bullet-char-template(57356)" transform="scale(0.00048828125,-0.00048828125)">
   <path d="M 580,1141 L 1163,571 580,0 -4,571 580,1141 Z"/>
  </g>
  <g id="bullet-char-template(57354)" transform="scale(0.00048828125,-0.00048828125)">
   <path d="M 8,1128 L 1137,1128 1137,0 8,0 8,1128 Z"/>
  </g>
  <g id="bullet-char-template(10146)" transform="scale(0.00048828125,-0.00048828125)">
   <path d="M 174,0 L 602,739 174,1481 1456,739 174,0 Z M 1358,739 L 309,1346 659,739 1358,739 Z"/>
  </g>
  <g id="bullet-char-template(10132)" transform="scale(0.00048828125,-0.00048828125)">
   <path d="M 2015,739 L 1276,0 717,0 1260,543 174,543 174,936 1260,936 717,1481 1274,1481 2015,739 Z"/>
  </g>
  <g id="bullet-char-template(10007)" transform="scale(0.00048828125,-0.00048828125)">
   <path d="M 0,-2 C -7,14 -16,27 -25,37 L 356,567 C 262,823 215,952 215,954 215,979 228,992 255,992 264,992 276,990 289,987 310,991 331,999 354,1012 L 381,999 492,748 772,1049 836,1024 860,1049 C 881,1039 901,1025 922,1006 886,937 835,863 770,784 769,783 710,716 594,584 L 774,223 C 774,196 753,168 711,139 L 727,119 C 717,90 699,76 672,76 641,76 570,178 457,381 L 164,-76 C 142,-110 111,-127 72,-127 30,-127 9,-110 8,-76 1,-67 -2,-52 -2,-32 -2,-23 -1,-13 0,-2 Z"/>
  </g>
  <g id="bullet-char-template(10004)" transform="scale(0.00048828125,-0.00048828125)">
   <path d="M 285,-33 C 182,-33 111,30 74,156 52,228 41,333 41,471 41,549 55,616 82,672 116,743 169,778 240,778 293,778 328,747 346,684 L 369,508 C 377,444 397,411 428,410 L 1163,1116 C 1174,1127 1196,1133 1229,1133 1271,1133 1292,1118 1292,1087 L 1292,965 C 1292,929 1282,901 1262,881 L 442,47 C 390,-6 338,-33 285,-33 Z"/>
  </g>
  <g id="bullet-char-template(9679)" transform="scale(0.00048828125,-0.00048828125)">
   <path d="M 813,0 C 632,0 489,54 383,161 276,268 223,411 223,592 223,773 276,916 383,1023 489,1130 632,1184 813,1184 992,1184 1136,1130 1245,1023 1353,916 1407,772 1407,592 1407,412 1353,268 1245,161 1136,54 992,0 813,0 Z"/>
  </g>
  <g id="bullet-char-template(8226)" transform="scale(0.00048828125,-0.00048828125)">
   <path d="M 346,457 C 273,457 209,483 155,535 101,586 74,649 74,723 74,796 101,859 155,911 209,963 273,989 346,989 419,989 480,963 531,910 582,859 608,796 608,723 608,648 583,586 532,535 482,483 420,457 346,457 Z"/>
  </g>
  <g id="bullet-char-template(8211)" transform="scale(0.00048828125,-0.00048828125)">
   <path d="M -4,459 L 1135,459 1135,606 -4,606 -4,459 Z"/>
  </g>
 </defs>
 <defs class="TextEmbeddedBitmaps"/>
 <g>
  <g id="id2" class="Master_Slide">
   <g id="bg-id2" class="Background"/>
   <g id="bo-id2" class="BackgroundObjects"/>
  </g>
 </g>
 <g class="SlideGroup">
  <g>
   <g id="id1" class="Slide" clip-path="url(#presentation_clip_path)">
    <g class="Page">
     <g class="com.sun.star.drawing.CustomShape">
      <g id="id3">
       <path fill="rgb(204,255,204)" stroke="none" d="M 2324,1876 C 1987,1876 1651,1685 1651,1494 1651,1303 1987,1113 2324,1113 L 5169,1113 C 5506,1113 5843,1303 5843,1494 5843,1685 5506,1876 5169,1876 L 2324,1876 Z M 1651,1113 L 1651,1113 Z M 5843,1876 L 5843,1876 Z"/>
       <path fill="none" stroke="rgb(52,101,175)" d="M 2324,1876 C 1987,1876 1651,1685 1651,1494 1651,1303 1987,1113 2324,1113 L 5169,1113 C 5506,1113 5843,1303 5843,1494 5843,1685 5506,1876 5169,1876 L 2324,1876 Z"/>
       <path fill="none" stroke="rgb(52,101,175)" d="M 1651,1113 L 1651,1113 Z"/>
       <path fill="none" stroke="rgb(52,101,175)" d="M 5843,1876 L 5843,1876 Z"/>
       <text class="TextShape"><tspan class="TextParagraph" font-family="Arial, sans-serif" font-size="353px" font-weight="400"><tspan class="TextPosition" x="2574" y="1617"><tspan fill="rgb(0,0,0)" stroke="none">jettyStart starts</tspan></tspan></tspan></text>
      </g>
     </g>
     <g class="com.sun.star.drawing.CustomShape">
      <g id="id4">
       <path fill="rgb(204,255,204)" stroke="none" d="M 1830,3525 L 3749,2763 5669,3525 3749,4287 1830,3525 1830,3525 Z M 1830,2763 L 1830,2763 Z M 5669,4287 L 5669,4287 Z"/>
       <path fill="none" stroke="rgb(52,101,175)" d="M 1830,3525 L 3749,2763 5669,3525 3749,4287 1830,3525 1830,3525 Z"/>
       <path fill="none" stroke="rgb(52,101,175)" d="M 1830,2763 L 1830,2763 Z"/>
       <path fill="none" stroke="rgb(52,101,175)" d="M 5669,4287 L 5669,4287 Z"/>
       <text class="TextShape"><tspan class="TextParagraph" font-family="Arial, sans-serif" font-size="353px" font-weight="400"><tspan class="TextPosition" x="3131" y="3449"><tspan fill="rgb(0,0,0)" stroke="none">sources</tspan></tspan><tspan class="TextPosition" x="2851" y="3847"><tspan fill="rgb(0,0,0)" stroke="none">up-to-date?</tspan></tspan></tspan></text>
      </g>
     </g>
     <g class="com.sun.star.drawing.ConnectorShape">
      <g id="id5">
       <path fill="none" stroke="rgb(0,0,0)" d="M 3748,1875 L 3749,2334"/>
       <path fill="rgb(0,0,0)" stroke="none" d="M 3749,2764 L 3898,2314 3598,2314 3749,2764 Z"/>
      </g>
     </g>
     <g class="com.sun.star.drawing.CustomShape">
      <g id="id6">
       <path fill="rgb(204,255,204)" stroke="none" d="M 5885,4357 L 9146,4357 9146,5177 5885,5177 5885,4357 5885,4357 Z M 5885,4357 L 5885,4357 Z M 9146,5178 L 9146,5178 Z"/>
       <path fill="none" stroke="rgb(52,101,175)" d="M 5885,4357 L 9146,4357 9146,5177 5885,5177 5885,4357 5885,4357 Z"/>
       <path fill="none" stroke="rgb(52,101,175)" d="M 5885,4357 L 5885,4357 Z"/>
       <path fill="none" stroke="rgb(52,101,175)" d="M 9146,5178 L 9146,5178 Z"/>
       <text class="TextShape"><tspan class="TextParagraph" font-family="Arial, sans-serif" font-size="353px" font-weight="400"><tspan class="TextPosition" x="6912" y="4890"><tspan fill="rgb(0,0,0)" stroke="none">compile</tspan></tspan></tspan></text>
      </g>
     </g>
     <g class="com.sun.star.drawing.ConnectorShape">
      <g id="id7">
       <path fill="none" stroke="rgb(0,0,0)" d="M 5668,3526 L 7515,3526 7515,3927"/>
       <path fill="rgb(0,0,0)" stroke="none" d="M 7515,4357 L 7665,3907 7365,3907 7515,4357 Z"/>
       <text class="TextShape"><tspan class="TextParagraph" font-family="Arial, sans-serif" font-size="353px" font-weight="400"><tspan class="TextPosition" x="6397" y="3866"><tspan fill="rgb(0,0,0)" stroke="none">no</tspan></tspan></tspan></text>
      </g>
     </g>
     <g class="com.sun.star.drawing.ConnectorShape">
      <g id="id8">
       <path fill="none" stroke="rgb(0,0,0)" d="M 3749,4287 L 3719,6017"/>
       <path fill="rgb(0,0,0)" stroke="none" d="M 3711,6447 L 3869,6000 3569,5994 3711,6447 Z"/>
       <text class="TextShape"><tspan class="TextParagraph" font-family="Arial, sans-serif" font-size="353px" font-weight="400"><tspan class="TextPosition" x="3065" y="4893"><tspan fill="rgb(0,0,0)" stroke="none">yes        </tspan></tspan></tspan></text>
      </g>
     </g>
     <g class="com.sun.star.drawing.ConnectorShape">
      <g id="id9">
       <path fill="none" stroke="rgb(0,0,0)" d="M 7515,5177 L 7515,5813 3711,5813 3711,6017"/>
       <path fill="rgb(0,0,0)" stroke="none" d="M 3711,6447 L 3861,5997 3561,5997 3711,6447 Z"/>
      </g>
     </g>
     <g class="com.sun.star.drawing.CustomShape">
      <g id="id10">
       <path fill="rgb(204,255,204)" stroke="none" d="M 1323,6447 L 6097,6447 6097,7502 1323,7502 1323,6447 1323,6447 Z M 1323,6447 L 1323,6447 Z M 6097,7502 L 6097,7502 Z"/>
       <path fill="none" stroke="rgb(52,101,175)" d="M 1323,6447 L 6097,6447 6097,7502 1323,7502 1323,6447 1323,6447 Z"/>
       <path fill="none" stroke="rgb(52,101,175)" d="M 1323,6447 L 1323,6447 Z"/>
       <path fill="none" stroke="rgb(52,101,175)" d="M 6097,7502 L 6097,7502 Z"/>
       <text class="TextShape"><tspan class="TextParagraph" font-family="Arial, sans-serif" font-size="353px" font-weight="400"><tspan class="TextPosition" x="2230" y="6898"><tspan fill="rgb(0,0,0)" stroke="none">start Jetty process </tspan></tspan><tspan class="TextPosition" x="1758" y="7296"><tspan fill="rgb(0,0,0)" stroke="none">against compiled classes</tspan></tspan></tspan></text>
      </g>
     </g>
     <g class="com.sun.star.drawing.ConnectorShape">
      <g id="id11">
       <path fill="none" stroke="rgb(0,0,0)" d="M 3711,7501 C 3711,7517 3714,7533 3721,7549"/>
       <path fill="none" stroke="rgb(0,0,0)" d="M 3738,7579 C 3749,7594 3763,7608 3780,7623"/>
       <path fill="none" stroke="rgb(0,0,0)" d="M 3802,7639 C 3814,7648 3827,7656 3842,7665"/>
       <path fill="none" stroke="rgb(0,0,0)" d="M 3871,7681 C 3887,7689 3905,7697 3923,7705"/>
       <path fill="none" stroke="rgb(0,0,0)" d="M 3960,7720 C 3976,7726 3992,7732 4009,7738"/>
       <path fill="none" stroke="rgb(0,0,0)" d="M 4037,7748 C 4052,7753 4068,7758 4084,7763"/>
       <path fill="none" stroke="rgb(0,0,0)" d="M 4116,7772 C 4132,7777 4149,7781 4167,7786"/>
       <path fill="none" stroke="rgb(0,0,0)" d="M 4202,7795 C 4220,7800 4239,7804 4259,7809"/>
       <path fill="none" stroke="rgb(0,0,0)" d="M 4297,7817 C 4314,7821 4331,7825 4348,7828"/>
       <path fill="none" stroke="rgb(0,0,0)" d="M 4378,7835 C 4394,7838 4410,7841 4426,7844"/>
       <path fill="none" stroke="rgb(0,0,0)" d="M 4457,7850 C 4474,7853 4491,7856 4508,7859"/>
       <path fill="none" stroke="rgb(0,0,0)" d="M 4541,7865 C 4559,7868 4576,7871 4594,7874"/>
       <path fill="none" stroke="rgb(0,0,0)" d="M 4630,7879 C 4648,7882 4667,7885 4686,7888"/>
       <path fill="none" stroke="rgb(0,0,0)" d="M 4722,7894 C 4742,7896 4761,7899 4781,7902"/>
       <path fill="none" stroke="rgb(0,0,0)" d="M 4814,7907 C 4830,7909 4846,7911 4862,7913"/>
       <path fill="none" stroke="rgb(0,0,0)" d="M 4893,7917 C 4910,7919 4926,7921 4943,7923"/>
       <path fill="none" stroke="rgb(0,0,0)" d="M 4975,7927 C 4992,7929 5009,7931 5027,7933"/>
       <path fill="none" stroke="rgb(0,0,0)" d="M 5060,7937 C 5078,7939 5095,7941 5113,7943"/>
       <path fill="none" stroke="rgb(0,0,0)" d="M 5148,7947 C 5166,7949 5184,7951 5202,7953"/>
       <path fill="none" stroke="rgb(0,0,0)" d="M 5238,7956 C 5256,7958 5275,7960 5294,7962"/>
       <path fill="none" stroke="rgb(0,0,0)" d="M 5331,7966 C 5350,7967 5369,7969 5388,7971"/>
       <path fill="none" stroke="rgb(0,0,0)" d="M 5422,7974 C 5438,7976 5455,7977 5471,7978"/>
       <path fill="none" stroke="rgb(0,0,0)" d="M 5503,7981 C 5519,7983 5536,7984 5553,7986"/>
       <path fill="none" stroke="rgb(0,0,0)" d="M 5585,7988 C 5602,7990 5619,7991 5636,7992"/>
       <path fill="none" stroke="rgb(0,0,0)" d="M 5669,7995 C 5687,7996 5704,7998 5721,7999"/>
       <path fill="none" stroke="rgb(0,0,0)" d="M 5755,8002 C 5773,8003 5791,8004 5809,8006"/>
       <path fill="none" stroke="rgb(0,0,0)" d="M 5843,8008 C 5861,8010 5879,8011 5898,8012"/>
       <path fill="none" stroke="rgb(0,0,0)" d="M 5933,8015 C 5951,8016 5970,8017 5989,8018"/>
       <path fill="none" stroke="rgb(0,0,0)" d="M 6025,8021 C 6043,8022 6062,8023 6081,8024"/>
       <path fill="none" stroke="rgb(0,0,0)" d="M 6118,8027 C 6136,8028 6154,8029 6172,8030"/>
       <path fill="none" stroke="rgb(0,0,0)" d="M 6204,8032 C 6220,8033 6237,8034 6253,8035"/>
       <path fill="none" stroke="rgb(0,0,0)" d="M 6286,8037 C 6302,8038 6319,8039 6336,8040"/>
       <path fill="none" stroke="rgb(0,0,0)" d="M 6369,8042 C 6386,8043 6403,8043 6420,8044"/>
       <path fill="none" stroke="rgb(0,0,0)" d="M 6454,8046 C 6471,8047 6488,8048 6506,8049"/>
       <path fill="none" stroke="rgb(0,0,0)" d="M 6540,8051 C 6557,8052 6575,8052 6593,8053"/>
       <path fill="none" stroke="rgb(0,0,0)" d="M 6627,8055 C 6645,8056 6663,8057 6681,8058"/>
       <path fill="none" stroke="rgb(0,0,0)" d="M 6716,8059 C 6734,8060 6752,8061 6770,8062"/>
       <path fill="none" stroke="rgb(0,0,0)" d="M 6806,8063 C 6824,8064 6843,8065 6861,8066"/>
       <path fill="none" stroke="rgb(0,0,0)" d="M 6897,8067 C 6916,8068 6935,8069 6953,8070"/>
       <path fill="none" stroke="rgb(0,0,0)" d="M 6990,8071 C 7008,8072 7026,8073 7045,8074"/>
       <path fill="none" stroke="rgb(0,0,0)" d="M 7077,8075 C 7093,8075 7110,8076 7127,8077"/>
       <path fill="none" stroke="rgb(0,0,0)" d="M 7159,8078 C 7176,8079 7193,8079 7210,8080"/>
       <path fill="none" stroke="rgb(0,0,0)" d="M 7243,8081 C 7260,8082 7277,8082 7294,8083"/>
       <path fill="none" stroke="rgb(0,0,0)" d="M 7327,8084 C 7345,8085 7362,8085 7379,8086"/>
       <path fill="none" stroke="rgb(0,0,0)" d="M 7413,8087 C 7430,8088 7448,8088 7465,8089"/>
       <path fill="none" stroke="rgb(0,0,0)" d="M 7499,8090 C 7517,8090 7535,8091 7552,8092"/>
       <path fill="none" stroke="rgb(0,0,0)" d="M 7587,8093 C 7605,8093 7623,8094 7641,8094"/>
       <path fill="none" stroke="rgb(0,0,0)" d="M 7675,8095 C 7693,8096 7712,8096 7730,8097"/>
       <path fill="none" stroke="rgb(0,0,0)" d="M 7765,8098 C 7783,8098 7802,8099 7820,8099"/>
       <path fill="none" stroke="rgb(0,0,0)" d="M 7855,8100 C 7874,8101 7892,8101 7911,8102"/>
       <path fill="none" stroke="rgb(0,0,0)" d="M 7947,8103 C 7966,8103 7984,8104 8003,8104"/>
       <path fill="none" stroke="rgb(0,0,0)" d="M 8040,8105 C 8056,8106 8073,8106 8090,8106"/>
       <path fill="none" stroke="rgb(0,0,0)" d="M 8123,8107 C 8140,8108 8156,8108 8173,8108"/>
       <path fill="none" stroke="rgb(0,0,0)" d="M 8206,8109 C 8223,8109 8240,8110 8257,8110"/>
       <path fill="none" stroke="rgb(0,0,0)" d="M 8290,8111 C 8307,8111 8324,8112 8342,8112"/>
       <path fill="none" stroke="rgb(0,0,0)" d="M 8375,8113 C 8392,8113 8410,8113 8427,8114"/>
       <path fill="none" stroke="rgb(0,0,0)" d="M 8461,8114 C 8478,8115 8496,8115 8513,8115"/>
       <path fill="none" stroke="rgb(0,0,0)" d="M 8547,8116 C 8565,8116 8582,8117 8600,8117"/>
       <path fill="none" stroke="rgb(0,0,0)" d="M 8634,8118 C 8652,8118 8670,8118 8688,8119"/>
       <path fill="none" stroke="rgb(0,0,0)" d="M 8722,8119 C 8740,8119 8758,8120 8776,8120"/>
       <path fill="none" stroke="rgb(0,0,0)" d="M 8811,8121 C 8829,8121 8847,8121 8865,8121"/>
       <path fill="none" stroke="rgb(0,0,0)" d="M 8900,8122 C 8919,8122 8937,8122 8955,8123"/>
       <path fill="none" stroke="rgb(0,0,0)" d="M 8991,8123 C 9009,8124 9027,8124 9046,8124"/>
       <path fill="none" stroke="rgb(0,0,0)" d="M 9082,8125 C 9100,8125 9119,8125 9137,8125"/>
       <path fill="none" stroke="rgb(0,0,0)" d="M 9174,8126 C 9191,8126 9209,8126 9226,8126"/>
       <path fill="none" stroke="rgb(0,0,0)" d="M 9259,8127 C 9276,8127 9293,8127 9310,8127"/>
       <path fill="none" stroke="rgb(0,0,0)" d="M 9342,8128 C 9359,8128 9376,8128 9394,8128"/>
       <path fill="none" stroke="rgb(0,0,0)" d="M 9427,8129 C 9444,8129 9461,8129 9478,8129"/>
       <path fill="none" stroke="rgb(0,0,0)" d="M 9511,8129 C 9529,8130 9546,8130 9563,8130"/>
       <path fill="none" stroke="rgb(0,0,0)" d="M 9597,8130 C 9614,8130 9631,8131 9649,8131"/>
       <path fill="none" stroke="rgb(0,0,0)" d="M 9683,8131 C 9700,8131 9718,8131 9735,8131"/>
       <path fill="none" stroke="rgb(0,0,0)" d="M 9769,8132 C 9787,8132 9805,8132 9822,8132"/>
       <path fill="none" stroke="rgb(0,0,0)" d="M 9857,8132 C 9874,8132 9892,8133 9910,8133"/>
       <path fill="none" stroke="rgb(0,0,0)" d="M 9944,8133 C 9962,8133 9980,8133 9998,8133"/>
       <path fill="none" stroke="rgb(0,0,0)" d="M 10033,8133 C 10051,8134 10069,8134 10087,8134"/>
       <path fill="none" stroke="rgb(0,0,0)" d="M 10122,8134 C 10140,8134 10158,8134 10176,8134"/>
       <path fill="none" stroke="rgb(0,0,0)" d="M 10212,8134 C 10230,8134 10248,8135 10267,8135"/>
       <path fill="none" stroke="rgb(0,0,0)" d="M 10302,8135 C 10320,8135 10339,8135 10357,8135"/>
       <path fill="none" stroke="rgb(0,0,0)" d="M 10393,8135 C 10412,8135 10430,8135 10449,8135"/>
       <path fill="rgb(0,0,0)" stroke="none" d="M 10923,8136 L 10473,7985 10473,8285 10923,8136 Z"/>
       <text class="TextShape"><tspan class="TextParagraph" font-family="Arial, sans-serif" font-size="353px" font-weight="400"><tspan class="TextPosition" x="8363" y="7942"><tspan fill="rgb(0,0,0)" stroke="none">start process   </tspan></tspan></tspan></text>
      </g>
     </g>
     <g class="com.sun.star.drawing.CustomShape">
      <g id="id12">
       <path fill="rgb(255,255,204)" stroke="none" d="M 10923,11917 L 14988,11917 14988,13089 10923,13089 10923,11917 10923,11917 Z M 10923,11917 L 10923,11917 Z M 14988,13089 L 14988,13089 Z"/>
       <path fill="none" stroke="rgb(52,101,175)" d="M 10923,11917 L 14988,11917 14988,13089 10923,13089 10923,11917 10923,11917 Z"/>
       <path fill="none" stroke="rgb(52,101,175)" d="M 10923,11917 L 10923,11917 Z"/>
       <path fill="none" stroke="rgb(52,101,175)" d="M 14988,13089 L 14988,13089 Z"/>
       <text class="TextShape"><tspan class="TextParagraph" font-family="Arial, sans-serif" font-size="353px" font-weight="400"><tspan class="TextPosition" x="11315" y="12427"><tspan fill="rgb(0,0,0)" stroke="none">send “started” signal </tspan></tspan></tspan><tspan class="TextParagraph" font-family="Arial, sans-serif" font-size="353px" font-weight="400"><tspan class="TextPosition" x="11891" y="12825"><tspan fill="rgb(0,0,0)" stroke="none">to </tspan><tspan font-weight="700" fill="rgb(0,0,0)" stroke="none">statusPort</tspan></tspan></tspan></text>
      </g>
     </g>
     <g class="com.sun.star.drawing.ConnectorShape">
      <g id="id13">
       <path fill="none" stroke="rgb(0,0,0)" d="M 3711,7501 L 3738,8680"/>
       <path fill="rgb(0,0,0)" stroke="none" d="M 3748,9110 L 3888,8657 3588,8664 3748,9110 Z"/>
      </g>
     </g>
     <g class="com.sun.star.drawing.CustomShape">
      <g id="id14">
       <path fill="rgb(204,255,204)" stroke="none" d="M 1778,9109 L 5716,9109 5716,10281 1778,10281 1778,9109 1778,9109 Z M 1778,9109 L 1778,9109 Z M 5716,10281 L 5716,10281 Z"/>
       <path fill="none" stroke="rgb(52,101,175)" d="M 1778,9109 L 5716,9109 5716,10281 1778,10281 1778,9109 1778,9109 Z"/>
       <path fill="none" stroke="rgb(52,101,175)" d="M 1778,9109 L 1778,9109 Z"/>
       <path fill="none" stroke="rgb(52,101,175)" d="M 5716,10281 L 5716,10281 Z"/>
       <text class="TextShape"><tspan class="TextParagraph" font-family="Arial, sans-serif" font-size="353px" font-weight="400"><tspan class="TextPosition" x="1922" y="9619"><tspan fill="rgb(0,0,0)" stroke="none">wait for “started” signal </tspan></tspan><tspan class="TextPosition" x="2633" y="10017"><tspan fill="rgb(0,0,0)" stroke="none">on </tspan><tspan font-weight="700" fill="rgb(0,0,0)" stroke="none">statusPort</tspan></tspan></tspan></text>
      </g>
     </g>
     <g class="com.sun.star.drawing.CustomShape">
      <g id="id15">
       <path fill="rgb(255,255,204)" stroke="none" d="M 11576,8518 C 11249,8518 10923,8327 10923,8136 10923,7945 11249,7755 11576,7755 L 14334,7755 C 14661,7755 14988,7945 14988,8136 14988,8327 14661,8518 14334,8518 L 11576,8518 Z M 10923,7755 L 10923,7755 Z M 14988,8518 L 14988,8518 Z"/>
       <path fill="none" stroke="rgb(52,101,175)" d="M 11576,8518 C 11249,8518 10923,8327 10923,8136 10923,7945 11249,7755 11576,7755 L 14334,7755 C 14661,7755 14988,7945 14988,8136 14988,8327 14661,8518 14334,8518 L 11576,8518 Z"/>
       <path fill="none" stroke="rgb(52,101,175)" d="M 10923,7755 L 10923,7755 Z"/>
       <path fill="none" stroke="rgb(52,101,175)" d="M 14988,8518 L 14988,8518 Z"/>
       <text class="TextShape"><tspan class="TextParagraph" font-family="Arial, sans-serif" font-size="353px" font-weight="400"><tspan class="TextPosition" x="11435" y="8259"><tspan fill="rgb(0,0,0)" stroke="none">Jetty process starts</tspan></tspan></tspan></text>
      </g>
     </g>
     <g class="com.sun.star.drawing.ConnectorShape">
      <g id="id16">
       <path fill="none" stroke="rgb(0,0,0)" d="M 12955,8517 L 12958,9357"/>
       <path fill="rgb(0,0,0)" stroke="none" d="M 12959,9787 L 13108,9337 12808,9337 12959,9787 Z"/>
      </g>
     </g>
     <g class="com.sun.star.drawing.CustomShape">
      <g id="id17">
       <path fill="rgb(255,255,204)" stroke="none" d="M 10542,14358 L 15369,14358 15369,15756 10542,15756 10542,14358 10542,14358 Z M 10542,14358 L 10542,14358 Z M 15369,15756 L 15369,15756 Z"/>
       <path fill="none" stroke="rgb(52,101,175)" d="M 10542,14358 L 15369,14358 15369,15756 10542,15756 10542,14358 10542,14358 Z"/>
       <path fill="none" stroke="rgb(52,101,175)" d="M 10542,14358 L 10542,14358 Z"/>
       <path fill="none" stroke="rgb(52,101,175)" d="M 15369,15756 L 15369,15756 Z"/>
       <text class="TextShape"><tspan class="TextParagraph" font-family="Arial, sans-serif" font-size="353px" font-weight="400"><tspan class="TextPosition" x="12022" y="14782"><tspan fill="rgb(0,0,0)" stroke="none">In wait loop.</tspan></tspan><tspan class="TextPosition" x="11239" y="15180"><tspan fill="rgb(0,0,0)" stroke="none">listen for “stop” signal </tspan></tspan><tspan class="TextPosition" x="11757" y="15578"><tspan fill="rgb(0,0,0)" stroke="none">on </tspan><tspan font-weight="700" fill="rgb(0,0,0)" stroke="none">servicePort</tspan></tspan></tspan></text>
      </g>
     </g>
     <g class="com.sun.star.drawing.ConnectorShape">
      <g id="id18">
       <path fill="none" stroke="rgb(0,0,0)" d="M 12955,13089 L 12955,13929"/>
       <path fill="rgb(0,0,0)" stroke="none" d="M 12955,14359 L 13105,13909 12805,13909 12955,14359 Z"/>
      </g>
     </g>
     <g class="com.sun.star.drawing.CustomShape">
      <g id="id19">
       <path fill="rgb(204,255,204)" stroke="none" d="M 2001,21829 C 1572,21829 1144,21507 1144,21186 1144,20865 1572,20544 2001,20544 L 5621,20544 C 6050,20544 6479,20865 6479,21186 6479,21507 6050,21829 5621,21829 L 2001,21829 Z M 1144,20544 L 1144,20544 Z M 6479,21829 L 6479,21829 Z"/>
       <path fill="none" stroke="rgb(52,101,175)" d="M 2001,21829 C 1572,21829 1144,21507 1144,21186 1144,20865 1572,20544 2001,20544 L 5621,20544 C 6050,20544 6479,20865 6479,21186 6479,21507 6050,21829 5621,21829 L 2001,21829 Z"/>
       <path fill="none" stroke="rgb(52,101,175)" d="M 1144,20544 L 1144,20544 Z"/>
       <path fill="none" stroke="rgb(52,101,175)" d="M 6479,21829 L 6479,21829 Z"/>
       <text class="TextShape"><tspan class="TextParagraph" font-family="Arial, sans-serif" font-size="353px" font-weight="400"><tspan class="TextPosition" x="2418" y="20911"><tspan fill="rgb(0,0,0)" stroke="none">jettyStart finished.</tspan></tspan><tspan class="TextPosition" x="2463" y="21309"><tspan fill="rgb(0,0,0)" stroke="none">Gradle proceeds </tspan></tspan><tspan class="TextPosition" x="2590" y="21707"><tspan fill="rgb(0,0,0)" stroke="none">with other tasks</tspan></tspan></tspan></text>
      </g>
     </g>
     <g class="com.sun.star.drawing.ConnectorShape">
      <g id="id20">
       <path fill="none" stroke="rgb(0,0,0)" d="M 10923,12503 L 10876,12478"/>
       <path fill="none" stroke="rgb(0,0,0)" d="M 10846,12462 L 10799,12436"/>
       <path fill="none" stroke="rgb(0,0,0)" d="M 10769,12420 L 10723,12395"/>
       <path fill="none" stroke="rgb(0,0,0)" d="M 10692,12379 L 10646,12354"/>
       <path fill="none" stroke="rgb(0,0,0)" d="M 10616,12337 L 10569,12312"/>
       <path fill="none" stroke="rgb(0,0,0)" d="M 10539,12296 L 10492,12271"/>
       <path fill="none" stroke="rgb(0,0,0)" d="M 10462,12254 L 10415,12229"/>
       <path fill="none" stroke="rgb(0,0,0)" d="M 10385,12213 L 10338,12188"/>
       <path fill="none" stroke="rgb(0,0,0)" d="M 10308,12172 L 10261,12146"/>
       <path fill="none" stroke="rgb(0,0,0)" d="M 10231,12130 L 10185,12105"/>
       <path fill="none" stroke="rgb(0,0,0)" d="M 10154,12089 L 10108,12063"/>
       <path fill="none" stroke="rgb(0,0,0)" d="M 10078,12047 L 10031,12022"/>
       <path fill="none" stroke="rgb(0,0,0)" d="M 10001,12006 L 9954,11981"/>
       <path fill="none" stroke="rgb(0,0,0)" d="M 9924,11964 L 9877,11939"/>
       <path fill="none" stroke="rgb(0,0,0)" d="M 9847,11923 L 9800,11898"/>
       <path fill="none" stroke="rgb(0,0,0)" d="M 9770,11881 L 9723,11856"/>
       <path fill="none" stroke="rgb(0,0,0)" d="M 9693,11840 L 9646,11815"/>
       <path fill="none" stroke="rgb(0,0,0)" d="M 9616,11799 L 9570,11773"/>
       <path fill="none" stroke="rgb(0,0,0)" d="M 9540,11757 L 9493,11732"/>
       <path fill="none" stroke="rgb(0,0,0)" d="M 9463,11716 L 9416,11691"/>
       <path fill="none" stroke="rgb(0,0,0)" d="M 9386,11674 L 9339,11649"/>
       <path fill="none" stroke="rgb(0,0,0)" d="M 9309,11633 L 9262,11608"/>
       <path fill="none" stroke="rgb(0,0,0)" d="M 9232,11591 L 9185,11566"/>
       <path fill="none" stroke="rgb(0,0,0)" d="M 9155,11550 L 9108,11525"/>
       <path fill="none" stroke="rgb(0,0,0)" d="M 9078,11509 L 9032,11483"/>
       <path fill="none" stroke="rgb(0,0,0)" d="M 9001,11467 L 8955,11442"/>
       <path fill="none" stroke="rgb(0,0,0)" d="M 8925,11426 L 8878,11401"/>
       <path fill="none" stroke="rgb(0,0,0)" d="M 8848,11384 L 8801,11359"/>
       <path fill="none" stroke="rgb(0,0,0)" d="M 8771,11343 L 8724,11318"/>
       <path fill="none" stroke="rgb(0,0,0)" d="M 8694,11301 L 8647,11276"/>
       <path fill="none" stroke="rgb(0,0,0)" d="M 8617,11260 L 8570,11235"/>
       <path fill="none" stroke="rgb(0,0,0)" d="M 8540,11219 L 8494,11193"/>
       <path fill="none" stroke="rgb(0,0,0)" d="M 8463,11177 L 8417,11152"/>
       <path fill="none" stroke="rgb(0,0,0)" d="M 8387,11136 L 8340,11110"/>
       <path fill="none" stroke="rgb(0,0,0)" d="M 8310,11094 L 8263,11069"/>
       <path fill="none" stroke="rgb(0,0,0)" d="M 8233,11053 L 8186,11028"/>
       <path fill="none" stroke="rgb(0,0,0)" d="M 8156,11011 L 8109,10986"/>
       <path fill="none" stroke="rgb(0,0,0)" d="M 8079,10970 L 8032,10945"/>
       <path fill="none" stroke="rgb(0,0,0)" d="M 8002,10928 L 7956,10903"/>
       <path fill="none" stroke="rgb(0,0,0)" d="M 7925,10887 L 7879,10862"/>
       <path fill="none" stroke="rgb(0,0,0)" d="M 7849,10846 L 7802,10820"/>
       <path fill="none" stroke="rgb(0,0,0)" d="M 7772,10804 L 7725,10779"/>
       <path fill="none" stroke="rgb(0,0,0)" d="M 7695,10763 L 7648,10738"/>
       <path fill="none" stroke="rgb(0,0,0)" d="M 7618,10721 L 7571,10696"/>
       <path fill="none" stroke="rgb(0,0,0)" d="M 7541,10680 L 7494,10655"/>
       <path fill="none" stroke="rgb(0,0,0)" d="M 7464,10638 L 7418,10613"/>
       <path fill="none" stroke="rgb(0,0,0)" d="M 7387,10597 L 7341,10572"/>
       <path fill="none" stroke="rgb(0,0,0)" d="M 7311,10556 L 7264,10530"/>
       <path fill="none" stroke="rgb(0,0,0)" d="M 7234,10514 L 7187,10489"/>
       <path fill="none" stroke="rgb(0,0,0)" d="M 7157,10473 L 7110,10448"/>
       <path fill="none" stroke="rgb(0,0,0)" d="M 7080,10431 L 7033,10406"/>
       <path fill="none" stroke="rgb(0,0,0)" d="M 7003,10390 L 6956,10365"/>
       <path fill="none" stroke="rgb(0,0,0)" d="M 6926,10348 L 6879,10323"/>
       <path fill="none" stroke="rgb(0,0,0)" d="M 6849,10307 L 6803,10282"/>
       <path fill="none" stroke="rgb(0,0,0)" d="M 6773,10266 L 6726,10240"/>
       <path fill="none" stroke="rgb(0,0,0)" d="M 6696,10224 L 6649,10199"/>
       <path fill="none" stroke="rgb(0,0,0)" d="M 6619,10183 L 6572,10157"/>
       <path fill="none" stroke="rgb(0,0,0)" d="M 6542,10141 L 6495,10116"/>
       <path fill="none" stroke="rgb(0,0,0)" d="M 6465,10100 L 6418,10075"/>
       <path fill="none" stroke="rgb(0,0,0)" d="M 6388,10058 L 6341,10033"/>
       <path fill="none" stroke="rgb(0,0,0)" d="M 6311,10017 L 6265,9992"/>
       <path fill="none" stroke="rgb(0,0,0)" d="M 6234,9976 L 6188,9950"/>
       <path fill="none" stroke="rgb(0,0,0)" d="M 6158,9934 L 6111,9909"/>
       <path fill="rgb(0,0,0)" stroke="none" d="M 5716,9696 L 6041,10042 6183,9777 5716,9696 Z"/>
       <text class="TextShape"><tspan class="TextParagraph" font-family="Arial, sans-serif" font-size="353px" font-weight="400"><tspan class="TextPosition" x="8085" y="11422"><tspan fill="rgb(0,0,0)" stroke="none">tcp</tspan></tspan></tspan></text>
      </g>
     </g>
     <g class="com.sun.star.drawing.CustomShape">
      <g id="id21">
       <path fill="rgb(255,255,204)" stroke="none" d="M 11662,17916 C 11356,17916 11050,17725 11050,17534 11050,17343 11356,17153 11662,17153 L 14248,17153 C 14554,17153 14861,17343 14861,17534 14861,17725 14554,17916 14248,17916 L 11662,17916 Z M 11050,17153 L 11050,17153 Z M 14861,17916 L 14861,17916 Z"/>
       <path fill="none" stroke="rgb(52,101,175)" d="M 11662,17916 C 11356,17916 11050,17725 11050,17534 11050,17343 11356,17153 11662,17153 L 14248,17153 C 14554,17153 14861,17343 14861,17534 14861,17725 14554,17916 14248,17916 L 11662,17916 Z"/>
       <path fill="none" stroke="rgb(52,101,175)" d="M 11050,17153 L 11050,17153 Z"/>
       <path fill="none" stroke="rgb(52,101,175)" d="M 14861,17916 L 14861,17916 Z"/>
       <text class="TextShape"><tspan class="TextParagraph" font-family="Arial, sans-serif" font-size="353px" font-weight="400"><tspan class="TextPosition" x="11264" y="17657"><tspan fill="rgb(0,0,0)" stroke="none">Jetty process finished</tspan></tspan></tspan></text>
      </g>
     </g>
     <g class="com.sun.star.drawing.ConnectorShape">
      <g id="id22">
       <path fill="none" stroke="rgb(0,0,0)" d="M 12955,15756 L 12955,16723"/>
       <path fill="rgb(0,0,0)" stroke="none" d="M 12955,17153 L 13105,16703 12805,16703 12955,17153 Z"/>
      </g>
     </g>
     <g class="com.sun.star.drawing.CustomShape">
      <g id="id23">
       <path fill="rgb(204,255,204)" stroke="none" d="M 1906,17519 L 5717,17519 5717,18691 1906,18691 1906,17519 1906,17519 Z M 1906,17519 L 1906,17519 Z M 5717,18691 L 5717,18691 Z"/>
       <path fill="none" stroke="rgb(52,101,175)" d="M 1906,17519 L 5717,17519 5717,18691 1906,18691 1906,17519 1906,17519 Z"/>
       <path fill="none" stroke="rgb(52,101,175)" d="M 1906,17519 L 1906,17519 Z"/>
       <path fill="none" stroke="rgb(52,101,175)" d="M 5717,18691 L 5717,18691 Z"/>
       <text class="TextShape"><tspan class="TextParagraph" font-family="Arial, sans-serif" font-size="353px" font-weight="400"><tspan class="TextPosition" x="2158" y="18029"><tspan fill="rgb(0,0,0)" stroke="none">wait for Jetty process</tspan></tspan></tspan><tspan class="TextParagraph" font-family="Arial, sans-serif" font-size="353px" font-weight="400"><tspan class="TextPosition" x="3208" y="18427"><tspan fill="rgb(0,0,0)" stroke="none">to finish</tspan></tspan></tspan></text>
      </g>
     </g>
     <g class="com.sun.star.drawing.ConnectorShape">
      <g id="id24">
       <path fill="none" stroke="rgb(0,0,0)" d="M 11050,17534 L 10997,17540"/>
       <path fill="none" stroke="rgb(0,0,0)" d="M 10963,17543 L 10910,17549"/>
       <path fill="none" stroke="rgb(0,0,0)" d="M 10876,17553 L 10824,17558"/>
       <path fill="none" stroke="rgb(0,0,0)" d="M 10790,17562 L 10737,17568"/>
       <path fill="none" stroke="rgb(0,0,0)" d="M 10703,17571 L 10650,17577"/>
       <path fill="none" stroke="rgb(0,0,0)" d="M 10616,17580 L 10563,17586"/>
       <path fill="none" stroke="rgb(0,0,0)" d="M 10529,17590 L 10476,17595"/>
       <path fill="none" stroke="rgb(0,0,0)" d="M 10442,17599 L 10389,17605"/>
       <path fill="none" stroke="rgb(0,0,0)" d="M 10355,17608 L 10303,17614"/>
       <path fill="none" stroke="rgb(0,0,0)" d="M 10269,17618 L 10216,17623"/>
       <path fill="none" stroke="rgb(0,0,0)" d="M 10182,17627 L 10129,17633"/>
       <path fill="none" stroke="rgb(0,0,0)" d="M 10095,17636 L 10042,17642"/>
       <path fill="none" stroke="rgb(0,0,0)" d="M 10008,17646 L 9955,17651"/>
       <path fill="none" stroke="rgb(0,0,0)" d="M 9921,17655 L 9869,17660"/>
       <path fill="none" stroke="rgb(0,0,0)" d="M 9834,17664 L 9782,17670"/>
       <path fill="none" stroke="rgb(0,0,0)" d="M 9748,17673 L 9695,17679"/>
       <path fill="none" stroke="rgb(0,0,0)" d="M 9661,17683 L 9608,17688"/>
       <path fill="none" stroke="rgb(0,0,0)" d="M 9574,17692 L 9521,17698"/>
       <path fill="none" stroke="rgb(0,0,0)" d="M 9487,17701 L 9434,17707"/>
       <path fill="none" stroke="rgb(0,0,0)" d="M 9400,17711 L 9348,17716"/>
       <path fill="none" stroke="rgb(0,0,0)" d="M 9314,17720 L 9261,17726"/>
       <path fill="none" stroke="rgb(0,0,0)" d="M 9227,17729 L 9174,17735"/>
       <path fill="none" stroke="rgb(0,0,0)" d="M 9140,17738 L 9087,17744"/>
       <path fill="none" stroke="rgb(0,0,0)" d="M 9053,17748 L 9000,17753"/>
       <path fill="none" stroke="rgb(0,0,0)" d="M 8966,17757 L 8913,17763"/>
       <path fill="none" stroke="rgb(0,0,0)" d="M 8879,17766 L 8827,17772"/>
       <path fill="none" stroke="rgb(0,0,0)" d="M 8793,17776 L 8740,17781"/>
       <path fill="none" stroke="rgb(0,0,0)" d="M 8706,17785 L 8653,17791"/>
       <path fill="none" stroke="rgb(0,0,0)" d="M 8619,17794 L 8566,17800"/>
       <path fill="none" stroke="rgb(0,0,0)" d="M 8532,17804 L 8479,17809"/>
       <path fill="none" stroke="rgb(0,0,0)" d="M 8445,17813 L 8393,17818"/>
       <path fill="none" stroke="rgb(0,0,0)" d="M 8359,17822 L 8306,17828"/>
       <path fill="none" stroke="rgb(0,0,0)" d="M 8272,17831 L 8219,17837"/>
       <path fill="none" stroke="rgb(0,0,0)" d="M 8185,17841 L 8132,17846"/>
       <path fill="none" stroke="rgb(0,0,0)" d="M 8098,17850 L 8045,17856"/>
       <path fill="none" stroke="rgb(0,0,0)" d="M 8011,17859 L 7958,17865"/>
       <path fill="none" stroke="rgb(0,0,0)" d="M 7924,17869 L 7872,17874"/>
       <path fill="none" stroke="rgb(0,0,0)" d="M 7838,17878 L 7785,17884"/>
       <path fill="none" stroke="rgb(0,0,0)" d="M 7751,17887 L 7698,17893"/>
       <path fill="none" stroke="rgb(0,0,0)" d="M 7664,17896 L 7611,17902"/>
       <path fill="none" stroke="rgb(0,0,0)" d="M 7577,17906 L 7524,17911"/>
       <path fill="none" stroke="rgb(0,0,0)" d="M 7490,17915 L 7438,17921"/>
       <path fill="none" stroke="rgb(0,0,0)" d="M 7403,17924 L 7351,17930"/>
       <path fill="none" stroke="rgb(0,0,0)" d="M 7317,17934 L 7264,17939"/>
       <path fill="none" stroke="rgb(0,0,0)" d="M 7230,17943 L 7177,17949"/>
       <path fill="none" stroke="rgb(0,0,0)" d="M 7143,17952 L 7090,17958"/>
       <path fill="none" stroke="rgb(0,0,0)" d="M 7056,17962 L 7003,17967"/>
       <path fill="none" stroke="rgb(0,0,0)" d="M 6969,17971 L 6917,17976"/>
       <path fill="none" stroke="rgb(0,0,0)" d="M 6883,17980 L 6830,17986"/>
       <path fill="none" stroke="rgb(0,0,0)" d="M 6796,17989 L 6743,17995"/>
       <path fill="none" stroke="rgb(0,0,0)" d="M 6709,17999 L 6656,18004"/>
       <path fill="none" stroke="rgb(0,0,0)" d="M 6622,18008 L 6569,18014"/>
       <path fill="none" stroke="rgb(0,0,0)" d="M 6535,18017 L 6482,18023"/>
       <path fill="none" stroke="rgb(0,0,0)" d="M 6448,18027 L 6396,18032"/>
       <path fill="none" stroke="rgb(0,0,0)" d="M 6362,18036 L 6309,18042"/>
       <path fill="none" stroke="rgb(0,0,0)" d="M 6275,18045 L 6222,18051"/>
       <path fill="none" stroke="rgb(0,0,0)" d="M 6188,18054 L 6144,18059"/>
       <path fill="rgb(0,0,0)" stroke="none" d="M 5716,18105 L 6179,18206 6147,17908 5716,18105 Z"/>
       <text class="TextShape"><tspan class="TextParagraph" font-family="Arial, sans-serif" font-size="353px" font-weight="400"><tspan class="TextPosition" x="7473" y="18341"><tspan fill="rgb(0,0,0)" stroke="none">thread sync</tspan></tspan></tspan></text>
      </g>
     </g>
     <g class="com.sun.star.drawing.ConnectorShape">
      <g id="id25">
       <path fill="none" stroke="rgb(0,0,0)" d="M 3811,18691 L 3811,20114"/>
       <path fill="rgb(0,0,0)" stroke="none" d="M 3811,20544 L 3961,20094 3661,20094 3811,20544 Z"/>
      </g>
     </g>
     <g class="com.sun.star.drawing.CustomShape">
      <g id="id26">
       <path fill="rgb(255,255,204)" stroke="none" d="M 10796,9786 L 15123,9786 15123,10675 10796,10675 10796,9786 10796,9786 Z M 10796,9786 L 10796,9786 Z M 15123,10676 L 15123,10676 Z"/>
       <path fill="none" stroke="rgb(52,101,175)" d="M 10796,9786 L 15123,9786 15123,10675 10796,10675 10796,9786 10796,9786 Z"/>
       <path fill="none" stroke="rgb(52,101,175)" d="M 10796,9786 L 10796,9786 Z"/>
       <path fill="none" stroke="rgb(52,101,175)" d="M 15123,10676 L 15123,10676 Z"/>
       <text class="TextShape"><tspan class="TextParagraph" font-family="Arial, sans-serif" font-size="353px" font-weight="400"><tspan class="TextPosition" x="11020" y="10155"><tspan fill="rgb(0,0,0)" stroke="none">listen for HTTP requests </tspan></tspan><tspan class="TextPosition" x="12373" y="10553"><tspan fill="rgb(0,0,0)" stroke="none">on </tspan><tspan font-weight="700" fill="rgb(0,0,0)" stroke="none">port</tspan></tspan></tspan></text>
      </g>
     </g>
     <g class="com.sun.star.drawing.ConnectorShape">
      <g id="id27">
       <path fill="none" stroke="rgb(0,0,0)" d="M 12959,10676 L 12956,11488"/>
       <path fill="rgb(0,0,0)" stroke="none" d="M 12955,11918 L 13106,11468 12806,11468 12955,11918 Z"/>
      </g>
     </g>
     <g class="com.sun.star.drawing.ConnectorShape">
      <g id="id28">
       <path fill="none" stroke="rgb(0,0,0)" d="M 3747,10281 L 3807,17090"/>
       <path fill="rgb(0,0,0)" stroke="none" d="M 3811,17520 L 3957,17069 3657,17071 3811,17520 Z"/>
       <text class="TextShape"><tspan class="TextParagraph" font-family="Arial, sans-serif" font-size="353px" font-weight="400"><tspan class="TextPosition" x="2464" y="14024"><tspan fill="rgb(0,0,0)" stroke="none">                           </tspan></tspan></tspan></text>
      </g>
     </g>
     <g class="com.sun.star.drawing.CustomShape">
      <g id="id29">
       <path fill="rgb(153,204,255)" stroke="none" d="M 12320,19147 L 16131,19147 16131,20671 12320,20671 12320,19147 12320,19147 Z M 12320,19147 L 12320,19147 Z M 16131,20672 L 16131,20672 Z"/>
       <path fill="none" stroke="rgb(52,101,175)" d="M 12320,19147 L 16131,19147 16131,20671 12320,20671 12320,19147 12320,19147 Z"/>
       <path fill="none" stroke="rgb(52,101,175)" d="M 12320,19147 L 12320,19147 Z"/>
       <path fill="none" stroke="rgb(52,101,175)" d="M 16131,20672 L 16131,20672 Z"/>
       <text class="TextShape"><tspan class="TextParagraph" font-family="Arial, sans-serif" font-size="353px" font-weight="400"><tspan class="TextPosition" x="12959" y="19634"><tspan fill="rgb(0,0,0)" stroke="none">gradle jettyStop,</tspan></tspan></tspan><tspan class="TextParagraph" font-family="Arial, sans-serif" font-size="353px" font-weight="400"><tspan class="TextPosition" x="12750" y="20032"><tspan fill="rgb(0,0,0)" stroke="none">sends “stop” signal</tspan></tspan></tspan><tspan class="TextParagraph" font-family="Arial, sans-serif" font-size="353px" font-weight="400"><tspan class="TextPosition" x="13076" y="20430"><tspan fill="rgb(0,0,0)" stroke="none">to </tspan><tspan font-weight="700" fill="rgb(0,0,0)" stroke="none">servicePort</tspan></tspan></tspan></text>
      </g>
     </g>
     <g class="com.sun.star.drawing.ConnectorShape">
      <g id="id30">
       <path fill="none" stroke="rgb(0,0,0)" d="M 16130,19909 C 16147,19909 16163,19907 16179,19903"/>
       <path fill="none" stroke="rgb(0,0,0)" d="M 16210,19893 C 16226,19887 16241,19879 16257,19869"/>
       <path fill="none" stroke="rgb(0,0,0)" d="M 16286,19847 C 16301,19835 16316,19821 16330,19805"/>
       <path fill="none" stroke="rgb(0,0,0)" d="M 16353,19780 C 16362,19768 16371,19756 16380,19743"/>
       <path fill="none" stroke="rgb(0,0,0)" d="M 16398,19718 C 16407,19704 16416,19689 16425,19674"/>
       <path fill="none" stroke="rgb(0,0,0)" d="M 16441,19645 C 16450,19629 16459,19612 16467,19595"/>
       <path fill="none" stroke="rgb(0,0,0)" d="M 16483,19561 C 16491,19544 16499,19525 16507,19506"/>
       <path fill="none" stroke="rgb(0,0,0)" d="M 16521,19470 C 16527,19456 16532,19441 16538,19426"/>
       <path fill="none" stroke="rgb(0,0,0)" d="M 16548,19396 C 16554,19381 16559,19365 16564,19349"/>
       <path fill="none" stroke="rgb(0,0,0)" d="M 16574,19317 C 16579,19301 16584,19284 16589,19267"/>
       <path fill="none" stroke="rgb(0,0,0)" d="M 16599,19234 C 16603,19217 16608,19199 16613,19181"/>
       <path fill="none" stroke="rgb(0,0,0)" d="M 16622,19147 C 16626,19129 16631,19110 16635,19092"/>
       <path fill="none" stroke="rgb(0,0,0)" d="M 16643,19056 C 16647,19037 16651,19018 16655,18999"/>
       <path fill="none" stroke="rgb(0,0,0)" d="M 16662,18967 C 16665,18951 16668,18935 16671,18918"/>
       <path fill="none" stroke="rgb(0,0,0)" d="M 16677,18886 C 16680,18869 16683,18852 16686,18835"/>
       <path fill="none" stroke="rgb(0,0,0)" d="M 16692,18802 C 16695,18785 16697,18768 16700,18750"/>
       <path fill="none" stroke="rgb(0,0,0)" d="M 16705,18717 C 16708,18699 16710,18681 16713,18663"/>
       <path fill="none" stroke="rgb(0,0,0)" d="M 16717,18629 C 16720,18611 16722,18593 16724,18575"/>
       <path fill="none" stroke="rgb(0,0,0)" d="M 16728,18539 C 16730,18521 16732,18503 16734,18484"/>
       <path fill="none" stroke="rgb(0,0,0)" d="M 16738,18448 C 16740,18431 16741,18413 16743,18394"/>
       <path fill="none" stroke="rgb(0,0,0)" d="M 16746,18361 C 16747,18344 16749,18327 16750,18310"/>
       <path fill="none" stroke="rgb(0,0,0)" d="M 16753,18276 C 16754,18259 16755,18241 16756,18224"/>
       <path fill="none" stroke="rgb(0,0,0)" d="M 16758,18190 C 16759,18173 16760,18155 16761,18137"/>
       <path fill="none" stroke="rgb(0,0,0)" d="M 16763,18103 C 16763,18085 16764,18068 16765,18050"/>
       <path fill="none" stroke="rgb(0,0,0)" d="M 16766,18015 C 16767,17997 16767,17980 16768,17962"/>
       <path fill="none" stroke="rgb(0,0,0)" d="M 16768,17927 C 16769,17909 16769,17891 16769,17873"/>
       <path fill="none" stroke="rgb(0,0,0)" d="M 16769,17838 C 16770,17820 16770,17802 16770,17783"/>
       <path fill="none" stroke="rgb(0,0,0)" d="M 16769,17749 C 16769,17731 16769,17714 16769,17696"/>
       <path fill="none" stroke="rgb(0,0,0)" d="M 16768,17662 C 16768,17644 16767,17626 16767,17609"/>
       <path fill="none" stroke="rgb(0,0,0)" d="M 16766,17574 C 16765,17557 16765,17539 16764,17521"/>
       <path fill="none" stroke="rgb(0,0,0)" d="M 16762,17487 C 16762,17469 16761,17452 16760,17434"/>
       <path fill="none" stroke="rgb(0,0,0)" d="M 16758,17400 C 16757,17382 16756,17364 16754,17346"/>
       <path fill="none" stroke="rgb(0,0,0)" d="M 16752,17312 C 16751,17295 16749,17277 16748,17259"/>
       <path fill="none" stroke="rgb(0,0,0)" d="M 16745,17225 C 16743,17207 16742,17190 16740,17172"/>
       <path fill="none" stroke="rgb(0,0,0)" d="M 16737,17138 C 16735,17121 16733,17103 16731,17085"/>
       <path fill="none" stroke="rgb(0,0,0)" d="M 16727,17051 C 16725,17033 16723,17015 16721,16997"/>
       <path fill="none" stroke="rgb(0,0,0)" d="M 16716,16962 C 16714,16944 16711,16927 16709,16909"/>
       <path fill="none" stroke="rgb(0,0,0)" d="M 16704,16875 C 16701,16857 16698,16839 16695,16822"/>
       <path fill="none" stroke="rgb(0,0,0)" d="M 16690,16788 C 16687,16770 16684,16753 16681,16735"/>
       <path fill="none" stroke="rgb(0,0,0)" d="M 16675,16702 C 16671,16684 16668,16667 16665,16650"/>
       <path fill="none" stroke="rgb(0,0,0)" d="M 16658,16617 C 16655,16599 16651,16582 16647,16565"/>
       <path fill="none" stroke="rgb(0,0,0)" d="M 16640,16533 C 16636,16516 16632,16499 16628,16482"/>
       <path fill="none" stroke="rgb(0,0,0)" d="M 16621,16449 C 16616,16431 16612,16413 16607,16396"/>
       <path fill="none" stroke="rgb(0,0,0)" d="M 16598,16361 C 16593,16344 16588,16326 16583,16308"/>
       <path fill="none" stroke="rgb(0,0,0)" d="M 16573,16275 C 16568,16257 16563,16240 16558,16223"/>
       <path fill="none" stroke="rgb(0,0,0)" d="M 16547,16190 C 16542,16173 16536,16156 16530,16139"/>
       <path fill="none" stroke="rgb(0,0,0)" d="M 16519,16107 C 16513,16091 16507,16074 16501,16058"/>
       <path fill="none" stroke="rgb(0,0,0)" d="M 16489,16026 C 16483,16010 16477,15994 16470,15978"/>
       <path fill="none" stroke="rgb(0,0,0)" d="M 16458,15948 C 16451,15932 16444,15917 16438,15901"/>
       <path fill="none" stroke="rgb(0,0,0)" d="M 16424,15870 C 16416,15853 16408,15836 16399,15819"/>
       <path fill="none" stroke="rgb(0,0,0)" d="M 16383,15787 C 16375,15771 16367,15755 16358,15738"/>
       <path fill="none" stroke="rgb(0,0,0)" d="M 16341,15708 C 16332,15692 16323,15676 16314,15661"/>
       <path fill="none" stroke="rgb(0,0,0)" d="M 16296,15632 C 16286,15617 16277,15602 16267,15587"/>
       <path fill="none" stroke="rgb(0,0,0)" d="M 16248,15560 C 16238,15545 16228,15531 16218,15518"/>
       <path fill="none" stroke="rgb(0,0,0)" d="M 16198,15491 C 16188,15478 16177,15465 16166,15452"/>
       <path fill="none" stroke="rgb(0,0,0)" d="M 16145,15427 C 16133,15413 16120,15399 16108,15386"/>
       <path fill="none" stroke="rgb(0,0,0)" d="M 16083,15361 C 16070,15348 16057,15335 16044,15323"/>
       <path fill="none" stroke="rgb(0,0,0)" d="M 16018,15300 C 16004,15289 15990,15277 15976,15266"/>
       <path fill="none" stroke="rgb(0,0,0)" d="M 15949,15246 C 15935,15235 15920,15225 15906,15216"/>
       <path fill="none" stroke="rgb(0,0,0)" d="M 15877,15198 C 15862,15189 15847,15180 15831,15172"/>
       <path fill="none" stroke="rgb(0,0,0)" d="M 15801,15156 C 15791,15151 15780,15146 15769,15141"/>
       <path fill="rgb(0,0,0)" stroke="none" d="M 15368,15058 L 15776,15300 15840,15007 15368,15058 Z"/>
       <text class="TextShape"><tspan class="TextParagraph" font-family="Arial, sans-serif" font-size="353px" font-weight="400"><tspan class="TextPosition" x="15822" y="17607"><tspan fill="rgb(0,0,0)" stroke="none">tcp</tspan></tspan></tspan></text>
      </g>
     </g>
    </g>
   </g>
  </g>
 </g>
</svg>